<?xml version="1.0" encoding="utf-8"?>
<!-- Generator: Adobe Illustrator 22.1.0, SVG Export Plug-In . SVG Version: 6.00 Build 0)  -->
<svg version="1.0" id="Layer_1" xmlns="http://www.w3.org/2000/svg" xmlns:xlink="http://www.w3.org/1999/xlink" x="0px" y="0px"
	 viewBox="0 0 200 100" style="enable-background:new 0 0 200 100;" xml:space="preserve">
<g>
	<title>abbyy</title>
	<desc>Created with Sketch.</desc>
	<g id="abbyy">
		<g id="Logo-_x2F_-abbyy" transform="translate(32.000000, 5.000000)">
			<g id="Group" transform="translate(12.800000, 15.428571)">
				<path id="Shape" d="M24.3,28.9c3.5,0,4.2,1.8,4.2,6.1c0,6.1-2.7,6.1-4.4,6.1h-2.5V28.9H24.3z M24.6,9.9c2.5,0,3.5,2.3,3.5,5.4
					c0,4-1.3,5.4-3,5.4h-3.4V9.9H24.6z M10.6,1.7v47.6h15.4c10.6,0,12.9-7,12.9-12.8c0-5-0.8-10.2-6.4-11.9C36.1,23,39,19.4,39,14.3
					C38.9,3,31.1,1.7,25.9,1.7H10.6z"/>
				<path id="Shape_1_" d="M55.7,28.9c3.5,0,4.2,1.8,4.2,6.1c0,6.1-2.7,6.1-4.4,6.1H53V28.9H55.7z M55.9,9.9c2.5,0,3.5,2.3,3.5,5.4
					c0,4-1.3,5.4-3,5.4H53V9.9H55.9z M41.8,1.7v47.6h15.4c10.6,0,12.9-7,12.9-12.8c0-5-0.8-10.2-6.4-11.9c3.6-1.5,6.5-5.2,6.5-10.3
					c0-11.3-7.7-12.6-13-12.6L41.8,1.7z"/>
				<path id="Shape_2_" d="M90.1,1.7c0,0-4.2,16.2-5.1,19.1c-0.9-2.9-4.7-19.1-4.7-19.1H69.9c0,0,9.4,30.9,9.4,31.1v16.5h11.1V32.7
					c0.1-0.1,9.4-31,9.4-31H90.1L90.1,1.7z"/>
				<path id="Shape_3_" d="M121.3,1.7c0,0-4.2,16.2-5.1,19.1c-0.9-2.9-4.7-19.1-4.7-19.1h-10.4c0,0,9.4,30.9,9.4,31.1v16.5h11.1
					V32.7c0.1-0.2,9.4-31.1,9.4-31.1L121.3,1.7L121.3,1.7z"/>
				<path id="Shape_4_" d="M-10.4,30.9l2.9-14.3l2.9,14.3H-10.4z M-0.9,49.3h9.4L-1,1.7h-12.9l-9.6,47.6h9.4l2.1-10.2h9.1L-0.9,49.3
					z"/>
				<path id="Shape_5_" d="M136.4,1.6c2,0,3.5,1.6,3.5,3.5c0,2-1.5,3.5-3.5,3.5s-3.5-1.5-3.5-3.5C132.9,3.1,134.4,1.6,136.4,1.6z
					 M136.4,8.1c1.6,0,2.9-1.4,2.9-3s-1.3-3-2.9-3c-1.6,0-2.9,1.4-2.9,3C133.6,6.8,134.8,8.1,136.4,8.1z M135.2,3.3h1.5
					c0.4,0,1.2,0.1,1.2,1c0,0.3-0.1,0.6-0.6,0.8l0,0c0.5,0.1,0.5,0.5,0.5,0.8c0,0.5,0,0.6,0.2,0.8h-0.7c-0.1-0.2-0.1-0.2-0.1-0.8
					c0-0.4,0-0.6-0.8-0.6h-0.5v1.5h-0.6V3.3z M135.8,4.9h0.7c0.5,0,0.6-0.3,0.6-0.5c0-0.5-0.3-0.5-0.7-0.5h-0.7L135.8,4.9z"/>
			</g>
		</g>
	</g>
</g>
</svg>
