<?xml version="1.0" encoding="utf-8"?>
<!-- Generator: Adobe Illustrator 22.1.0, SVG Export Plug-In . SVG Version: 6.00 Build 0)  -->
<svg version="1.0" id="Layer_1" xmlns="http://www.w3.org/2000/svg" xmlns:xlink="http://www.w3.org/1999/xlink" x="0px" y="0px"
	 viewBox="0 0 300 150" style="enable-background:new 0 0 300 150;" xml:space="preserve">
<g>
	<path d="M142.6,50.2l-9.4,47.9H144l9.4-47.9H142.6z M26.5,50.2L17,98.1h10.7l9.5-47.9H26.5z M100.1,98.1h9.7l28.4-47.9h-10.6
		l-19.8,33.3l-6.2-33.3H91.1L100.1,98.1z M170.6,98.1l7.5-37.9h12.1l1.9-10h-35.2l-1.9,10h12.3l-7.5,37.9H170.6z M47.3,98.1
		l6.1-31.7l15.9,31.7h9.1l9.1-47.9h-10l-6.1,31.7L55.5,50.2h-9l-9.3,47.9H47.3z M217.2,50.2h-19.3l-9.2,47.9h10.5l7.3-37.9h9.1
		c2.2,0,3.8,0.7,5,1.9c1,1,1.5,2.6,1.3,4.1c-0.5,4.8-4.2,7.1-8.8,7.1h-7.8l9.8,24.8h10.5l-6.5-16.4c8-1.4,13-7.4,13.3-15.5
		C233,56.7,226.3,50.2,217.2,50.2"/>
	<path d="M234.2,75c0.8-13.7,11.6-24.8,25.8-24.8c14.2,0,23.8,11.1,22.9,24.8s-11.6,24.8-25.8,24.8C243,99.8,233.4,88.9,234.2,75
		 M273.2,75c0.5-8.2-5.2-15.1-13.7-15.1c-8.6,0-14.8,6.8-15.3,15.1c-0.5,8.2,5.2,15.1,13.7,15.1C266.3,90.1,272.7,83.3,273.2,75"/>
</g>
</svg>
