<?xml version="1.0" encoding="utf-8"?>
<!-- Generator: Adobe Illustrator 22.1.0, SVG Export Plug-In . SVG Version: 6.00 Build 0)  -->
<svg version="1.0" id="Layer_1" xmlns="http://www.w3.org/2000/svg" xmlns:xlink="http://www.w3.org/1999/xlink" x="0px" y="0px"
	 viewBox="0 0 300 150" style="enable-background:new 0 0 300 150;" xml:space="preserve">
<g>
	<path d="M125.8,103.3v2.6H105v-2.6c0.7-0.1,1.4-0.3,2.2-0.5c1.1-0.3,1.9-0.9,2-2.1c0.1-0.6,0.2-1.3,0.2-2c0-6.3,0-12.6,0-18.9
		c0-0.6-0.1-1.1-0.2-1.7c-0.8-4.7-4.2-6.8-8.7-5.2c-0.3,0.1-0.6,0.2-0.8,0.3c-2.1,0.8-3.1,2.1-3,4.6c0.2,6.4,0.1,12.9,0.1,19.3v0.8
		c0,3.9,0.3,4.3,4,5.4v2.6H79.1v-2.6c1.1-0.2,2.2-0.4,3.3-0.6c1.3-0.3,2.1-1.1,2.2-2.4c0.1-0.8,0.2-1.6,0.2-2.4c0-7.2,0-14.4,0-21.7
		c0-0.5,0-1.1-0.1-1.6c-0.2-1.9-0.8-2.6-2.6-3.1c-1.9-0.6-1.9-0.6-1.7-2.6l16.2-3.3v6.2c1.4-1,2.6-1.8,3.9-2.6
		c2.5-1.6,4.9-3.1,7.9-3.6c4.8-0.7,9,1.4,11.4,5.7c0.1,0.3,0.3,0.5,0.5,0.9c2.1-1.4,4.1-2.7,6.2-4c2.8-1.7,5.7-3,9.1-2.6
		c5.7,0.7,9.1,4,9.9,9.7c0.2,1.3,0.3,2.7,0.3,4.1c0,6.1,0,12.2,0,18.2c0,0.4,0,0.9,0,1.3c0.2,3,0.7,3.6,3.7,4.1
		c1.4,0.2,1.5,0.3,1.2,2.9h-21.1v-2.6c0.2-0.1,0.3-0.1,0.5-0.1c3.4-0.4,3.7-1.3,3.8-4.7c0.1-6.2,0-12.3,0-18.5
		c0-0.8-0.1-1.7-0.3-2.5c-0.9-4-3.8-5.8-7.9-4.8c-0.5,0.1-0.9,0.3-1.4,0.5c-2.8,1.2-3.1,1.7-3,4.7c0,6.3,0,12.6,0,18.9
		c0,1,0,2,0.1,3c0.1,2,0.9,2.8,2.9,3.2L125.8,103.3L125.8,103.3z M222.7,65.9v-3.8c0-2.5,0-5,0-7.5c-0.1-2.6-0.7-3.3-3.2-3.8
		c-0.8-0.1-1.6-0.3-2.5-0.4V48l17.6-3.1v51.5c0,3.8,0.4,4.2,4.2,4.7c0.5,0.1,1,0.2,1.6,0.2c0,0.5,0,0.9,0.1,1.3c0,0.4,0,0.9,0,1.3
		l-17.7,3.3v-4.4c-1.6,1-3,1.7-4.3,2.7c-3,2.2-6.2,2.3-9.6,1.5c-8-2.1-13.5-9.1-14-17.4c-0.7-11.8,7.9-21.2,19.1-23.2
		C216.8,66,219.6,66.1,222.7,65.9L222.7,65.9z M222.7,87V75.4c0-3.7-4-6.6-7.5-5.4c-2.6,0.9-4.3,2.9-5.3,5.3
		c-2,4.7-2.2,9.6-1.4,14.6c0.4,2.9,1.7,5.6,3.6,7.8c2.6,2.9,6.4,3.9,9.6,2.6c0.8-0.3,1.1-0.8,1.1-1.7
		C222.6,94.8,222.7,90.9,222.7,87z M171.4,106.7c-12.3,0.4-21-7.5-21.4-19c-0.5-13.3,8.8-21.6,20.3-22.2
		c12.2-0.6,20.6,7.9,21.2,18.4C192.3,98.1,183.1,106.5,171.4,106.7z M178.7,88.3c-0.4-3.4-0.5-6.4-1-9.3c-0.5-3.1-1.4-6.1-3.8-8.4
		c-2.5-2.4-5.7-2.1-7.7,0.6c-0.8,1.1-1.4,2.3-1.8,3.6c-2,7.6-1.7,15.6,1.1,23c0.7,1.8,1.7,3.4,3.3,4.6c2.5,1.7,5.6,1.2,7.2-1.4
		c0.7-1,1.2-2.1,1.4-3.3C177.9,94.4,178.3,91.2,178.7,88.3C178.7,88.3,178.7,88.3,178.7,88.3z M281.4,99.3c0.3,0.6,0.5,1.3,0.6,2
		c0,0.4-0.2,0.8-0.5,1.1c-3,1.5-6,3-9.1,4.2c-1,0.4-2.4,0.1-3.5-0.3c-2.1-0.6-3.6-2.2-4.6-4.1c-1.8,1.1-3.6,2.1-5.4,3.2
		c-5.9,3.8-14.6-0.6-16.3-6.8c-1.3-4.8,0.3-8.8,4.9-10.8c3.4-1.5,7.1-2.5,10.6-3.9c1.7-0.6,3.3-1.4,4.9-2.2c0.3-0.2,0.8-0.6,0.7-0.9
		c-0.1-2.3-0.1-4.7-0.6-7c-0.7-2.9-3.2-4.5-5.7-3.7c-1.2,0.4-2.2,1.2-2.9,2.2c-0.9,1.4-1.4,3.1-1.9,4.7c-0.8,2.8-2.3,3.8-5.2,3
		c-1.3-0.4-2.4-1-3.4-1.8c-1.6-1.2-1.6-3-0.3-4.5c0.4-0.5,0.9-0.9,1.4-1.2c4.9-3.2,10.1-5.8,15.9-6.8c7-1.2,14,4.2,14.2,11.3
		c0.2,5.7,0.1,11.4,0.1,17.1c0,1,0.1,1.9,0.3,2.9c0.4,2.1,1.7,3,3.9,2.6C280.1,99.5,280.7,99.4,281.4,99.3L281.4,99.3z M263.7,84.7
		c-2.3,1.3-4.4,2.4-6.4,3.6c-4.1,2.4-3.3,8.3-0.1,10.6c1.5,1.1,3.2,1.5,5,0.8c1.1-0.4,1.7-0.9,1.6-2.3c-0.1-2.1,0-4.2,0-6.3
		L263.7,84.7z M62.3,91.9c-3.2,3.3-6.3,6.9-9.7,10.1c-1.8,1.7-3.9,3.2-6.1,4.4c-4.1,2.2-6.8,0.9-8.1-3.6c-1.1-3.7-0.9-7.4-0.2-11.1
		c2.3-11.8,8.6-20.2,20-24.3c4-1.4,8-1.4,12-0.5c0.6,0.1,1.2,0.3,1.8,0.4c1.8,0.3,1.7,0.3,1.3,2.1c-2,9.6-4,19.2-5.9,28.9
		c-0.1,0.7,0.1,1.5,0.2,2.3c0.7-0.3,1.4-0.4,2-0.8c1.5-1.1,3-2.3,4.5-3.5c1.3,1.9,1.3,1.9-0.2,3.6c-2.6,2.9-5.5,5.4-9,7
		c-3.4,1.6-4.9,0.7-4.6-3c0.3-3.4,1.1-6.7,1.7-10.1C62,93,62.2,92.3,62.3,91.9z M66.6,71.5c-2.5-1.1-5.2-1.5-7.9-1.1
		c-3.7,0.5-6.1,2.9-8.1,5.9C47,81.8,45.3,88,45.1,94.6c-0.1,1.8,0.1,3.6,0.6,5.3c0.5,1.9,1.6,2.2,3.2,1.3c0.8-0.4,1.6-1,2.3-1.6
		c4.6-3.9,8.5-8.5,11.6-13.6c0.7-1.2,1.2-2.6,1.5-4C65.1,78.6,65.8,75,66.6,71.5C66.6,71.5,66.6,71.5,66.6,71.5z M32.3,95.4
		c0.2,0.4,0.6,0.7,0.8,1.1c0.1,0.4,0.1,1-0.1,1.3c-2.9,3.3-6.1,6.2-10,8c-3.5,1.7-5.2,0.7-4.9-3.2c0.3-3.9,1-7.8,1.8-11.6
		c2.7-13.3,5.5-26.7,8.2-40c0.5-2.4-0.1-3.1-2.4-3.3c-1.2-0.1-2.4-0.1-3.6-0.2c-0.2-2-0.1-2,1.7-2.4c3.3-0.7,6.5-1.6,9.7-2.5
		c2.3-0.6,2.7-0.4,2.2,2c-2,9.9-4.1,19.7-6.1,29.6C28,82.2,26.4,90,24.8,97.8c-0.1,0.7,0.1,1.5,0.2,2.2c0.7-0.2,1.4-0.3,2-0.7
		C28.8,98.1,30.5,96.8,32.3,95.4z"/>
</g>
</svg>
