<?xml version="1.0" encoding="utf-8"?>
<!-- Generator: Adobe Illustrator 22.1.0, SVG Export Plug-In . SVG Version: 6.00 Build 0)  -->
<svg version="1.0" id="Layer_1" xmlns="http://www.w3.org/2000/svg" xmlns:xlink="http://www.w3.org/1999/xlink" x="0px" y="0px"
	 viewBox="0 0 300 150" style="enable-background:new 0 0 300 150;" xml:space="preserve">
<g>
	<path d="M150,17.2C88.4,17.2,38.5,43.1,38.5,75s49.9,57.8,111.5,57.8S261.5,106.9,261.5,75S211.6,17.2,150,17.2z M258.6,75
		c0,30.2-48.6,54.7-108.6,54.7c-60,0-108.6-24.5-108.6-54.7S90,20.3,150,20.3C210,20.3,258.6,44.8,258.6,75z"/>
	<path d="M218.1,49.8h-18.6l-2.3,7.1h12l-13.7,5.2l-0.9,2.9l21.1-7.6L218.1,49.8z M68.4,95.5H87l2.3-7.1H77.2l13.7-5.2l0.9-2.9
		l-21.1,7.6L68.4,95.5z M121.6,87.2c3.5-12.3-8.3-11.9-8.3-11.9h-12.1c0.9,1.1,0.2,3.3,0.2,3.3s-7.5,23.5-8.1,25.3
		c-0.6,1.8-1.7,3.1-1.7,3.1h9.5c-0.3,0-0.3-1-0.3-1l3.4-9.9c0,0,4.3,9.2,4.6,9.8c0.3,0.6,0.1,1.2,0.1,1.2h10.2c-1,0-2-2-2-2l-5.1-10
		C119.4,95,121.6,87.2,121.6,87.2L121.6,87.2z M113.3,86.1c-1.3,3.1-4.9,2.8-4.9,2.8h-1.9l2-6.4c0,0,1.1,0,2,0
		C114.9,82.6,113.3,86.1,113.3,86.1L113.3,86.1z M139.3,75.3c-9.3,0-15.4,7.7-17,17.4c-1.4,8.8,3.1,15.9,10.7,15.9
		c10.5,0,16.8-11.3,16.8-19.4C149.9,80.6,146.7,75.3,139.3,75.3z M140.7,92.9c-1.5,6.6-4.4,8.7-7,8.1c-3.6-0.7-3-6.8-2.4-9.6
		c1.3-6.1,4.4-9.1,6.7-8.8C138.8,82.8,143,82.9,140.7,92.9z M152.5,75.3c0,0,0.7,0.4,0.7,2.5v27.4c0,0-0.1,1.5-0.6,1.8h7.8
		c0,0,0-0.6,0.8-1.7c0.8-1.1,17-24.9,17-24.9s3.7-5,4.7-5h-11.2c0,0,0.9,0.6,0.2,1.8c-0.7,1.2-10.6,17.5-10.6,17.5l0.1-16.5
		c0,0,0-2.6,1-2.9H152.5z M200.5,82.8l2.5-7.5h-19c0,0,0.7,0.6-0.2,3.3c-0.9,2.7-8.6,25.4-8.6,25.4s-1.4,3-1.7,3h19.6l2.3-7.6
		c0,0-0.3,0.4-2.1,0.4H185l1.7-5.1h6.4c0,0,1.4-0.1,1.7,0.3l2.6-8.1c0,0-0.2,0.7-1.9,0.7h-6.2l1.9-5.7h7.8
		C199,82,200.1,81.8,200.5,82.8z M101.1,61.7h-7.6c0,0,7-20.5,7.6-22c0.7-2,1.2-2.4,1.5-2.5c0,0,0.1,0,0.1,0H92.2
		c1.3,0.7,0.1,3.3,0.1,3.3s-8.4,25.6-9,26.9c-0.6,1.3-1,1.4-1,1.4h18.1l2.5-7.6C102.8,61.9,101.1,61.7,101.1,61.7z M131.5,68.7h8.6
		c0,0-0.6-1-0.2-2c0.5-1.4,5-15,5-15l2,17h7.7l10.2-30.1c0,0,0.4-1.4,1-1.4l-8.2,0c0,0,0.2,1-0.1,1.8c-0.3,0.8-5,14.5-5,14.5
		l-1.8-16.3h-8.8c0,0,0.4,0.8,0.2,1.7c-0.2,0.7-9.4,28.1-9.4,28.1S132,68.7,131.5,68.7L131.5,68.7z M181.5,37.1h-9.7
		c0,0,0.7,1.3-0.2,4.2s-8.4,24.9-8.4,24.9s-0.6,2.1-1.4,2.5h11.7c0,0,14.2,0.6,18.5-15.7C192,53,197.6,37,181.5,37.1L181.5,37.1z
		 M182.5,54.4c-2.5,6.6-6.1,7.1-8.1,7.1h-1.3l5.7-17.6h2.2C181,43.9,186.6,43.6,182.5,54.4L182.5,54.4z M130.4,68.8
		c0,0-0.7-0.4-0.8-1.7l-1.2-27.8c0,0-0.1-1.8,0.7-2.1h-9.3c0,0,0.6,0.9-0.6,2.9c-5.7,9.2-11.4,18.5-17.1,27.7c0,0-0.3,0.6-1.1,1h9.4
		c0,0,0-0.8,0.2-1.3c0.4-0.9,1.6-3.2,1.6-3.2h9.4l0,2.8c0,0,0.1,1-0.6,1.7L130.4,68.8L130.4,68.8L130.4,68.8z M116.3,57.1l5.2-9.3
		l0.1,9.3H116.3z M226.8,87.2c3.5-12.3-8.3-11.9-8.3-11.9h-12.1c0.9,1.1,0.2,3.3,0.2,3.3s-7.5,23.5-8.1,25.3
		c-0.6,1.8-1.7,3.1-1.7,3.1h9.5c-0.3,0-0.3-1-0.3-1l3.4-9.9c0,0,4.3,9.2,4.5,9.8c0.3,0.6,0.1,1.2,0.1,1.2h10.2c-1,0-2-2-2-2l-5.1-10
		C224.5,95,226.8,87.2,226.8,87.2L226.8,87.2z M218.5,86.1c-1.3,3.1-4.9,2.8-4.9,2.8h-1.9l2-6.4c0,0,1.1,0,2,0
		C220.1,82.6,218.5,86.1,218.5,86.1L218.5,86.1z"/>
</g>
</svg>
