<?xml version="1.0" encoding="utf-8"?>
<!-- Generator: Adobe Illustrator 22.1.0, SVG Export Plug-In . SVG Version: 6.00 Build 0)  -->
<svg version="1.0" id="Layer_1" xmlns="http://www.w3.org/2000/svg" xmlns:xlink="http://www.w3.org/1999/xlink" x="0px" y="0px"
	 viewBox="0 0 300 150" style="enable-background:new 0 0 300 150;" xml:space="preserve">
<g>
	<path d="M75.8,131.2h147.5l-73.4-73.3L75.8,131.2z M73,127.6l11.5-11.2l-3.8-3.9l-7.2,7l-12.7-13l-4.3,4.2L73,127.6z M87,113.8
		l11.8-11.5L95.5,99l-7.5,7.3l-3.6-3.7l6-5.8l-3.4-3.5l-6,5.8L78,96l7.2-7L82,85.6L70.3,97.1L87,113.8z M125.5,59.4
		c-4.7-4.9-13-4.3-17-0.4c-4,3.9-6,11.6-0.4,17.3c6.2,6.3,13.5,4,17.4,0.1C131.5,70.7,129.4,63.3,125.5,59.4z M122,73.1
		c-2.6,2.6-5.8,1.9-9.5-1.9c-3.1-3.2-2.9-6.3-0.7-8.5c1.5-1.5,4.7-2.8,8.4,1C124.5,68,124.7,70.5,122,73.1L122,73.1z M138.8,63.4
		l4.3-4.2l-6.5-6.7l-3.9-16.3l-5,4.9l2.6,9.2l-8.8-3.2l-4.7,4.6l14.9,4.8L138.8,63.4z M115.6,86c0,0-10.6-3.6-11.1-3.5
		c-0.2,0,2.3-6.4-3.2-9.3c0,0-4.1-2.2-8.1,1.5l-8.7,8.5l16.7,16.8l4.4-4.3l-9-9.2l14.6,3.8C111.2,90.3,115.6,86,115.6,86z
		 M99.2,83.7c-2.5,2.4-2.8,2.6-2.8,2.6l-4-4.1c-0.1-0.1,2.8-2.6,3.2-3.1c0.2-0.2,2-1.4,3.5,0.2C99.1,79.3,101.7,81.3,99.2,83.7z
		 M137.4,39.4l-3.9-3.9l16.9-16.7l5.5,5.6l-6.1,11.9l12.4-5.6l5.3,5.3l-16.9,16.7l-4.1-4.1l8.9-8.8l-12.2,5.5l-2.5-2.5l5.7-12.1
		L137.4,39.4z M166.7,68.9L155,57.1l16.9-16.7l11.7,11.8l-3.4,3.4l-7.3-7.4l-2.7,2.7l5.8,5.8l-3.5,3.5l-5.8-5.8l-3.7,3.7l7.3,7.3
		L166.7,68.9z M205.2,74.1l4.3,4.4l-12.8,12.6l7.1,7.2l-4.1,4.1l-11.5-11.6L205.2,74.1z M202.9,105.4l16.9-16.7l4.2,4.3l-16.9,16.7
		L202.9,105.4z M214.8,117.4l-4-4l16.9-16.7l5.8,5.8l-4.9,17.3l11.2-11.1l3.9,3.9l-16.9,16.7l-5-5.1l4.3-18.2L214.8,117.4z
		 M197.6,66.4l-10.2-10.3l-16.9,16.7l4.3,4.4L184,68L180.7,83l4.4,4.5c0,0,3.5-10.8,3.6-11.2c0,0,3.8,2.1,8-1.5
		C196.8,74.8,200.8,70.9,197.6,66.4L197.6,66.4z M191.4,71.3c0,0-2.2,1.4-4-0.5l-3-3.1l4-4c0,0,2.8,2.8,3.1,3.1
		C191.8,67.1,194,68.8,191.4,71.3z"/>
</g>
</svg>
