<?xml version="1.0" encoding="utf-8"?>
<!-- Generator: Adobe Illustrator 22.1.0, SVG Export Plug-In . SVG Version: 6.00 Build 0)  -->
<svg version="1.0" id="Layer_1" xmlns="http://www.w3.org/2000/svg" xmlns:xlink="http://www.w3.org/1999/xlink" x="0px" y="0px"
	 viewBox="0 0 300 150" style="enable-background:new 0 0 300 150;" xml:space="preserve">
<g>
	<path d="M162.5,73.7c0,0-2.5-1.5-4.1-2.1c0,0-4.8-2.2-5.8-3.2c0,0-1.9-1.7-0.8-3.8c0,0,0.5-1.3,2.4-1.3c0,0,2.6,0.1,2.6,2.2v2.9
		h9.3l0-4.3c0,0,0.7-7.1-10.9-7.4c0,0-9.1-0.6-11.8,4.3c0,0-1,1.1-1,4.8v2.7c0,0-0.1,3.1,1.5,5.2c0,0,0.9,1.3,3.2,2.8
		c0,0,4.6,2.4,7.4,3.8c0,0,2.8,1.6,2.4,4.1c0,0-0.2,2.6-2.9,2.5c0,0-2.5-0.1-2.5-2.6v-2.9h-9.9v4.3c0,0-0.3,8.2,12.4,8.2
		c0,0,12.1,0.2,12.7-8.4v-3.5C166.8,81.8,167.2,76.5,162.5,73.7z M115.1,57.7L112,76.8h-0.7l-3-18.9H92.9l-0.8,34.6h9.2l0.1-26.1
		h0.7l4.9,26.1h9.6l4.8-26.1h0.6l0.2,26.1h9.2l-1-34.8L115.1,57.7L115.1,57.7z M60.6,57.8l-6.1,34.6h9.9L68,65.6h0.8l3.6,26.8h9.9
		l-6.1-34.6H60.6L60.6,57.8z M267.4,73.2v5.1h2.5v5.5c0,2.7-2.3,2.7-2.3,2.7c-2.8,0-2.7-2.5-2.7-2.5V65c0-2,2.5-2.1,2.5-2.1
		c2.4,0,2.4,2.3,2.4,2.3v2.9h9.3c0.3-5.6-0.8-7-0.8-7c-2.3-5.1-11-4.8-11-4.8c-13.4,0-11.9,10.1-11.9,10.1v18.3
		c0.3,9.5,13.5,8.5,13.7,8.5c5.9-0.6,7.6-2.5,7.6-2.5c1-0.7,1.7-1.7,2.1-2.8c0.5-1,0.6-4,0.6-4V73.2L267.4,73.2L267.4,73.2z
		 M236.7,78.8h-0.4l-9.4-21.2h-11.3v34.8h9.2l-0.5-21.2h0.4l9.8,21.2h10.9V57.7H236L236.7,78.8L236.7,78.8z M193.2,83.8
		c0,0,0.1,2.9-2.6,2.9c0,0-2.8,0.1-2.8-2.8l0-26.2h-10.1v26c0,0-1,9.8,13.1,9.8c0,0,12.2,0.1,12.2-9.4V57.7h-9.8L193.2,83.8
		L193.2,83.8z M41.4,73.7c0,0-2.5-1.5-4.1-2.1c0,0-4.8-2.2-5.8-3.2c0,0-1.9-1.7-0.8-3.8c0,0,0.5-1.3,2.4-1.3c0,0,2.6,0.1,2.6,2.2
		v2.9h9.3l0-4.3c0,0,0.7-7.1-10.9-7.4c0,0-0.9-0.1-2.2,0c0,0-7,0.4-9.6,4.2c0,0,0,0.1-0.1,0.1c0,0-1,1.1-1,4.8v2.7
		c0,0-0.1,3.1,1.5,5.2c0,0,0.9,1.3,3.2,2.8c0,0,4.6,2.4,7.4,3.8c0,0,2.8,1.6,2.4,4.1c0,0-0.2,2.6-2.9,2.5c0,0-2.5-0.1-2.5-2.6v-2.9
		h-9.9v4.3c0,0-0.3,8.2,12.4,8.2c0,0,12.1,0.2,12.7-8.4v-3.5C45.7,81.8,46.1,76.5,41.4,73.7z"/>
</g>
</svg>
