<?xml version="1.0" encoding="utf-8"?>
<!-- Generator: Adobe Illustrator 22.1.0, SVG Export Plug-In . SVG Version: 6.00 Build 0)  -->
<svg version="1.0" id="Layer_1" xmlns="http://www.w3.org/2000/svg" xmlns:xlink="http://www.w3.org/1999/xlink" x="0px" y="0px"
	 viewBox="0 0 300 150" style="enable-background:new 0 0 300 150;" xml:space="preserve">
<style type="text/css">
	.st0{fill:#1A1919;}
	.st1{fill:#D0D5D6;}
	.st2{fill:#FFFFFE;}
</style>
<g>
	<title>tcs</title>
	<desc>Created with Sketch.</desc>
	<g id="tcs">
		<g id="tinkoff-bank-general-logo-8.eps-2" transform="translate(0.000000, 9.000000)">
			<g id="tinkoff-bank-general-logo-8.eps">
				<path id="Fill-1" class="st0" d="M134.9,71.2c0.3-0.5,0.7-1,1-1.6h0.2v11.6h5.3V61.5h-5.3l-6,9c-0.3,0.5-0.7,1-1,1.5
					c-0.3,0.5-0.7,1-1,1.5H128v-12h-5.3v19.7h5.3c1-1.4,2-2.8,2.9-4.2c1-1.4,1.9-2.9,2.9-4.3C134.2,72.2,134.6,71.7,134.9,71.2"/>
				<polyline id="Fill-2" class="st0" points="151.9,73.1 159.8,73.1 159.8,81.2 165.2,81.2 165.2,61.5 159.8,61.5 159.8,69 
					151.9,69 151.9,61.5 146.6,61.5 146.6,81.2 151.9,81.2 151.9,73.1 				"/>
				<path id="Fill-3" class="st0" d="M181.1,76.7c-0.5,0.4-1.2,0.6-2.1,0.6h-3.4v-4.8h3.4c0.9,0,1.6,0.2,2.1,0.6
					c0.5,0.4,0.8,1,0.8,1.8C181.9,75.7,181.6,76.4,181.1,76.7 M187.2,74.9c0-2-0.7-3.6-2.1-4.7c-1.4-1.1-3.3-1.7-5.7-1.7h-3.8v-7
					h-5.3v19.7h9.4c2.3,0,4.1-0.5,5.5-1.5C186.5,78.7,187.2,77.1,187.2,74.9"/>
				<path id="Fill-4" class="st0" d="M250.5,77.3c-0.7,0.3-1.3,0.5-2.1,0.5V65.1c1.8,0.1,3.1,0.8,4,2c0.9,1.2,1.4,2.6,1.4,4.3
					c0,1-0.2,1.9-0.5,2.7c-0.3,0.8-0.7,1.4-1.2,2C251.7,76.6,251.1,77,250.5,77.3z M243.4,77.8c-0.8-0.1-1.5-0.2-2.1-0.5
					c-0.7-0.3-1.3-0.7-1.8-1.3c-0.5-0.5-0.9-1.2-1.2-2c-0.3-0.8-0.4-1.7-0.4-2.7c0-1.7,0.5-3.2,1.5-4.3c1-1.2,2.3-1.8,4.1-2V77.8z
					 M255.9,78.7c0.9-0.9,1.7-1.9,2.2-3.2c0.5-1.2,0.8-2.6,0.8-4.2c0-1.5-0.3-2.8-0.8-4c-0.5-1.2-1.3-2.3-2.2-3.1
					c-0.9-0.9-2.1-1.6-3.3-2.1c-1.3-0.5-2.7-0.8-4.2-0.9v-7.4l-5,1.9v5.5c-1.5,0.1-2.9,0.4-4.2,0.9c-1.3,0.5-2.4,1.2-3.4,2.1
					c-1,0.9-1.7,1.9-2.2,3.1c-0.5,1.2-0.8,2.5-0.8,4c0,1.6,0.3,3,0.8,4.3c0.5,1.2,1.2,2.3,2.2,3.2c0.9,0.9,2.1,1.6,3.4,2.1
					c1.3,0.5,2.8,0.8,4.3,0.9V90l5.1-1.9v-6.5c1.5-0.1,2.9-0.4,4.1-0.9C253.9,80.3,255,79.5,255.9,78.7z"/>
				<path id="Fill-5" class="st0" d="M282.4,74.1c-0.3,0.8-0.7,1.4-1.2,2c-0.5,0.5-1.1,1-1.7,1.3c-0.7,0.3-1.3,0.5-2.1,0.5V65.1
					c1.7,0.1,3.1,0.8,4,2c0.9,1.2,1.4,2.6,1.4,4.3C282.9,72.4,282.7,73.3,282.4,74.1z M272.4,77.8c-0.8-0.1-1.5-0.2-2.1-0.5
					c-0.7-0.3-1.3-0.7-1.8-1.3c-0.5-0.5-0.9-1.2-1.2-2c-0.3-0.8-0.4-1.7-0.4-2.7c0-1.7,0.5-3.2,1.4-4.3c1-1.2,2.3-1.8,4.1-2V77.8z
					 M287.2,75.5c0.5-1.2,0.8-2.7,0.8-4.2c0-1.5-0.3-2.8-0.8-4c-0.5-1.2-1.3-2.3-2.2-3.1c-0.9-0.9-2.1-1.6-3.4-2.1
					c-1.3-0.5-2.7-0.8-4.2-0.9v-7.4l-5,1.9v5.5c-1.5,0.1-2.9,0.4-4.2,0.9c-1.3,0.5-2.4,1.2-3.4,2.1c-1,0.9-1.7,1.9-2.2,3.1
					c-0.5,1.2-0.8,2.5-0.8,4c0,1.6,0.2,3,0.8,4.3c0.5,1.2,1.2,2.3,2.2,3.2c0.9,0.9,2.1,1.6,3.4,2.1c1.3,0.5,2.8,0.8,4.3,0.9V90
					l5-1.9v-6.5c1.5-0.1,2.9-0.4,4.1-0.9c1.3-0.5,2.4-1.2,3.3-2.1C285.9,77.8,286.6,76.7,287.2,75.5z"/>
				<polyline id="Fill-6" class="st0" points="101,57.7 108.8,57.7 108.8,81.3 114.3,81.3 114.3,57.7 121.8,57.7 121.8,53.1 
					101,53.1 101,57.7 				"/>
				<polyline id="Fill-7" class="st0" points="209.5,61.6 203.4,61.6 196.2,70 196.2,61.5 190.9,61.5 190.9,81.3 196.2,81.3 
					196.2,71.7 203.2,81.3 209.5,81.3 201.6,70.7 209.5,61.6 				"/>
				<path id="Fill-8" class="st0" d="M224.3,73.8c-0.2,0.7-0.5,1.4-0.8,1.9c-0.4,0.6-0.8,1-1.4,1.3c-0.5,0.3-1.2,0.5-1.9,0.5
					c-1.4,0-2.5-0.5-3.3-1.6c-0.8-1.1-1.1-2.6-1.1-4.5c0-1.7,0.4-3.1,1.1-4.3c0.7-1.1,1.8-1.7,3.2-1.7c1.5,0,2.6,0.6,3.4,1.7
					c0.8,1.1,1.1,2.6,1.1,4.4C224.6,72.3,224.5,73.1,224.3,73.8 M227.3,63.9c-0.8-0.9-1.9-1.6-3.1-2s-2.5-0.7-3.9-0.7
					c-1.4,0-2.7,0.2-3.9,0.7c-1.2,0.5-2.2,1.1-3.1,2c-0.9,0.9-1.5,2-2,3.2c-0.5,1.3-0.7,2.7-0.7,4.3c0,1.6,0.2,3,0.7,4.2
					c0.5,1.3,1.1,2.3,2,3.2c0.8,0.9,1.9,1.6,3,2.1c1.2,0.5,2.5,0.7,4,0.7c1.4,0,2.7-0.2,3.9-0.7c1.2-0.5,2.2-1.2,3.1-2
					c0.9-0.9,1.5-2,2-3.2c0.5-1.3,0.7-2.7,0.7-4.3c0-1.6-0.2-3-0.7-4.2C228.8,65.9,228.1,64.8,227.3,63.9"/>
				<path id="Fill-9" class="st1" d="M31.1,86.1l-0.9,1.5c-0.3-1-0.9-2-1.3-2.8c-0.7,1.5-1.9,1.5-3,1.5c0.2-3.5-4.2-7.1-2.3-11.1
					c0.4-0.8,0.1-1.8-0.7-2.2c-3-1.5-1.6,4.7-4.6,4.9c0.6-0.7,0.8-2.2,0.9-2.3c-0.6,0.2-2.2,1.1-2.8-0.1c1.8-0.9,2.3-2.4,2.5-3.8
					c0.3-1.8,0.5-2.6,0.9-3.4c0.4-0.8,1-1.5,2.2-3.1c-0.3,0-3.7,0.7-4.4,0.4c5.8-3.5,4.5-8,13.4-12c-2.3-1.7-4.7-3.1-3-6.3
					c2.4,2.9,7.1,1.9,9.6,0.5c-2.5-0.5-5.6-2.6-6.4-5c0.9-0.1,2.1,0.9,2.8,1.3c0.3-0.9,0.5-1.9,1.5-2.1c-1.4,3.1,1.4,4.6,4.1,4.7
					c0.4,0,2.2-0.2,2.2-0.2c-0.3-0.6-1.4-2.1-0.6-2.8c0.7,0.6,1.5,1.1,2.2,1.7c5.3,4-2.5,7.8-5.7,9.5c-5,2.7-3.7,5.9-1.6,6.7
					c0,0.4-0.2,0.5-0.6,0.6c-1.5,0.5-2.8-0.5-4-1.2c0.1,2-0.1,3.9,2.2,5l-1.5,0.6c1.3,1,1.7,1.5,3.3,1.7c-0.7,0.4-1.7,0.4-2.5,0.4
					c0.2,0.6,0.4,1.3,0.8,1.8c-3.3,0.4-4.6-1.5-5.6-1.4c-2.2,0.2-2,4.2,3.3,4.2L31,74.2c0,0,1,0.6,1.9,0.7c-0.4,0.3-0.7,0.7-1,1
					l0.8,0.7c-2.2,0.4-2.8-1.9-4.2-0.8c-2.1,1.7,2.6,5.2,7.1,4.7c-0.4,0.5-1.4,1.2-1.9,1.6c3.7,3.4,1.9,6.7,3.4,9.1
					C34,90.9,31.7,88.6,31.1,86.1 M35.3,82.2c1-0.8,1.9-1.2,1.8-3.1c-1.5,0.8-5.9,0.7-7.7-1.7c-0.5-0.7,0-1.1,0.5-0.5
					c1.2,1.4,3.6,0.8,4.4,0.4c-0.1-0.5-0.5-1.1-0.8-1.4c0.3-0.3,1.2-0.8,1.4-1.5c-0.5-0.3-2.3-0.4-2.3-0.4c0.3-0.3,0.7-0.7,0.4-1.7
					c-1.9,0.6-4.2-0.2-4.7-0.9c-0.5-0.7,0-1.3,0.4-0.9c0.9,1,5.6,2.1,7.3,0.4c-0.6-0.2-1.3-0.7-1.5-1.1c1.6-0.2,2.9-1.1,3-2.3
					c-0.9,0-2.5-0.1-3.1-0.5c0.8-0.3,1.2-0.6,1.5-1.4c-2.9-0.2-3.2-2.3-3.2-2.7c1.9,1.1,5.2,0.6,4.4-2.1c-1.6-0.1-3.2-2.6,1.2-4.9
					c4-2.1,8.4-4.4,8.1-8.1c-0.3-2.4-4.3-4-4.8-5.3c-1.7,0.8-2,1.7-1.3,3.2c0,0-3.7,0.4-4-1.9c-0.1-1,0.6-2,1.3-2.7
					c-0.4,0-3.2-0.7-4.1,1.5c-1.6-1.1-2.9-1-4,0.1c1.7,1,2.7,4.4,5.5,5.4c-2,1.1-5.2,0.6-7.1-2.7c-1.8,2.6-2.8,5.3,1,8.1
					c-6.9,3.1-6.9,9.1-12.9,11.9c0.6,1.6,1.9,1.6,3.5,1.4c-2.6,3.3-0.4,6.8-4.5,8.3c0.4,1.4,1.2,2.5,2.7,2.1
					c-0.4,0.7-0.7,0.7-1.4,1.4c2.3,1.4,4.9,0.4,5.5-4.1c0.1-0.8,1.2-0.3,0.8,0.5c-2.6,5.3,3.9,9.2,1.6,13.1c2-0.1,3.6-0.2,4.4-0.9
					c0.4,0.8,0.7,1.6,0.6,2.4c1.1-0.2,1.5-0.9,1.6-1.6c0.7,2.1,3.4,4.4,7.6,4.4C36.3,89,38.4,85.8,35.3,82.2"/>
				<path id="Fill-10" class="st1" d="M25.3,73.5c0.8,0.8,1.7,0.9,3.5,0.8c-1.9-0.2-3-0.7-3.7-2c-0.1-0.7-0.2-1.4-0.2-2.1
					c-0.1-2,0.6-4.4,2-7c0,1.6,1.3,4.2,4.3,4.7c-2.6-1.1-4.2-3.7-3.4-6.2c0.6-0.9,1.2-1.8,1.9-2.7c0.4-0.4,0.7-0.9,1-1.3
					c-0.4,1.3,1.2,2.6,2.2,2.8c-0.6-0.5-1.8-2.3,1-5.3c-0.8,0.4-1.6,0.9-2.3,1.4c5.1-5.4,9.3-5.6,11.2-8.3c-2.8,1.9-10.1,2.9-13.4,2
					c1.8,1.2,6.2,1.1,7.3,0.9c-3.6,3.4-11.4,7-12.8,10.2c1.9-2.1,3.1-2.4,4.8-3c-1.3,1.9-2.5,3.6-3.3,5.6c-2.1,4.5-4.9,4.5-5,8.2
					c0.9-2.9,2.9-3.6,4.2-5.5c-0.2,1.2-0.3,2.5-0.3,4.1c0,1.7,0.4,3.1,0.9,4.4c-0.1,1.8,0,4.9,2.1,7c-1.4-1.8-1.7-4.7-1.6-5.9
					c1.7,3.2,6.4,7.5,8.7,10.4C32.1,83,26.5,78.6,25.3,73.5"/>
				<path id="Fill-11" class="st1" d="M77.5,58.4c1.6,0.5,2.9,0.9,4.8,3c-1.4-3.2-9.2-6.7-12.8-10.2c1.1,0.2,5.5,0.3,7.3-0.9
					c-3.3,0.9-10.7-0.1-13.4-2c1.9,2.7,6.1,2.9,11.2,8.3c-0.7-0.5-1.5-1-2.3-1.4c2.8,3,1.6,4.7,1,5.3c1-0.2,2.6-1.5,2.2-2.8
					c0.3,0.4,0.7,0.8,1,1.3c0.7,0.9,1.3,1.8,1.9,2.7c0.8,2.5-0.7,5.1-3.3,6.2c2.9-0.4,4.3-3,4.2-4.7c1.4,2.6,2.1,5,2,7
					c0,0.7-0.1,1.4-0.2,2.1c-0.7,1.3-1.8,1.7-3.7,2c1.8,0.1,2.7,0,3.5-0.8c-1.2,5.1-6.8,9.5-9.1,13.2c2.3-2.9,7-7.3,8.7-10.4
					c0.1,1.1-0.2,4.1-1.6,5.9c2.1-2.1,2.3-5.2,2.1-7c0.5-1.3,0.9-2.8,0.9-4.4c0-1.5-0.1-2.9-0.3-4.1c1.3,1.9,3.3,2.6,4.2,5.5
					c-0.2-3.7-3-3.7-5-8.2C80,62,78.8,60.3,77.5,58.4"/>
				<path id="Fill-12" class="st1" d="M86.9,75.7c0.1,0.1,0.3,1.6,0.9,2.3c-3-0.2-1.6-6.4-4.6-4.9c-0.8,0.4-1.1,1.4-0.7,2.2
					c2,4-2.5,7.5-2.3,11.1c-1.1,0-2.2,0-3-1.5c-0.4,0.7-1,1.8-1.3,2.8l-0.9-1.5c-0.6,2.5-2.9,4.8-6.1,5c1.5-2.4-0.3-5.6,3.4-9.1
					c-0.5-0.4-1.5-1.1-1.9-1.6c4.5,0.5,9.2-3,7.1-4.7c-1.4-1.1-2,1.2-4.2,0.8l0.8-0.7c-0.3-0.3-0.6-0.7-1-1c0.9-0.1,1.9-0.7,1.9-0.7
					l-0.5-0.9c5.3,0,5.4-4,3.3-4.2c-1-0.1-2.3,1.8-5.6,1.4c0.4-0.5,0.6-1.2,0.8-1.8c-0.8-0.1-1.7-0.1-2.5-0.4c1.6-0.2,2-0.7,3.3-1.7
					L72.5,66c2.2-1.1,2.1-3,2.2-5c-1.2,0.7-2.5,1.7-4,1.2c-0.3-0.1-0.6-0.3-0.6-0.6c2.1-0.8,3.4-4-1.6-6.7c-3.2-1.7-11-5.5-5.7-9.5
					c0.7-0.5,1.5-1,2.2-1.7c0.8,0.6-0.3,2.2-0.6,2.8c0,0,1.8,0.2,2.2,0.2c2.7,0,5.6-1.6,4.1-4.7c1.1,0.2,1.2,1.3,1.5,2.1
					c0.7-0.5,1.9-1.5,2.8-1.3c-0.8,2.4-3.9,4.5-6.4,5c2.5,1.3,7.1,2.3,9.6-0.5c1.7,3.3-0.7,4.6-3,6.3c8.9,4,7.6,8.5,13.4,12
					c-0.8,0.3-4.1-0.4-4.4-0.4c1.3,1.6,1.9,2.3,2.2,3.1c0.4,0.7,0.5,1.6,0.9,3.4c0.3,1.4,0.8,2.8,2.5,3.8
					C89.1,76.8,87.6,75.9,86.9,75.7 M86.6,66.8c1.6,0.3,2.9,0.3,3.5-1.4c-6-2.8-6-8.8-12.9-11.9c3.8-2.8,2.8-5.4,1-8.1
					c-1.9,3.3-5.1,3.7-7.1,2.7c2.8-1,3.8-4.4,5.5-5.4c-1.1-1.1-2.4-1.2-4-0.1c-0.9-2.3-3.6-1.5-4.1-1.5c0.7,0.7,1.4,1.7,1.3,2.7
					c-0.3,2.3-4,1.9-4,1.9c0.7-1.5,0.4-2.4-1.3-3.2c-0.5,1.2-4.5,2.9-4.8,5.3c-0.4,3.8,4.1,6,8,8.1c4.3,2.3,2.8,4.9,1.2,4.9
					c-0.9,2.7,2.5,3.2,4.4,2.1c0,0.4-0.2,2.5-3.2,2.7c0.2,0.8,0.7,1.1,1.5,1.4c-0.6,0.4-2.2,0.5-3.1,0.5c0.1,1.2,1.4,2.1,3,2.2
					c-0.1,0.4-0.8,0.9-1.5,1.1c1.7,1.7,6.4,0.6,7.3-0.4c0.4-0.4,1,0.2,0.4,0.9c-0.5,0.7-2.9,1.5-4.8,0.9c-0.2,1,0.1,1.4,0.4,1.7
					c0,0-1.8,0.2-2.3,0.4c0.2,0.8,1.1,1.2,1.4,1.5c-0.3,0.3-0.7,0.9-0.8,1.4c0.8,0.4,3.2,1,4.4-0.4c0.5-0.6,1.1-0.2,0.5,0.5
					c-1.8,2.5-6.2,2.5-7.7,1.7c0,1.9,0.8,2.3,1.8,3.1c-3.1,3.6-1.1,6.8-3.3,9.9c4.2,0,6.8-2.3,7.6-4.4c0.1,0.7,0.5,1.4,1.6,1.6
					c-0.1-0.8,0.2-1.6,0.6-2.4c0.9,0.7,2.4,0.8,4.4,0.9c-2.3-3.9,4.2-7.8,1.6-13.1c-0.4-0.8,0.7-1.3,0.8-0.5
					c0.6,4.5,3.3,5.5,5.5,4.1c-0.7-0.7-1-0.7-1.4-1.4c1.5,0.4,2.3-0.7,2.7-2.1C87,73.6,89.2,70.1,86.6,66.8"/>
				<path id="Fill-13" class="st1" d="M44.7,83.1l1.2-0.9c0.2-0.2,0.4-0.3,0.6-0.2l1.7,0.2c0.1,0.4,0.4,0.8,0.4,0.8l-1.9-0.4
					c-0.3,0-0.3,0-0.6,0.2l-0.9,0.7c-0.2,0.1-0.2,0.3-0.1,0.6l0.1,0.3l-0.6,0.5l-0.2-0.4C44.3,83.9,44.3,83.4,44.7,83.1 M47.5,79.9
					l-0.3,0.2c-0.2,0.1-0.3,0.2-0.5-0.1l-0.1-0.2c-0.1-0.1-0.1-0.3,0.1-0.4l1.4-1.6l-1.3-1l1.6,0.6l0.6-0.7c0.2,0.1,0.1,0.6,0.1,0.6
					c0.7,0,2.6,0.9,2.6,3.3c0,0,0.4,0.6,1,0.7l2.8,0.2c0.5,0,1.6-0.9,3.1,0c0.4-0.2,0.8-0.4,1.2-0.5c1.3-0.1,2.3,0.8,3,1.7
					c0.5,0.7,1.3,1.7,1.3,1.7c-0.3,0.4-0.6,0.5-0.9,0.4c-0.4-0.2-0.5-0.5-0.6-0.9c-0.2-0.7-1-1.3-1-1.3c0.3,0.5,0.3,1,0.4,1.5
					c-1.1-1.1-1.3-2.4-2.1-2.6c-0.3-0.1-0.7,0.1-1.1,0.5c0.4,0.9,0.4,1.9,0.8,2.6c0.3,0.5,0.4,0.6,0.5,0.7c0.3,0.2,0.1,0.6,0.1,0.9
					l-0.4,2.6H59l0.5-2.5c0.1-0.8-2-0.8-3.2-2.2c-1,1.1-3.6,0.8-4.8,0.7c-0.5-0.1-0.9,0-1.2,0.4c-0.1,0.3-0.4,0.2-0.6,0.1l-2.1-0.5
					c-0.4-0.1-0.5,0-0.7,0.3l-0.4,0.9c-0.1,0.2-0.1,0.3,0.1,0.5l0.2,0.2c-0.1,0.4-0.5,0.7-0.5,0.7l-0.5-0.5c-0.2-0.3-0.2-0.6-0.1-1
					l0.7-1.4c0.1-0.2,0.2-0.3,0.5-0.3l2.6,0l-0.8-1.3c-0.6-1,0.4-2.7,0.2-3.5C49,80.2,47.7,79.7,47.5,79.9 M58.3,85.8l-1.1,2.7h-0.7
					l1.1-2.7c0.1-0.3-0.1-0.5-0.4-0.9c0.4,0.2,0.7,0.4,1.2,0.6C58.4,85.7,58.4,85.7,58.3,85.8 M44.6,85.5l1.3-1.1l-0.2-0.4
					c-0.1-0.3-0.1-0.3,0.1-0.4l0.7-0.5c0.2-0.1,0.3-0.1,0.5-0.1l2,0.5h-2.1c-0.5,0-0.6,0.2-0.8,0.6l-0.1,0.3l-0.5,1.1
					c-0.2,0.4-0.3,0.9,0.2,1.5l0.4,0.5l-0.8,1.6h0.7l0.5-1.1c0,0,0.8-0.8,1-1.5c-0.2-0.2-0.4-0.3-0.3-0.6l0.2-0.5
					c0.1-0.2,0.1-0.2,0.3-0.2l2.1,0.5c0.3,0.1,0.6,0.2,0.9-0.2c0.3-0.4,0.3-0.4,1-0.3l1.1,0.1c1.5,0.1,2.9-0.2,3.5-0.7
					c0.2,0.5,0.6,0.8,0.8,1.1c0.1,0.1,0,0.3-0.1,0.5l-1.2,2.9h1.9l1.1-2.6c0.1-0.2,0.2-0.4,0.3-0.5l-0.6,3.1h1.8l0.5-3.1
					c0.1-0.7,0-0.9-0.3-1.2c-0.8-0.6-0.7-1.9-1-2.8c0.1-0.1,0.3-0.1,0.5-0.1c0.4,0,0.7,1,1.2,1.7c0.9,1.3,2.2,2.7,3.6,0.7
					c-0.1-0.2-0.3-0.4-0.5-0.6l-0.4-0.5c-0.2-0.3-1.4-1.5-1.8-2c-1.1-1.1-2.7-0.9-3.3-0.4c-1.5-0.8-3,0-3.4,0l-2.5-0.2
					c-0.1,0-0.3,0-0.4-0.2l0.5-0.2c-0.4-1.8-1.5-3.3-3.5-3.6c0,0-0.1-0.6-0.4-0.7l-0.6,0.7c-0.2,0-0.3,0.1-0.5,0.1l-2.5-0.9l1.9,1.8
					c0,0-1,1.3-1.2,1.6c-0.2,0.3-0.2,0.4,0,0.7l0.4,0.5c0.2,0.2,0.4,0.2,0.7,0.1l0.4-0.2c0.2-0.1,0.8,0.1,1-0.1
					c-0.2,0.5-0.2,1-0.3,1.4l-1.7-0.2c-0.4,0-0.5,0-0.8,0.2l-1.4,1.1c-0.5,0.4-0.6,1-0.3,1.5L44.6,85.5"/>
				<path id="Fill-14" class="st1" d="M50,50c0.7,0.5,1.9,1,1.9,1v-0.8l-2.6-1C49.3,49.2,49.3,49.5,50,50"/>
				<path id="Fill-15" class="st1" d="M51.9,49.1v-0.8l-3-1.1c0,0,0.4,0.4,1.1,0.9C50.7,48.6,51.9,49.1,51.9,49.1"/>
				<path id="Fill-16" class="st1" d="M51.9,47.3v-0.8l-3.3-1.2c0,0,0.6,0.5,1.4,1C50.7,46.8,51.9,47.3,51.9,47.3"/>
				<path id="Fill-17" class="st1" d="M61.1,58h3.3c-0.1-0.5-0.7-1-1.6-1C61.9,57.1,61.3,57.6,61.1,58"/>
				<path id="Fill-18" class="st1" d="M57.6,45.3l-3.3,1.2v0.8c0,0,1.2-0.5,1.9-1C57,45.8,57.6,45.3,57.6,45.3"/>
				<path id="Fill-19" class="st1" d="M57,49.2l-2.6,1V51c0,0,1.2-0.5,1.9-1C57,49.5,57,49.2,57,49.2"/>
				<path id="Fill-20" class="st1" d="M57.3,47.2l-3,1.1v0.8c0,0,1.2-0.5,1.9-0.9C57,47.6,57.3,47.2,57.3,47.2"/>
				<path id="Fill-21" class="st1" d="M43.4,57.1c-1,0-1.5,0.5-1.6,1h3.3C44.9,57.6,44.3,57.1,43.4,57.1"/>
				<path id="Fill-22" class="st1" d="M53.1,44.9l-5.4-2.1c0.5-1.1,2.6-2,5.4-2c2.8,0,4.9,0.9,5.4,2L53.1,44.9z M57.1,51.5l-3.6,1.9
					v-7.6l4.9-1.7L57.1,51.5z M61.4,54.7c-1.4,0.2-2.5,1.9-3.5,3.4l-0.1,0.2h-1l0,0.2c-0.1,1.1-1.2,2.7-3.6,2.7
					c-1.1,0-2-0.3-2.5-0.8c-0.5-0.4-0.8-0.9-1-1.4c-0.1-0.2-0.1-0.3-0.1-0.5l0-0.2h-1L48.4,58c-1-1.5-2.1-3.1-3.5-3.4l3.7-2.1
					l4.5,2.4l4.5-2.4L61.4,54.7z M66.3,60.3c-0.4,1-0.7,2.1-0.7,3.2v11.6h-1.4c-0.6-0.6-1.1-2.6-1.1-2.6c-0.3,0.7,0,2.2,0.4,2.6
					h-1.8c-0.4-0.6-0.8-2.6-0.8-2.6c-0.5,0.6-0.2,2.2,0.1,2.6h-1.2c-0.1-0.8,0.2-1.7,0.2-1.7c-0.6-0.1-1.3-0.4-1.3-1.1
					c0.3,0.3,0.4,0.3,0.9,0.3l0.5-0.4c-1.7,0.1-1.7-1.7-0.4-2.6c-1.3,0-2.3-0.7-1.8-2.1c-0.9-0.5-1.3-2-0.6-2.7
					c-0.5-0.5-0.6-1.6-0.3-2.3c-0.7,0-1.4-0.3-1.8-0.7c0,0-0.1,0-0.1,0c0.8-0.3,1.5-0.8,2-1.5H66.3z M65.6,83.4c0,2.4-1.1,4.3-3,5.3
					l0.7-1.4h-0.7L61.8,89c-0.9,0.3-1.9,0.5-3,0.5c-3.4,0-4.3,0.1-5.6,1.4c-1.3-1.3-2.2-1.4-5.6-1.4c-1.1,0-2.1-0.2-3-0.5h0l0.9-1.7
					h-0.7l-0.8,1.5c-0.2-0.1-0.4-0.2-0.5-0.3l0.6-1.3h-0.6l-0.5,0.9c-1.5-1.1-2.3-2.7-2.3-4.9v-7.6h25.1V83.4z M48.6,69.4l1.1,0.1
					c0.1,0.6-0.1,1.5-0.5,2.1l-1-0.3C48.4,70.7,48.5,70.1,48.6,69.4z M47.1,68.7c0,0,1,0,1.2,0.1c0.2,0.1,0.1,0.4-0.2,0.4
					C47.8,69.1,47.1,68.7,47.1,68.7z M47,64.9L46.1,68l0.3-5.1l1.4-1.1l0.7,1.5l-1.7,4.9l0.5-3.3C47.2,64.7,47,64.6,47,64.9z
					 M46.3,70.1c-0.5,0.2-0.9-0.1-0.8-0.4c0.2,0.2,0.8,0.1,0.8,0.1L46.3,70.1z M45.5,70.5c0.2,0.2,0.8,0.1,0.8,0.1l0,0.1
					C46.1,71.1,45.3,71,45.5,70.5z M44.5,68.5c-0.2-0.2-0.1-0.5,0.1-0.5c0.3,0,0.7,0.3,1.1,0.5C45.7,68.5,44.7,68.6,44.5,68.5z
					 M45.4,71.3c0,0,0.3,0.1,0.7,0.2c0,0.2-0.2,0.4-0.4,0.3C45.4,71.7,45.4,71.5,45.4,71.3z M46.1,69.4c-0.5,0.2-0.7-0.2-0.7-0.5
					c1-0.3,1.4-0.1,1.7,0.1c0.3,0.2,0.5,0.6,0.8,0.9c-0.1,0.4-0.2,1-0.3,1.3c-1-0.3-1-1.1-0.7-1.6C46.7,69.3,46.5,69.3,46.1,69.4z
					 M50.4,69.7l1.1,0.1c0.1,0.6-0.1,1.8-0.5,2.4l-1.1-0.3C50.3,71.3,50.5,70.3,50.4,69.7z M52.2,69.9l0.9,0.1
					c0.1,0.7,0,1.9-0.4,2.6l-1-0.3C52.1,71.8,52.3,70.5,52.2,69.9z M53.8,70.1L53.8,70.1c0.2,0,0.5,0,0.7-0.1
					c0.5,0.7,0.8,2.2,0.3,3.1c-0.3,0-0.6-0.1-0.9-0.1l-0.2-0.1C54,72.2,54,70.9,53.8,70.1z M55.1,69.6l0.6-0.6
					c0.6,0.5,1.5,1.8,1.2,2.9l-0.7,0.6c-0.1,0.1-0.3,0.2-0.4,0.3C56.2,71.8,55.7,70.2,55.1,69.6z M58.7,69.9
					c-0.1,0.2-0.2,0.4-0.3,0.6l-0.7,0.7c0.1-1.1-0.6-2.4-1.3-2.9l0.8-0.8l0.2,0.2C57.1,68.4,57.6,69.8,58.7,69.9z M56.7,64.7
					c-0.4,0.7-0.4,1.6,0.1,2.4l-0.3,0.3c-1.3-0.2-1.9-2.1-1.9-2.1c0,0.2,0,0.4,0,0.5c-0.8-0.3-1.3-1-1.2-1.9c0.3,0.2,0.6,0.3,1,0.3
					l0.1-0.6c-0.9-0.2-1.5-0.7-1.7-1.4c0,0-0.1,0-0.1,0c0.2,0,0.3,0,0.5,0c0.6,0,1.1-0.1,1.6-0.2c0.4,0.5,1.1,0.9,1.8,1
					C56.4,63.4,56.4,64,56.7,64.7z M49,60.3c0.6,0.9,1.7,1.5,2.9,1.8c0.1,0.5,0.4,1,0.9,1.4c-0.2,1.4,0.4,2.6,1.9,3
					c0.2,0.7,0.6,1.2,1.3,1.5L55,69c-0.4,0.5-0.9,0.6-1.3,0.5L49,69.1c0.2-0.5-0.3-1.1-1.8-0.8l1.8-5L48,60.9l-2.1,1.8l-0.2,5.2
					l-0.9-0.4c-1.2-0.5-1.5,1.6-0.4,1.6l0.4,0c0,0.2,0,0.5,0.2,0.5c-0.2,0.1-0.3,0.5,0,0.6c-0.3,0.1-0.3,0.5-0.1,0.7
					c-0.2,0.4-0.3,1.2,0.5,1.4c0.7,0.2,1.1-0.5,1.2-0.9l7.1,2.2c1,0.3,1.7,0.1,2.6-0.6l1.9-1.6c-0.2,1.1,0.1,2,1,2.3
					c0,0-0.1,0.9-0.1,1.4H40.6V63.4c0-1.1-0.3-2.2-0.7-3.2H49z M47.8,44.1l4.9,1.7v7.6l-3.6-1.9L47.8,44.1z M59.8,43.2
					c0-1.9-3.2-3.5-6.7-3.5c-3.5,0-6.7,1.7-6.7,3.5l0.1,0.5l1.4,7.9l-6.6,3.8c-0.7,0.4-1.6,1.5-1.7,2.7h1.2c0.2-1.1,1.1-2.4,2.8-2.3
					c1.5,0.1,2.4,1,3.3,2.3l0.2,0.3l0.3,0.5h-9.7c0.7,1.4,1.4,2.9,1.4,4.5v19.9c0,5.1,4,7.6,8.3,7.6c3.3,0,3.8-0.1,5.6,1.7
					c1.8-1.8,2.3-1.7,5.6-1.7c4.3,0,8.3-2.4,8.3-7.6V63.4c0-1.6,0.7-3.1,1.4-4.5h-9.7l0.3-0.5l0.2-0.3c0.9-1.3,1.8-2.2,3.3-2.3
					c1.7-0.1,2.6,1.2,2.8,2.3h1.2c-0.1-1.1-1-2.3-1.7-2.7l-6.6-3.8l1.4-7.9L59.8,43.2z"/>
				<path id="Fill-23" class="st1" d="M65.1,67.8l0-0.6c-1.8,0-2.2-2.2-2.2-2.2C62.3,66.6,63.7,67.8,65.1,67.8"/>
				<path id="Fill-24" class="st1" d="M62.8,71.4l-0.2-0.6c-1.5,0.4-2.3-2-2.3-2C59.8,70.5,61.5,71.8,62.8,71.4"/>
				<path id="Fill-25" class="st1" d="M63.9,69.1c-1.8,0.3-2.6-1.8-2.6-1.8c-0.2,1.2,0.6,2.3,1.8,2.4c-0.3,1.5,1.1,2.3,2.4,1.7
					L65.2,71C64.2,71.3,63.2,70.3,63.9,69.1"/>
				<path id="Fill-26" class="st1" d="M62.8,63.1l0-0.6c-2.4-0.5-2.2-2.2-2.2-2.2C60,61.9,61.4,63,62.8,63.1"/>
				<polyline id="Fill-27" class="st1" points="47.3,87.3 46.5,89.1 47.1,89.1 48,87.3 47.3,87.3 				"/>
				<polyline id="Fill-28" class="st1" points="48.7,87.3 47.8,89.1 48.4,89.1 49.3,87.3 48.7,87.3 				"/>
				<polyline id="Fill-29" class="st1" points="53.9,87.3 53.1,89.1 53.7,89.1 54.6,87.3 53.9,87.3 				"/>
				<polyline id="Fill-30" class="st1" points="55.2,87.3 54.4,89.1 55,89.1 55.9,87.3 55.2,87.3 				"/>
				<polyline id="Fill-31" class="st1" points="52.6,87.3 51.7,89.1 52.4,89.1 53.3,87.3 52.6,87.3 				"/>
				<polyline id="Fill-32" class="st1" points="60.3,89.1 61,89.1 61.8,87.3 61.2,87.3 60.3,89.1 				"/>
				<polyline id="Fill-33" class="st1" points="50,87.3 49.1,89.1 49.8,89.1 50.6,87.3 50,87.3 				"/>
				<polyline id="Fill-34" class="st1" points="51.3,87.3 50.4,89.1 51.1,89.1 51.9,87.3 51.3,87.3 				"/>
				<path id="Fill-35" class="st1" d="M48.3,77.9c-0.1,0-0.2,0.1-0.2,0.3c0,0.1,0.1,0.3,0.2,0.3c0.1,0,0.2-0.1,0.2-0.3
					C48.5,78,48.4,77.9,48.3,77.9"/>
				<path id="Fill-36" class="st1" d="M48,37.6l1-2.2l1.9,1l2.1-2.1l2.1,2.1l1.9-1l1,2.2l1.3-0.2c-0.3,0.6-0.6,1.1-0.8,1.9
					c-1.4-0.8-3.5-1.4-5.5-1.4c-2.1,0-4.1,0.6-5.5,1.4c-0.2-0.7-0.5-1.3-0.8-1.9L48,37.6z M53.1,38.5c2.7,0,4.9,0.9,6.1,1.8
					c0,0,0.4-2.1,1.6-4l-2.2,0.2l-1.1-2.4l-2.2,1.1l-2.1-2.1L51,35.3l-2.2-1.1l-1.1,2.4l-2.2-0.2c1.2,1.9,1.6,4,1.6,4
					C48.2,39.4,50.4,38.5,53.1,38.5z"/>
				<path id="Fill-37" class="st1" d="M55.3,34.2c0.3,0,0.6-0.2,0.6-0.5c0-0.3-0.4-1.1-0.4-1.1s-0.7,0.7-0.7,1.1
					C54.8,33.9,55,34.2,55.3,34.2"/>
				<path id="Fill-38" class="st1" d="M58.9,35.5c0.3,0.2,0.6,0,0.8-0.2c0.2-0.3,0.1-1.2,0.1-1.2s-0.9,0.4-1.1,0.7
					C58.5,35,58.6,35.3,58.9,35.5"/>
				<path id="Fill-39" class="st1" d="M50.9,34.2c0.3,0,0.6-0.3,0.5-0.6c0-0.3-0.7-1.1-0.7-1.1s-0.5,0.8-0.4,1.1
					C50.3,34,50.6,34.2,50.9,34.2"/>
				<path id="Fill-40" class="st1" d="M47.3,35.5c0.3-0.2,0.4-0.5,0.2-0.8c-0.1-0.3-1.1-0.7-1.1-0.7s-0.1,0.9,0.1,1.2
					C46.7,35.5,47,35.6,47.3,35.5"/>
				<path id="Fill-41" class="st1" d="M86.8,55.3c0.2,0.5,0.7,2.3-0.4,3.7c-1.3-2.5-3-4.7-4.4-5.6c-0.3-0.2,0.2-0.5,1-0.7
					c2.6-0.5,5.7,0.6,7.2,1c-0.7,0.5-1.2,0.7-1.9,0.8c1.1,0.9,1.8,1.6,2.4,2.5C89.6,57.3,89,56.6,86.8,55.3 M90.1,54.9
					c0.8-0.3,1.3-1,1.6-1.6c-1.9-0.3-7.1-2.4-11.3-0.7c1.6-1.5,3-1.7,3.1-3.8c0.7,0.5,1.8,0.7,2.4-0.4c-0.4-1.3-1.5-0.2-1.7-0.6
					c-0.2-0.5,1.4,0.2,1.7-1.5c-1.2-0.4-1.6,0.6-1.8,0.3c-0.2-0.2,0.8-0.6,0.1-2c-1.3,0.7-0.6,1.6-0.9,1.7c-0.3,0.1-0.1-0.9-1.5-0.9
					c-0.1,1.5,1.3,1.6,1.1,1.8c-0.3,0.3-0.7-0.9-1.8-0.3c0,1.2,1,1.9,2.1,1.6c-0.2,2.3-2.3,1.9-3.9,4.5c3.4,1.7,5,4.8,7.1,6.8
					c0.7-0.5,1.9-2.7,1.9-2.7c2.3,1.7,3.9,0,3.9,0C91.3,56.6,91.3,55.9,90.1,54.9"/>
				<path id="Fill-42" class="st1" d="M52.5,96.3L51,96.2l-0.2,0.6l0.2,0c0.1,0,0.1-0.1,0.1-0.2c0,0,0.3-0.1,0.5,0l0.6,0
					c-0.4,0.8-1.3,1.5-1.3,2c0,0.3,0.3,0.3,0.4,0.3c0.3,0,0.4-0.2,0.5-0.5c0.2-0.7,0.5-1.3,0.8-2.2L52.5,96.3L52.5,96.3"/>
				<path id="Fill-43" class="st1" d="M53.5,97.2l0-0.5h1.3l-0.1-0.5c-0.4,0-0.9,0.1-1.3,0.1l-0.1,1c0.6,0,1,0.2,1,0.8
					c0,0.2-0.2,0.7-0.4,0.7c-0.1,0-0.1,0-0.2,0c-0.1-0.1,0-0.2,0-0.4c0-0.2-0.2-0.3-0.4-0.3c-0.2,0-0.3,0.2-0.3,0.3
					c0,0.4,0.5,0.5,0.8,0.5c0.5,0,1.1-0.3,1.1-0.9C55,97.3,54.1,97.2,53.5,97.2"/>
				<path id="Fill-44" class="st1" d="M56.9,97.6c-0.6,0-0.7-0.7-0.7-1c0-0.1,0.1-0.2,0.2-0.2c0.5,0,0.7,1,0.7,1.2
					C57.1,97.5,57,97.6,56.9,97.6 M56.5,96.2c-0.6,0-1.1,0.3-1.1,0.8c0,0.7,1,1,1.8,0.7c0.1,0.6-0.1,1-0.3,1c-0.2,0-0.2-0.1-0.2-0.3
					c-0.1-0.2-0.3-0.3-0.5-0.2c-0.2,0.1-0.3,0.2-0.2,0.3c0.1,0.3,0.6,0.3,0.8,0.3c1-0.1,1.4-0.6,1.4-1.3
					C58.1,96.8,57.5,96.2,56.5,96.2"/>
				<path id="Fill-45" class="st1" d="M50,96c-0.1,0.1-0.4,0.5-1.1,1l0.1,0.1c0.1,0,0.2-0.1,0.4-0.2L49,98.3c0,0.1-0.1,0.1-0.2,0.1
					l-0.2,0l0,0.2l1.3,0.2l0-0.2l-0.2-0.1c-0.1,0-0.1-0.1-0.1-0.1l0.6-2.3L50,96"/>
				<path id="Fill-46" class="st1" d="M59.9,97.6l-1.2-3.7c2.5-0.5,4.2-1,5.5-1.5v2.3l2,0.8C64.5,96.3,62.4,97.1,59.9,97.6
					 M53.1,99.8c-2.3,0-4.5-0.3-6.5-0.8l1.2-3.9c0.8,0.2,2.8,0.4,5.2,0.4c2.4,0,4.4-0.2,5.2-0.4l1.2,3.9
					C57.7,99.5,55.4,99.8,53.1,99.8 M40,95.5l2-0.8v-2.3c1.3,0.5,3,1,5.5,1.5l-1.2,3.7C43.9,97.1,41.7,96.3,40,95.5 M64.8,94.2v-2.8
					c-2.2,1-5.1,1.8-8.7,2.2l-0.2,1c0.3,0,0.7,0.1,1.2,0.1c-1.4,0.2-3.1,0.3-4.1,0.3c-1,0-2.7-0.1-4.1-0.3c0.5,0,0.9-0.1,1.2-0.1
					l-0.2-1c-3.6-0.3-6.5-1.1-8.7-2.2v2.8l-3,1.2c2.2,1.2,4.8,2.1,7.8,2.9l-0.4,1.2c1.7,0.5,4.4,1,7.3,1c2.9,0,5.6-0.5,7.3-1
					l-0.4-1.2c3-0.8,5.6-1.7,7.8-2.9L64.8,94.2"/>
				<path id="Fill-47" class="st1" d="M15.6,57c0.6-0.8,1.3-1.6,2.4-2.5c-0.7-0.1-1.3-0.3-1.9-0.8c1.5-0.4,4.6-1.5,7.2-1
					c0.9,0.1,1.4,0.5,1,0.7c-1.4,0.9-3.2,3.1-4.4,5.6c-1.1-1.4-0.6-3.2-0.4-3.7C17.2,56.6,16.7,57.3,15.6,57 M18,57.3
					c0,0,1.2,2.2,1.9,2.7c2.1-2.1,3.7-5.1,7.1-6.8c-1.6-2.6-3.8-2.2-3.9-4.5c1,0.3,2-0.4,2.1-1.6c-1.1-0.6-1.5,0.6-1.8,0.3
					c-0.2-0.2,1.2-0.3,1.1-1.8c-1.4,0-1.2,1-1.5,0.9c-0.3-0.1,0.4-0.9-0.9-1.7c-0.7,1.3,0.3,1.8,0.1,2c-0.2,0.2-0.6-0.8-1.8-0.3
					c0.3,1.7,1.9,1,1.7,1.5c-0.2,0.4-1.3-0.7-1.7,0.6c0.6,1.1,1.7,0.8,2.4,0.4c0.1,2.1,1.6,2.3,3.1,3.8c-4.2-1.7-9.4,0.4-11.3,0.7
					c0.3,0.7,0.9,1.4,1.6,1.6c-1.2,1.1-1.2,1.7-2,2.5C14.1,57.3,15.7,59.1,18,57.3"/>
				<path id="Fill-48" class="st1" d="M51.3,55.7V57c0.4-0.5,1.3-0.4,1.3-0.4v1.8c0,0,0,0.9-0.3,1.3H54c-0.3-0.4-0.3-1.3-0.3-1.3
					v-1.8c0,0,0.8-0.1,1.3,0.4v-1.3H51.3"/>
				<path id="Fill-49" class="st2" d="M93.2,56.3c-0.2-0.2-0.4-0.4-0.5-0.7c-0.1-0.1-0.2-0.3-0.3-0.5c0.3-0.4,0.6-0.8,0.8-1.3
					l0.8-1.8l-2-0.3c-0.3,0-0.9-0.2-1.5-0.4c-1.2-0.3-2.8-0.7-4.5-0.9c0.6-0.3,1.1-0.7,1.4-1.3l0.3-0.6c0,0-0.1-0.8-0.4-1.1
					c0.1-0.3,0.2-0.5,0.3-0.8l0.3-1.3l-1.3-0.4c-0.2-0.1-0.4-0.1-0.6-0.1c-0.1-0.2-0.2-0.5-0.3-0.8l-0.8-1.4l-1.4,0.8
					c-0.3,0.2-0.6,0.4-0.9,0.7c-0.2,0-0.4-0.1-0.7-0.1c0,0-0.8-0.1-1.7,0.2L79.1,43l-1.3-1.4c-1.2-1.3-2.9-1.7-4.6-1
					c-0.6-0.6-1.7-1.2-3.2-1.2c-0.5,0-1,0.1-1.3,0.1c0,0-2.2,0.4-3.4,1.5l-1.5-0.7c-1,1.5-2.7,2-2.7,2c-0.1-0.4-0.3-0.9-0.6-1.3
					l0.1-0.5c0,0,0.3-1.9,1.3-3.4l1.8-2.7l-2.5,0.3c0-0.2,0-0.5,0-0.9L61,31.8l-2,0.9c-0.2,0.1-0.4,0.2-0.6,0.3l-0.4-0.8l-0.9,0.5
					c-0.1-0.2-0.2-0.5-0.4-0.7l-1-1.9l-1.5,1.6c-0.1,0.2-0.3,0.3-0.4,0.5l-0.9-0.9L52.2,32c-0.1-0.1-0.2-0.3-0.4-0.4L50.4,30l-1,1.9
					c-0.2,0.3-0.3,0.5-0.4,0.7l-0.9-0.5l-0.4,0.8c-0.2-0.1-0.4-0.2-0.6-0.3l-2-0.9L45,33.9c0,0.3,0,0.6,0,0.9l-2.5-0.3l1.8,2.7
					c1,1.6,1.3,3.4,1.3,3.4l0.1,0.5c-0.3,0.4-0.5,0.8-0.6,1.3c0,0-1.6-0.7-2.7-2l-1.5,0.7c-1.7-1.1-2.8-1.6-4.6-1.6
					c-1.6,0-2.6,0.5-3.2,1.2c-1.7-0.6-3.4-0.3-4.6,1c0,0-0.8,0.9-1.3,1.4c-0.5,0.5-1.3,1-1.3,1s-1.1-0.2-2.2,0
					c-0.2-0.3-0.5-0.5-0.9-0.7l-1.4-0.8l-0.8,1.4c-0.1,0.3-0.3,0.5-0.3,0.8c-0.2,0-0.4,0.1-0.6,0.1l-1.3,0.4l0.3,1.3
					c0.1,0.3,0.2,0.6,0.3,0.9c-0.1,0.1-0.1,0.3-0.2,0.4l-0.2,0.6l0.3,0.6c0.3,0.6,0.8,1.1,1.4,1.3c-1.7,0.2-3.3,0.6-4.6,0.9
					c-0.6,0.2-1.2,0.3-1.5,0.4l-2,0.3l0.5,1l0.4,0.8c0.2,0.5,0.5,0.9,0.8,1.2c-0.1,0.2-0.6,1-0.9,1.2l-1,1l1,1.1
					c0.1,0.1,1.2,1.3,3,1.3c0.5,0,1-0.1,1.4-0.3c0.5,0.7,1,1.5,1.6,1.8c-0.9,1.1-2,2.1-3.6,2.8l-1.3,0.6l0.5,1.4
					c0.4,0.9,1.1,1.8,2.4,2.2c-0.3,0.9-0.4,1.7-0.6,2.4c-0.3,1.7-0.4,2.4-1.9,2.9l-1.4,0.5l0.4,1.4c0.3,1.1,0.8,1.9,1.3,2.4l-0.9,1
					c0,0,2.2,1.6,4.3,1.8c0,0,1.8,0.1,2.6-0.9c0.3,1.2,0.8,2.2,1.3,3.2c1,2,1.5,3.2,0.8,4.2l-1.4,2.4l2.8-0.1
					c1.2-0.1,2.4-0.1,3.4-0.4c0,0.1,0,0.1,0,0.2l-0.2,2.1l2.5-0.5c0.3-0.1,0.5-0.2,0.7-0.3c1.5,1.8,4.2,3.2,7.7,3.2h0.2l-4.1,1.6
					l3,1.5c1.9,1,4.1,1.8,6.6,2.6l-0.3,1.2l1.5,0.4c0.9,0.2,4,1.1,7.7,1.1c3.8,0,6.9-0.8,7.7-1.1l1.5-0.4L62,99.4
					c2.5-0.7,4.6-1.6,6.6-2.6l3-1.5l-4.1-1.6h0.2c3.5,0,6.2-1.4,7.7-3.2c0.2,0.1,0.5,0.2,0.7,0.3l2.5,0.5l-0.2-2.1c0,0,0-0.1,0-0.2
					c1,0.2,2.1,0.3,3.4,0.4l2.8,0.1l-1.4-2.4C82.5,86,83,84.9,84,82.9c0.5-1,1-2,1.3-3.2c0.5,0.4,1.1,0.7,1.7,0.8
					c0,0,0.5,0.1,0.9,0.1c1.3,0,1.9-0.3,2.7-0.9l1.6-1l-0.9-1c0.5-0.5,1-1.2,1.3-2.4l0.4-1.4l-1.4-0.5c-1.5-0.5-1.6-1.2-1.9-2.9
					c-0.1-0.7-0.3-1.5-0.5-2.4c1.3-0.4,2-1.3,2.4-2.2l0.5-1.4L90.8,64c-1.5-0.7-2.6-1.7-3.6-2.8c0.5-0.4,1.1-1.1,1.6-1.8
					c0.5,0.2,1,0.2,1.4,0.3c1.8,0,2.9-1.1,3-1.3l1-1.1L93.2,56.3"/>
				<path id="Fill-51" class="st2" d="M42,92.4v2.3l-2,0.8c1.7,0.8,3.9,1.5,6.4,2.1l1.2-3.7C45.1,93.4,43.4,92.9,42,92.4"/>
				<path id="Fill-52" class="st2" d="M53.1,95.5c-2.4,0-4.4-0.2-5.2-0.4L46.6,99c1.9,0.5,4.2,0.8,6.5,0.8c2.3,0,4.5-0.3,6.5-0.8
					l-1.2-3.9C57.5,95.3,55.5,95.5,53.1,95.5"/>
				<path id="Fill-53" class="st2" d="M64.2,92.4c-1.3,0.5-3,1-5.5,1.5l1.2,3.7c2.5-0.6,4.7-1.3,6.4-2.1l-2-0.8V92.4"/>
				<path id="Fill-54" class="st2" d="M34,55.3c-2.8,3-1.6,4.7-1,5.3c-1-0.2-2.6-1.5-2.2-2.8c-0.3,0.4-0.7,0.8-1,1.3
					c-0.7,0.9-1.3,1.8-1.9,2.7c-0.8,2.5,0.7,5.1,3.4,6.2c-2.9-0.4-4.3-3-4.2-4.7c-1.4,2.6-2.1,5-2,7c0,0.7,0.1,1.4,0.2,2.1
					c0.7,1.3,1.8,1.7,3.7,2c-1.8,0.1-2.7,0-3.4-0.8c1.2,5.1,6.8,9.5,9.1,13.2c-2.3-2.9-7-7.3-8.6-10.4c-0.1,1.1,0.2,4.1,1.6,5.9
					c-2.1-2.1-2.3-5.2-2.1-7c-0.5-1.3-0.9-2.8-0.9-4.4c0-1.5,0.1-2.9,0.3-4.1c-1.3,1.9-3.3,2.6-4.2,5.5c0.2-3.7,3-3.7,5-8.2
					c0.8-2,2-3.6,3.3-5.6c-1.6,0.5-2.9,0.9-4.8,3c1.4-3.2,9.2-6.7,12.8-10.2c-1.1,0.2-5.5,0.3-7.3-0.9c3.3,0.9,10.7-0.1,13.4-2
					c-1.9,2.7-6.1,2.9-11.2,8.3C32.3,56.1,33.2,55.6,34,55.3 M37.8,54.9c3.2-1.7,11-5.5,5.7-9.5c-0.7-0.5-1.5-1-2.2-1.7
					c-0.8,0.6,0.3,2.2,0.6,2.8c0,0-1.8,0.2-2.2,0.2c-2.7,0-5.6-1.6-4.1-4.7c-1.1,0.2-1.2,1.2-1.5,2.1c-0.7-0.5-1.9-1.5-2.8-1.3
					c0.8,2.4,3.9,4.5,6.4,5c-2.5,1.3-7.1,2.3-9.6-0.5c-1.7,3.3,0.7,4.6,3,6.3c-8.9,4-7.6,8.5-13.4,12c0.8,0.4,4.1-0.4,4.4-0.4
					c-1.3,1.6-1.9,2.3-2.2,3.1c-0.4,0.7-0.5,1.6-0.9,3.4c-0.3,1.4-0.8,2.8-2.5,3.8c0.7,1.2,2.2,0.3,2.8,0.1
					c-0.1,0.1-0.3,1.6-0.9,2.3c3-0.2,1.6-6.4,4.6-4.9c0.8,0.4,1.1,1.4,0.7,2.2c-2,4,2.5,7.5,2.3,11.1c1.1,0,2.2,0,3-1.5
					c0.4,0.7,1,1.8,1.3,2.8l0.9-1.5c0.6,2.5,2.9,4.8,6.1,5c-1.5-2.4,0.3-5.6-3.4-9.1c0.5-0.4,1.5-1.1,1.9-1.6
					c-4.5,0.5-9.2-3-7.1-4.7c1.4-1.1,2,1.2,4.2,0.8L32,75.9c0.3-0.3,0.6-0.7,1-1C32,74.8,31,74.2,31,74.2l0.5-0.9
					c-5.3,0-5.4-4-3.3-4.2c1-0.1,2.3,1.8,5.6,1.4c-0.4-0.5-0.6-1.2-0.8-1.8c0.8-0.1,1.7-0.1,2.5-0.4c-1.6-0.2-2-0.7-3.3-1.7l1.5-0.6
					c-2.2-1.1-2.1-3-2.2-5c1.2,0.7,2.5,1.7,4,1.2c0.3-0.1,0.6-0.3,0.6-0.6C34.1,60.8,32.8,57.6,37.8,54.9"/>
				<path id="Fill-55" class="st2" d="M81.6,66.7c0.2,1.2,0.4,2.5,0.3,4.1c-0.1,1.7-0.4,3.1-0.9,4.4c0.1,1.8,0,4.9-2.1,7
					c1.4-1.8,1.7-4.7,1.6-5.9c-1.7,3.2-6.4,7.5-8.6,10.4c2.3-3.8,7.9-8.2,9.1-13.2c-0.8,0.8-1.7,0.9-3.5,0.8c1.9-0.2,3-0.7,3.7-2
					c0.1-0.7,0.2-1.4,0.2-2.1c0.1-2-0.6-4.4-2-7c0,1.6-1.3,4.2-4.2,4.7c2.6-1.1,4.2-3.7,3.3-6.2c-0.5-0.9-1.2-1.8-1.9-2.7
					c-0.3-0.4-0.7-0.9-1-1.3c0.4,1.3-1.2,2.6-2.2,2.8c0.6-0.5,1.8-2.3-1-5.3c0.8,0.4,1.6,0.9,2.3,1.4c-5.1-5.4-9.2-5.6-11.2-8.3
					c2.8,1.9,10.1,2.9,13.4,2c-1.8,1.2-6.2,1.1-7.3,0.9c3.6,3.4,11.4,7,12.8,10.2c-1.9-2.1-3.1-2.4-4.8-3c1.3,1.9,2.5,3.6,3.3,5.6
					c2.1,4.5,4.9,4.5,5.1,8.2C84.9,69.3,83,68.6,81.6,66.7 M87.2,71.8c-0.4-1.8-0.5-2.6-0.9-3.4c-0.4-0.8-1-1.5-2.2-3.1
					c0.3,0,3.7,0.7,4.4,0.4c-5.8-3.5-4.5-8-13.4-12c2.3-1.7,4.7-3.1,3-6.3c-2.4,2.9-7.1,1.9-9.6,0.6c2.5-0.5,5.6-2.6,6.4-5
					c-0.9-0.1-2.1,0.9-2.8,1.3c-0.3-0.9-0.5-1.9-1.5-2.1c1.4,3.1-1.4,4.6-4.1,4.7c-0.4,0-2.2-0.2-2.2-0.2c0.3-0.6,1.4-2.1,0.6-2.8
					c-0.7,0.6-1.5,1.1-2.2,1.7c-5.3,4,2.5,7.8,5.7,9.5c5,2.7,3.7,5.9,1.6,6.7c0,0.4,0.2,0.5,0.6,0.6c1.5,0.5,2.8-0.5,4-1.2
					c-0.1,2,0.1,3.9-2.2,5l1.5,0.6c-1.3,1-1.7,1.5-3.3,1.7c0.7,0.4,1.7,0.4,2.5,0.4c-0.2,0.6-0.4,1.3-0.8,1.8
					c3.3,0.4,4.6-1.5,5.6-1.4c2.1,0.2,2,4.2-3.3,4.2l0.5,0.9c0,0-1,0.6-1.9,0.7c0.4,0.3,0.7,0.7,1,1l-0.8,0.7
					c2.2,0.4,2.8-1.9,4.2-0.8c2.1,1.7-2.6,5.2-7.1,4.7c0.4,0.5,1.4,1.2,1.9,1.6c-3.7,3.4-1.9,6.7-3.4,9.1c3.2-0.2,5.5-2.5,6.1-5
					l0.9,1.5c0.3-1,0.9-2,1.3-2.8c0.7,1.5,1.9,1.5,3,1.5c-0.2-3.5,4.2-7,2.3-11.1c-0.4-0.8-0.1-1.8,0.7-2.2c3-1.5,1.6,4.7,4.6,4.9
					c-0.6-0.7-0.8-2.2-0.9-2.3c0.6,0.2,2.2,1.1,2.8-0.1C88,74.7,87.5,73.2,87.2,71.8"/>
				<path id="Fill-56" class="st2" d="M57.2,60.3c-0.8,1.1-2.4,1.9-4.1,1.9c-0.4,0-0.8,0-1.2-0.1c0.1,0.5,0.3,1,0.9,1.4
					c-0.2,1.4,0.4,2.6,1.9,3c0.2,0.7,0.6,1.2,1.3,1.5L55,69c-0.4,0.5-0.9,0.6-1.3,0.5L49,69.1c0.2-0.5-0.3-1.1-1.8-0.8l1.8-5
					L48,60.9l-2.1,1.8l-0.2,5.2l-0.9-0.4c-1.2-0.5-1.5,1.6-0.4,1.6l0.4,0c0,0.2,0,0.5,0.2,0.5c-0.2,0.1-0.3,0.5,0,0.6
					c-0.3,0.1-0.3,0.5-0.1,0.7c-0.2,0.4-0.3,1.2,0.5,1.4c0.7,0.2,1.1-0.5,1.2-0.9l7.2,2.2c1,0.3,1.7,0.1,2.6-0.6l1.9-1.6
					c-0.2,1.1,0.1,2,1,2.3c0,0-0.1,1-0.1,1.4l2.5,0h3.9V63.4c0-1.1,0.3-2.2,0.7-3.2H57.2"/>
				<path id="Fill-57" class="st2" d="M46.5,79.8l0.1,0.2c0.2,0.2,0.3,0.2,0.5,0.1l0.3-0.2c0.2-0.2,1.5,0.3,1.6-0.7
					c0.1,0.8-0.8,2.5-0.2,3.5l0.8,1.3l-2.6,0c-0.3,0-0.4,0.2-0.5,0.3l-0.7,1.4c-0.2,0.4-0.2,0.8,0.1,1l0.5,0.5c0,0,0.4-0.3,0.5-0.7
					l-0.2-0.2c-0.2-0.2-0.2-0.3-0.1-0.5l0.4-0.9c0.2-0.3,0.3-0.4,0.7-0.3l2.1,0.5c0.2,0,0.4,0.1,0.6-0.1c0.3-0.5,0.7-0.5,1.2-0.4
					c1.2,0.2,3.8,0.4,4.8-0.7c1.1,1.5,3.3,1.5,3.2,2.2L59,88.6h0.7l0.4-2.6c0-0.3,0.2-0.7-0.1-0.9c-0.1-0.1-0.2-0.2-0.5-0.7
					c-0.4-0.7-0.4-1.7-0.8-2.6c0.4-0.4,0.8-0.6,1.1-0.5c0.8,0.2,1,1.5,2.1,2.6c-0.1-0.5-0.2-1-0.4-1.5c0,0,0.8,0.6,1,1.3
					c0.1,0.4,0.3,0.7,0.6,0.9c0.3,0.1,0.6,0,0.9-0.4c0,0-0.7-1-1.3-1.7c-0.7-0.9-1.7-1.8-3-1.7c-0.4,0-0.8,0.2-1.2,0.4
					c-1.5-0.8-2.7,0-3.1,0l-2.8-0.2c-0.6,0-1-0.7-1-0.7c-0.1-2.3-2-3.3-2.6-3.3c0,0,0.1-0.4-0.1-0.6l-0.6,0.7l-1.6-0.6l1.3,1
					l-1.4,1.6C46.4,79.6,46.4,79.8,46.5,79.8"/>
				<path id="Fill-58" class="st2" d="M44.7,83.1c-0.4,0.3-0.4,0.7-0.1,1.2l0.2,0.4l0.6-0.5L45.2,84c-0.1-0.2-0.1-0.4,0.1-0.6
					l0.9-0.7c0.2-0.2,0.3-0.2,0.6-0.2l1.9,0.4c0,0-0.3-0.4-0.4-0.8L46.5,82c-0.2,0-0.4,0.1-0.6,0.2L44.7,83.1"/>
				<path id="Fill-59" class="st2" d="M56.5,88.6h0.7l1.1-2.7c0-0.1,0.1-0.1,0.1-0.2c-0.5-0.2-0.8-0.3-1.2-0.6
					c0.3,0.4,0.5,0.5,0.4,0.9L56.5,88.6"/>
				<path id="Fill-60" class="st2" d="M54.3,50.2l2.6-1c0,0,0,0.3-0.8,0.8c-0.7,0.5-1.9,1-1.9,1V50.2z M54.3,48.3l3-1.1
					c0,0-0.4,0.4-1.1,0.9c-0.7,0.5-1.9,1-1.9,1V48.3z M54.3,46.5l3.3-1.2c0,0-0.6,0.5-1.4,1c-0.7,0.5-1.9,1-1.9,1V46.5z M57.1,51.5
					l1.3-7.4l-4.9,1.7v7.6L57.1,51.5z"/>
				<path id="Fill-61" class="st2" d="M48.4,58l0.1,0.2h1l0,0.2c0,0.2,0.1,0.3,0.1,0.5c0.2,0.5,0.5,1,1,1.4c0.6,0.5,1.4,0.8,2.5,0.8
					c2.4,0,3.5-1.6,3.6-2.7l0-0.2h1l0.1-0.2c1-1.5,2.1-3.1,3.5-3.4l-3.7-2.1L53.1,55l-4.5-2.4l-3.7,2.1C46.2,54.9,47.4,56.6,48.4,58
					"/>
				<path id="Fill-62" class="st2" d="M51.9,48.3v0.8c0,0-1.2-0.5-1.9-1c-0.8-0.5-1.1-0.9-1.1-0.9L51.9,48.3z M51.9,46.5v0.8
					c0,0-1.2-0.5-1.9-1c-0.8-0.5-1.4-1-1.4-1L51.9,46.5z M51.9,51c0,0-1.2-0.5-1.9-1c-0.8-0.5-0.8-0.8-0.8-0.8l2.6,1V51z M52.7,53.4
					v-7.6l-4.9-1.7l1.3,7.4L52.7,53.4z"/>
				<path id="Fill-63" class="st2" d="M53.1,40.9c-2.8,0-4.9,0.9-5.4,2l5.4,2.1l5.4-2.1C58,41.8,55.9,40.9,53.1,40.9"/>
				<path id="Fill-64" class="st2" d="M53.1,37.8c2.1,0,4.1,0.6,5.5,1.4c0.2-0.7,0.5-1.3,0.8-1.9l-1.3,0.2l-1-2.2l-1.9,1l-2.1-2.1
					L51,36.4l-1.9-1l-1,2.2l-1.3-0.2c0.3,0.6,0.6,1.1,0.8,1.9C49,38.4,51,37.8,53.1,37.8"/>
				<path id="Fill-65" class="st2" d="M88.2,54.6c0.7-0.1,1.3-0.3,1.9-0.8c-1.5-0.4-4.5-1.5-7.2-1c-0.9,0.1-1.4,0.5-1,0.7
					c1.4,0.9,3.2,3.1,4.4,5.6c1.1-1.4,0.6-3.2,0.4-3.7c2.2,1.3,2.8,2,3.8,1.7C90,56.2,89.3,55.4,88.2,54.6"/>
				<path id="Fill-66" class="st2" d="M19.9,59c1.3-2.5,3-4.6,4.4-5.6c0.3-0.2-0.2-0.5-1-0.7c-2.6-0.5-5.7,0.6-7.2,1
					c0.7,0.5,1.2,0.7,1.9,0.8c-1.1,0.9-1.8,1.6-2.4,2.5c1,0.3,1.6-0.4,3.8-1.7C19.2,55.8,18.8,57.6,19.9,59"/>
				<path id="Fill-67" class="st0" d="M31.1,86.1l-0.9,1.5c-0.3-1-0.9-2-1.3-2.8c-0.7,1.5-1.9,1.5-3,1.5c0.2-3.5-4.2-7-2.3-11.1
					c0.4-0.8,0.1-1.8-0.7-2.2c-3-1.5-1.6,4.7-4.6,4.9c0.6-0.7,0.8-2.2,0.9-2.3c-0.6,0.2-2.2,1.1-2.8-0.1c1.7-0.9,2.2-2.4,2.5-3.8
					c0.3-1.8,0.5-2.6,0.9-3.4c0.4-0.8,1-1.5,2.2-3.1c-0.3,0-3.7,0.7-4.4,0.4c5.8-3.5,4.5-8,13.4-12c-2.3-1.7-4.7-3.1-3-6.3
					c2.4,2.9,7.1,1.9,9.6,0.5c-2.5-0.5-5.6-2.6-6.4-5c0.9-0.1,2.1,0.9,2.8,1.3c0.3-0.9,0.5-1.9,1.5-2.1c-1.4,3.1,1.4,4.6,4.1,4.7
					c0.4,0,2.2-0.2,2.2-0.2c-0.3-0.6-1.4-2.1-0.6-2.8c0.7,0.6,1.5,1.1,2.2,1.7c5.3,4-2.5,7.8-5.7,9.5c-5,2.7-3.7,5.9-1.6,6.7
					c0,0.4-0.2,0.5-0.6,0.6c-1.5,0.5-2.8-0.6-4-1.2c0.1,2-0.1,3.9,2.2,5l-1.5,0.6c1.3,1,1.7,1.5,3.3,1.7c-0.7,0.4-1.7,0.4-2.5,0.4
					c0.2,0.6,0.4,1.3,0.8,1.8c-3.3,0.4-4.6-1.5-5.6-1.4c-2.2,0.2-2,4.2,3.3,4.2L31,74.2c0,0,1,0.6,1.9,0.7c-0.4,0.3-0.7,0.7-1,1
					l0.8,0.7c-2.2,0.4-2.8-1.9-4.2-0.8c-2.1,1.7,2.6,5.2,7.1,4.7c-0.4,0.5-1.4,1.2-1.9,1.6c3.7,3.4,1.9,6.7,3.4,9.1
					C34,90.9,31.7,88.6,31.1,86.1 M35.3,82.2c1-0.8,1.9-1.2,1.8-3.1c-1.5,0.8-5.9,0.7-7.7-1.7c-0.5-0.7,0-1.1,0.5-0.5
					c1.2,1.4,3.6,0.8,4.4,0.4c-0.1-0.5-0.5-1.1-0.8-1.4c0.3-0.3,1.2-0.8,1.4-1.5c-0.5-0.3-2.3-0.4-2.3-0.4c0.3-0.3,0.7-0.7,0.4-1.7
					c-1.9,0.6-4.2-0.2-4.7-0.9c-0.5-0.7,0-1.3,0.4-0.9c0.9,1,5.6,2.1,7.3,0.4c-0.6-0.2-1.3-0.7-1.5-1.1c1.6-0.2,2.9-1.1,3-2.2
					c-0.9,0-2.5-0.1-3.1-0.5c0.8-0.3,1.2-0.6,1.5-1.4c-2.9-0.2-3.1-2.3-3.2-2.7c1.9,1.1,5.2,0.6,4.4-2.1c-1.6-0.1-3.2-2.6,1.2-4.9
					c4-2.1,8.4-4.4,8-8.1c-0.3-2.4-4.3-4-4.8-5.3c-1.7,0.8-2,1.7-1.3,3.2c0,0-3.7,0.4-4-1.9c-0.1-1,0.6-2,1.3-2.7
					c-0.4,0-3.2-0.7-4.1,1.5c-1.6-1.1-2.9-1-4,0.1c1.7,1,2.7,4.4,5.5,5.4c-2,1.1-5.2,0.6-7.1-2.7c-1.8,2.6-2.8,5.3,1,8
					c-6.9,3.1-6.9,9.1-12.9,11.9c0.6,1.6,1.9,1.6,3.5,1.4c-2.6,3.3-0.4,6.8-4.5,8.3c0.4,1.4,1.2,2.5,2.7,2.1
					c-0.4,0.7-0.7,0.7-1.4,1.4c2.3,1.4,4.9,0.4,5.5-4.1c0.1-0.8,1.2-0.3,0.8,0.5c-2.6,5.2,3.9,9.2,1.6,13c2-0.1,3.6-0.2,4.4-0.9
					c0.4,0.8,0.7,1.6,0.6,2.4c1.1-0.2,1.5-0.9,1.6-1.6c0.7,2.1,3.4,4.4,7.5,4.4C36.4,89,38.4,85.8,35.3,82.2"/>
				<path id="Fill-68" class="st0" d="M25.3,73.5c0.8,0.8,1.7,0.9,3.4,0.8c-1.9-0.2-3-0.7-3.7-2c-0.1-0.7-0.2-1.4-0.2-2.1
					c-0.1-2,0.6-4.4,2-7c0,1.6,1.3,4.2,4.2,4.7c-2.6-1.1-4.2-3.7-3.4-6.2c0.6-0.9,1.2-1.8,1.9-2.7c0.3-0.4,0.7-0.9,1-1.3
					c-0.4,1.3,1.2,2.6,2.2,2.8c-0.6-0.5-1.8-2.3,1-5.3c-0.8,0.4-1.6,0.9-2.3,1.4c5.1-5.4,9.2-5.6,11.2-8.3c-2.8,1.9-10.1,2.9-13.4,2
					c1.8,1.2,6.2,1.1,7.3,0.9c-3.6,3.4-11.4,7-12.8,10.2c1.9-2.1,3.1-2.4,4.8-3c-1.3,1.9-2.5,3.6-3.3,5.6c-2.1,4.5-4.9,4.5-5,8.2
					c0.9-2.9,2.9-3.6,4.2-5.5c-0.2,1.2-0.3,2.5-0.3,4.1c0,1.7,0.4,3.1,0.9,4.4c-0.1,1.8,0,4.9,2.1,7c-1.4-1.8-1.7-4.7-1.6-5.9
					c1.7,3.2,6.4,7.5,8.6,10.4C32.1,83,26.5,78.6,25.3,73.5"/>
				<path id="Fill-69" class="st0" d="M77.5,58.4c1.6,0.5,2.9,0.9,4.8,3c-1.4-3.2-9.2-6.7-12.8-10.2c1.1,0.2,5.5,0.3,7.3-0.9
					c-3.3,0.9-10.7-0.1-13.4-2c1.9,2.7,6.1,2.9,11.2,8.3c-0.7-0.5-1.5-1-2.3-1.4c2.8,3,1.6,4.7,1,5.3c1-0.2,2.6-1.5,2.2-2.8
					c0.3,0.4,0.7,0.8,1,1.3c0.7,0.9,1.3,1.8,1.9,2.7c0.8,2.5-0.7,5.1-3.3,6.2c2.9-0.4,4.3-3,4.2-4.7c1.4,2.6,2.1,5,2,7
					c0,0.7-0.1,1.4-0.2,2.1c-0.7,1.3-1.8,1.7-3.7,2c1.8,0.1,2.7,0,3.5-0.8c-1.2,5.1-6.8,9.5-9.1,13.2c2.3-2.9,7-7.3,8.6-10.4
					c0.1,1.1-0.2,4.1-1.6,5.9c2.1-2.1,2.3-5.2,2.1-7c0.5-1.3,0.9-2.8,0.9-4.4c0-1.5-0.1-2.9-0.3-4.1c1.3,1.9,3.3,2.6,4.2,5.5
					c-0.2-3.7-3-3.7-5.1-8.2C80,62,78.8,60.3,77.5,58.4"/>
				<path id="Fill-70" class="st0" d="M86.9,75.7c0.1,0.1,0.3,1.6,0.9,2.3c-3-0.2-1.6-6.4-4.6-4.9c-0.8,0.4-1.1,1.4-0.7,2.2
					c2,4-2.5,7.5-2.3,11.1c-1.1,0-2.2,0-3-1.5c-0.4,0.7-1,1.8-1.3,2.8l-0.9-1.5c-0.6,2.5-2.9,4.8-6.1,5c1.5-2.4-0.3-5.6,3.4-9.1
					c-0.5-0.4-1.5-1.1-1.9-1.6c4.5,0.5,9.2-3,7.1-4.7c-1.4-1.1-2,1.2-4.2,0.8l0.8-0.7c-0.3-0.3-0.6-0.7-1-1c0.9-0.1,1.9-0.7,1.9-0.7
					l-0.5-0.9c5.3,0,5.4-4,3.3-4.2c-1-0.1-2.3,1.8-5.6,1.4c0.4-0.5,0.6-1.2,0.8-1.8c-0.8-0.1-1.7-0.1-2.5-0.4c1.6-0.2,2-0.7,3.3-1.7
					l-1.5-0.6c2.2-1.1,2.1-3,2.2-5c-1.2,0.7-2.5,1.7-4,1.2C70.3,62.1,70,62,70,61.6c2.1-0.8,3.4-4-1.6-6.7c-3.2-1.7-11-5.5-5.7-9.5
					c0.7-0.5,1.5-1,2.2-1.7c0.8,0.6-0.3,2.2-0.6,2.8c0,0,1.8,0.2,2.2,0.2c2.7,0,5.6-1.6,4.1-4.7c1.1,0.2,1.2,1.3,1.5,2.1
					c0.7-0.5,1.9-1.5,2.8-1.3c-0.8,2.4-3.9,4.5-6.4,5c2.5,1.3,7.1,2.3,9.6-0.5c1.7,3.3-0.7,4.6-3,6.3c8.9,4,7.6,8.5,13.4,12
					c-0.8,0.4-4.1-0.4-4.4-0.4c1.3,1.6,1.9,2.3,2.2,3.1c0.4,0.7,0.5,1.6,0.9,3.4c0.3,1.4,0.8,2.8,2.5,3.8
					C89.1,76.8,87.6,75.9,86.9,75.7 M86.6,66.8c1.6,0.3,2.9,0.3,3.5-1.4c-6-2.8-6-8.8-12.9-11.9c3.8-2.8,2.8-5.4,1-8
					c-1.9,3.3-5.1,3.7-7.1,2.7c2.8-1,3.8-4.4,5.5-5.4c-1.1-1.1-2.4-1.2-4-0.1c-0.8-2.3-3.6-1.5-4.1-1.5c0.7,0.7,1.4,1.7,1.3,2.7
					c-0.3,2.3-4,1.9-4,1.9c0.7-1.5,0.4-2.4-1.3-3.2c-0.5,1.2-4.5,2.9-4.8,5.3c-0.4,3.8,4.1,6,8,8.1c4.3,2.3,2.8,4.9,1.2,4.9
					c-0.9,2.7,2.5,3.1,4.4,2.1c0,0.4-0.3,2.5-3.2,2.7c0.2,0.8,0.7,1.1,1.5,1.4c-0.6,0.4-2.2,0.5-3.1,0.5c0.1,1.2,1.4,2.1,3,2.2
					c-0.1,0.3-0.8,0.9-1.5,1.1c1.7,1.7,6.4,0.6,7.3-0.4c0.4-0.5,1,0.2,0.4,0.9c-0.5,0.7-2.9,1.5-4.7,0.9c-0.2,1,0.1,1.4,0.4,1.7
					c0,0-1.8,0.2-2.3,0.4c0.2,0.8,1.1,1.2,1.4,1.5c-0.3,0.3-0.7,0.9-0.8,1.4c0.8,0.4,3.2,1,4.4-0.4c0.5-0.6,1-0.2,0.5,0.5
					c-1.8,2.5-6.2,2.5-7.7,1.7c0,1.9,0.8,2.3,1.8,3.1c-3.1,3.6-1.1,6.8-3.3,9.9c4.2,0,6.8-2.3,7.5-4.4c0.1,0.8,0.5,1.4,1.6,1.6
					c-0.1-0.8,0.2-1.6,0.6-2.4c0.8,0.7,2.4,0.8,4.4,0.9c-2.3-3.9,4.2-7.8,1.6-13c-0.4-0.8,0.7-1.3,0.8-0.5c0.6,4.5,3.3,5.5,5.5,4.1
					c-0.7-0.7-1-0.7-1.4-1.4c1.5,0.4,2.3-0.7,2.7-2.1C87,73.6,89.2,70.1,86.6,66.8"/>
				<path id="Fill-71" class="st0" d="M44.7,83.1l1.2-0.9c0.2-0.2,0.4-0.3,0.6-0.2l1.7,0.2c0.1,0.4,0.4,0.8,0.4,0.8l-1.9-0.4
					c-0.3,0-0.3,0-0.6,0.2l-0.9,0.7c-0.2,0.1-0.2,0.3-0.1,0.6l0.1,0.3l-0.6,0.5l-0.2-0.4C44.3,83.9,44.3,83.4,44.7,83.1 M47.5,79.9
					l-0.3,0.2c-0.2,0.1-0.3,0.2-0.5-0.1l-0.1-0.2c-0.1-0.1-0.1-0.3,0.1-0.4l1.4-1.6l-1.3-1l1.6,0.6l0.6-0.7c0.2,0.1,0.1,0.6,0.1,0.6
					c0.7,0,2.6,0.9,2.6,3.3c0,0,0.4,0.6,1,0.7l2.8,0.2c0.5,0,1.6-0.9,3.1,0c0.4-0.2,0.8-0.4,1.2-0.5c1.3-0.1,2.3,0.8,3,1.7
					c0.5,0.7,1.3,1.7,1.3,1.7c-0.3,0.4-0.6,0.5-0.9,0.4c-0.4-0.2-0.5-0.5-0.6-0.9c-0.2-0.7-1-1.3-1-1.3c0.3,0.5,0.3,1,0.4,1.5
					c-1.1-1.1-1.3-2.4-2.1-2.6c-0.3-0.1-0.7,0.1-1.1,0.5c0.4,0.9,0.4,1.9,0.8,2.6c0.3,0.5,0.4,0.6,0.5,0.7c0.3,0.2,0.1,0.6,0.1,0.9
					l-0.4,2.6H59l0.5-2.5c0.1-0.8-2-0.8-3.2-2.2c-1,1.1-3.6,0.8-4.8,0.7c-0.5-0.1-0.9,0-1.2,0.4c-0.1,0.3-0.4,0.2-0.6,0.1l-2.1-0.5
					c-0.4-0.1-0.5,0-0.7,0.3l-0.4,0.9c-0.1,0.2-0.1,0.4,0.1,0.5l0.2,0.2c-0.1,0.4-0.5,0.7-0.5,0.7l-0.5-0.5c-0.2-0.3-0.2-0.6-0.1-1
					l0.7-1.4c0.1-0.2,0.2-0.3,0.5-0.3l2.6,0l-0.8-1.3c-0.6-1,0.4-2.7,0.2-3.5C49,80.3,47.7,79.8,47.5,79.9 M58.3,85.8l-1.1,2.7h-0.7
					l1.1-2.7c0.1-0.3-0.1-0.5-0.4-0.9c0.4,0.2,0.7,0.4,1.2,0.6C58.4,85.7,58.4,85.8,58.3,85.8 M44.6,85.5l1.3-1.1l-0.2-0.4
					c-0.1-0.3-0.1-0.3,0.1-0.4l0.7-0.5c0.2-0.1,0.3-0.1,0.5-0.1l2,0.5h-2.1c-0.5,0-0.6,0.2-0.8,0.6l-0.1,0.3l-0.5,1.1
					c-0.2,0.4-0.3,0.9,0.2,1.5l0.4,0.5l-0.8,1.6h0.7l0.5-1.1c0,0,0.8-0.8,1-1.5c-0.2-0.2-0.4-0.3-0.3-0.6l0.2-0.5
					c0.1-0.2,0.1-0.2,0.3-0.2l2.1,0.5c0.3,0.1,0.6,0.2,0.9-0.2c0.3-0.4,0.3-0.4,1-0.3l1.1,0.1c1.5,0.1,2.9-0.2,3.5-0.7
					c0.2,0.5,0.6,0.8,0.8,1.1c0.1,0.1,0,0.3-0.1,0.5l-1.2,2.9h1.9l1.1-2.6c0.1-0.2,0.2-0.4,0.3-0.5l-0.6,3.1h1.8l0.5-3.1
					c0.1-0.7,0-0.9-0.3-1.2c-0.8-0.6-0.7-1.9-1-2.7c0.1-0.1,0.3-0.1,0.5-0.1c0.4,0,0.7,1,1.2,1.7c0.9,1.3,2.2,2.7,3.6,0.7
					c-0.1-0.2-0.3-0.4-0.5-0.6l-0.4-0.5c-0.2-0.3-1.4-1.5-1.8-2c-1.1-1.1-2.7-0.9-3.3-0.4c-1.5-0.8-3,0-3.4,0l-2.5-0.2
					c-0.1,0-0.3,0-0.4-0.2l0.5-0.2c-0.4-1.8-1.5-3.3-3.5-3.6c0,0-0.1-0.6-0.4-0.7l-0.6,0.7c-0.2,0-0.3,0.1-0.5,0.1l-2.5-0.9l1.9,1.8
					c0,0-1,1.3-1.2,1.6c-0.2,0.3-0.2,0.4,0,0.7l0.4,0.5c0.2,0.2,0.4,0.2,0.7,0.1l0.4-0.2c0.2-0.1,0.8,0.1,1-0.1
					c-0.2,0.5-0.2,1-0.3,1.4l-1.7-0.2c-0.4,0-0.5,0-0.7,0.2l-1.4,1.1c-0.5,0.4-0.6,1-0.3,1.5L44.6,85.5"/>
				<path id="Fill-72" class="st0" d="M50,50.1c0.7,0.5,1.9,1,1.9,1v-0.8l-2.6-1C49.3,49.2,49.3,49.5,50,50.1"/>
				<path id="Fill-73" class="st0" d="M51.9,49.1v-0.8l-3-1.1c0,0,0.4,0.4,1.1,0.9C50.7,48.6,51.9,49.1,51.9,49.1"/>
				<path id="Fill-74" class="st0" d="M51.9,47.3v-0.8l-3.3-1.2c0,0,0.6,0.5,1.4,1C50.7,46.8,51.9,47.3,51.9,47.3"/>
				<path id="Fill-75" class="st0" d="M61.1,58h3.3c-0.1-0.5-0.7-1-1.6-1C61.9,57.1,61.3,57.6,61.1,58"/>
				<path id="Fill-76" class="st0" d="M57.6,45.3l-3.3,1.2v0.8c0,0,1.2-0.5,1.9-1C57,45.9,57.6,45.3,57.6,45.3"/>
				<path id="Fill-77" class="st0" d="M57,49.2l-2.6,1V51c0,0,1.2-0.5,1.9-1C57,49.5,57,49.2,57,49.2"/>
				<path id="Fill-78" class="st0" d="M57.3,47.3l-3,1.1v0.8c0,0,1.2-0.5,1.9-1C57,47.6,57.3,47.3,57.3,47.3"/>
				<path id="Fill-79" class="st0" d="M43.4,57.1c-1,0-1.5,0.5-1.6,1h3.3C44.9,57.6,44.3,57.1,43.4,57.1"/>
				<path id="Fill-80" class="st0" d="M53.1,45l-5.4-2.1c0.5-1.1,2.6-2,5.4-2c2.8,0,4.9,0.9,5.4,2L53.1,45z M57.1,51.5l-3.6,1.9
					v-7.6l4.9-1.7L57.1,51.5z M61.4,54.7c-1.4,0.2-2.5,1.9-3.5,3.4l-0.1,0.2h-1l0,0.2c-0.1,1.1-1.2,2.7-3.6,2.7
					c-1.1,0-2-0.3-2.5-0.8c-0.5-0.4-0.8-0.9-1-1.4c-0.1-0.2-0.1-0.3-0.1-0.5l0-0.2h-1L48.4,58c-1-1.5-2.1-3.1-3.5-3.4l3.7-2.1
					l4.5,2.4l4.5-2.4L61.4,54.7z M66.3,60.3c-0.4,1-0.7,2.1-0.7,3.2v11.6h-1.4c-0.6-0.6-1.1-2.6-1.1-2.6c-0.3,0.7,0,2.2,0.4,2.6
					h-1.8c-0.4-0.6-0.8-2.6-0.8-2.6c-0.5,0.6-0.2,2.2,0.1,2.6h-1.2c-0.1-0.8,0.2-1.7,0.2-1.7c-0.6-0.1-1.3-0.4-1.3-1.1
					c0.3,0.3,0.4,0.3,0.9,0.3l0.5-0.4c-1.6,0.1-1.7-1.7-0.4-2.6c-1.3,0-2.3-0.7-1.8-2.1c-0.9-0.5-1.3-2-0.6-2.7
					c-0.5-0.5-0.6-1.6-0.3-2.3c-0.7,0-1.4-0.3-1.8-0.7c0,0-0.1,0-0.1,0c0.8-0.3,1.5-0.8,2-1.5H66.3z M65.6,83.4c0,2.4-1.1,4.3-3,5.3
					l0.7-1.4h-0.7L61.8,89c-0.9,0.3-1.9,0.5-3,0.5c-3.4,0-4.3,0.1-5.6,1.4c-1.3-1.3-2.2-1.4-5.6-1.4c-1.1,0-2.1-0.2-3-0.5h0l0.9-1.7
					h-0.7l-0.8,1.5c-0.2-0.1-0.4-0.2-0.5-0.3l0.6-1.3h-0.6l-0.5,0.9c-1.5-1.1-2.3-2.7-2.3-4.9v-7.6h25.1V83.4z M48.6,69.5l1.1,0.1
					c0.1,0.6-0.1,1.5-0.4,2.1l-1-0.3C48.4,70.7,48.5,70.1,48.6,69.5z M47.1,68.7c0,0,1,0,1.2,0.1c0.2,0.1,0.1,0.4-0.2,0.4
					C47.8,69.1,47.1,68.7,47.1,68.7z M47,64.9L46.1,68l0.3-5.1l1.4-1.1l0.7,1.5l-1.7,4.9l0.5-3.3C47.2,64.7,47,64.7,47,64.9z
					 M46.3,70.1c-0.5,0.2-0.9-0.1-0.8-0.4c0.2,0.2,0.8,0.1,0.8,0.1L46.3,70.1z M45.5,70.5c0.2,0.2,0.8,0.1,0.8,0.1l0,0.1
					C46.1,71.2,45.3,71,45.5,70.5z M44.5,68.5c-0.2-0.2-0.1-0.5,0.1-0.5c0.3,0,0.7,0.3,1.1,0.5C45.7,68.5,44.7,68.6,44.5,68.5z
					 M45.4,71.3c0,0,0.3,0.1,0.7,0.1c0,0.2-0.2,0.4-0.4,0.3C45.5,71.7,45.4,71.5,45.4,71.3z M46.1,69.4c-0.5,0.2-0.7-0.2-0.7-0.5
					c1-0.3,1.4-0.1,1.7,0.1c0.3,0.2,0.5,0.6,0.8,0.9c-0.1,0.4-0.2,1-0.3,1.3c-1-0.2-1-1.1-0.7-1.6C46.7,69.3,46.5,69.3,46.1,69.4z
					 M50.4,69.7l1.1,0.1c0.1,0.6-0.1,1.8-0.5,2.4l-1.1-0.3C50.3,71.3,50.5,70.3,50.4,69.7z M52.2,69.9l0.9,0.1
					c0.1,0.7,0,1.9-0.4,2.6l-1-0.3C52.1,71.8,52.3,70.5,52.2,69.9z M53.8,70.1L53.8,70.1c0.2,0,0.5,0,0.7-0.1
					c0.5,0.7,0.8,2.2,0.3,3.1c-0.3,0-0.6,0-0.9-0.1l-0.2-0.1C54,72.2,54,70.9,53.8,70.1z M55.1,69.6l0.6-0.6
					c0.6,0.5,1.4,1.8,1.2,2.9l-0.7,0.6c-0.1,0.1-0.3,0.2-0.4,0.3C56.2,71.8,55.7,70.2,55.1,69.6z M58.7,69.9
					c-0.1,0.2-0.2,0.4-0.3,0.6l-0.7,0.7c0.1-1.1-0.6-2.4-1.3-2.9l0.8-0.8l0.2,0.2C57.1,68.4,57.6,69.8,58.7,69.9z M56.7,64.7
					c-0.4,0.7-0.4,1.6,0.1,2.4l-0.3,0.3c-1.3-0.2-1.9-2.1-1.9-2.1c0,0.2,0,0.4,0,0.5c-0.8-0.3-1.3-1-1.2-1.9c0.3,0.2,0.6,0.3,1,0.3
					l0.1-0.6c-0.9-0.2-1.5-0.7-1.7-1.4c0,0-0.1,0-0.1,0c0.2,0,0.3,0,0.5,0c0.6,0,1.1-0.1,1.6-0.2c0.4,0.5,1.1,0.9,1.8,1
					C56.4,63.4,56.4,64,56.7,64.7z M49,60.3c0.6,0.9,1.7,1.5,2.9,1.8c0.1,0.5,0.4,1,0.9,1.4c-0.2,1.4,0.4,2.6,1.9,3
					c0.2,0.7,0.6,1.2,1.3,1.5L55,69c-0.4,0.5-0.9,0.6-1.3,0.5L49,69.1c0.2-0.5-0.3-1.1-1.8-0.8l1.8-5L48,60.9l-2.1,1.8l-0.2,5.2
					l-0.9-0.4c-1.2-0.5-1.5,1.6-0.4,1.6l0.4,0c0,0.2,0,0.5,0.2,0.5c-0.2,0.1-0.3,0.5,0,0.6c-0.3,0.1-0.3,0.5-0.1,0.7
					c-0.2,0.4-0.3,1.2,0.5,1.4c0.7,0.2,1.1-0.5,1.2-0.9l7.1,2.2c1,0.3,1.7,0.1,2.6-0.6l1.9-1.6c-0.2,1.1,0.1,2,1,2.3
					c0,0-0.1,0.9-0.1,1.4H40.6V63.4c0-1.1-0.3-2.2-0.7-3.2H49z M47.8,44.1l4.9,1.7v7.6l-3.6-1.9L47.8,44.1z M59.8,43.2
					c0-1.9-3.2-3.5-6.6-3.5c-3.5,0-6.7,1.7-6.7,3.5l0.1,0.5l1.4,7.9l-6.6,3.8c-0.7,0.4-1.6,1.5-1.7,2.7h1.2c0.2-1.1,1.1-2.4,2.8-2.3
					c1.5,0.1,2.4,1,3.3,2.3l0.2,0.3l0.3,0.5h-9.7c0.7,1.4,1.4,2.9,1.4,4.5v19.9c0,5.1,4,7.6,8.3,7.6c3.3,0,3.8-0.2,5.6,1.7
					c1.8-1.8,2.3-1.7,5.6-1.7c4.3,0,8.3-2.4,8.3-7.6V63.4c0-1.6,0.7-3.1,1.4-4.5h-9.7l0.3-0.5l0.2-0.3c0.9-1.3,1.8-2.2,3.3-2.3
					c1.7-0.1,2.6,1.2,2.8,2.3h1.2c-0.1-1.1-1-2.3-1.7-2.7l-6.6-3.8l1.4-7.9L59.8,43.2z"/>
				<path id="Fill-81" class="st0" d="M65.1,67.8l0-0.6c-1.8,0-2.2-2.2-2.2-2.2C62.3,66.6,63.7,67.8,65.1,67.8"/>
				<path id="Fill-82" class="st0" d="M62.8,71.4l-0.2-0.6c-1.5,0.4-2.3-2-2.3-2C59.8,70.5,61.5,71.8,62.8,71.4"/>
				<path id="Fill-83" class="st0" d="M63.9,69.1c-1.8,0.3-2.6-1.8-2.6-1.8c-0.2,1.2,0.6,2.3,1.8,2.4c-0.3,1.5,1.1,2.3,2.4,1.7
					L65.2,71C64.2,71.3,63.2,70.3,63.9,69.1"/>
				<path id="Fill-84" class="st0" d="M62.8,63.1l0-0.6c-2.4-0.5-2.2-2.2-2.2-2.2C60,61.9,61.4,63.1,62.8,63.1"/>
				<polyline id="Fill-85" class="st0" points="47.3,87.3 46.5,89.1 47.1,89.1 48,87.3 47.3,87.3 				"/>
				<polyline id="Fill-86" class="st0" points="48.7,87.3 47.8,89.1 48.4,89.1 49.3,87.3 48.7,87.3 				"/>
				<polyline id="Fill-87" class="st0" points="53.9,87.3 53.1,89.1 53.7,89.1 54.6,87.3 53.9,87.3 				"/>
				<polyline id="Fill-88" class="st0" points="55.2,87.3 54.4,89.1 55,89.1 55.9,87.3 55.2,87.3 				"/>
				<polyline id="Fill-89" class="st0" points="52.6,87.3 51.7,89.1 52.4,89.1 53.3,87.3 52.6,87.3 				"/>
				<polyline id="Fill-90" class="st0" points="60.3,89.1 61,89.1 61.8,87.3 61.2,87.3 60.3,89.1 				"/>
				<polyline id="Fill-91" class="st0" points="50,87.3 49.1,89.1 49.8,89.1 50.6,87.3 50,87.3 				"/>
				<polyline id="Fill-92" class="st0" points="51.3,87.3 50.4,89.1 51.1,89.1 51.9,87.3 51.3,87.3 				"/>
				<path id="Fill-93" class="st0" d="M48.3,77.9c-0.1,0-0.2,0.1-0.2,0.3c0,0.1,0.1,0.3,0.2,0.3c0.1,0,0.2-0.1,0.2-0.3
					C48.5,78,48.4,77.9,48.3,77.9"/>
				<path id="Fill-94" class="st0" d="M48,37.6l1-2.2l1.9,1l2.1-2.1l2.1,2.1l1.9-1l1,2.2l1.3-0.2c-0.3,0.6-0.6,1.1-0.8,1.9
					c-1.4-0.8-3.5-1.4-5.5-1.4c-2.1,0-4.1,0.6-5.5,1.4c-0.2-0.7-0.5-1.3-0.8-1.9L48,37.6z M53.1,38.5c2.7,0,4.9,0.9,6.1,1.8
					c0,0,0.4-2.1,1.6-4l-2.2,0.2l-1.1-2.4l-2.2,1.1l-2.1-2.1L51,35.3l-2.2-1.1l-1.1,2.4l-2.2-0.2c1.2,1.9,1.6,4,1.6,4
					C48.2,39.4,50.4,38.5,53.1,38.5z"/>
				<path id="Fill-95" class="st0" d="M55.3,34.2c0.3,0,0.6-0.2,0.6-0.5c0-0.3-0.4-1.1-0.4-1.1s-0.7,0.7-0.7,1
					C54.8,33.9,55,34.2,55.3,34.2"/>
				<path id="Fill-96" class="st0" d="M58.9,35.5c0.3,0.1,0.6,0,0.8-0.2c0.2-0.3,0.1-1.2,0.1-1.2s-0.9,0.4-1.1,0.7
					C58.5,35,58.6,35.4,58.9,35.5"/>
				<path id="Fill-97" class="st0" d="M50.9,34.2c0.3,0,0.6-0.3,0.5-0.6c0-0.3-0.7-1-0.7-1s-0.5,0.8-0.4,1.1
					C50.3,34,50.6,34.3,50.9,34.2"/>
				<path id="Fill-98" class="st0" d="M47.3,35.5c0.3-0.2,0.4-0.5,0.2-0.8c-0.1-0.3-1.1-0.7-1.1-0.7s-0.1,0.9,0.1,1.2
					C46.7,35.6,47.1,35.7,47.3,35.5"/>
				<path id="Fill-99" class="st0" d="M86.8,55.3c0.2,0.5,0.7,2.3-0.4,3.7c-1.3-2.5-3-4.6-4.4-5.6c-0.3-0.2,0.2-0.5,1-0.7
					c2.6-0.5,5.7,0.6,7.2,1c-0.7,0.5-1.2,0.7-1.9,0.8c1.1,0.9,1.8,1.6,2.4,2.5C89.6,57.3,89,56.6,86.8,55.3 M90.1,54.9
					c0.8-0.3,1.3-1,1.6-1.6c-1.9-0.3-7.1-2.4-11.3-0.7c1.6-1.5,3-1.7,3.1-3.8c0.7,0.5,1.8,0.7,2.4-0.4c-0.4-1.3-1.5-0.2-1.7-0.6
					c-0.2-0.5,1.4,0.1,1.7-1.5c-1.2-0.4-1.6,0.6-1.8,0.3c-0.2-0.2,0.8-0.6,0.1-2c-1.3,0.7-0.6,1.6-0.9,1.7c-0.3,0.1-0.1-0.9-1.5-0.9
					c-0.1,1.5,1.3,1.6,1.1,1.8c-0.3,0.3-0.7-0.9-1.8-0.3c0,1.2,1,1.9,2.1,1.6c-0.2,2.3-2.3,1.9-3.9,4.5c3.4,1.7,5,4.8,7.1,6.8
					c0.7-0.5,1.9-2.7,1.9-2.7c2.3,1.7,3.9,0,3.9,0C91.3,56.6,91.3,56,90.1,54.9"/>
				<path id="Fill-100" class="st0" d="M52.5,96.3L51,96.2l-0.2,0.6l0.2,0c0.1,0,0.1-0.1,0.1-0.2c0,0,0.3-0.1,0.5,0l0.6,0
					c-0.4,0.8-1.3,1.5-1.3,2c0,0.3,0.3,0.3,0.4,0.3c0.3,0,0.4-0.2,0.5-0.5c0.2-0.7,0.5-1.3,0.8-2.2L52.5,96.3L52.5,96.3"/>
				<path id="Fill-101" class="st0" d="M53.5,97.2l0-0.5h1.3l-0.1-0.5c-0.4,0-0.9,0.1-1.3,0.1l-0.1,1c0.6,0,1,0.2,1,0.8
					c0,0.2-0.2,0.7-0.4,0.7c-0.1,0-0.1,0-0.2,0c-0.1-0.1,0-0.2,0-0.4c0-0.2-0.2-0.3-0.4-0.3c-0.2,0-0.3,0.2-0.3,0.3
					c0,0.4,0.5,0.5,0.8,0.5c0.5,0,1.1-0.3,1.1-0.9C55,97.3,54.1,97.2,53.5,97.2"/>
				<path id="Fill-102" class="st0" d="M56.9,97.6c-0.6,0-0.7-0.7-0.7-1c0-0.1,0.1-0.2,0.2-0.2c0.5,0,0.7,1,0.7,1.2
					C57.1,97.5,57,97.6,56.9,97.6 M56.5,96.2c-0.6,0-1.1,0.3-1.1,0.8c0,0.7,1,1,1.8,0.7c0.1,0.6-0.1,1-0.3,1c-0.2,0-0.2-0.1-0.2-0.3
					c-0.1-0.2-0.3-0.3-0.5-0.2c-0.2,0.1-0.3,0.2-0.2,0.4c0.1,0.3,0.6,0.3,0.8,0.3c1-0.1,1.4-0.6,1.4-1.3
					C58.1,96.8,57.5,96.2,56.5,96.2"/>
				<path id="Fill-103" class="st0" d="M50,96c-0.1,0.1-0.4,0.5-1.1,1l0.1,0.1c0.1,0,0.2-0.1,0.4-0.2L49,98.3c0,0.1-0.1,0.1-0.2,0.1
					l-0.2,0l0,0.2l1.3,0.2l0-0.2l-0.2,0c-0.1,0-0.1-0.1-0.1-0.1l0.6-2.3L50,96"/>
				<path id="Fill-104" class="st0" d="M59.9,97.6l-1.2-3.7c2.5-0.5,4.2-1,5.5-1.5v2.3l2,0.8C64.5,96.3,62.4,97.1,59.9,97.6
					 M53.1,99.8c-2.3,0-4.5-0.3-6.5-0.8l1.2-3.9c0.8,0.2,2.8,0.4,5.2,0.4c2.4,0,4.4-0.2,5.2-0.4l1.2,3.9
					C57.7,99.5,55.4,99.8,53.1,99.8 M40,95.5l2-0.8v-2.3c1.3,0.5,3,1,5.5,1.5l-1.2,3.7C43.9,97.1,41.7,96.3,40,95.5 M64.8,94.2v-2.9
					c-2.2,1-5.1,1.8-8.7,2.2l-0.2,1c0.3,0,0.7,0.1,1.2,0.1c-1.4,0.2-3.1,0.3-4.1,0.3c-1,0-2.7-0.1-4.1-0.3c0.5,0,0.9-0.1,1.2-0.1
					l-0.2-1c-3.6-0.3-6.5-1.1-8.7-2.2v2.9l-3,1.2c2.2,1.2,4.8,2.1,7.8,2.8l-0.4,1.2c1.7,0.5,4.4,1,7.3,1c2.9,0,5.6-0.5,7.3-1
					l-0.4-1.2c3-0.8,5.6-1.7,7.8-2.8L64.8,94.2"/>
				<path id="Fill-105" class="st0" d="M15.6,57c0.6-0.8,1.3-1.6,2.4-2.5c-0.7-0.1-1.3-0.3-1.9-0.8c1.5-0.4,4.6-1.5,7.2-1
					c0.9,0.1,1.4,0.5,1,0.7c-1.4,0.9-3.2,3.1-4.4,5.6c-1.1-1.4-0.6-3.2-0.4-3.7C17.3,56.6,16.7,57.3,15.6,57 M18,57.3
					c0,0,1.2,2.2,1.9,2.7c2.1-2.1,3.7-5.1,7.1-6.8c-1.6-2.6-3.8-2.2-3.9-4.5c1,0.3,2-0.4,2.1-1.6c-1.1-0.6-1.5,0.6-1.8,0.3
					c-0.2-0.2,1.2-0.3,1.1-1.8c-1.4,0-1.2,1-1.5,0.9c-0.3-0.1,0.4-0.9-0.9-1.7c-0.7,1.3,0.3,1.8,0.1,2c-0.2,0.2-0.6-0.8-1.8-0.3
					c0.3,1.6,1.9,1,1.7,1.5c-0.2,0.3-1.3-0.7-1.7,0.6c0.6,1.1,1.7,0.8,2.4,0.4c0.1,2.1,1.6,2.3,3.1,3.8c-4.2-1.7-9.3,0.4-11.3,0.7
					c0.3,0.7,0.9,1.4,1.6,1.6c-1.2,1.1-1.2,1.7-2,2.5C14.2,57.4,15.7,59.1,18,57.3"/>
				<path id="Fill-106" class="st0" d="M51.3,55.8V57c0.4-0.5,1.3-0.4,1.3-0.4v1.8c0,0,0,0.9-0.3,1.3H54c-0.3-0.4-0.3-1.3-0.3-1.3
					v-1.8c0,0,0.8-0.1,1.3,0.4v-1.3H51.3"/>
			</g>
		</g>
	</g>
</g>
</svg>
