<?xml version="1.0" encoding="utf-8"?>
<!-- Generator: Adobe Illustrator 22.1.0, SVG Export Plug-In . SVG Version: 6.00 Build 0)  -->
<svg version="1.0" id="Layer_1" xmlns="http://www.w3.org/2000/svg" xmlns:xlink="http://www.w3.org/1999/xlink" x="0px" y="0px"
	 viewBox="0 0 300 150" style="enable-background:new 0 0 300 150;" xml:space="preserve">
<style type="text/css">
	.st0{fill:#FFFFFF;}
</style>
<g>
	<path class="st0" d="M40.3,9.7h219.3v130.6H40.3V9.7z"/>
	<path d="M84.8,89.4c2.1,0,4.4-1.5,4.6-5.3c0.1-1.7-0.4-3.5-1.4-4.9c-0.8-0.8-2-1.3-3.2-1.3c-2.7,0-4.4,2.4-4.4,5.6
		C80.3,87.9,82.7,89.4,84.8,89.4z M85.2,102.5c0-2.3-1.7-2.3-2.6-2.4h-3.8v4.8h3.7c0.7,0.1,1.4-0.1,1.9-0.6
		C84.9,103.9,85.2,103.2,85.2,102.5z M44.6,13.9v122.2h210.9V13.9H44.6L44.6,13.9z M148.6,100.3h-4.7v14.4h-4.5v-14.4h-4.7v-3.6
		h13.9L148.6,100.3z M120.7,74.8H134v3.5h-8.8v3.3h8.2V85h-8.2v4.3h9.6v3.5h-14.1V74.8z M92.7,114.7v-18H106v3.5h-8.8v3.3h8.2v3.4
		h-8.2v4.3h9.6v3.5C106.8,114.7,92.7,114.7,92.7,114.7z M109.6,114.7v-18h5.7c2.2,0,5.5,0.1,7.8,2.1c1.8,1.8,2.7,4.2,2.6,6.7
		c0,1.2-0.1,2.3-0.5,3.4c-1.7,5.5-6.6,5.6-8.6,5.7C116.7,114.6,109.6,114.7,109.6,114.7z M128.3,114.7v-18h4.5v17.9
		C132.8,114.6,128.3,114.7,128.3,114.7z M96.5,74.8h6.6l2.8,10l0.6,2.9c0.3-1.3,0.3-1.4,0.5-2.2l2.9-10.7h6.6v17.9h-4.3l0.3-12.7
		v-1.8l-0.2,0.6c-0.2,1-0.3,1.1-0.5,1.9l-3.3,12h-3.9l-3.3-11.5l-0.8-3.2c0.1,1.4,0.1,1.7,0.2,3.4l0.2,11.3h-4.4L96.5,74.8z
		 M84.7,74.3c1.1,0,2.2,0.2,3.3,0.5c5.5,1.9,5.9,7.9,5.9,9.1c0,2.9-1.2,5.6-3.4,7.5c-1.6,1.3-3.6,1.9-5.7,1.9c-5.7,0-9-4.4-9-9.5
		C75.8,78.8,78.9,74.2,84.7,74.3L84.7,74.3z M74.2,96.7h8.1c1.9,0,4.2,0,5.9,1.8c0.9,1.1,1.5,2.5,1.4,4c0.1,2.3-1.4,4.4-3.7,4.9
		l4.2,7.1h-5l-3.6-6.4h-2.8v6.4h-4.5V96.7L74.2,96.7z M57.3,74.8h4.5v6.5h6.6v-6.5H73v17.9h-4.5v-7.6h-6.6v7.6h-4.5
		C57.3,92.7,57.3,74.8,57.3,74.8z M64.7,96.2c1.9,0,3.7,0.6,5.3,1.8c1,0.8,1.8,1.8,2.4,2.9l-3.6,1.8c-0.3-0.7-0.8-1.4-1.4-1.9
		c-0.7-0.6-1.6-0.9-2.5-0.9c-2.9,0-4.4,2.7-4.4,5.7c0,3.9,2,5.9,4.4,5.9c1.7,0,3.2-1.1,3.9-2.7l3.5,1.8c-0.7,1.2-1.6,2.3-2.7,3.1
		c-1.5,1-3.2,1.6-5,1.6c-4.8,0-8.6-3.4-8.6-9.5C56,100.4,59.6,96.2,64.7,96.2C64.7,96.2,64.7,96.2,64.7,96.2z M242.7,125.3h-4v-87
		l-23.1-8.5v95.5H57.3v-4.1h115.8V35.3L215.6,25l27.1,10.5L242.7,125.3L242.7,125.3z M121.2,105.8c0.1-1.3-0.2-2.5-1-3.6
		c-1.2-1.6-3-1.6-4.3-1.6h-1.8v10.5h1.4C117.9,111,121.2,110.9,121.2,105.8z"/>
</g>
</svg>
