<?xml version="1.0" encoding="utf-8"?>
<!-- Generator: Adobe Illustrator 22.1.0, SVG Export Plug-In . SVG Version: 6.00 Build 0)  -->
<svg version="1.0" id="Layer_1" xmlns="http://www.w3.org/2000/svg" xmlns:xlink="http://www.w3.org/1999/xlink" x="0px" y="0px"
	 viewBox="0 0 300 150" style="enable-background:new 0 0 300 150;" xml:space="preserve">
<g>
	<path d="M252,93.6l-4.8-9.8l-4.8,9.8H252L252,93.6z M144.5,70.1l-9.6,4.9l9.6,4.9C144.5,79.9,144.5,70.1,144.5,70.1z M57.8,81.2
		l4.8,9.8l4.8-9.8H57.8z M277.3,60.2c-1.6,0-3.2,1.3-3.2,3.2c0,2,1.6,3.2,3.2,3.2c1.7,0,3.2-1.2,3.2-3.1
		C280.5,61.5,278.9,60.2,277.3,60.2L277.3,60.2L277.3,60.2z M264,70.3v-3.8h8c-1.4-1.4-1.4-3.2-1.4-3.7c0-2.7,1.9-6.3,6.6-6.3
		c4.5,0,6.8,3.2,6.8,6.5c0,1.8-0.9,3.2-1.8,3.7h1.3v3.7L264,70.3L264,70.3z M277.4,83.2c1.1,0,3.1-0.9,3.1-3.2
		c0-1.4-0.6-2.2-1.4-2.7c-0.5-0.3-1-0.5-1.6-0.5c-0.6,0-1.1,0.1-1.6,0.3c-0.9,0.4-1.7,1.3-1.7,2.9C274.1,82.2,275.9,83.2,277.4,83.2
		L277.4,83.2L277.4,83.2z M283.6,72.9v3.8h-1.4c1.2,0.7,1.8,2.3,1.8,3.8c0,4.1-3.1,6.5-6.7,6.5c-4.1,0-6.7-3-6.7-6.5
		c0-2.1,1-3.3,1.8-3.8H271v-3.8H283.6L283.6,72.9z M264,93.6v-3.8h19.5v3.8L264,93.6L264,93.6z"/>
	<path d="M182.6,98.3l2.8,6.2c13.3-10.3,15.8-21.8,7.1-34.1c-6.9-9.8,0.7-18.5,3-20.7l-5.1-4.1c-3.3,3.7-12.1,15.2-4.4,26.9
		C193.3,83.6,192.5,89.7,182.6,98.3L182.6,98.3z M79.1,98.3l2.8,6.2C95.2,94.2,97.7,82.7,89,70.4c-6.9-9.8,0.7-18.5,3-20.7l-5.1-4.1
		c-3.3,3.7-12.1,15.2-4.4,26.9C89.9,83.6,89.1,89.7,79.1,98.3L79.1,98.3z M255.4,56.4L247,71.1l-8.4-14.8h-6.9L247,83.2l15.3-26.8
		C262.3,56.4,255.4,56.4,255.4,56.4z M117.9,58.5c-2.4-1.4-5.3-2.1-9.3-2.1h-8.6v36.8h6.9V63.3h1.7c4.8,0,8,1.2,8,5.5
		c0,4-3.9,5.8-8.5,5.9c-0.1,0-0.7,0-1,0l4.6,6.6c2.3-0.4,4.3-1.1,6-2.2c0.1-0.1,0.2-0.2,0.4-0.3c3.5-2.3,5.4-6,5.4-10.1
		C123.6,64.3,121.6,60.6,117.9,58.5L117.9,58.5z M172.3,78.9c3.4-2.3,5.4-6,5.4-10.1c0-4.5-2-8.2-5.6-10.4c-2.4-1.4-5.3-2.1-9.3-2.1
		h-8.6v36.8h6.9V63.3h1.7c4.8,0,8,1.2,8,5.5c0,4-3.9,5.8-8.5,5.9c-0.1,0-0.7,0-1,0l12.7,18.4h8L172.3,78.9z M218.7,74.8l12.7-18.4
		h-8l-12.7,18.4l12.7,18.4h8L218.7,74.8L218.7,74.8z M210.4,56.4h-6.9v36.8h6.9V56.4z M31.2,74.8l12.7-18.4h-8L23.1,74.8l12.7,18.4
		h8L31.2,74.8L31.2,74.8z M22.9,56.4H16v36.8h6.9C22.9,93.2,22.9,56.4,22.9,56.4z M149,63.3v-6.9h-21.6v36.8H149v-6.9h-14.8V63.3
		H149L149,63.3z M79.7,93.2h-6.9L62.1,69.9L51.3,93.2h-6.9L62.1,55C62.1,55,79.7,93.2,79.7,93.2z"/>
</g>
</svg>
