<?xml version="1.0" encoding="utf-8"?>
<!-- Generator: Adobe Illustrator 22.1.0, SVG Export Plug-In . SVG Version: 6.00 Build 0)  -->
<svg version="1.0" id="Layer_1" xmlns="http://www.w3.org/2000/svg" xmlns:xlink="http://www.w3.org/1999/xlink" x="0px" y="0px"
	 viewBox="0 0 300 150" style="enable-background:new 0 0 300 150;" xml:space="preserve">
<title>zakazaka</title>
<desc>Created with Sketch.</desc>
<g id="zakazaka">
	<g id="Fill-6" transform="translate(25.000000, 21.000000)">
		<path id="Fill-1" d="M209.2,39.8l-8.2,7.8V35.3h-8.5v43h8.5v-21l0.2-0.2l8.5,21.1h7.7L207,51.7l12.3-11.9L209.2,39.8z M231.7,56.8
			l2.8-15.9l2.2,15.9H231.7z M240,29.8h-10.3l-9.3,48.5h7.5l1.9-11h8.6c0.4,2.6,1.5,9.4,1.7,11h7.8L240,29.8z M81.7,39.6l-8.2,7.8
			V35.1h-8.5v43h8.5v-21l0.2-0.2l8.5,21.1H90L79.5,51.5l12.3-11.9L81.7,39.6z M173.9,59.6l1.6-13.1l2.3,13.1H173.9z M170.4,35.9
			l-7.2,42.7h7.9l1.4-9.7h7.3c0.4,2.3,1.3,8.3,1.5,9.7h7.5l-8.4-42.7H170.4z M103.6,59.1l2.3-14l2.5,13.5L103.6,59.1z M100.9,35.6
			l-7.7,42.6h7.2l1.6-9.7l7.8-0.5c0.4,2.3,1.2,8.8,1.4,10.2h7.1l-6.7-42.6H100.9z M47.9,59.5l1.6-13.1l2.3,13.1H47.9z M45.5,35.5
			l-8.2,43h7.9l1.4-9.7h7.3c0.4,2.3,1.3,8.3,1.5,9.7h8.5l-8.4-43H45.5z M127.9,37.5l18.8-0.5l-19.7,32.5l-0.3,9H160v-9.1l-19.1,1.2
			L160,38.3v-8.8l-33-0.1L127.9,37.5z M3.1,37.7l18.3-0.5L2.3,68.7L2,78.1h32.2v-9.4l-18.5,1.1l18.5-31.4v-9H2.8L3.1,37.7z"/>
	</g>
</g>
</svg>
