<?xml version="1.0" encoding="utf-8"?>
<!-- Generator: Adobe Illustrator 22.1.0, SVG Export Plug-In . SVG Version: 6.00 Build 0)  -->
<svg version="1.0" id="Layer_1" xmlns="http://www.w3.org/2000/svg" xmlns:xlink="http://www.w3.org/1999/xlink" x="0px" y="0px"
	 viewBox="0 0 300 150" style="enable-background:new 0 0 300 150;" xml:space="preserve">
<title>лого_айгинза</title>
<desc>Created with Sketch.</desc>
<g id="лого_айгинза">
	<g id="Group" transform="translate(37.000000, 6.000000)">
		<path id="Fill-1" d="M79.9,53.8c9.6-5.8,20.7-9.1,32.6-9.1c11.9,0,23,3.3,32.6,9.1c1.9-4.8,6-10.7,11.6-16.1
			c2.6-2.6,5.3-4.8,8-6.7c-1.1-0.9-2.5-1.4-3.9-1.4c-2.7,0-5,1.8-5.8,4.3c-0.7-1.6-2.3-2.7-4.1-2.7c-2.5,0-4.5,2.1-4.5,4.6
			c0,2.1,1.5,3.9,3.4,4.4c-1.5,2-3.8,3.3-6.5,3.3c-4.5,0-8.2-3.7-8.2-8.3c0-0.5,0-1,0.1-1.4c0.5,0.2,1,0.3,1.5,0.3
			c2.5,0,4.5-2.1,4.5-4.6c0-2.5-2-4.6-4.5-4.6c-2.4,0-4.5,2.1-4.5,4.6c0,1.4,0.7,2.7,1.6,3.5c-1.7,2.7-4.8,4.5-8.2,4.5
			c-5.4,0-9.8-4.4-9.8-9.9c0-0.8,0.1-1.5,0.2-2.2c0.1,0.1,0,0.3,0,0.4c0,2.5,2,4.6,4.5,4.6c2.5,0,4.5-2.1,4.5-4.6
			c0-2.5-2-4.6-4.5-4.6c-0.8,0-1.6,0.2-2.2,0.6c0.2-0.5,0.2-1,0.2-1.5c0-3.5-2.7-6.3-6.1-6.3c-3.4,0-6.1,2.8-6.1,6.3
			c0,0.5,0.1,1,0.2,1.5c-0.7-0.4-1.4-0.6-2.2-0.6c-2.5,0-4.5,2.1-4.5,4.6c0,2.5,2,4.6,4.5,4.6c2.5,0,4.5-2.1,4.5-4.6
			c0-0.2,0-0.4,0-0.4c0.1,0.7,0.2,1.4,0.2,2.2c0,5.5-4.3,9.9-9.7,9.9c-3.4,0-6.4-1.8-8.2-4.5c1-0.9,1.6-2.1,1.6-3.5
			c0-2.5-2-4.6-4.4-4.6c-2.5,0-4.5,2.1-4.5,4.6c0,2.5,2,4.6,4.5,4.6c0.5,0,1.1-0.1,1.5-0.3c0.1,0.5,0.1,0.9,0.1,1.4
			c0,4.6-3.7,8.3-8.2,8.3c-2.6,0-5-1.3-6.5-3.3c1.9-0.5,3.4-2.3,3.4-4.4c0-2.5-2-4.6-4.5-4.6c-1.8,0-3.4,1.1-4.1,2.7
			c-0.8-2.5-3.1-4.3-5.9-4.3c-1.4,0-2.8,0.5-3.9,1.4c2.6,1.9,5.4,4.1,8,6.7C73.9,43.2,78,49,79.9,53.8"/>
		<path id="Fill-4" d="M91.9,62.3c6.6-5.3,14.7-5.8,19.8-5.8c10.7,0,16.4,4.3,19.3,7.2c2.4,2.6,2.9,5.5,3.2,7.6
			c0.1,0.8,0.3,1.2,1,1.2c0.8,0,1-0.4,1-1.9c0-11.5,0.7-14.1,0.7-15.1c0-0.7-0.2-1-1.3-1.1c-2.2-0.1-5.5-0.6-7.5-1
			c-1.9-0.4-8.4-1.5-14.9-1.5c-8,0-16.4,0.6-25.4,6c-8.6,5-16,14.6-16,29.3c0,25.4,18.3,36.8,41.4,36.8c7.4,0,13.9-1,20.1-4.1
			c1.1-0.7,1.2-0.8,1.2-3.3v-10.1c0-4.6,0-8.3,0.1-11c0.1-3.2,1-4.8,3.6-5.2c1.1-0.2,1.8-0.3,2.5-0.3c0.7,0,1.2-0.2,1.2-0.7
			c0-0.7-0.7-0.9-1.9-0.9c-3.1,0-5.4,0.3-8.3,0.3c-2.9,0-8.8-0.3-13.7-0.3c-0.1,0-0.2,0-0.4,0c0-8.8,0.1-17,0.1-17.8
			c0.1-2,0.6-2.9,2.6-3.3c0.5-0.1,1.5-0.2,2.3-0.2c0.6,0,1-0.1,1-0.5c0-0.4-0.4-0.5-1.3-0.5c-3.2,0-7,0.2-8.7,0.2
			c-2.5,0-6-0.2-8.7-0.2c-7.5,0-10.2,2.5-11.2,3.3c-1.3,1.2-3,3.9-3,7c0,8.3,6.3,14.2,14.9,14.2c0.3,0,1,0,1.2-0.1
			c0.3-0.1,0.7-0.1,0.7-0.5c0-0.5-0.4-0.6-1.7-0.6c-3.3,0-8-3.7-8-9.7c0-2,0.2-5.8,3.5-8.8c2.2-1.9,4.6-2.3,6-2.3
			c0.9,0,1.8,0.1,2.3,0.2c0.3,0.1,0.5,0.5,0.5,1.1v23.4c0,5.4,0,11.4-0.3,13.9c-0.2,1.6-0.6,2.9-2.3,3.1c-0.9,0.1-2.2,0.2-3.1,0.2
			c-0.7,0-1,0.2-1,0.5c0,0.4,0.5,0.6,1.2,0.6c4,0,7.7-0.2,9.3-0.2c0.8,0,2,0.1,3.6,0.1V89.9c1.3,0,2.8,0.1,3.5,0.3
			c3.1,0.6,4,2.1,4.1,5.2c0.1,2.7,0.1,6.3,0.1,10.9v8.7c0,1.5-0.4,2.7-1.8,3.4c-2.3,1-5.6,1-8,1c-23.5,0-34.1-13.8-34.1-33.6
			C81.4,74.4,86.6,66.6,91.9,62.3"/>
	</g>
</g>
</svg>
