<?xml version="1.0" encoding="utf-8"?>
<!-- Generator: Adobe Illustrator 22.1.0, SVG Export Plug-In . SVG Version: 6.00 Build 0)  -->
<svg version="1.0" id="Layer_1" xmlns="http://www.w3.org/2000/svg" xmlns:xlink="http://www.w3.org/1999/xlink" x="0px" y="0px"
	 viewBox="0 0 300 150" style="enable-background:new 0 0 300 150;" xml:space="preserve">
<g>
	<path d="M71.4,64c0.3,1.5,0.6,2.7,1.1,3.5c0.4,0.8,1.1,1.2,2.1,1.2L72,75.1c-1,2.5-2.1,6.3-3.2,11.4c-1.1,5.1-1.5,8.8-1.1,11
		c0.4,2.2,1.4,3.6,2.9,4.2c1.5,0.7,3,1,4.4,1c2.1,0,4.6-0.2,7.4-0.8c2.8-0.5,4.9-1,6.3-1.6c0.7-0.3,1.1-0.7,1.3-1.2
		c0.2-0.5,0.1-1.6-0.2-3.3c-0.2-0.9-0.6-1.3-1.2-1.3c-0.9,0-1.8,0.2-2.9,0.6c-1.1,0.4-2.2,0.7-3.3,0.9c-1.1,0.2-2.9,0.4-5.4,0.4
		c-0.6,0-1-0.1-1.2-0.2c-0.2-0.1-0.3-0.4-0.4-0.8c-0.2-1,0-2.8,0.6-5.3c0.6-2.5,1.2-4.6,1.7-6.3l5-0.1c2.1-0.1,3.5-0.1,4.2-0.2
		c0.7-0.1,1.2-0.3,1.4-0.5c0.2-0.3,0.3-0.8,0.2-1.5c0-0.5-0.1-1,0-1.5c0-0.1,0-0.2,0.1-0.3c0-0.2,0-0.3,0-0.4
		c-0.2-1-1.4-1.4-3.7-1.4c-1.8,0-3.8,0.1-5.9,0.4c0.6-2.1,1.5-4.5,2.6-7.4c0.5-1.4,1-2.4,1.3-2.9c0.3-0.5,0.8-0.8,1.4-0.9
		c0.6-0.1,1.8-0.2,3.5-0.2c0.5,0,2,0.1,4.7,0.3c0.1,0,0.3,0,0.5,0c0.3,0,0.5,0,0.6,0c0.8,0,1.1-0.3,1-0.8c-0.1-0.3-0.4-1-1-2
		c-1.1-1.8-1.9-2.9-2.7-3.4c-0.7-0.5-1.8-0.7-3.2-0.7c-3.1,0-6.6,0.2-10.5,0.7C73,61.5,71.2,62.5,71.4,64 M217.2,99.1
		c0.7-1,1.2-1.8,1.6-2.4c0.5-0.6,1.3-1.7,2.6-3.3c1.3-1.6,2.5-3.3,3.7-4.8c1.2-1.6,2.4-3,3.5-4.4c1.1-1.4,2.3-2.8,3.7-4.4l-1.6,7.3
		c-0.4,1.8-0.8,3.6-1.2,5.5c-0.2,0.9-0.3,1.8-0.3,2.7c-0.1,0.8,0,1.7,0.1,2.5c0.2,0.9,0.7,1.8,1.5,2.6c0.8,0.8,1.7,1.4,2.7,1.9
		c1,0.5,1.7,0.7,2.3,0.7c0.7,0,1.2-0.6,1.3-1.8c0.2-1.2,0.4-3.8,0.6-7.6c0.2-3.8,0.6-7.6,1.2-11.2c0.5-3.7,1.4-7.5,2.7-11.4
		c2.6-2.3,3.8-4,3.6-5.1c-0.1-0.7-0.6-1.6-1.4-2.6c-0.8-1-1.6-1.5-2.3-1.5c-0.7,0-2.2,1.1-4.4,3.2c-2.2,2.2-4.6,4.7-7.3,7.7
		c-2.5,2.8-4.9,5.6-7.2,8.5c-2.2,2.6-3.5,4.3-4,5c0.8-3.6,1.4-6.6,2-8.9c0.6-2.3,1.2-4.5,1.9-6.7c0.7-2.2,1.1-3.6,1.2-4.3
		c0.2-0.7,0.2-1.2,0.1-1.6c-0.1-0.3-0.5-0.8-1.2-1.5c-0.7-0.7-1.5-1.3-2.3-1.8c-0.8-0.5-1.4-0.8-1.7-0.8c-0.6,0-1.1,0.6-1.6,1.7
		c-0.5,1.1-1,2.8-1.5,4.9c-0.3,1.1-0.5,2.3-0.8,3.4c-2.7,10.6-4.4,17.7-5.1,21.3c-0.7,3.7-0.9,5.8-0.8,6.5c0.1,0.5,0.8,1.3,2.1,2.2
		c1.3,0.9,2.3,1.4,3.2,1.4c0.5,0,1-0.2,1.3-0.5C216,100.8,216.5,100.1,217.2,99.1 M272,65c-0.7-0.6-1.5-1.2-2.3-1.8
		c-0.8-0.5-1.3-0.8-1.5-0.8c-0.6,0-1.4,1-2.2,3c-0.9,2.1-1.7,4.3-2.3,6.5c-0.7,2.3-1.2,4-1.5,5.1l-2,0.6c-0.6,0.2-1.6,0.4-2.8,0.7
		c-1.2,0.2-2.1,0.4-2.6,0.4c-0.8,0-1.2-0.5-1.4-1.4c-0.1-0.6,0.1-1.7,0.5-3.4c0.4-1.5,0.8-3,1.4-4.4c0.4-0.9,0.7-1.7,1-2.3
		c0.3-0.7,0.5-1.2,0.6-1.5c0.1-0.4,0.1-0.7,0.1-1c-0.1-0.3-0.4-0.8-1.1-1.5c-0.6-0.7-1.3-1.3-2.1-1.9c-0.7-0.6-1.3-0.9-1.6-0.9
		c-0.5,0-1.3,1.2-2.4,3.7c-1.2,2.6-2.1,5.3-2.8,8c-0.8,2.9-1.1,5-0.8,6.2c0.3,1.4,1,2.8,2.3,4.4c1.3,1.6,2.6,2.3,3.8,2.3
		c0.7,0,2-0.3,4.1-0.8c2.1-0.6,3.7-1,4.8-1.4c-0.2,0.7-0.6,2.2-1.1,4.7c-0.5,2.3-1,4.6-1.4,6.9c-0.4,2.1-0.5,3.5-0.4,4.2
		c0.2,0.9,1,1.8,2.5,2.5c0.8,0.4,1.5,0.8,2.2,1.3c0.7,0.5,1.2,0.7,1.4,0.7c0.6,0,1-0.4,1.2-1.2c0.2-0.8,0.4-2.2,0.5-4
		c0.1-1.8,0.2-2.8,0.2-3c0.5-4.1,1-7.3,1.4-9.7c0.4-2.4,0.9-4.4,1.4-6.2c0.5-1.8,1.3-4.2,2.3-7.3c0.4-1.1,0.8-2.1,1.2-3.1
		c0.4-1,0.6-1.6,0.6-1.8C273,66.2,272.7,65.7,272,65 M68.7,57.1c0-0.1,0.1-0.2,0.1-0.3c0.9-2.5,2.3-0.8,3-0.9c1.2-0.4,1.9-1.5,2.1-3
		c0.2-0.9,0.2-2.8-0.2-3.6c-0.3-0.5-1.3-1.3-3.1-1.6c-3.9-0.8-10.9-0.8-16.9,0c-4.5,0.6-10.4,1.9-18.1,4.8c-2.7,1-6.8,1.5-8.1,4.8
		c-1,2.6-0.6,4.1,0.5,4.7c2.5,1.5,8.5-0.7,11.2-1.6c0.1,0.1,0.2,0.1,0.3,0.2c-1,5.8-3.2,12.7-3.9,19.1c-1.4,4.2-4,14.5-1.8,18.6
		c4.6,2.9,7.4-5.2,7-5.5c1.2-3.6,4.8-19.2,5.2-23.4c0.1-1.1,0.2-1.9,0.4-3c0.3-2.1,0.3-4.3,0.7-6.3c0.1-0.6,0.4-1,0.9-1.4
		c2-1.7,6.7-1.7,7.5-1.7c0.6-0.2,2.3-0.4,3.7-0.9c0.6-0.2,0.6,0.7,0.4,1.7c-0.2,1-0.5,2.2-0.6,2.6c-0.2,0.9-0.3,1.6-0.5,2.5
		c-0.6,2.9-1.3,5.8-2,8.7c-2.7,12.6-4.8,23.7-2.5,29.8c0.5,0.8,2.4,1.7,2.9,1.5c1.4-0.3,2.4-0.9,3.1-1.7c1.3-1.5,1.6-3.6,1.7-5.7
		c0.2-3.9,0.7-9.8,1.6-15.6c0.6-3.9,2.4-12.5,3.9-18.1C67.8,59.6,68.3,57.9,68.7,57.1 M105.6,102.9c0.5,0,0.8-0.4,1-1.2
		c0.2-0.8,0.5-3,1-6.8c0.5-3.7,1.3-7.7,2.2-12c0.9-4.3,2.3-9.4,4-15.3c0.7-0.2,1.9-0.3,3.8-0.4c1.9-0.1,3.2-0.3,4.1-0.5
		c0.9-0.3,1.2-0.8,1.1-1.7c-0.1-0.6-0.5-1.3-1.1-2c-0.6-0.7-1.4-1.4-2.4-1.9c-1-0.5-2.2-0.8-3.4-0.8c-0.3,0-0.8,0-1.5,0.1
		c-0.8,0.1-1.9,0.2-3.4,0.3c-1.5,0.1-2.7,0.2-3.5,0.2c-4.4,0.3-7.5,0.7-9.2,1.1c-1.8,0.4-2.6,1.1-2.4,2.1c0.6,3,1.8,4.4,3.6,4.4
		c0.3,0,2.4-0.2,6.2-0.5c-1.5,5.8-2.9,11.7-4.2,17.6c-0.7,3-1.2,5.8-1.7,8.4c-0.5,2.6-0.6,4.2-0.5,4.9c0.1,0.7,0.6,1.3,1.4,1.9
		c0.8,0.6,1.7,1.1,2.7,1.4C104.5,102.8,105.2,102.9,105.6,102.9 M171.1,80.7c-0.4,2.7-1.2,5.4-2.3,7.9c-1.1,2.5-2.3,4.4-3.6,6
		c-1.3,1.5-2.5,2.3-3.5,2.3c-0.5,0-0.9-0.3-1.4-1c-0.5-0.7-0.9-1.6-1.1-2.8c-0.5-2.7-0.6-5.6-0.1-8.6c0.5-3,1.2-5.7,2.3-8.2
		c1.1-2.5,2.3-4.5,3.6-6c1.3-1.5,2.4-2.3,3.4-2.3c1.2,0,2.2,1.6,2.8,4.9C171.6,75.3,171.6,77.9,171.1,80.7 M176.8,67.9
		c-0.7-1.6-1.4-2.9-2.1-3.7c-0.7-0.9-1.3-1.3-1.6-1.3c-0.2,0-0.6,0.2-1.3,0.5c-0.5,0.2-0.9,0.5-1.4,0.8c-0.8-1-1.8-1.9-2.8-2.7
		c-1-0.8-1.9-1.2-2.6-1.2c-1,0-2.4,0.9-4.2,2.6c-1.8,1.8-3.6,4.1-5.3,7.1c-1.7,3-2.9,6.4-3.7,10.2c-0.8,3.9-0.8,7.8,0,11.8
		c0.5,2.4,1.3,4.4,2.6,6.1c1.3,1.6,2.7,2.8,4.2,3.6c1.5,0.8,3,1.2,4.3,1.2c3.1,0,6-1.4,8.8-4.2c2.8-2.8,4.9-6.5,6.2-11
		c1.3-4.6,1.5-9.3,0.6-14.2C178,71.4,177.5,69.5,176.8,67.9 M200.9,72.8c-0.9,1.2-2.1,2.3-3.6,3.4c-1.5,1-3.1,1.9-4.8,2.5
		c0.9-5.2,1.3-8.4,1.1-9.5c-0.1-0.6-0.5-1.3-1.3-1.9c1.4-0.4,3-0.7,4.8-0.7c1.4,0,2.5,0.3,3.4,0.8c0.8,0.6,1.3,1.3,1.5,2.1
		C202.2,70.5,201.8,71.6,200.9,72.8 M197.9,90.7c-1,1.4-2.3,2.5-4.1,3.4c-1.7,0.9-3.6,1.4-5.6,1.4c0.8-2.8,1.5-5,1.9-6.5
		c0.4-1.5,0.8-3,1.2-4.5c1.2-0.4,2.3-0.5,3.4-0.5c2.5,0,4,0.9,4.3,2.7C199.3,87.9,198.9,89.3,197.9,90.7 M207.1,76.1
		c1.3-2.2,1.8-4.4,1.3-6.8c-0.5-2.7-2-4.8-4.5-6.5c-2.5-1.7-5.5-2.5-9-2.5c-1.6,0-3.7,0.2-6.4,0.7c-2.6,0.5-4.5,0.9-5.7,1.4
		c-1.2,0.5-1.8,1.2-1.6,2.2c0.2,1,0.7,2.1,1.5,3.1c0.8,1,1.9,1.7,3.2,1.9c-0.5,4.9-1.2,9-2,12.4c-0.8,3.4-1.5,6.1-2.3,8
		c-0.6,1.6-1.2,3.3-1.8,5c-0.5,1.4-0.6,2.6-0.4,3.6c0.1,0.3,0.5,0.8,1.2,1.5c0.8,0.7,1.6,1.4,2.4,2c0.9,0.6,1.5,0.9,1.9,0.9
		c0.6,0,1-0.3,1.3-0.8c0.3-0.5,0.6-1.5,1-2.9c2.1,2.5,4.1,3.7,6,3.7c1.9,0,3.9-0.9,6.1-2.7c2.2-1.8,3.9-4,5.2-6.4
		c1.3-2.5,1.8-4.7,1.4-6.6c-0.2-1-0.7-2.1-1.4-3.2c-0.7-1.1-1.8-2.1-3.2-2.9C203.9,79.9,205.8,78.2,207.1,76.1 M142,74.2
		c-1.2,1.5-2.7,3-4.5,4.3c-1.9,1.3-3.6,2.3-5.3,2.8c0.2-1.7,0.7-4.2,1.3-7.5c0.4-1.9,0.7-3.2,0.9-3.9c0.2-0.7,0.5-1.1,1-1.4
		c0.5-0.3,1.2-0.4,2.4-0.5c0.4,0,0.9-0.1,1.3-0.1c2.5,0,4,0.8,4.3,2.3C143.6,71.4,143.1,72.7,142,74.2 M148.4,65.4
		c-1.2-1.5-2.9-2.7-5-3.6c-2.1-1-4.5-1.4-7.2-1.4c-1.6,0-3.2,0.2-4.9,0.5c-1.7,0.3-3.2,0.8-4.3,1.5c-1.2,0.7-1.7,1.4-1.5,2.3
		c0.5,2.7,1.5,4.4,2.9,5.1c-1.3,5.7-2.4,10-3.1,13.1c-0.8,3.1-1.6,6.3-2.4,9.4c-0.8,3.1-1.3,5.1-1.5,5.9c-0.1,0.8-0.2,1.4-0.1,1.9
		c0.1,0.7,0.5,1.2,0.9,1.5c0.5,0.2,1.3,0.5,2.4,0.7c0.6,0.1,1.2,0.3,1.8,0.5c0.6,0.2,1,0.3,1.3,0.3c0.7,0,1.2-0.4,1.5-1.1
		c0.3-0.8,0.6-1.9,0.8-3.5c0.2-1.6,0.5-3.7,0.9-6.3c0.4-2.6,0.9-5.1,1.5-7.6c1.8,2.7,3.3,4.1,4.5,4.1c1.4,0,3.3-1.2,5.7-3.5
		c2.4-2.3,4.5-5,6.2-8c1.7-3,2.4-5.4,2-7.2C150.4,68.3,149.6,66.8,148.4,65.4"/>
</g>
</svg>
