<?xml version="1.0" encoding="utf-8"?>
<!-- Generator: Adobe Illustrator 22.1.0, SVG Export Plug-In . SVG Version: 6.00 Build 0)  -->
<svg version="1.0" id="Layer_1" xmlns="http://www.w3.org/2000/svg" xmlns:xlink="http://www.w3.org/1999/xlink" x="0px" y="0px"
	 viewBox="0 0 300 150" style="enable-background:new 0 0 300 150;" xml:space="preserve">
<style type="text/css">
	.st0{fill:#FFFFFF;}
</style>
<g>
	<path d="M214.5,74.6c0,35.7-29,64.5-64.8,64.5c-35.8,0-64.8-28.9-64.8-64.5c0-35.7,29-64.6,64.8-64.6
		C185.5,10,214.5,38.9,214.5,74.6"/>
	<path class="st0" d="M145.4,41.4c-10.2,0-16.8,0.6-21.6,2.3c-8.1,3.1-13.6,9.7-13.6,18.3c0,7.2,3.4,12.4,13.1,18.3
		c10.3,6.3,12.4,8.3,12.4,12.1c0,4.1-4.1,8.8-14.5,8.8c-3.6,0-9.1-0.5-12.6-1.4l-1.7-0.4c-0.9,2.5-3.1,8.4-3.7,10.5l1.7,0.5
		c3.2,1,10.6,1.8,16,1.8c17.8,0,28.5-10.7,28.5-22c0-6.9-3.1-12.2-13.8-18.8c-5.3-3.3-8.1-5.4-9.7-7c-1.3-1.7-1.5-3-1.5-4.3
		c0-1.3,0.3-2.8,1.1-3.9c0.9-1.3,2.6-2.2,4.9-2.9c2.3-0.8,6.7-0.8,13.5-0.8h6.3l4.5-11.2H145.4z M193,41.4h-31.7l-4.5,11.2h10.5
		c7.1,0,8.4-0.2,10.2-0.2c-2.6,5.8-18,45.1-18,45.1h13.1c0,0,19.6-48.8,21.6-54C194.8,42.5,194.5,41.4,193,41.4L193,41.4z"/>
</g>
</svg>
