<?xml version="1.0" encoding="utf-8"?>
<!-- Generator: Adobe Illustrator 22.1.0, SVG Export Plug-In . SVG Version: 6.00 Build 0)  -->
<svg version="1.0" id="Layer_1" xmlns="http://www.w3.org/2000/svg" xmlns:xlink="http://www.w3.org/1999/xlink" x="0px" y="0px"
	 viewBox="0 0 300 150" style="enable-background:new 0 0 300 150;" xml:space="preserve">
<g>
	<title>yandex</title>
	<desc>Created with Sketch.</desc>
	<g id="yandex">
		<path id="Shape" d="M158.1,102.7h-4.6V52.9h-26.8v4.6c0,15.1-0.7,33-5.6,44.9h-3.5v18.2h8.1v-10.9h24.7v10.9h8.1L158.1,102.7
			L158.1,102.7z M193.4,99.2c-2.1,1.8-6.3,3.9-11.3,3.9c-7.1,0-10.6-6.7-10.6-19.7h24v-4.9c0-19.3-6.3-26.7-15.9-26.7
			c-12.3,0-17.3,13.3-17.3,31.9c0,17.5,7.4,27,19,27c5.6,0,10.6-1.8,14.1-4.6L193.4,99.2z M102.4,52.5v24.6H89V52.5h-8.8v57.6H89
			v-26h13.4v26h8.8V52.5H102.4z M228.3,109.7h9.5l-16.2-30.5l14.1-27h-9.2l-13.8,26.7V52.2H204v57.2h8.8V81L228.3,109.7z
			 M271.7,106.2l-2.1-6.7c-2.1,1.8-5.3,3.5-9.5,3.5c-7.1,0-10.6-8.1-10.6-22.5s4.6-21.8,10.9-21.8c3.5,0,7.1,2.1,9.5,3.9l1.4-8.4
			c-2.5-1.8-5.6-2.8-10.6-2.8c-13.4,0-20.5,11.6-20.5,29.5c0,19.7,7.4,29.5,19.7,29.5C265,110.8,268.5,109,271.7,106.2z
			 M144.7,102.7h-15.2c4.9-12.3,5.3-29.8,5.3-41.8v-1.1h9.9V102.7z M186.3,76.4h-14.8c0.7-10.2,2.5-16.8,8.1-16.8
			C184.6,59.2,186.3,66.6,186.3,76.4z M60.4,79.2v30.2h8.8v-80H55.8c-13,0-24,8.8-24,25.6c0,11.9,4.9,18.6,12.3,22.1l-15.9,32.3
			h10.2l14.1-30.2H60.4z M60.1,72.2h-4.6c-7.8,0-14.1-4.2-14.1-17.2c0-13.3,7.1-18.2,14.1-18.2h4.6V72.2z"/>
	</g>
</g>
</svg>
