<?xml version="1.0" encoding="utf-8"?>
<!-- Generator: Adobe Illustrator 22.1.0, SVG Export Plug-In . SVG Version: 6.00 Build 0)  -->
<svg version="1.0" id="Layer_1" xmlns="http://www.w3.org/2000/svg" xmlns:xlink="http://www.w3.org/1999/xlink" x="0px" y="0px"
	 viewBox="0 0 140 70" style="enable-background:new 0 0 140 70;" xml:space="preserve">
<style type="text/css">
	.st0{fill:#FFFFFF;}
</style>
<title>лого_айгудс</title>
<desc>Created with Sketch.</desc>
<g id="Page-1">
	<g id="Logo-_x2F_-Касперский" transform="translate(-20.000000, -19.000000)">
		<g id="Group" transform="translate(20.000000, 19.000000)">
			<path id="Shape" class="st0" d="M115.3,43.3l-2.1-4.4l-2.1,4.4H115.3z M67.6,32.8L63.3,35l4.3,2.2V32.8L67.6,32.8z M29.1,37.7
				l2.1,4.4l2.1-4.4H29.1z M126.5,28.4c-0.7,0-1.4,0.6-1.4,1.4c0,0.9,0.7,1.4,1.4,1.4c0.8,0,1.4-0.5,1.4-1.4
				C127.9,29,127.3,28.4,126.5,28.4L126.5,28.4z M120.6,32.9v-1.7h3.5c-0.6-0.6-0.6-1.4-0.6-1.7c0-1.2,0.8-2.8,2.9-2.8
				c2,0,3,1.4,3,2.9c0,0.8-0.4,1.4-0.8,1.7h0.6v1.6H120.6z M126.6,38.6c0.5,0,1.4-0.4,1.4-1.4c0-0.6-0.3-1-0.6-1.2
				c-0.2-0.1-0.5-0.2-0.7-0.2c-0.2,0-0.5,0-0.7,0.1c-0.4,0.2-0.8,0.6-0.8,1.3C125.1,38.2,125.9,38.6,126.6,38.6L126.6,38.6
				L126.6,38.6z M129.3,34.1v1.7h-0.6c0.5,0.3,0.8,1,0.8,1.7c0,1.8-1.4,2.9-3,2.9c-1.8,0-3-1.3-3-2.9c0-0.9,0.4-1.5,0.8-1.7h-0.6
				v-1.7H129.3L129.3,34.1z M120.6,43.3v-1.7h8.7v1.7H120.6L120.6,43.3z"/>
			<path id="Shape_1_" class="st0" d="M84.5,45.4l1.2,2.7c5.9-4.6,7-9.7,3.2-15.2c-3-4.3,0.3-8.2,1.3-9.2l-2.3-1.8
				c-1.5,1.6-5.4,6.8-2,11.9C89.2,38.8,88.9,41.5,84.5,45.4z M38.5,45.4l1.2,2.7c5.9-4.6,7-9.7,3.2-15.2c-3-4.3,0.3-8.2,1.3-9.2
				L42,21.9c-1.5,1.6-5.4,6.8-2,11.9C43.3,38.8,43,41.5,38.5,45.4L38.5,45.4z M116.8,26.7l-3.7,6.6l-3.7-6.6h-3l6.8,11.9l6.8-11.9
				H116.8z M55.8,27.7c-1.1-0.6-2.4-0.9-4.1-0.9h-3.8v16.3h3V29.8h0.8c2.1,0,3.6,0.5,3.6,2.4c0,1.8-1.7,2.6-3.8,2.6
				c-0.1,0-0.3,0-0.4,0l2,2.9c1-0.2,1.9-0.5,2.7-1c0.1,0,0.1-0.1,0.2-0.1c1.5-1,2.4-2.6,2.4-4.5C58.3,30.2,57.4,28.6,55.8,27.7
				L55.8,27.7z M79.9,36.7c1.5-1,2.4-2.6,2.4-4.5c0-2-0.9-3.6-2.5-4.6c-1.1-0.6-2.4-0.9-4.1-0.9h-3.8v16.3h3V29.8h0.8
				c2.1,0,3.6,0.5,3.6,2.4c0,1.8-1.7,2.6-3.8,2.6c-0.1,0-0.3,0-0.4,0l5.7,8.2h3.6L79.9,36.7L79.9,36.7z M100.5,34.9l5.7-8.2h-3.6
				l-5.7,8.2l5.7,8.2h3.6L100.5,34.9z M96.8,26.7h-3v16.3h3V26.7z M17.2,34.9l5.7-8.2h-3.6l-5.7,8.2l5.7,8.2h3.6L17.2,34.9z
				 M13.5,26.7h-3v16.3h3L13.5,26.7L13.5,26.7z M69.5,29.8v-3.1h-9.6v16.3h9.6V40H63V29.8H69.5L69.5,29.8z M38.8,43.1h-3L31,32.7
				l-4.8,10.4h-3.1l7.8-17L38.8,43.1L38.8,43.1z"/>
		</g>
	</g>
</g>
</svg>
