<?xml version="1.0" encoding="utf-8"?>
<!-- Generator: Adobe Illustrator 22.1.0, SVG Export Plug-In . SVG Version: 6.00 Build 0)  -->
<svg version="1.0" id="Layer_1" xmlns="http://www.w3.org/2000/svg" xmlns:xlink="http://www.w3.org/1999/xlink" x="0px" y="0px"
	 viewBox="0 0 140 70" style="enable-background:new 0 0 140 70;" xml:space="preserve">
<style type="text/css">
	.st0{fill:#FFFFFF;}
</style>
<title>лого_айгудс</title>
<desc>Created with Sketch.</desc>
<g>
	<path class="st0" d="M102.4,34.8L102.4,34.8c0-0.6-0.2-1.2-0.7-1.6l-15.6-14L86,19.1c-0.7-0.5-1.7-0.4-2.3,0.4
		c-0.6,0.8-0.5,2,0.3,2.7l12.2,11H39.4c-1,0-1.8,0.8-1.8,1.8s0.8,1.8,1.8,1.8h56.8L84,47.8c-0.8,0.7-0.9,1.8-0.3,2.7
		c0.5,0.7,1.5,0.9,2.3,0.4l0.1-0.1l15.6-14C102.2,36,102.4,35.4,102.4,34.8L102.4,34.8z"/>
</g>
</svg>
