<?xml version="1.0" encoding="utf-8"?>
<!-- Generator: Adobe Illustrator 22.1.0, SVG Export Plug-In . SVG Version: 6.00 Build 0)  -->
<svg version="1.1" id="Layer_1" xmlns="http://www.w3.org/2000/svg" xmlns:xlink="http://www.w3.org/1999/xlink" x="0px" y="0px"
	 viewBox="0 0 200 100" style="enable-background:new 0 0 200 100;" xml:space="preserve">
<g id="Layer_1_1_">
</g>
<g transform="translate(5 6)">
	<path d="M47.9,20.9c-0.3,0-0.6,0.2-0.6,0.5l0,0v7.3h-7.9v-7.3c0-0.3-0.2-0.6-0.5-0.6h-3.3c-0.3,0.1-0.7,0.3-0.7,0.6v19
		c0,0.3,0.3,0.5,0.6,0.5h3.3c0.3,0,0.5-0.2,0.5-0.5v-7.6h7.9v7.6c0,0.3,0.2,0.5,0.6,0.5h3.3c0.2,0,0.6-0.2,0.6-0.5v-19
		c0-0.3-0.2-0.6-0.6-0.6h-3.2V20.9z M58.3,20.9c-0.3,0-0.6,0.2-0.6,0.6l0,0v19c0,0.3,0.2,0.5,0.6,0.5h11.6c0.3,0,0.6-0.2,0.6-0.5
		v-3.2c0-0.3-0.2-0.6-0.6-0.6l0,0h-7.8v-4h6.5c0.2,0,0.5-0.1,0.5-0.5v-3.2c0-0.3-0.2-0.6-0.5-0.6h-6.5v-3.5h7.8
		c0.3,0,0.6-0.2,0.6-0.6v-3.2c0-0.3-0.2-0.6-0.6-0.6L58.3,20.9L58.3,20.9z M84.1,20.5h0.2c0.2,0,0.3,0.1,0.5,0.3l7.8,17.5
		c-0.2,0.1-0.5,0.2-0.6,0.5c-0.6,0.5-1,1.2-1.1,2v0.1h-0.2c-0.1-0.3-0.5-0.7-0.7-0.9c-0.3-0.2-0.8-0.5-1.4-0.5L87.9,38h-7.6l-1,2.3
		c-0.1,0.3-0.5,0.7-1,0.7h-3.1c-0.5,0-0.7-0.3-0.5-0.8l8.7-19.3C83.6,20.8,83.8,20.5,84.1,20.5L84.1,20.5z M84.2,29.4l-2,4.6h4.2
		L84.2,29.4L84.2,29.4L84.2,29.4z M98.2,20.9c-0.2,0-0.5,0.2-0.5,0.6v17.9H98h0.1h0.1c0.8,0,1.5,0.3,1.8,1c0.1,0.2,0.1,0.5,0.1,0.7
		h0.3c0.2-1,0.7-1.9,1.2-2.8c0.3-0.6,0.8-1,1.4-1.4H102V25.1h2.7c1.7,0,3.4,0.8,4.3,2.3c0.3-0.1,0.7-0.1,1-0.1
		c0.8,0.1,1.5,0.6,1.8,1.2c0.2,0.5,0.3,0.9,0.2,1.4c-0.1,1.7-0.3,3.5-0.5,5.1c-0.1,1.2-0.2,2.5-0.2,3.7c2.3-1.9,3.5-4.8,3.5-7.7
		c0-5.6-4.4-10-9.9-10C105,20.9,98.2,20.9,98.2,20.9z M119.1,26.3c0,3.5,3.1,5.4,5.4,6.3c1.9,0.8,2.8,1.7,2.8,2.9
		c0,1-0.8,1.7-1.9,1.7c-1.8,0-3.9-1.6-4-1.6c-0.2-0.1-0.7-0.2-0.9,0.1l-1.4,2.5c-0.2,0.5-0.1,0.6,0.1,0.8c0.7,0.7,2.6,2.3,6.2,2.3
		c4.1,0,6.6-2.9,6.6-5.9c0-4-3.5-5.7-5.7-6.6c-2.2-0.9-3.1-1.7-3.1-2.8c0-0.8,0.8-1.5,1.8-1.5c1.7,0,3.7,1.6,4,1.7
		c0.2,0.2,0.8-0.1,0.9-0.3l1.5-2.3c0.1-0.2,0.1-0.7-0.1-0.9c-0.8-0.7-3.1-2.2-6-2.2C121.2,20.7,119.1,23.5,119.1,26.3z M66.3,46.9
		c-0.3,0-0.6,0.2-0.6,0.6v7.3h-7.9v-7.3c0-0.3-0.2-0.6-0.5-0.6H54c-0.2,0-0.6,0.2-0.6,0.6v19c0,0.3,0.3,0.6,0.6,0.6h3.3
		c0.3,0,0.5-0.3,0.5-0.6V59h7.9v7.6c0,0.3,0.2,0.6,0.6,0.6h3.3c0.2,0,0.6-0.3,0.6-0.6v-19c0-0.3-0.2-0.6-0.6-0.6H66.3z M87,52.3
		l0.1-0.1l6.5,14.3c0.1,0.3-0.1,0.8-0.5,0.8h-3.1c-0.5,0-0.7-0.1-1-0.7l-1-2.3h-7.7l-1,2.3c-0.1,0.3-0.5,0.7-1,0.7h-3.1
		c-0.5,0-0.7-0.3-0.5-0.8l6.1-13.7c0.1,0.2,0.3,0.3,0.5,0.6l0,0c0.7,0.6,1.5,0.9,2.3,0.9c0.1,0,0.3,0,0.5,0l0,0
		C85.3,53.9,86.2,53.3,87,52.3z M84.1,55.4l-2.2,4.8h4.2L84.1,55.4L84.1,55.4z M112.7,46.9l-0.1,0.1c-0.6,0.7-1.2,1.2-1.9,1.5h-0.1
		c-0.2,0.1-0.5,0.1-0.8,0.2v9l0,0l-9.5-9.4c-0.2,0.2-0.5,0.5-0.8,0.6c-0.5,0.2-1,0.3-1.7,0.3c-0.1,0-0.2,0-0.5,0v17.5
		c0,0.3,0.2,0.6,0.6,0.6h3.3c0.3,0,0.5-0.3,0.5-0.6V55.9h0.2l11,11.4c0.1,0.1,0.2,0.1,0.3,0.1h0.5c0.2,0,0.5-0.2,0.5-0.5V47.5
		c0-0.3-0.2-0.6-0.5-0.6H112.7z M121.2,46.9h6.8c5.4,0,9.9,4.5,9.9,10.1s-4.4,10.1-9.9,10.1h-6.8c-0.3,0-0.6-0.3-0.6-0.6v-19
		C120.7,47.2,120.9,46.9,121.2,46.9z M125.1,51.1v11.7h2.7c3.2,0,5.4-2.6,5.4-5.9S131,51,127.8,51h-2.7V51.1z M142,52.4
		c0,3.5,3.1,5.4,5.4,6.3c1.9,0.8,2.8,1.7,2.8,2.9c0,1-0.8,1.7-1.9,1.7c-1.8,0-3.9-1.6-4-1.6c-0.2-0.1-0.7-0.2-0.9,0.1l-1.4,2.5
		c-0.2,0.5-0.1,0.6,0.1,0.8c0.7,0.7,2.6,2.3,6.2,2.3c4.1,0,6.6-2.9,6.6-6c0-3.9-3.5-5.7-5.7-6.6c-2.2-0.9-3.1-1.7-3.1-2.8
		c0-0.8,0.8-1.5,1.8-1.5c1.7,0,3.7,1.6,4,1.7c0.2,0.2,0.8-0.1,0.9-0.3l1.5-2.3c0.1-0.2,0.1-0.7-0.1-0.9c-0.8-0.7-3.1-2.2-6-2.2
		C144.1,46.6,142,49.6,142,52.4L142,52.4z"/>
	<path d="M83.3,40.8c0.6-0.6,1.4-0.8,2.3-0.8c0.1,0,0.1,0,0.2,0c0.3,0,0.7,0.1,1,0.3c0.2,0.2,0.5,0.5,0.7,0.8
		c0.2-0.2,0.5-0.5,0.8-0.6c0.3-0.1,0.6-0.1,0.9,0c0.3,0.1,0.6,0.2,0.7,0.5c0.2,0.2,0.2,0.6,0.2,0.9c-0.1,0.5-0.2,1.1-0.3,1.8
		c-0.1,0.7-0.1,1.5-0.2,2.2c0,0.7,0,1.2,0,1.7c0.1,0.5,0.2,0.7,0.5,0.7c0.1,0,0.3-0.2,0.6-0.7c0.2-0.5,0.5-1,0.7-1.6
		c0.2-0.6,0.5-1.2,0.6-1.8c0.2-0.6,0.3-1,0.3-1.4c0.1-0.3,0.2-0.5,0.5-0.6c0.2-0.1,0.3-0.2,0.6-0.1c0.1,0,0.3,0.1,0.5,0.2
		c0.1,0.1,0.1,0.3,0.1,0.6c-0.1,0.1-0.1,0.5-0.2,0.9s-0.2,1-0.5,1.6c-0.2,0.6-0.5,1.1-0.7,1.8c-0.2,0.6-0.6,1.1-0.9,1.7
		c-0.3,0.5-0.7,0.9-1.1,1.2c-0.5,0.3-0.8,0.5-1.4,0.3c-0.8-0.1-1.4-0.5-1.7-1.1c-0.2,0.7-0.5,1.2-0.9,1.9c-0.3,0.6-0.8,1-1.4,1.4
		c-0.6,0.2-1,0.3-1.5,0.3c-0.8-0.1-1.4-0.5-1.8-1.2c-0.5-0.7-0.8-1.5-0.9-2.5c-0.1-1-0.2-2,0-3.2c0.1-1,0.3-2,0.8-3.1
		C82,42.2,82.6,41.4,83.3,40.8L83.3,40.8z M83.6,50.5c0.2,0.5,0.5,0.7,0.8,0.7s0.7-0.2,1-0.7c0.3-0.5,0.6-1,0.8-1.8
		c0.2-0.7,0.5-1.5,0.6-2.3s0.1-1.6,0.1-2.4c0-0.5-0.1-0.9-0.3-1.2c-0.1-0.5-0.3-0.7-0.7-0.7c-0.5,0-0.8,0.2-1.1,0.7s-0.6,1-0.8,1.7
		c-0.2,0.7-0.3,1.4-0.5,2.2c-0.1,0.7-0.1,1.5-0.1,2.2C83.3,49.4,83.4,50,83.6,50.5z"/>
	<path d="M94,39.2c-0.3,0.1-0.8,0.3-1.1,0.6c-0.3,0.3-0.6,0.8-0.7,1.4c-0.1,0.6-0.1,1.2-0.1,1.8c0,0.7,0,1.4,0,2l0.1,2
		c0,0.7,0,1.1,0,1.7c0,0.5,0.1,0.7,0.3,0.8c0.3,0.1,0.6,0.2,0.9,0.1c0.3,0,0.7-0.2,0.9-0.5c0.3-0.2,0.5-0.5,0.6-0.9
		c0-0.5,0.1-0.8,0.2-1.2c0.1-0.5,0.2-0.9,0.3-1.4c0.1-0.5,0.2-0.8,0.5-1.1c0.1-0.3,0.2-0.6,0.5-0.6c0.1,0.1,0.1,0.5,0,0.9
		c0,0.5,0,1,0.1,1.5c0.1,0.5,0.3,0.9,0.6,1.4c0.3,0.3,0.8,0.5,1.6,0.3c0.5-0.1,0.9-0.3,1.4-0.9c0.5-0.6,0.9-1.1,1.2-1.8s0.7-1.4,1-2
		c0.3-0.7,0.5-1.2,0.6-1.6c0.1-0.2,0-0.5-0.1-0.6c-0.1-0.1-0.2-0.2-0.3-0.2c-0.2,0-0.3,0-0.5,0.1c-0.2,0.1-0.2,0.3-0.3,0.6
		c-0.1,0.3-0.2,0.8-0.5,1.2s-0.5,1-0.7,1.5c-0.2,0.5-0.5,0.8-0.8,1.1c-0.2,0.3-0.5,0.6-0.6,0.6s-0.2-0.1-0.2-0.6
		c0-0.5-0.1-0.9-0.1-1.4c0-0.6,0-1,0.1-1.6c0.1-0.6,0.1-0.9,0.2-1.1c0.1-0.3,0.1-0.7-0.1-0.8c-0.2-0.1-0.5-0.2-0.8-0.2
		s-0.7,0.1-1,0.3c-0.3,0.2-0.7,0.5-0.8,0.8c-0.3,0.5-0.6,1-0.8,1.6c-0.2,0.6-0.6,1.2-0.7,2c0-0.3,0-0.7,0-1c0-0.5,0.1-0.9,0.2-1.4
		c0.1-0.5,0.1-0.9,0.2-1.5c0.1-0.5,0.1-0.9,0.2-1.4c0-0.5-0.1-0.7-0.3-0.8C95.1,39,94.9,39,94.7,39C94.3,39.1,94.2,39.1,94,39.2z"/>
	<g>
		<path id="a" d="M109.9,28.4c0.3,0,0.7,0.1,0.9,0.3c0.3,0.2,0.3,0.6,0.3,1c-0.1,0.3-0.1,0.9-0.2,1.9c-0.1,0.9-0.2,2-0.3,3.2
			c-0.1,1.2-0.2,2.5-0.3,3.7c-0.1,1.1-0.1,2.4-0.1,3.5s0,1.9,0.1,2.6c0.1,0.7,0.2,1,0.5,0.9c0.2,0,0.5-0.3,0.7-0.8
			c0.2-0.5,0.5-1,0.7-1.7c0.2-0.7,0.5-1.2,0.6-1.8c0.2-0.6,0.3-1,0.3-1.4c0.1-0.2,0.2-0.5,0.3-0.6s0.3-0.1,0.5-0.1s0.3,0.1,0.5,0.2
			c0.1,0.1,0.1,0.3,0.1,0.7c-0.1,0.6-0.2,1.1-0.3,1.6c-0.2,0.9-0.5,1.7-0.8,2.5c-0.3,0.9-0.8,1.7-1.4,2.4c-0.6,0.7-1.2,1.1-2,1.2
			c-0.6,0.1-1-0.1-1.4-0.6s-0.6-1-0.7-1.8c-0.2,0.6-0.5,1-0.8,1.5c-0.3,0.5-0.8,0.8-1.2,1.1c-0.6,0.3-1,0.5-1.5,0.3
			c-0.7,0-1.4-0.5-1.7-1c-0.5-0.6-0.7-1.4-0.9-2.2c-0.1-0.9-0.2-1.8,0-2.7c0.1-0.9,0.5-1.8,0.8-2.7c0.5-0.8,0.9-1.5,1.6-2
			s1.5-0.8,2.4-0.7c0.5,0,0.9,0.2,1.4,0.7c0.1-1.6,0.2-3.1,0.3-4.4c0.1-1.4,0.2-2.4,0.2-3.1s0.2-1.1,0.5-1.5
			C109,28.6,109.4,28.5,109.9,28.4C109.8,28.4,109.9,28.4,109.9,28.4z M104.1,46.3c0.2,0.5,0.5,0.6,0.8,0.6s0.7-0.2,0.9-0.7
			c0.3-0.5,0.6-0.9,0.8-1.6c0.2-0.7,0.5-1.4,0.5-2c0.1-0.7,0.1-1.4,0.1-2c0-0.3-0.1-0.8-0.2-1.1c-0.1-0.3-0.3-0.6-0.7-0.6
			c-0.5,0-0.8,0.1-1.1,0.6c-0.3,0.3-0.6,0.9-0.8,1.5c-0.2,0.6-0.3,1.2-0.5,1.9c-0.1,0.7-0.1,1.4-0.1,1.9
			C103.8,45.2,104,45.8,104.1,46.3L104.1,46.3z"/>
	</g>
</g>
</svg>
