<?xml version="1.0" encoding="utf-8"?>
<!-- Generator: Adobe Illustrator 22.1.0, SVG Export Plug-In . SVG Version: 6.00 Build 0)  -->
<svg version="1.0" id="Layer_1" xmlns="http://www.w3.org/2000/svg" xmlns:xlink="http://www.w3.org/1999/xlink" x="0px" y="0px"
	 viewBox="0 0 50 50" style="enable-background:new 0 0 50 50;" xml:space="preserve">
<path d="M23.4,25.2l-2.8,11.1l-1-0.8c-0.3-0.3-0.4-0.7-0.3-1.1l5.9-17.3l-3.7,7.6c-0.1,0-0.3,0-0.5-0.1v-11
	c4.8,0.2,9.4,2.2,12.9,5.5l-7.8,7.5C25.3,26.1,24.4,25.6,23.4,25.2z M40,33.6H30c-0.2-2.4-1.3-4.6-3.1-6.3l7.7-7.4
	C38.1,23.6,40,28.5,40,33.6z M0,33.6c0-5.3,2.1-10.1,5.4-13.7l7.7,7.4c-1.8,1.7-2.9,3.9-3.1,6.3H0z M6.1,19.2
	c3.7-3.6,8.7-5.6,13.9-5.6v11c-2.3,0-4.4,0.8-6.1,2.1L6.1,19.2L6.1,19.2z"/>
</svg>
