<?xml version="1.0" encoding="utf-8"?>
<!-- Generator: Adobe Illustrator 22.1.0, SVG Export Plug-In . SVG Version: 6.00 Build 0)  -->
<svg version="1.0" id="Layer_1" xmlns="http://www.w3.org/2000/svg" xmlns:xlink="http://www.w3.org/1999/xlink" x="0px" y="0px"
	 viewBox="0 0 120 50" style="enable-background:new 0 0 120 50;" xml:space="preserve">
<style type="text/css">
	.st0{fill:#FFFFFF;}
</style>
<g transform="translate(5 6)">
	<path class="st0" d="M15.8-0.3c-0.3,0-0.5,0.2-0.5,0.4l0,0v6H8.7v-6c0-0.3-0.2-0.5-0.4-0.5H5.6C5.3-0.3,5-0.1,5,0.1V16
		c0,0.3,0.3,0.4,0.5,0.4h2.7c0.3,0,0.4-0.2,0.4-0.4V9.7h6.6V16c0,0.3,0.2,0.4,0.5,0.4h2.7c0.2,0,0.5-0.2,0.5-0.4V0.1
		c0-0.3-0.2-0.5-0.5-0.5L15.8-0.3L15.8-0.3z M24.5-0.3c-0.3,0-0.5,0.2-0.5,0.5l0,0v15.9c0,0.3,0.2,0.4,0.5,0.4h9.6
		c0.3,0,0.5-0.2,0.5-0.4v-2.6c0-0.3-0.2-0.5-0.5-0.5l0,0h-6.5V9.7H33c0.2,0,0.4-0.1,0.4-0.4V6.6c0-0.3-0.2-0.5-0.4-0.5h-5.4V3.2h6.5
		c0.3,0,0.5-0.2,0.5-0.5V0.1c0-0.3-0.2-0.5-0.5-0.5L24.5-0.3L24.5-0.3z M45.9-0.5h0.2c0.2,0,0.3,0.1,0.4,0.3L53,14.3
		c-0.2,0.1-0.4,0.2-0.5,0.4c-0.5,0.4-0.8,1-0.9,1.7v0.1h-0.2c-0.1-0.3-0.4-0.6-0.6-0.8c-0.3-0.2-0.7-0.4-1.1-0.4L49.1,14h-6.3
		l-0.8,1.9c-0.1,0.3-0.4,0.6-0.8,0.6h-2.5c-0.4,0-0.6-0.3-0.4-0.7l7.3-16.1C45.5-0.4,45.7-0.5,45.9-0.5L45.9-0.5z M46,6.8l-1.7,3.9
		h3.5L46,6.8L46,6.8L46,6.8z M57.7-0.3c-0.2,0-0.4,0.2-0.4,0.5v14.9h0.2h0.1h0.1c0.7,0,1.2,0.3,1.5,0.8c0.1,0.2,0.1,0.4,0.1,0.6h0.3
		c0.2-0.8,0.6-1.6,1-2.4c0.3-0.5,0.7-0.8,1.1-1.1h-0.9V3.2h2.3c1.4,0,2.8,0.7,3.6,1.9C66.9,5,67.2,5,67.5,5c0.7,0.1,1.2,0.5,1.5,1
		c0.2,0.4,0.3,0.8,0.2,1.1c-0.1,1.4-0.3,2.9-0.4,4.2c-0.1,1-0.2,2.1-0.2,3.1c1.9-1.6,2.9-4,2.9-6.4c0-4.6-3.7-8.3-8.2-8.3
		C63.4-0.3,57.7-0.3,57.7-0.3z M75.1,4.3c0,2.9,2.5,4.5,4.5,5.3C81.2,10.2,82,11,82,12c0,0.8-0.7,1.4-1.6,1.4
		c-1.5,0-3.2-1.3-3.3-1.3c-0.2-0.1-0.6-0.2-0.8,0.1l-1.1,2.1c-0.2,0.4-0.1,0.5,0.1,0.7c0.6,0.6,2.2,1.9,5.2,1.9
		c3.4,0,5.5-2.5,5.5-4.9c0-3.3-2.9-4.7-4.7-5.5c-1.8-0.8-2.5-1.4-2.5-2.4c0-0.7,0.7-1.2,1.5-1.2c1.4,0,3.1,1.3,3.3,1.4
		c0.2,0.2,0.7-0.1,0.8-0.3l1.2-1.9c0.1-0.2,0.1-0.6-0.1-0.8c-0.7-0.6-2.5-1.8-5-1.8C76.9-0.5,75.1,1.9,75.1,4.3z M31.1,21.5
		c-0.3,0-0.5,0.2-0.5,0.5v6H24v-6c0-0.3-0.2-0.5-0.4-0.5h-2.7c-0.2,0-0.5,0.2-0.5,0.5v15.9c0,0.3,0.3,0.5,0.5,0.5h2.7
		c0.3,0,0.4-0.3,0.4-0.5v-6.3h6.6v6.3c0,0.3,0.2,0.5,0.5,0.5h2.7c0.2,0,0.5-0.3,0.5-0.5V21.9c0-0.3-0.2-0.5-0.5-0.5H31.1z
		 M48.3,25.9L48.3,25.9l5.5,11.8c0.1,0.3-0.1,0.7-0.4,0.7h-2.5c-0.4,0-0.6-0.1-0.8-0.6l-0.8-1.9h-6.4l-0.8,1.9
		c-0.1,0.3-0.4,0.6-0.8,0.6h-2.5c-0.4,0-0.6-0.3-0.4-0.7l5.1-11.4c0.1,0.2,0.3,0.3,0.4,0.5l0,0c0.6,0.5,1.2,0.8,1.9,0.8
		c0.1,0,0.3,0,0.4,0l0,0C46.9,27.2,47.7,26.7,48.3,25.9z M45.9,28.5l-1.8,4h3.5L45.9,28.5L45.9,28.5z M69.8,21.5L69.8,21.5
		c-0.6,0.7-1.1,1.1-1.7,1.3H68c-0.2,0.1-0.4,0.1-0.7,0.2v7.5l0,0l-7.9-7.8c-0.2,0.2-0.4,0.4-0.7,0.5c-0.4,0.2-0.8,0.3-1.4,0.3
		c-0.1,0-0.2,0-0.4,0v14.5c0,0.3,0.2,0.5,0.5,0.5h2.7c0.3,0,0.4-0.3,0.4-0.5v-9h0.2l9.2,9.5c0.1,0.1,0.2,0.1,0.3,0.1h0.4
		c0.2,0,0.4-0.2,0.4-0.4V21.9c0-0.3-0.2-0.5-0.4-0.5H69.8z M76.9,21.5h5.7c4.5,0,8.2,3.8,8.2,8.4s-3.7,8.4-8.2,8.4h-5.7
		c-0.3,0-0.5-0.3-0.5-0.5V21.9C76.4,21.6,76.6,21.5,76.9,21.5z M80.1,24.9v9.7h2.3c2.6,0,4.5-2.2,4.5-4.9s-1.9-4.9-4.5-4.9
		L80.1,24.9L80.1,24.9z M94.1,26c0,2.9,2.5,4.5,4.5,5.3c1.6,0.7,2.4,1.4,2.4,2.5c0,0.8-0.7,1.4-1.6,1.4c-1.5,0-3.2-1.3-3.3-1.3
		c-0.2-0.1-0.6-0.2-0.8,0.1L94.2,36c-0.2,0.4-0.1,0.5,0.1,0.7c0.6,0.6,2.2,1.9,5.2,1.9c3.4,0,5.5-2.5,5.5-5c0-3.2-2.9-4.7-4.7-5.5
		c-1.8-0.8-2.5-1.4-2.5-2.4c0-0.7,0.7-1.2,1.5-1.2c1.4,0,3.1,1.3,3.3,1.4c0.2,0.2,0.7-0.1,0.8-0.3l1.2-1.9c0.1-0.2,0.1-0.6-0.1-0.8
		c-0.7-0.6-2.5-1.8-5-1.8C95.9,21.2,94.1,23.6,94.1,26L94.1,26z"/>
	<path class="st0" d="M45.2,16.4c0.5-0.5,1.1-0.7,1.9-0.7c0.1,0,0.1,0,0.2,0c0.3,0,0.6,0.1,0.8,0.3c0.2,0.2,0.4,0.4,0.6,0.7
		c0.2-0.2,0.4-0.4,0.7-0.5c0.3-0.1,0.5-0.1,0.8,0c0.3,0.1,0.5,0.2,0.6,0.4c0.2,0.2,0.2,0.5,0.2,0.8c-0.1,0.4-0.2,0.9-0.3,1.5
		c-0.1,0.6-0.1,1.2-0.2,1.8c0,0.6,0,1,0,1.4c0.1,0.4,0.2,0.6,0.4,0.6c0.1,0,0.3-0.2,0.5-0.6s0.4-0.8,0.6-1.3c0.2-0.5,0.4-1,0.5-1.5
		c0.2-0.5,0.3-0.8,0.3-1.1c0.1-0.3,0.2-0.4,0.4-0.5s0.3-0.2,0.5-0.1c0.1,0,0.3,0.1,0.4,0.2s0.1,0.3,0.1,0.5
		c-0.1,0.1-0.1,0.4-0.2,0.8c-0.1,0.4-0.2,0.8-0.4,1.3c-0.2,0.5-0.4,0.9-0.6,1.5c-0.2,0.5-0.5,0.9-0.8,1.4c-0.3,0.4-0.6,0.8-0.9,1
		c-0.4,0.3-0.7,0.4-1.1,0.3c-0.7-0.1-1.1-0.4-1.4-0.9c-0.2,0.6-0.4,1-0.8,1.6c-0.3,0.5-0.7,0.8-1.1,1.1c-0.5,0.2-0.8,0.3-1.2,0.3
		c-0.7-0.1-1.1-0.4-1.5-1c-0.4-0.6-0.7-1.2-0.8-2.1c-0.1-0.8-0.2-1.7,0-2.6c0.1-0.8,0.3-1.7,0.7-2.5C44.2,17.5,44.7,16.8,45.2,16.4
		L45.2,16.4z M45.5,24.4c0.2,0.4,0.4,0.6,0.7,0.6s0.6-0.2,0.8-0.6c0.3-0.4,0.5-0.8,0.7-1.5c0.2-0.6,0.4-1.2,0.5-1.9
		c0.1-0.7,0.1-1.3,0.1-2c0-0.4-0.1-0.8-0.3-1c-0.1-0.4-0.3-0.6-0.6-0.6c-0.4,0-0.7,0.2-0.9,0.6c-0.3,0.4-0.5,0.8-0.7,1.4
		s-0.3,1.1-0.4,1.8c-0.1,0.6-0.1,1.2-0.1,1.8C45.2,23.5,45.3,24,45.5,24.4z"/>
	<path class="st0" d="M54.2,15c-0.3,0.1-0.7,0.3-0.9,0.5c-0.3,0.3-0.5,0.7-0.6,1.1c-0.1,0.5-0.1,1-0.1,1.5c0,0.6,0,1.1,0,1.7
		l0.1,1.7c0,0.6,0,0.9,0,1.4c0,0.4,0.1,0.6,0.3,0.7c0.3,0.1,0.5,0.2,0.8,0.1c0.3,0,0.6-0.2,0.8-0.4c0.3-0.2,0.4-0.4,0.5-0.8
		c0-0.4,0.1-0.7,0.2-1s0.2-0.8,0.3-1.1c0.1-0.4,0.2-0.7,0.4-0.9c0.1-0.3,0.2-0.5,0.4-0.5c0.1,0.1,0.1,0.4,0,0.8c0,0.4,0,0.8,0.1,1.2
		c0.1,0.4,0.3,0.8,0.5,1.1c0.3,0.3,0.7,0.4,1.3,0.3c0.4-0.1,0.8-0.3,1.1-0.8s0.8-0.9,1-1.5c0.3-0.6,0.6-1.1,0.8-1.7
		c0.3-0.6,0.4-1,0.5-1.3c0.1-0.2,0-0.4-0.1-0.5s-0.2-0.2-0.3-0.2c-0.2,0-0.3,0-0.4,0.1c-0.2,0.1-0.2,0.3-0.3,0.5
		c-0.1,0.3-0.2,0.7-0.4,1c-0.2,0.4-0.4,0.8-0.6,1.2c-0.2,0.4-0.4,0.7-0.7,0.9c-0.2,0.3-0.4,0.5-0.5,0.5c-0.1,0-0.2-0.1-0.2-0.5
		s-0.1-0.8-0.1-1.1c0-0.5,0-0.8,0.1-1.3c0.1-0.5,0.1-0.8,0.2-0.9c0.1-0.3,0.1-0.6-0.1-0.7C58.2,16.1,58,16,57.7,16
		c-0.3,0-0.6,0.1-0.8,0.3c-0.3,0.2-0.6,0.4-0.7,0.7c-0.3,0.4-0.5,0.8-0.7,1.3c-0.2,0.5-0.5,1-0.6,1.7c0-0.3,0-0.6,0-0.8
		c0-0.4,0.1-0.8,0.2-1.1c0.1-0.4,0.1-0.8,0.2-1.2c0.1-0.4,0.1-0.8,0.2-1.1c0-0.4-0.1-0.6-0.3-0.7s-0.3-0.1-0.5-0.1
		C54.4,14.9,54.3,14.9,54.2,15z"/>
	<g>
		<path id="a" class="st0" d="M67.4,6c0.3,0,0.6,0.1,0.8,0.3c0.3,0.2,0.3,0.5,0.3,0.8c-0.1,0.3-0.1,0.8-0.2,1.6
			c-0.1,0.8-0.2,1.7-0.3,2.6c-0.1,1-0.2,2.1-0.3,3.1c-0.1,0.9-0.1,2-0.1,2.9c0,0.9,0,1.6,0.1,2.2c0.1,0.6,0.2,0.8,0.4,0.8
			c0.2,0,0.4-0.3,0.6-0.7c0.2-0.4,0.4-0.8,0.6-1.4c0.2-0.6,0.4-1,0.5-1.5c0.2-0.5,0.3-0.8,0.3-1.1c0.1-0.2,0.2-0.4,0.3-0.5
			c0.1-0.1,0.3-0.1,0.4-0.1c0.1,0,0.3,0.1,0.4,0.2c0.1,0.1,0.1,0.3,0.1,0.6c-0.1,0.5-0.2,0.9-0.3,1.3c-0.2,0.8-0.4,1.4-0.7,2.1
			c-0.3,0.8-0.7,1.4-1.1,2c-0.5,0.6-1,0.9-1.7,1c-0.5,0.1-0.8-0.1-1.1-0.5s-0.5-0.8-0.6-1.5c-0.2,0.5-0.4,0.8-0.7,1.2
			c-0.3,0.4-0.7,0.7-1,0.9c-0.5,0.3-0.8,0.4-1.2,0.3c-0.6,0-1.1-0.4-1.4-0.8c-0.4-0.5-0.6-1.1-0.8-1.8c-0.1-0.8-0.2-1.5,0-2.3
			c0.1-0.8,0.4-1.5,0.7-2.3c0.4-0.7,0.8-1.2,1.3-1.7c0.6-0.5,1.2-0.7,2-0.6c0.4,0,0.8,0.2,1.1,0.6c0.1-1.3,0.2-2.5,0.3-3.7
			c0.1-1.1,0.2-2,0.2-2.5s0.2-0.9,0.4-1.2C66.7,6.2,67,6.1,67.4,6C67.3,6,67.4,6,67.4,6z M62.6,20.9c0.2,0.4,0.4,0.5,0.7,0.5
			c0.3,0,0.6-0.2,0.8-0.6c0.3-0.4,0.5-0.8,0.7-1.3s0.4-1.1,0.4-1.7c0.1-0.6,0.1-1.1,0.1-1.7c0-0.3-0.1-0.7-0.2-0.9
			c-0.1-0.3-0.3-0.5-0.6-0.5c-0.4,0-0.7,0.1-0.9,0.5c-0.3,0.3-0.5,0.8-0.7,1.2c-0.2,0.5-0.3,1-0.4,1.6c-0.1,0.6-0.1,1.1-0.1,1.6
			S62.5,20.5,62.6,20.9L62.6,20.9z"/>
	</g>
</g>
</svg>
