<?xml version="1.0" encoding="utf-8"?>
<!-- Generator: Adobe Illustrator 22.1.0, SVG Export Plug-In . SVG Version: 6.00 Build 0)  -->
<svg version="1.0" id="Layer_1" xmlns="http://www.w3.org/2000/svg" xmlns:xlink="http://www.w3.org/1999/xlink" x="0px" y="0px"
	 viewBox="0 0 50 50" style="enable-background:new 0 0 50 50;" xml:space="preserve">
<style type="text/css">
	.st0{fill:#FFFFFF;}
</style>
<g>
	<path class="st0" d="M28.1,18h-1.6c-1.9,0-3.1,1.4-3.1,3.5V23h-1.6c-0.2,0-0.3,0.1-0.3,0.3v2.3c0,0.2,0.1,0.3,0.3,0.3h1.6v5.8
		c0,0.2,0.1,0.3,0.3,0.3h2.2c0.2,0,0.3-0.1,0.3-0.3V26h1.9c0.2,0,0.3-0.1,0.3-0.3v-2.3c0,0,0-0.2,0-0.2s-0.1-0.1-0.2-0.1h-1.9v-1.4
		c0-0.7,0.2-1,0.9-1h1.1c0.2,0,0.3-0.1,0.3-0.3v-2.1C28.4,18.2,28.3,18,28.1,18L28.1,18z"/>
</g>
</svg>
