<?xml version="1.0" encoding="utf-8"?>
<!-- Generator: Adobe Illustrator 22.1.0, SVG Export Plug-In . SVG Version: 6.00 Build 0)  -->
<svg version="1.0" id="Layer_1" xmlns="http://www.w3.org/2000/svg" xmlns:xlink="http://www.w3.org/1999/xlink" x="0px" y="0px"
	 viewBox="0 0 50 50" style="enable-background:new 0 0 50 50;" xml:space="preserve">
<style type="text/css">
	.st0{fill:#FFFFFF;}
</style>
<path class="st0" d="M32,20.8c-0.5,0.2-1.1,0.4-1.6,0.4c0.6-0.3,1-0.9,1.3-1.5c-0.6,0.3-1.2,0.6-1.8,0.7c-0.6-0.6-1.3-0.9-2.1-0.9
	c-1.6,0-2.9,1.2-2.9,2.8c0,0.2,0,0.4,0.1,0.6c-2.3-0.1-4.4-1.2-5.9-2.9c-0.2,0.4-0.4,0.9-0.4,1.4c0,1,0.5,1.8,1.3,2.3
	c-0.5,0-0.9-0.1-1.3-0.3v0c0,1.3,1,2.5,2.3,2.7c-0.2,0.1-0.5,0.1-0.8,0.1c-0.2,0-0.4,0-0.5-0.1c0.4,1.1,1.4,1.9,2.7,1.9
	c-1,0.8-2.3,1.2-3.6,1.2c-0.2,0-0.5,0-0.7,0c1.3,0.8,2.8,1.3,4.4,1.2c5.3,0,8.2-4.2,8.2-7.9l0-0.4C31.1,21.8,31.6,21.4,32,20.8
	L32,20.8z"/>
</svg>
