<?xml version="1.0" encoding="utf-8"?>
<!-- Generator: Adobe Illustrator 22.1.0, SVG Export Plug-In . SVG Version: 6.00 Build 0)  -->
<svg version="1.0" id="Layer_1" xmlns="http://www.w3.org/2000/svg" xmlns:xlink="http://www.w3.org/1999/xlink" x="0px" y="0px"
	 viewBox="0 0 50 50" style="enable-background:new 0 0 50 50;" xml:space="preserve">
<style type="text/css">
	.st0{fill:#FFFFFF;}
</style>
<path class="st0" d="M34.6,20.2c-0.2-0.8-0.9-1.5-1.8-1.8C31.2,18,25,18,25,18s-6.2,0-7.8,0.4c-0.8,0.2-1.5,0.9-1.8,1.8
	C15,21.7,15,25,15,25s0,3.3,0.4,4.8c0.2,0.8,0.9,1.5,1.8,1.8C18.8,32,25,32,25,32s6.2,0,7.8-0.4c0.8-0.2,1.5-0.9,1.8-1.8
	C35,28.3,35,25,35,25S35,21.7,34.6,20.2z M23,28v-6l5.2,3L23,28z"/>
</svg>
