<?xml version="1.0" encoding="utf-8"?>
<!-- Generator: Adobe Illustrator 22.1.0, SVG Export Plug-In . SVG Version: 6.00 Build 0)  -->
<svg version="1.0" id="Layer_1" xmlns="http://www.w3.org/2000/svg" xmlns:xlink="http://www.w3.org/1999/xlink" x="0px" y="0px"
	 viewBox="0 0 50 50" style="enable-background:new 0 0 50 50;" xml:space="preserve">
<style type="text/css">
	.st0{fill:#FFFFFF;}
</style>
<g>
	<path id="Behance" class="st0" d="M32.7,20.7h-4.8v-1.2h4.8L32.7,20.7L32.7,20.7z M24.7,25.6c0.3,0.5,0.5,1.1,0.5,1.8
		c0,0.7-0.2,1.4-0.5,1.9c-0.2,0.4-0.5,0.7-0.8,0.9c-0.4,0.3-0.8,0.5-1.3,0.6c-0.5,0.1-1.1,0.2-1.7,0.2h-5.4V19h5.8
		c1.5,0,2.5,0.4,3.1,1.3c0.4,0.5,0.5,1.1,0.5,1.8c0,0.7-0.2,1.3-0.6,1.8c-0.2,0.3-0.5,0.5-0.9,0.7C24,24.8,24.4,25.1,24.7,25.6z
		 M18.2,23.7h2.5c0.5,0,0.9-0.1,1.3-0.3c0.3-0.2,0.5-0.5,0.5-1.1c0-0.6-0.2-0.9-0.6-1.1c-0.4-0.1-0.8-0.2-1.4-0.2h-2.2V23.7z
		 M22.7,27.2c0-0.6-0.3-1.1-0.8-1.3c-0.3-0.1-0.7-0.2-1.2-0.2h-2.6v3.2h2.5c0.5,0,0.9-0.1,1.2-0.2C22.4,28.4,22.7,27.9,22.7,27.2z
		 M34.5,25.3c0.1,0.4,0.1,1,0.1,1.7h-6.2c0,0.9,0.3,1.5,0.9,1.8c0.3,0.2,0.8,0.3,1.2,0.3c0.5,0,0.9-0.1,1.2-0.4
		c0.2-0.1,0.3-0.3,0.5-0.6h2.3c-0.1,0.5-0.3,1-0.8,1.6c-0.8,0.8-1.8,1.3-3.2,1.3c-1.1,0-2.1-0.4-3-1.1c-0.9-0.7-1.3-1.9-1.3-3.4
		c0-1.5,0.4-2.6,1.2-3.4c0.8-0.8,1.8-1.2,3.1-1.2c0.7,0,1.4,0.1,2,0.4c0.6,0.3,1.1,0.7,1.5,1.3C34.2,24,34.4,24.6,34.5,25.3z
		 M32.3,25.5c0-0.6-0.2-1-0.6-1.4c-0.4-0.3-0.8-0.5-1.3-0.5c-0.6,0-1,0.2-1.3,0.5c-0.3,0.3-0.5,0.8-0.6,1.3H32.3L32.3,25.5z"/>
</g>
</svg>
