<?xml version="1.0" encoding="utf-8"?>
<!-- Generator: Adobe Illustrator 22.1.0, SVG Export Plug-In . SVG Version: 6.00 Build 0)  -->
<svg version="1.0" id="Layer_1" xmlns="http://www.w3.org/2000/svg" xmlns:xlink="http://www.w3.org/1999/xlink" x="0px" y="0px"
	 viewBox="0 0 140 70" style="enable-background:new 0 0 140 70;" xml:space="preserve">
<style type="text/css">
	.st0{fill:#FFFFFF;}
</style>
<title>лого_петрович</title>
<desc>Created with Sketch.</desc>
<g>
	<path class="st0" d="M125,38.3h-6.6v-6.9h-6.6v6.9h-6.6v6.9h6.6v6.9h6.6v-6.9h6.6V38.3z M95.9,37l5-4.8c-5.5-5.3-14.5-5.3-20,0
		c-5.5,5.3-5.5,13.9,0,19.2c2.8,2.6,6.4,4,10,4c3.6,0,7.2-1.3,10-4l-5-4.8c-2.8,2.6-7.2,2.6-10,0c-2.6-2.5-2.8-6.7-0.3-9.3
		c0.1-0.1,0.2-0.2,0.3-0.3C88.7,34.3,93.2,34.3,95.9,37 M59,48.5c-3.8,0-6.8-3-6.8-6.8c0-3.7,3.1-6.8,6.8-6.8s6.8,3,6.8,6.8
		S62.8,48.5,59,48.5 M59,28.2c-7.5,0-13.6,6.1-13.6,13.5S51.5,55.3,59,55.3c7.5,0,13.6-6.1,13.6-13.5S66.5,28.2,59,28.2 M28.6,48.5
		c-3.8,0-6.8-3-6.8-6.8c0-3.7,3.1-6.8,6.8-6.8s6.8,3,6.8,6.8S32.4,48.5,28.6,48.5z M35.4,30.1c-2.1-1.2-4.4-1.8-6.8-1.8
		c-7.5,0-13.6,6.1-13.6,13.5s6.1,13.5,13.6,13.5c7.5,0,13.6-6.1,13.6-13.5V14.7h-6.8V30.1z"/>
</g>
</svg>
