<?xml version="1.0" encoding="utf-8"?>
<!-- Generator: Adobe Illustrator 22.1.0, SVG Export Plug-In . SVG Version: 6.00 Build 0)  -->
<svg version="1.0" id="Layer_1" xmlns="http://www.w3.org/2000/svg" xmlns:xlink="http://www.w3.org/1999/xlink" x="0px" y="0px"
	 viewBox="0 0 140 70" style="enable-background:new 0 0 140 70;" xml:space="preserve">
<style type="text/css">
	.st0{filter:url(#Adobe_OpacityMaskFilter);}
	.st1{fill:#FFFFFF;}
	.st2{mask:url(#mask-2_2_);fill:#FFFFFF;}
	.st3{filter:url(#Adobe_OpacityMaskFilter_1_);}
	.st4{mask:url(#mask-4_2_);fill:#FFFFFF;}
</style>
<title>лого_айгудс</title>
<desc>Created with Sketch.</desc>
<g id="лого_GDS">
	<g id="Group-7" transform="translate(19.000000, 3.000000)">
		<g id="Group-3" transform="translate(0.000000, 28.547000)">
			<g id="Clip-2">
			</g>
			<defs>
				<filter id="Adobe_OpacityMaskFilter" filterUnits="userSpaceOnUse" x="6" y="1.1" width="90.9" height="33.5">
					<feColorMatrix  type="matrix" values="1 0 0 0 0  0 1 0 0 0  0 0 1 0 0  0 0 0 1 0"/>
				</filter>
			</defs>
			<mask maskUnits="userSpaceOnUse" x="6" y="1.1" width="90.9" height="33.5" id="mask-2_2_">
				<g class="st0">
					<polygon id="path-1_2_" class="st1" points="6,1.1 97,1.1 97,34.7 6,34.7 					"/>
				</g>
			</mask>
			<path id="Fill-1" class="st2" d="M95.5,9.1C95.1,6,94.9,4,94.7,2.3c-1.9-0.6-3.9-1.1-6.2-1.1c-6.4,0-10.2,4-10.2,8.8
				c0,5.6,5,8,8.1,9.7c3.7,2,6.4,3.7,6.4,7.3c0,3.6-2.2,5.9-5.9,5.9c-5.1,0-7.3-5-8.1-8l-1.5,0.3c0.3,2.4,1,6.6,1.3,7.6
				c0.5,0.2,1.2,0.6,2.5,1c1.2,0.4,2.8,0.7,4.8,0.7c6.6,0,10.9-4.1,10.9-9.3c0-5.6-4.6-7.8-8.5-9.9c-3.9-2-6.3-3.7-6.3-7.3
				c0-2.7,1.7-5.4,5.5-5.4c4.3,0,5.6,3.4,6.5,6.5L95.5,9.1z M49.6,6.9c0-2,0.2-2.5,0.6-2.8c0.5-0.4,1.8-0.6,3.8-0.6
				c3.3,0,6.2,0.6,8.4,2c3.9,2.3,5.8,6.8,5.8,11.8c0,7.9-4.3,14.8-13.5,14.8c-3.6,0-5.2-0.9-5.2-4.7V6.9z M41.2,1.9v1.4
				C45,3.5,45.4,3.7,45.4,8v19.8c0,4.2-0.4,4.5-4.6,4.8v1.3h11.6c6,0,10.9-1.2,14.6-4.1c3.7-2.9,6.1-7.2,6.1-13.2
				c0-4.6-1.7-8.2-4.2-10.6c-3.1-3-7.6-4.2-13.9-4.2H41.2z M38,19H25.5v1.4c4.9,0.3,5.2,0.7,5.2,4.2v4.2c0,2.1-0.6,2.7-1.6,3.3
				c-1.1,0.5-2.6,0.8-4.3,0.8c-9.5,0-13.7-8.3-13.7-15.4c0-9.1,5.5-14.6,13.1-14.6c4.7,0,8.4,1.6,9.6,7.7l1.4-0.3
				c-0.3-3.3-0.6-6-0.7-7.7c-1.6-0.3-5.4-1.4-9.5-1.4C15.2,1.1,6,6.7,6,18.1c0,9.8,7.2,16.6,18.1,16.6c3.9,0,8-1.1,11-1.8
				c-0.3-1.4-0.3-3-0.3-4.7v-4.2c0-2.9,0.2-3.2,3.2-3.5L38,19L38,19z"/>
		</g>
		<g id="Group-6" transform="translate(21.000000, 0.547000)">
			<g id="Clip-5">
			</g>
			<defs>
				<filter id="Adobe_OpacityMaskFilter_1_" filterUnits="userSpaceOnUse" x="6.9" y="1.1" width="49.1" height="18.5">
					<feColorMatrix  type="matrix" values="1 0 0 0 0  0 1 0 0 0  0 0 1 0 0  0 0 0 1 0"/>
				</filter>
			</defs>
			<mask maskUnits="userSpaceOnUse" x="6.9" y="1.1" width="49.1" height="18.5" id="mask-4_2_">
				<g class="st3">
					<polygon id="path-3_2_" class="st1" points="6.9,1.1 56,1.1 56,19.6 6.9,19.6 					"/>
				</g>
			</mask>
			<path id="Fill-4" class="st4" d="M16.1,19.6c4.5-2.7,9.7-4.2,15.4-4.2c5.6,0,10.9,1.5,15.4,4.2c0.9-2.2,2.8-4.9,5.4-7.5
				c1.2-1.2,2.5-2.2,3.8-3.1c-0.5-0.4-1.2-0.7-1.8-0.7c-1.3,0-2.4,0.8-2.8,2c-0.3-0.7-1.1-1.3-1.9-1.3c-1.2,0-2.1,0.9-2.1,2.1
				c0,1,0.7,1.8,1.6,2.1c-0.7,0.9-1.8,1.5-3.1,1.5c-2.1,0-3.9-1.7-3.9-3.9c0-0.2,0-0.4,0.1-0.7c0.2,0.1,0.5,0.1,0.7,0.1
				c1.2,0,2.1-0.9,2.1-2.1c0-1.2-0.9-2.1-2.1-2.1c-1.2,0-2.1,0.9-2.1,2.1c0,0.7,0.3,1.2,0.8,1.6c-0.8,1.3-2.2,2.1-3.9,2.1
				c-2.5,0-4.6-2.1-4.6-4.6c0-0.3,0-0.7,0.1-1c0,0.1,0,0.1,0,0.2c0,1.2,0.9,2.1,2.1,2.1s2.1-0.9,2.1-2.1c0-1.2-0.9-2.1-2.1-2.1
				c-0.4,0-0.7,0.1-1,0.3c0.1-0.2,0.1-0.5,0.1-0.7c0-1.6-1.3-2.9-2.9-2.9c-1.6,0-2.9,1.3-2.9,2.9c0,0.2,0,0.5,0.1,0.7
				c-0.3-0.2-0.7-0.3-1-0.3c-1.2,0-2.1,0.9-2.1,2.1c0,1.2,0.9,2.1,2.1,2.1c1.2,0,2.1-0.9,2.1-2.1c0-0.1,0-0.2,0-0.2
				c0.1,0.3,0.1,0.7,0.1,1c0,2.5-2.1,4.6-4.6,4.6c-1.6,0-3-0.8-3.8-2.1c0.5-0.4,0.7-1,0.7-1.6c0-1.2-0.9-2.1-2.1-2.1
				c-1.2,0-2.1,0.9-2.1,2.1c0,1.2,0.9,2.1,2.1,2.1c0.3,0,0.5,0,0.7-0.1c0,0.2,0.1,0.4,0.1,0.7c0,2.1-1.7,3.9-3.9,3.9
				c-1.2,0-2.4-0.6-3.1-1.5c0.9-0.2,1.6-1.1,1.6-2.1c0-1.2-0.9-2.1-2.1-2.1c-0.9,0-1.6,0.5-1.9,1.3c-0.4-1.2-1.5-2-2.8-2
				C8.1,8.3,7.4,8.6,6.9,9c1.2,0.9,2.5,1.9,3.8,3.1C13.3,14.6,15.2,17.3,16.1,19.6"/>
		</g>
	</g>
</g>
</svg>
