<?xml version="1.0" encoding="utf-8"?>
<!-- Generator: Adobe Illustrator 22.1.0, SVG Export Plug-In . SVG Version: 6.00 Build 0)  -->
<svg version="1.0" id="Layer_1" xmlns="http://www.w3.org/2000/svg" xmlns:xlink="http://www.w3.org/1999/xlink" x="0px" y="0px"
	 viewBox="0 0 50 50" style="enable-background:new 0 0 50 50;" xml:space="preserve">
<style type="text/css">
	.st0{fill:#FFFFFF;}
</style>
<path class="st0" d="M31.1,21.4c-0.6-1.1-1.5-2-2.5-2.6c-1.1-0.6-2.3-1-3.5-0.9c-1.3,0-2.4,0.3-3.5,0.9c-1.1,0.6-1.9,1.5-2.5,2.6
	C18.3,22.5,18,23.8,18,25c0,1.3,0.3,2.5,0.9,3.6c0.6,1.1,1.5,2,2.5,2.6c1.1,0.6,2.2,1,3.5,1c1.3,0,2.4-0.3,3.5-0.9
	c1.1-0.6,1.9-1.5,2.5-2.6c0.6-1.1,0.9-2.3,0.9-3.6C32,23.8,31.7,22.5,31.1,21.4L31.1,21.4z M25,18.9c1.5,0,2.8,0.5,3.9,1.5l-0.1,0.2
	c-0.1,0.1-0.2,0.3-0.3,0.4c-0.2,0.2-0.4,0.4-0.6,0.5c-0.3,0.2-0.6,0.4-0.9,0.6c-0.4,0.2-0.8,0.4-1.2,0.6c-0.7-1.2-1.4-2.4-2.2-3.5
	C24.1,19,24.5,18.9,25,18.9z M20.3,21.2c0.6-0.7,1.3-1.3,2.1-1.7c0.8,1,1.5,2.2,2.2,3.5c-1.8,0.5-3.7,0.7-5.5,0.7
	C19.3,22.8,19.7,22,20.3,21.2z M19.4,27.2C19.2,26.5,19,25.7,19,25c0-0.1,0-0.2,0-0.2c2.2,0,4.2-0.3,6.1-0.9c0.2,0.4,0.4,0.7,0.5,1
	c0,0-0.1,0-0.1,0l-0.1,0l-0.3,0.1c-0.3,0.1-0.6,0.3-0.9,0.4c-0.4,0.2-0.8,0.5-1.2,0.7c-0.4,0.3-0.9,0.7-1.3,1.1
	c-0.4,0.5-0.8,1-1.1,1.5C20.1,28.5,19.7,27.9,19.4,27.2L19.4,27.2z M25,31.1c-1.4,0-2.7-0.5-3.8-1.4l0.1,0.1
	c0.2-0.5,0.5-0.9,0.9-1.4c0.4-0.4,0.8-0.8,1.2-1.1c0.4-0.3,0.8-0.5,1.2-0.8c0.4-0.2,0.8-0.4,0.9-0.5L26,26l0,0h0
	c0.6,1.5,1,3,1.3,4.6C26.6,30.9,25.8,31.1,25,31.1z M30,28.3c-0.4,0.7-1,1.3-1.7,1.7c-0.3-1.5-0.7-2.9-1.2-4.3
	c1.2-0.2,2.5-0.1,3.7,0.3C30.8,26.8,30.5,27.6,30,28.3z M30.9,24.9c-0.1,0-0.2,0-0.2,0l-0.3-0.1c-0.1,0-0.3,0-0.4-0.1
	c-0.4,0-0.7-0.1-1.1-0.1c-0.4,0-0.9,0-1.3,0c-0.2,0-0.5,0-0.7,0.1c0,0,0-0.1-0.1-0.2c0-0.1,0-0.1-0.1-0.2c-0.1-0.3-0.3-0.6-0.4-0.9
	c0.4-0.2,0.8-0.4,1.2-0.6c0.4-0.2,0.7-0.4,0.9-0.6c0.2-0.2,0.4-0.4,0.6-0.6c0.2-0.2,0.3-0.3,0.4-0.4c0.1-0.1,0.1-0.2,0.2-0.2l0,0
	C30.5,22.2,31,23.5,30.9,24.9C31,24.9,30.9,24.9,30.9,24.9z"/>
</svg>
