<?xml version="1.0" encoding="utf-8"?>
<!-- Generator: Adobe Illustrator 22.1.0, SVG Export Plug-In . SVG Version: 6.00 Build 0)  -->
<svg version="1.0" id="Layer_1" xmlns="http://www.w3.org/2000/svg" xmlns:xlink="http://www.w3.org/1999/xlink" x="0px" y="0px"
	 viewBox="0 0 50 50" style="enable-background:new 0 0 50 50;" xml:space="preserve">
<style type="text/css">
	.st0{fill:#FFFFFF;}
</style>
<g>
	<path class="st0" d="M27.7,32h-5.4c-2.3,0-4.1-1.8-4.1-4.1v-5.8c0-2.3,1.8-4.1,4.1-4.1h5.4c2.3,0,4.1,1.8,4.1,4.1v5.8
		C31.8,30.2,30,32,27.7,32z M22.3,19.5c-1.4,0-2.6,1.2-2.6,2.6v5.8c0,1.4,1.2,2.6,2.6,2.6h5.4c1.4,0,2.6-1.2,2.6-2.6v-5.8
		c0-1.4-1.2-2.6-2.6-2.6H22.3z"/>
	<path class="st0" d="M25,28.9c-2.1,0-3.9-1.7-3.9-3.9c0-2.2,1.8-4,3.9-3.9c1.2,0,2.2,0.4,2.9,1.2c0.7,0.7,1,1.6,1,2.7
		c0,1-0.4,2-1.1,2.7C27,28.5,26,28.9,25,28.9z M24.9,22.9c-0.5,0-1,0.2-1.4,0.6c-0.4,0.4-0.6,0.9-0.6,1.5c0,1.1,0.9,2.1,2.1,2.1
		c1.1,0,2.1-0.9,2.1-2.1c0-0.4-0.1-1-0.5-1.4C26.2,23.1,25.7,22.9,24.9,22.9C25,22.9,24.9,22.9,24.9,22.9z"/>
	<path class="st0" d="M29.5,21.3c0,0.5-0.4,0.8-0.8,0.8c-0.5,0-0.8-0.4-0.8-0.8c0-0.5,0.4-0.8,0.8-0.8
		C29.1,20.5,29.5,20.8,29.5,21.3z"/>
</g>
</svg>
