<?xml version="1.0" encoding="utf-8"?>
<!-- Generator: Adobe Illustrator 22.1.0, SVG Export Plug-In . SVG Version: 6.00 Build 0)  -->
<svg version="1.0" id="Layer_1" xmlns="http://www.w3.org/2000/svg" xmlns:xlink="http://www.w3.org/1999/xlink" x="0px" y="0px"
	 viewBox="0 0 140 70" style="enable-background:new 0 0 140 70;" xml:space="preserve">
<style type="text/css">
	.st0{filter:url(#Adobe_OpacityMaskFilter);}
	.st1{fill:#FFFFFF;}
	.st2{mask:url(#mask-2_2_);fill:#FFFFFF;}
	.st3{filter:url(#Adobe_OpacityMaskFilter_1_);}
	.st4{mask:url(#mask-4_2_);fill:#FFFFFF;}
</style>
<g id="logo_b" transform="translate(79.000000, 0.000000)">
	<g id="Group-2">
		<g id="Page-1_1_">
			<g id="Group-3" transform="translate(20.098039, 0.305555)">
				<g id="Clip-2">
				</g>
				<defs>
					<filter id="Adobe_OpacityMaskFilter" filterUnits="userSpaceOnUse" x="-42.9" y="7.6" width="26.6" height="41.2">
						<feColorMatrix  type="matrix" values="1 0 0 0 0  0 1 0 0 0  0 0 1 0 0  0 0 0 1 0"/>
					</filter>
				</defs>
				<mask maskUnits="userSpaceOnUse" x="-42.9" y="7.6" width="26.6" height="41.2" id="mask-2_2_">
					<g class="st0">
						<polygon id="path-1_2_" class="st1" points="-42.9,7.6 -16.3,7.6 -16.3,48.9 -42.9,48.9 						"/>
					</g>
				</mask>
				<path id="Fill-1" class="st2" d="M-16.7,34.5c-0.5-1.5-1.4-2.9-2.5-4c-0.4-0.4-0.8-0.8-1.3-1c-0.5-0.3-1.2-0.5-1.7-0.7
					c-0.1-0.1-0.2-0.2-0.4-0.3c0.1-0.1,0.2-0.2,0.3-0.3c0.1-0.1,0.3-0.1,0.4-0.2c2.5-0.9,4-2.7,4.8-5c0.5-1.2,0.5-2.5,0.5-3.8
					c0-0.3,0-0.6-0.1-0.9c-0.4-1.7-1-3.3-2.1-4.6c-0.7-0.9-1.6-1.7-2.5-2.5c-1.1-1.1-2.6-1.9-4.1-2.3C-27,8.4-28.8,8-30.7,7.7
					c-0.7-0.1-1.3-0.1-2,0c-0.7,0-1.4,0.1-2,0.1c-0.6,0.1-1.1,0.2-1.6,0.3c-1,0.1-1.7,1-2.7,0.8c0,0,0,0,0,0
					c-1.3,0.5-2.6,1.1-3.7,1.9c1.8,0,3.5,0.3,5.1,0.8c1.6,0.5,2.9,1.4,3.8,2.5c1.1-0.2,2.1-0.2,3.2-0.1c1.2,0.2,2.4,0.3,3.5,1
					c0.7,0.4,1.5,0.8,2.2,1.4c1.1,0.9,1.7,2.1,1.8,3.6c0,1.4-0.4,2.7-1.4,3.7c-1.4,1.6-3.2,2-5.2,2c-0.1,0-0.3,0-0.4,0.1
					c-0.6,0.2-0.5,0.7-0.5,1.1c0,1.4,0,2.9,0,4.3c0,0.4,0.2,0.6,0.6,0.7c0.6,0,1.3,0,1.9,0.1c0.7,0.1,1.3,0.3,2,0.5
					c0.5,0.2,1,0.5,1.5,0.9c0.6,0.5,1.1,0.9,1.4,1.7c0.2,0.6,0.4,1.1,0.5,1.7c0.1,1.7-0.4,3.1-1.5,4.2c-1.3,1.2-2.8,1.8-4.6,1.5
					c-1.2-0.2-2-0.7-3-1.6c-0.4-0.4-0.7-0.4-1.1,0c-1.2,1.1-2.2,2.2-3.4,3.3c-0.4,0.4-0.5,0.8,0,1.2c0.5,0.5,1.1,0.9,1.6,1.4
					c1,0.7,2.1,1.3,3.2,1.6c0.9,0.3,1.9,0.3,2.8,0.5c1.5,0.2,3,0,4.4-0.5c1.8-0.6,3.6-1.4,4.8-2.9c0.6-0.7,1.2-1.4,1.7-2.1
					c0.3-0.4,0.5-0.8,0.6-1.2c0.3-0.8,0.7-1.6,0.8-2.5c0.2-0.8,0.2-1.6,0.2-2.5C-16.3,36.2-16.4,35.3-16.7,34.5z"/>
			</g>
			<g id="Group-6" transform="translate(0.000000, 0.703932)">
				<g id="Clip-5">
				</g>
				<defs>
					<filter id="Adobe_OpacityMaskFilter_1_" filterUnits="userSpaceOnUse" x="-36.2" y="7.7" width="54.3" height="52.9">
						<feColorMatrix  type="matrix" values="1 0 0 0 0  0 1 0 0 0  0 0 1 0 0  0 0 0 1 0"/>
					</filter>
				</defs>
				<mask maskUnits="userSpaceOnUse" x="-36.2" y="7.7" width="54.3" height="52.9" id="mask-4_2_">
					<g class="st3">
						<polygon id="path-3_2_" class="st1" points="-36.2,7.7 18.1,7.7 18.1,60.5 -36.2,60.5 						"/>
					</g>
				</mask>
				<path id="Fill-4" class="st4" d="M9,17.7c-1.5,1-1.8,2.9-0.9,4.4c3.4,5,4.4,11.1,2.8,16.9C8,50-3.4,56.5-14.5,53.5
					c-5.4-1.4-9.8-4.9-12.6-9.6c-2.8-4.8-3.5-10.3-2-15.6c2.3-8.5,9.8-14.6,18.6-15.2c1.2-0.1,2.1-0.8,2.6-1.7c-0.2,0-0.4,0-0.5,0
					c-3.1-0.2-5.8-1.6-7.8-3.6c-9.2,2.5-16.5,9.6-19.1,19c-1.9,6.9-0.9,14.2,2.7,20.4c3.6,6.2,9.5,10.7,16.5,12.6
					c1.7,0.5,3.4,0.7,5.1,0.9c12.7,0.9,24.7-7.2,28.2-19.8c2.1-7.5,0.7-15.6-3.7-22C12.5,17.2,10.5,16.8,9,17.7z"/>
			</g>
			<path id="Stroke-7" class="st1" d="M-7.9,42.8v6.4c-6.8,0-12.2-5.4-12.2-12.1h6.4C-13.7,40.2-11.1,42.8-7.9,42.8z"/>
			<path id="Stroke-9" class="st1" d="M-13.7,37.1c0,1.8-1.4,3.2-3.2,3.2s-3.2-1.4-3.2-3.2V24.2c0-1.8,1.4-3.2,3.2-3.2
				s3.2,1.4,3.2,3.2V37.1z"/>
		</g>
	</g>
</g>
</svg>
