<?xml version="1.0" encoding="utf-8"?>
<!-- Generator: Adobe Illustrator 22.1.0, SVG Export Plug-In . SVG Version: 6.00 Build 0)  -->
<svg version="1.0" id="Layer_1" xmlns="http://www.w3.org/2000/svg" xmlns:xlink="http://www.w3.org/1999/xlink" x="0px" y="0px"
	 viewBox="0 0 140 70" style="enable-background:new 0 0 140 70;" xml:space="preserve">
<style type="text/css">
	.st0{fill:url(#SVGID_1_);}
	.st1{fill:url(#SVGID_2_);}
	.st2{fill:url(#Shape_12_);}
	.st3{fill:url(#Shape_13_);}
	.st4{fill:url(#Shape_14_);}
	.st5{fill:#FFFFFF;}
</style>
<g id="Page-1">
	<g id="Group-Copy-14">
		<g id="Group">
			<g id="Shape">
				
					<linearGradient id="SVGID_1_" gradientUnits="userSpaceOnUse" x1="-74.8189" y1="132.4749" x2="-75.561" y2="132.2897" gradientTransform="matrix(25.0464 0 0 -26.2539 1899.7006 3513.2131)">
					<stop  offset="0" style="stop-color:#FA5E7C"/>
					<stop  offset="1" style="stop-color:#FD926D"/>
				</linearGradient>
				<path class="st0" d="M25.1,32.4c0,0.8-0.2,1.5-0.6,2.2c-3.5,5.7-13.7,4.8-14.1-2.4c0,0,0,0,0,0v10.9c0,2,1.6,3.6,3.5,3.6
					c0.6,0,1.2-0.2,1.8-0.5l9.2-5.4l0,0C31.4,37,27.4,28,20.8,28C23.2,28,25.1,30,25.1,32.4z"/>
				
					<linearGradient id="SVGID_2_" gradientUnits="userSpaceOnUse" x1="-75.4359" y1="132.2759" x2="-75.695" y2="131.9935" gradientTransform="matrix(28.089 0 0 -24.6121 2147.866 3283.3196)">
					<stop  offset="0" style="stop-color:#FA5E7C"/>
					<stop  offset="1" style="stop-color:#FD926D"/>
				</linearGradient>
				<path class="st1" d="M34.1,29.3l-8.1-4.7l0,0c-1.2-0.7-2.3-1-2.4-1.1c-5.8-1.3-9.5,5.9-6.6,10.9c0,0,0,0,0,0
					c-0.3-0.6-0.5-1.3-0.5-2c0-2.4,1.9-4.3,4.3-4.3c6.6,0,10.6,9,4.2,12.8l0,0l9.2-5.3c1-0.6,1.7-1.8,1.7-3.1
					C35.9,31,35.2,29.9,34.1,29.3z"/>
			</g>
			
				<linearGradient id="Shape_12_" gradientUnits="userSpaceOnUse" x1="-58.3678" y1="128.5951" x2="-58.3801" y2="128.8885" gradientTransform="matrix(4.1115 0 0 -12.1713 266.8782 1600.3091)">
				<stop  offset="0" style="stop-color:#FD856D"/>
				<stop  offset="1" style="stop-color:#FF6D9B"/>
			</linearGradient>
			<path id="Shape_1_" class="st2" d="M27.5,38.3c0,0,2.8-4.4-2.1-8.6C25.4,29.7,29.4,33.1,27.5,38.3z"/>
			
				<linearGradient id="Shape_13_" gradientUnits="userSpaceOnUse" x1="-67.5868" y1="124.9307" x2="-67.6863" y2="125.2241" gradientTransform="matrix(7.9057 0 0 -8.2278 553.5602 1055.0883)">
				<stop  offset="0" style="stop-color:#FD856D"/>
				<stop  offset="1" style="stop-color:#FF6D9B"/>
			</linearGradient>
			<path id="Shape_2_" class="st3" d="M16.1,29.2c0,0,0.3-5,5.6-5.8C21.8,23.4,17.2,24.2,16.1,29.2z"/>
		</g>
		<g id="Group_1_" transform="translate(39.000000, 3.000000)">
			
				<linearGradient id="Shape_14_" gradientUnits="userSpaceOnUse" x1="-106.0729" y1="114.0294" x2="-106.0729" y2="113.3276" gradientTransform="matrix(4.3594 0 0 -4.556 530.3501 541.9608)">
				<stop  offset="0" style="stop-color:#FF6C9B"/>
				<stop  offset="1" style="stop-color:#FD856D"/>
			</linearGradient>
			<path id="Shape_3_" class="st4" d="M69.3,23.7l-2.4-1.3c-0.2-0.1-0.5,0-0.5,0.3v2.5c0,0.3,0.3,0.4,0.5,0.3l2.4-1.3
				C69.5,24.2,69.5,23.9,69.3,23.7z"/>
			<g transform="translate(0.000000, 0.817059)">
				<polygon id="Shape_4_" class="st5" points="8.7,22.3 -0.8,22.3 -0.8,24.5 2.9,24.5 2.9,36.4 5,36.4 5,24.5 8.7,24.5 				"/>
				<path id="Shape_5_" class="st5" d="M14.9,31.7c0,0.3-0.1,0.7-0.2,1c-0.1,0.3-0.3,0.6-0.5,0.8c-0.2,0.2-0.5,0.4-0.8,0.5
					c-0.6,0.3-1.3,0.3-1.9,0c-0.3-0.1-0.5-0.3-0.8-0.5c-0.2-0.2-0.4-0.5-0.5-0.8c-0.1-0.3-0.2-0.6-0.2-1l0-5.6H7.8l0,5.6
					c0,0.6,0.1,1.2,0.4,1.8c0.2,0.6,0.6,1.1,1,1.5c0.4,0.4,0.9,0.8,1.5,1c0.6,0.2,1.2,0.4,1.8,0.4c0.6,0,1.2-0.1,1.8-0.4
					c0.6-0.2,1-0.6,1.5-1c0.4-0.4,0.7-0.9,1-1.5c0.2-0.6,0.4-1.2,0.4-1.8v-5.6h-2.1L14.9,31.7L14.9,31.7z"/>
				<path id="Shape_6_" class="st5" d="M28.3,27.3c-0.5-0.5-1.1-0.9-1.8-1.2c-1.3-0.6-2.9-0.6-4.5,0.2c-0.4,0.2-0.7,0.4-1,0.7v-4.6
					h-2.1v8.9c0,0.8,0.1,1.5,0.4,2.2c0.3,0.7,0.7,1.3,1.2,1.8c0.5,0.5,1.1,0.9,1.8,1.2c0.7,0.3,1.4,0.4,2.2,0.4
					c0.8,0,1.5-0.1,2.2-0.4c0.7-0.3,1.3-0.7,1.8-1.2c0.5-0.5,0.9-1.1,1.2-1.8c0.3-0.7,0.4-1.4,0.4-2.2c0-0.8-0.1-1.5-0.4-2.2
					C29.2,28.4,28.8,27.8,28.3,27.3z M27.7,31.2c0,0.5-0.1,0.9-0.3,1.3c-0.2,0.4-0.4,0.8-0.7,1.1c-0.3,0.3-0.7,0.6-1.1,0.7
					c-0.8,0.4-1.8,0.4-2.6,0c-0.4-0.2-0.8-0.4-1.1-0.7c-0.3-0.3-0.5-0.7-0.7-1.1c-0.2-0.4-0.3-0.9-0.3-1.3c0-0.5,0.1-0.9,0.3-1.3
					c0.2-0.4,0.4-0.8,0.7-1.1c0.3-0.3,0.7-0.6,1.1-0.7c0.4-0.2,0.8-0.3,1.3-0.3c0.5,0,0.9,0.1,1.3,0.3c0.4,0.2,0.8,0.4,1.1,0.7
					c0.3,0.3,0.5,0.7,0.7,1.1C27.7,30.3,27.7,30.8,27.7,31.2z"/>
				<path id="Shape_7_" class="st5" d="M41,27.3c-0.5-0.5-1.1-0.9-1.8-1.2c-1.3-0.6-3-0.6-4.3,0c-0.7,0.3-1.3,0.7-1.8,1.2
					c-0.5,0.5-0.9,1.1-1.2,1.8c-0.3,0.7-0.4,1.4-0.4,2.2c0,0.8,0.1,1.5,0.4,2.2c0.3,0.7,0.7,1.3,1.2,1.8c0.5,0.5,1.1,0.9,1.8,1.2
					c0.7,0.3,1.4,0.4,2.1,0.4c0.8,0,1.5-0.1,2.2-0.4c0.4-0.2,0.8-0.4,1.2-0.7v0.7h2.1v-5.2c0-0.8-0.1-1.5-0.4-2.2
					C41.9,28.4,41.5,27.8,41,27.3z M40.4,31.4c0,0.4-0.1,0.8-0.3,1.2c-0.2,0.4-0.4,0.8-0.7,1.1c-0.3,0.3-0.7,0.6-1.1,0.7
					c-0.8,0.4-1.8,0.4-2.6,0c-0.4-0.2-0.8-0.4-1.1-0.7c-0.3-0.3-0.5-0.7-0.7-1.1c-0.2-0.4-0.3-0.9-0.3-1.3s0.1-0.9,0.3-1.3
					c0.2-0.4,0.4-0.8,0.7-1.1c0.3-0.3,0.7-0.6,1.1-0.7c0.4-0.2,0.8-0.3,1.3-0.3c0.5,0,0.9,0.1,1.3,0.3c0.4,0.2,0.8,0.4,1.1,0.7
					c0.3,0.3,0.5,0.7,0.7,1.1c0.2,0.4,0.3,0.9,0.3,1.3L40.4,31.4z"/>
				<polygon id="Rectangle-path" class="st5" points="44.6,22.3 46.7,22.3 46.7,36.4 44.6,36.4 				"/>
				<path id="Shape_8_" class="st5" d="M55.7,31.7c0,0.3-0.1,0.7-0.2,1c-0.1,0.3-0.3,0.6-0.5,0.8c-0.2,0.2-0.5,0.4-0.8,0.5
					c-0.6,0.3-1.3,0.3-1.9,0c-0.3-0.1-0.5-0.3-0.8-0.5c-0.2-0.2-0.4-0.5-0.5-0.8c-0.1-0.3-0.2-0.6-0.2-1l0-5.6h-2.2l0,5.6
					c0,0.6,0.1,1.2,0.4,1.8c0.2,0.6,0.6,1.1,1,1.5c0.4,0.4,0.9,0.8,1.4,1c0.2,0.1,0.5,0.2,0.7,0.3l0,4.3h2.2l0-4.3
					c0.2-0.1,0.5-0.1,0.7-0.3c0.6-0.2,1-0.6,1.5-1c0.4-0.4,0.7-0.9,1-1.5c0.2-0.6,0.4-1.2,0.4-1.8v-5.6h-2.1V31.7L55.7,31.7z"/>
				<polygon id="Shape_9_" class="st5" points="62.7,22.3 60.5,22.3 60.5,26.1 59.6,26.1 59.6,28.3 60.5,28.3 60.5,36.4 62.7,36.4 
					62.7,28.3 65.1,28.3 65.1,26.1 62.7,26.1 				"/>
				<polygon id="Rectangle-path_1_" class="st5" points="66.9,26.1 69,26.1 69,36.4 66.9,36.4 				"/>
				<path id="Shape_10_" class="st5" d="M73.7,28.8c0.3-0.3,0.7-0.6,1.1-0.7c0.8-0.4,1.8-0.4,2.6,0c0.4,0.2,0.8,0.4,1.1,0.7
					c0.2,0.2,0.4,0.5,0.6,0.8l0.1,0.2h2.3L81.1,29c-0.3-0.7-0.7-1.3-1.2-1.8c-0.5-0.5-1.1-0.9-1.8-1.2c-1.3-0.6-3-0.6-4.3,0
					c-0.7,0.3-1.3,0.7-1.8,1.2c-0.5,0.5-0.9,1.1-1.2,1.8c-0.3,0.7-0.4,1.4-0.4,2.2c0,0.8,0.1,1.5,0.4,2.2c0.3,0.7,0.7,1.3,1.2,1.8
					c0.5,0.5,1.1,0.9,1.8,1.2c0.7,0.3,1.4,0.4,2.2,0.4c0.8,0,1.5-0.1,2.2-0.4c0.7-0.3,1.3-0.7,1.8-1.2c0.5-0.5,0.9-1.1,1.2-1.8
					l0.3-0.7h-2.1l-0.2,0.1L79,32.9c-0.2,0.3-0.3,0.5-0.6,0.8c-0.3,0.3-0.7,0.6-1.1,0.7c-0.8,0.4-1.8,0.4-2.6,0
					c-0.4-0.2-0.8-0.4-1.1-0.7c-0.3-0.3-0.5-0.7-0.7-1.1c-0.2-0.4-0.3-0.9-0.3-1.3c0-0.5,0.1-0.9,0.3-1.3
					C73.1,29.5,73.4,29.1,73.7,28.8z"/>
				<path id="Shape_11_" class="st5" d="M90.1,31.9c-0.3-0.4-0.6-0.8-1.1-1.1c-0.4-0.3-0.9-0.5-1.4-0.7c-0.5-0.2-0.9-0.3-1.2-0.4
					c-0.3-0.1-0.6-0.3-0.8-0.4c-0.1-0.1-0.2-0.2-0.3-0.4c0-0.2,0-0.4,0.2-0.6c0.2-0.2,0.4-0.4,0.6-0.5c0.6-0.2,1-0.2,1.5,0.1
					c0.2,0.1,0.4,0.3,0.4,0.6l0.1,0.3h2.2l-0.1-0.5c0-0.2-0.1-0.5-0.3-0.8c-0.2-0.3-0.4-0.6-0.7-0.9c-0.3-0.3-0.6-0.5-1-0.7
					c-0.8-0.4-1.9-0.4-2.9,0c-0.5,0.2-0.8,0.4-1.2,0.7c-0.3,0.3-0.6,0.7-0.8,1.1c-0.2,0.4-0.3,0.9-0.2,1.4c0.1,0.6,0.3,1.1,0.6,1.5
					c0.3,0.4,0.7,0.7,1.2,0.9c0.4,0.2,0.9,0.3,1.4,0.5c0.5,0.1,0.8,0.2,1.1,0.4c0.3,0.1,0.4,0.3,0.6,0.4c0.1,0.2,0.2,0.4,0.2,0.7
					c0,0.3-0.1,0.6-0.4,0.8c-0.2,0.2-0.6,0.3-1.1,0.3l-0.1,0c-0.4,0-0.7-0.1-1-0.3c-0.3-0.2-0.5-0.4-0.6-0.6
					c-0.1-0.2-0.2-0.5-0.2-0.7v-0.4h-2.1l0,0.4c0,0.6,0.1,1.1,0.3,1.6c0.2,0.4,0.5,0.8,0.9,1.2c0.4,0.3,0.8,0.6,1.2,0.7
					c0.5,0.2,0.9,0.3,1.4,0.3c0.5,0,0.9-0.1,1.4-0.2c0.4-0.1,0.8-0.3,1.2-0.6c0.4-0.3,0.6-0.6,0.8-1c0.2-0.4,0.3-0.9,0.3-1.4
					C90.5,32.9,90.4,32.4,90.1,31.9z"/>
			</g>
		</g>
	</g>
</g>
</svg>
