<?xml version="1.0" encoding="utf-8"?>
<!-- Generator: Adobe Illustrator 22.1.0, SVG Export Plug-In . SVG Version: 6.00 Build 0)  -->
<svg version="1.0" id="Layer_1" xmlns="http://www.w3.org/2000/svg" xmlns:xlink="http://www.w3.org/1999/xlink" x="0px" y="0px"
	 viewBox="0 0 1000 1000" style="enable-background:new 0 0 1000 1000;" xml:space="preserve">
<style type="text/css">
	.st0{fill:url(#SVGID_1_);}
	.st1{fill:url(#SVGID_2_);}
	.st2{fill:url(#SVGID_3_);}
	.st3{fill:url(#SVGID_4_);}
	.st4{fill:url(#SVGID_5_);}
	.st5{fill:url(#SVGID_6_);}
	.st6{fill:url(#SVGID_7_);}
	.st7{fill:url(#SVGID_8_);}
	.st8{fill:url(#SVGID_9_);}
	.st9{fill:url(#SVGID_10_);}
	.st10{fill:url(#SVGID_11_);}
	.st11{fill:url(#SVGID_12_);}
	.st12{fill:url(#SVGID_13_);}
	.st13{fill:url(#SVGID_14_);}
	.st14{fill:#77787A;}
	.st15{fill:#2F3131;}
	.st16{fill:#444547;}
	.st17{fill:url(#SVGID_15_);}
	.st18{fill:url(#SVGID_16_);}
	.st19{fill:url(#SVGID_17_);}
	.st20{fill:url(#SVGID_18_);}
	.st21{fill:url(#SVGID_19_);}
	.st22{fill:url(#SVGID_20_);}
	.st23{fill:url(#SVGID_21_);}
	.st24{fill:url(#SVGID_22_);}
	.st25{fill:url(#SVGID_23_);}
	.st26{fill:url(#SVGID_24_);}
	.st27{fill:url(#SVGID_25_);}
	.st28{fill:url(#SVGID_26_);}
	.st29{fill:#F1CF47;}
	.st30{fill:url(#SVGID_27_);}
	.st31{fill:url(#SVGID_28_);}
	.st32{fill:url(#SVGID_29_);}
	.st33{fill:url(#SVGID_30_);}
	.st34{fill:url(#SVGID_31_);}
	.st35{fill:url(#SVGID_32_);}
</style>
<g>
	
		<linearGradient id="SVGID_1_" gradientUnits="userSpaceOnUse" x1="353.2031" y1="599.579" x2="353.2007" y2="600.1626" gradientTransform="matrix(-14.112 0 0 -306.684 5854.186 184600.7969)">
		<stop  offset="0" style="stop-color:#D5DDF4"/>
		<stop  offset="1" style="stop-color:#A2B0D9"/>
	</linearGradient>
	<path class="st0" d="M861.2,779.5l17.3-10.5V403.9l-17.3,10.5V779.5z"/>
	
		<linearGradient id="SVGID_2_" gradientUnits="userSpaceOnUse" x1="351.0509" y1="599.4675" x2="350.5764" y2="600.0511" gradientTransform="matrix(-317.774 0 0 -488.423 112121.7656 293462.4375)">
		<stop  offset="0" style="stop-color:#D5DDF4"/>
		<stop  offset="1" style="stop-color:#A2B0D9"/>
	</linearGradient>
	<path class="st1" d="M861.2,779.5L472,546.4V181.3l389.2,233.1V779.5z"/>
	
		<linearGradient id="SVGID_3_" gradientUnits="userSpaceOnUse" x1="350.7372" y1="600.4654" x2="350.7372" y2="599.2406" gradientTransform="matrix(-318.224 0 0 -488.574 112279.2734 293553.0625)">
		<stop  offset="0" style="stop-color:#FCFCFC"/>
		<stop  offset="1" style="stop-color:#E4E9F5"/>
	</linearGradient>
	<path class="st2" d="M861.2,431.2v-16.8L472,181.3v0.5l-0.6-0.3v365.1l14.6,8.7V555l375.1,224.7V431.2z M486.1,206.6l360.5,215.9
		v331.6L486.1,538.2V206.6z"/>
	
		<linearGradient id="SVGID_4_" gradientUnits="userSpaceOnUse" x1="350.7225" y1="601.1533" x2="350.7225" y2="599.9286" gradientTransform="matrix(-331.886 0 0 -198.802 117075.0781 119681.3516)">
		<stop  offset="0" style="stop-color:#FCFCFC"/>
		<stop  offset="1" style="stop-color:#E4E9F5"/>
	</linearGradient>
	<path class="st3" d="M472,181.3l389.2,233.1l17.3-10.5l-389.2-233L472,181.3z"/>
	
		<linearGradient id="SVGID_5_" gradientUnits="userSpaceOnUse" x1="351.4521" y1="600.0046" x2="350.3312" y2="600.2759" gradientTransform="matrix(-218.938 0 0 -149.263 77529.2266 90462.5469)">
		<stop  offset="0" style="stop-color:#D5DDF4"/>
		<stop  offset="1" style="stop-color:#A2B0D9"/>
	</linearGradient>
	<path class="st4" d="M593.1,971.7l268.1-163.1v-19.7L593.1,951.9V971.7z"/>
	
		<linearGradient id="SVGID_6_" gradientUnits="userSpaceOnUse" x1="350.8804" y1="600.6057" x2="350.8804" y2="599.3809" gradientTransform="matrix(-331.736 0 0 -216.115 116789.5859 130506.8828)">
		<stop  offset="0" style="stop-color:#A0AEDD"/>
		<stop  offset="1" style="stop-color:#CCD7F5"/>
	</linearGradient>
	<path class="st5" d="M593.1,971.7l-406.3-245V707l406.3,245V971.7z"/>
	
		<linearGradient id="SVGID_7_" gradientUnits="userSpaceOnUse" x1="350.6845" y1="600.4897" x2="350.6845" y2="599.265" gradientTransform="matrix(-550.674 0 0 -324.498 193636.8281 195412.0938)">
		<stop  offset="0" style="stop-color:#FCFCFC"/>
		<stop  offset="1" style="stop-color:#E4E9F5"/>
	</linearGradient>
	<path class="st6" d="M186.8,707l406.3,244.8l268.1-163L472,554.4L186.8,707z"/>
	
		<linearGradient id="SVGID_8_" gradientUnits="userSpaceOnUse" x1="351.9503" y1="600.6827" x2="350.8294" y2="600.8945" gradientTransform="matrix(-148.027 0 0 -89.168 52437.3906 54358.1992)">
		<stop  offset="0" style="stop-color:#D5DDF4"/>
		<stop  offset="1" style="stop-color:#A2B0D9"/>
	</linearGradient>
	<path class="st7" d="M345.6,773.3l110.8,66.8l70.5-42.4l-110.8-66.8L345.6,773.3z"/>
	
		<linearGradient id="SVGID_9_" gradientUnits="userSpaceOnUse" x1="352.0765" y1="604.8511" x2="352.0765" y2="603.6263" gradientTransform="matrix(-31.277 0 0 -25.419 11820.751 16123.0605)">
		<stop  offset="0" style="stop-color:#A0AEDD"/>
		<stop  offset="1" style="stop-color:#CCD7F5"/>
	</linearGradient>
	<path class="st8" d="M828,779.5l-38.3-23.2v-8l38.3,23.1V779.5z"/>
	
		<linearGradient id="SVGID_10_" gradientUnits="userSpaceOnUse" x1="356.0016" y1="610.533" x2="356.0016" y2="609.3083" gradientTransform="matrix(-8.157 0 0 -11.408 3736.908 7730.4712)">
		<stop  offset="0" style="stop-color:#A0AEDD"/>
		<stop  offset="1" style="stop-color:#CCD7F5"/>
	</linearGradient>
	<path class="st9" d="M828,779.5l10-5.9v-8l-10,5.9V779.5z"/>
	
		<linearGradient id="SVGID_11_" gradientUnits="userSpaceOnUse" x1="351.7271" y1="605.245" x2="351.7271" y2="604.0202" gradientTransform="matrix(-39.434 0 0 -23.718 14683.8574 15097.6074)">
		<stop  offset="0" style="stop-color:#FCFCFC"/>
		<stop  offset="1" style="stop-color:#E4E9F5"/>
	</linearGradient>
	<path class="st10" d="M799.7,742.4l38.3,23.1l-10,5.9l-38.3-23.1L799.7,742.4"/>
	<g>
		
			<linearGradient id="SVGID_12_" gradientUnits="userSpaceOnUse" x1="353.8871" y1="606.1846" x2="353.8871" y2="604.9598" gradientTransform="matrix(-31.277 0 0 -25.419 11568.7832 15972.2451)">
			<stop  offset="0" style="stop-color:#A0AEDD"/>
			<stop  offset="1" style="stop-color:#CCD7F5"/>
		</linearGradient>
		<path class="st11" d="M519.4,594.8l-38.3-23.1v-8l38.3,23.2V594.8z"/>
		
			<linearGradient id="SVGID_13_" gradientUnits="userSpaceOnUse" x1="362.9441" y1="613.5627" x2="362.9441" y2="612.338" gradientTransform="matrix(-8.157 0 0 -11.358 3484.9409 7549.7061)">
			<stop  offset="0" style="stop-color:#A0AEDD"/>
			<stop  offset="1" style="stop-color:#CCD7F5"/>
		</linearGradient>
		<path class="st12" d="M519.4,594.8l10-5.9v-8l-10,5.9V594.8z"/>
		
			<linearGradient id="SVGID_14_" gradientUnits="userSpaceOnUse" x1="353.1632" y1="606.6877" x2="353.1632" y2="605.463" gradientTransform="matrix(-39.434 0 0 -23.668 14431.8906 14916.8418)">
			<stop  offset="0" style="stop-color:#FCFCFC"/>
			<stop  offset="1" style="stop-color:#E4E9F5"/>
		</linearGradient>
		<path class="st13" d="M491.1,557.8l38.3,23.1l-10,5.9l-38.3-23.1L491.1,557.8"/>
	</g>
	<g>
		<path class="st14" d="M783.9,786.1l10.4-6.3v-4.9l-10.4,6.3V786.1z"/>
		<path class="st15" d="M783.9,786.1l-16.2-9.8v-4.9l16.2,9.8V786.1z"/>
		<path class="st16" d="M767.7,771.4l16.2,9.7l10.4-6.2l-16.2-9.8L767.7,771.4z"/>
		<path class="st14" d="M761.1,772.3l10.3-6.3v-4.9l-10.3,6.2V772.3z"/>
		<path class="st15" d="M761.1,772.3l-16.2-9.8v-4.9l16.2,9.8V772.3z"/>
		<path class="st16" d="M744.8,757.6l16.2,9.8l10.3-6.2l-16.2-9.7L744.8,757.6z"/>
		<path class="st14" d="M738.2,758.5l10.4-6.2v-4.9l-10.4,6.2V758.5z"/>
		<path class="st15" d="M738.2,758.5l-16.2-9.8v-4.9l16.2,9.8V758.5z"/>
		<path class="st16" d="M721.9,743.8l16.2,9.8l10.4-6.2l-16.2-9.8L721.9,743.8z"/>
		<path class="st14" d="M715.3,744.8l10.3-6.3v-4.9l-10.3,6.3V744.8z"/>
		<path class="st15" d="M715.3,744.8l-16.2-9.8v-4.9l16.2,9.8V744.8z"/>
		<path class="st16" d="M699.1,730.1l16.2,9.8l10.3-6.3l-16.2-9.8L699.1,730.1z"/>
		<path class="st14" d="M692.4,731l10.4-6.2v-4.9l-10.4,6.2V731z"/>
		<path class="st15" d="M692.4,731l-16.2-9.8v-4.9l16.2,9.8V731z"/>
		<path class="st16" d="M676.2,716.3l16.2,9.8l10.4-6.2l-16.2-9.8L676.2,716.3z"/>
		<g>
			<path class="st14" d="M669.5,717.2l10.4-6.2v-4.9l-10.4,6.2L669.5,717.2z"/>
			<path class="st15" d="M669.5,717.2l-16.2-9.7v-4.9l16.2,9.7L669.5,717.2z"/>
			<path class="st16" d="M653.3,702.6l16.2,9.7l10.4-6.2l-16.2-9.8L653.3,702.6z"/>
		</g>
		<g>
			<path class="st14" d="M646.6,703.5l10.3-6.3v-4.9l-10.3,6.3V703.5z"/>
			<path class="st15" d="M646.6,703.5l-16.2-9.8v-4.9l16.2,9.8V703.5z"/>
			<path class="st16" d="M630.4,688.8l16.2,9.8l10.3-6.3l-16.2-9.7L630.4,688.8z"/>
		</g>
		<g>
			<path class="st14" d="M623.7,689.7l10.4-6.2v-4.9l-10.4,6.2V689.7z"/>
			<path class="st15" d="M623.7,689.7l-16.2-9.8V675l16.2,9.8V689.7z"/>
			<path class="st16" d="M607.5,675l16.2,9.8l10.4-6.2l-16.2-9.8L607.5,675z"/>
		</g>
		<g>
			<path class="st14" d="M600.9,676l10.3-6.2v-4.9l-10.3,6.3V676z"/>
			<path class="st15" d="M600.9,676l-16.2-9.8v-4.9l16.2,9.8V676z"/>
			<path class="st16" d="M584.6,661.3l16.2,9.7l10.3-6.2l-16.2-9.8L584.6,661.3z"/>
		</g>
		<g>
			<path class="st14" d="M577.9,662.2l10.4-6.3V651l-10.4,6.3V662.2z"/>
			<path class="st15" d="M577.9,662.2l-16.2-9.8v-4.9l16.2,9.8V662.2z"/>
			<path class="st16" d="M561.7,647.5l16.2,9.8l10.4-6.3l-16.2-9.7L561.7,647.5z"/>
		</g>
		<g>
			<path class="st14" d="M555.1,648.4l10.4-6.2v-4.9l-10.4,6.2V648.4z"/>
			<path class="st15" d="M555.1,648.4l-16.2-9.8v-4.9l16.2,9.8V648.4z"/>
			<path class="st16" d="M538.8,633.7l16.2,9.8l10.4-6.2l-16.2-9.8L538.8,633.7z"/>
		</g>
		<g>
			<path class="st14" d="M532.2,634.7l10.3-6.3v-4.9l-10.3,6.3V634.7z"/>
			<path class="st15" d="M532.2,634.7l-16.2-9.8V620l16.2,9.8L532.2,634.7z"/>
			<path class="st16" d="M516,620l16.2,9.7l10.3-6.2l-16.2-9.8L516,620z"/>
		</g>
		<g>
			<path class="st14" d="M509.3,620.9l10.4-6.2v-4.9l-10.4,6.2V620.9z"/>
			<path class="st15" d="M509.3,620.9l-16.2-9.8v-4.9l16.2,9.8V620.9z"/>
			<path class="st16" d="M493.1,606.2l16.2,9.8l10.4-6.2l-16.2-9.8L493.1,606.2z"/>
		</g>
		<g>
			<path class="st14" d="M486.4,607.1l10.3-6.2V596l-10.3,6.2L486.4,607.1z"/>
			<path class="st15" d="M486.4,607.1l-16.2-9.7v-4.9l16.2,9.7V607.1z"/>
			<path class="st16" d="M470.2,592.4l16.2,9.7l10.3-6.2l-16.2-9.8L470.2,592.4z"/>
		</g>
	</g>
	<g>
		<path class="st14" d="M462.3,621.6l16.2-9.8v-4.9l-16.2,9.8V621.6z"/>
		<path class="st15" d="M462.3,621.6l-16.2-9.8v-4.9l16.2,9.8V621.6z"/>
		<path class="st16" d="M446,606.9l16.2,9.8l16.2-9.8l-16.2-9.8L446,606.9z"/>
		<path class="st14" d="M485.1,635.3l16.2-9.8v-4.9l-16.2,9.8V635.3z"/>
		<path class="st15" d="M485.1,635.3l-16.2-9.8v-4.9l16.2,9.8V635.3z"/>
		<path class="st16" d="M468.9,620.6l16.2,9.8l16.2-9.8l-16.2-9.7L468.9,620.6z"/>
		<path class="st14" d="M508.1,649.1l16.2-9.8v-4.9l-16.2,9.8V649.1z"/>
		<path class="st15" d="M508.1,649.1l-16.2-9.8v-4.9l16.2,9.8V649.1z"/>
		<path class="st16" d="M491.8,634.4l16.2,9.8l16.2-9.8l-16.2-9.8L491.8,634.4z"/>
		<path class="st14" d="M530.9,662.9l16.2-9.8v-4.9l-16.2,9.8V662.9z"/>
		<path class="st15" d="M530.9,662.9l-16.2-9.8v-4.9l16.2,9.8V662.9z"/>
		<path class="st16" d="M514.7,648.2l16.2,9.7l16.2-9.7l-16.2-9.8L514.7,648.2z"/>
		<path class="st14" d="M553.9,676.6l16.2-9.8v-4.9l-16.2,9.8V676.6z"/>
		<path class="st15" d="M553.9,676.6l-16.2-9.8v-4.9l16.2,9.8V676.6z"/>
		<path class="st16" d="M537.6,661.9l16.2,9.8l16.2-9.8l-16.2-9.7L537.6,661.9z"/>
		<g>
			<path class="st14" d="M576.7,690.4l16.2-9.8v-4.9l-16.2,9.8V690.4z"/>
			<path class="st15" d="M576.7,690.4l-16.2-9.8v-4.9l16.2,9.8V690.4z"/>
			<path class="st16" d="M560.5,675.7l16.2,9.8l16.2-9.8l-16.2-9.8L560.5,675.7z"/>
		</g>
		<g>
			<path class="st14" d="M599.6,704.2l16.2-9.8v-4.9l-16.2,9.7V704.2z"/>
			<path class="st15" d="M599.6,704.2l-16.2-9.8v-4.9l16.2,9.7V704.2z"/>
			<path class="st16" d="M583.3,689.5l16.2,9.7l16.2-9.7l-16.2-9.8L583.3,689.5z"/>
		</g>
		<g>
			<path class="st14" d="M622.5,718l16.2-9.8v-4.9l-16.2,9.8V718z"/>
			<path class="st15" d="M622.5,718l-16.2-9.8v-4.9l16.2,9.8V718z"/>
			<path class="st16" d="M606.3,703.2l16.2,9.8l16.2-9.8l-16.2-9.7L606.3,703.2z"/>
		</g>
		<g>
			<path class="st14" d="M645.4,731.7l16.2-9.8V717l-16.2,9.8V731.7z"/>
			<path class="st15" d="M645.4,731.7l-16.2-9.8V717l16.2,9.8V731.7z"/>
			<path class="st16" d="M629.1,717l16.2,9.8l16.2-9.8l-16.2-9.8L629.1,717z"/>
		</g>
		<g>
			<path class="st14" d="M668.3,745.5l16.2-9.7v-4.9l-16.2,9.7V745.5z"/>
			<path class="st15" d="M668.3,745.5l-16.2-9.7v-4.9l16.2,9.7V745.5z"/>
			<path class="st16" d="M652,730.8l16.2,9.7l16.2-9.7l-16.2-9.8L652,730.8z"/>
		</g>
		<g>
			<path class="st14" d="M691.1,759.3l16.2-9.8v-4.9l-16.2,9.8V759.3z"/>
			<path class="st15" d="M691.1,759.3l-16.2-9.8v-4.9l16.2,9.8V759.3z"/>
			<path class="st16" d="M674.9,744.6l16.2,9.8l16.2-9.8l-16.2-9.8L674.9,744.6z"/>
		</g>
		<g>
			<path class="st14" d="M714,773l16.2-9.8v-4.9l-16.2,9.8L714,773z"/>
			<path class="st15" d="M714,773l-16.2-9.8v-4.9l16.2,9.8V773z"/>
			<path class="st16" d="M697.8,758.3l16.2,9.7l16.2-9.7l-16.2-9.8L697.8,758.3z"/>
		</g>
		<g>
			<path class="st14" d="M736.9,786.8l16.2-9.8v-4.9l-16.2,9.8V786.8z"/>
			<path class="st15" d="M736.9,786.8l-16.2-9.8v-4.9l16.2,9.8V786.8z"/>
			<path class="st16" d="M720.7,772.1l16.2,9.8l16.2-9.8l-16.2-9.7L720.7,772.1z"/>
		</g>
		<g>
			<path class="st14" d="M759.8,800.6l16.2-9.8v-4.9l-16.2,9.8V800.6z"/>
			<path class="st15" d="M759.8,800.6l-16.2-9.8v-4.9l16.2,9.8V800.6z"/>
			<path class="st16" d="M743.5,785.9l16.2,9.8l16.2-9.8l-16.2-9.8L743.5,785.9z"/>
		</g>
	</g>
	<g>
		<path class="st14" d="M438,636.6l16.2-9.8v-4.9l-16.2,9.8V636.6z"/>
		<path class="st15" d="M438,636.6l-16.2-9.8v-4.9l16.2,9.8V636.6z"/>
		<path class="st16" d="M421.7,621.9l16.2,9.8l16.2-9.8l-16.2-9.8L421.7,621.9z"/>
		<path class="st14" d="M460.9,650.4l16.2-9.7v-4.9l-16.2,9.7V650.4z"/>
		<path class="st15" d="M460.9,650.4l-16.2-9.7v-4.9l16.2,9.7V650.4z"/>
		<path class="st16" d="M444.6,635.7l16.2,9.7l16.2-9.7l-16.2-9.8L444.6,635.7z"/>
		<path class="st14" d="M483.7,664.1l16.2-9.8v-4.9l-16.2,9.8V664.1z"/>
		<path class="st15" d="M483.7,664.1l-16.2-9.8v-4.9l16.2,9.8V664.1z"/>
		<path class="st16" d="M467.5,649.4l16.2,9.8l16.2-9.8l-16.2-9.8L467.5,649.4z"/>
		<path class="st14" d="M506.6,677.9l16.2-9.8v-4.9l-16.2,9.8V677.9z"/>
		<path class="st15" d="M506.6,677.9l-16.2-9.8v-4.9l16.2,9.8L506.6,677.9z"/>
		<path class="st16" d="M490.4,663.2l16.2,9.7l16.2-9.7l-16.2-9.8L490.4,663.2z"/>
		<path class="st14" d="M529.5,691.7l16.2-9.8V677l-16.2,9.8V691.7z"/>
		<path class="st15" d="M529.5,691.7l-16.2-9.8V677l16.2,9.8V691.7z"/>
		<path class="st16" d="M513.3,677l16.2,9.8l16.2-9.8l-16.2-9.7L513.3,677z"/>
		<g>
			<path class="st14" d="M552.4,705.5l16.2-9.8v-4.9l-16.2,9.8V705.5z"/>
			<path class="st15" d="M552.4,705.5l-16.2-9.8v-4.9l16.2,9.8V705.5z"/>
			<path class="st16" d="M536.1,690.7l16.2,9.8l16.2-9.8l-16.2-9.8L536.1,690.7z"/>
		</g>
		<g>
			<path class="st14" d="M575.3,719.2l16.2-9.8v-4.9l-16.2,9.8V719.2z"/>
			<path class="st15" d="M575.3,719.2l-16.2-9.8v-4.9l16.2,9.8V719.2z"/>
			<path class="st16" d="M559.1,704.5l16.2,9.7l16.2-9.7l-16.2-9.8L559.1,704.5z"/>
		</g>
		<g>
			<path class="st14" d="M598.2,733l16.2-9.8v-4.9l-16.2,9.8V733z"/>
			<path class="st15" d="M598.2,733l-16.2-9.8v-4.9l16.2,9.8L598.2,733z"/>
			<path class="st16" d="M581.9,718.3l16.2,9.8l16.2-9.8l-16.2-9.7L581.9,718.3z"/>
		</g>
		<g>
			<path class="st14" d="M621,746.8l16.2-9.8V732l-16.2,9.8V746.8z"/>
			<path class="st15" d="M621,746.8l-16.2-9.8V732l16.2,9.8V746.8z"/>
			<path class="st16" d="M604.8,732l16.2,9.8l16.2-9.8l-16.2-9.8L604.8,732z"/>
		</g>
		<g>
			<path class="st14" d="M644,760.5l16.2-9.7v-4.9l-16.2,9.7V760.5z"/>
			<path class="st15" d="M644,760.5l-16.2-9.7v-4.9l16.2,9.7V760.5z"/>
			<path class="st16" d="M627.7,745.8l16.2,9.7l16.2-9.7L644,736L627.7,745.8z"/>
		</g>
		<g>
			<path class="st14" d="M666.8,774.3l16.2-9.8v-4.9l-16.2,9.8V774.3z"/>
			<path class="st15" d="M666.8,774.3l-16.2-9.8v-4.9l16.2,9.8V774.3z"/>
			<path class="st16" d="M650.6,759.6l16.2,9.8l16.2-9.8l-16.2-9.8L650.6,759.6z"/>
		</g>
		<g>
			<path class="st14" d="M689.7,788.1l16.2-9.8v-4.9l-16.2,9.8V788.1z"/>
			<path class="st15" d="M689.7,788.1l-16.2-9.8v-4.9l16.2,9.8V788.1z"/>
			<path class="st16" d="M673.5,773.4l16.2,9.8l16.2-9.8l-16.2-9.8L673.5,773.4z"/>
		</g>
		<g>
			<path class="st14" d="M712.6,801.8l16.2-9.8v-4.9l-16.2,9.8V801.8z"/>
			<path class="st15" d="M712.6,801.8l-16.2-9.8v-4.9l16.2,9.8V801.8z"/>
			<path class="st16" d="M696.4,787.1l16.2,9.8l16.2-9.8l-16.2-9.7L696.4,787.1z"/>
		</g>
		<g>
			<path class="st14" d="M735.5,815.6l16.2-9.8v-4.9l-16.2,9.8V815.6z"/>
			<path class="st15" d="M735.5,815.6l-16.2-9.8v-4.9l16.2,9.8V815.6z"/>
			<path class="st16" d="M719.3,800.9l16.2,9.8l16.2-9.8l-16.2-9.8L719.3,800.9z"/>
		</g>
	</g>
	<g>
		<path class="st14" d="M508.1,765.3l16.2-9.8v-4.9l-16.2,9.8V765.3z"/>
		<path class="st15" d="M508.1,765.3l-16.2-9.8v-4.9l16.2,9.8V765.3z"/>
		<path class="st16" d="M491.8,750.6l84.9,51.1l16.2-9.8l-84.9-51.1L491.8,750.6z"/>
	</g>
	<g>
		<path class="st14" d="M413.4,651.3l16.2-9.8v-4.9l-16.2,9.8V651.3z"/>
		<path class="st15" d="M413.4,651.3l-16.2-9.8v-4.9l16.2,9.8L413.4,651.3z"/>
		<path class="st16" d="M397.3,636.6l16.2,9.8l16.2-9.8l-16.2-9.8L397.3,636.6z"/>
		<path class="st14" d="M436.4,665.1l16.2-9.8v-4.9l-16.2,9.8V665.1z"/>
		<path class="st15" d="M436.4,665.1l-16.2-9.8v-4.9l16.2,9.8V665.1z"/>
		<path class="st16" d="M420.1,650.4l16.2,9.7l16.2-9.7l-16.2-9.8L420.1,650.4z"/>
		<path class="st14" d="M459.2,678.8l16.2-9.8v-4.9l-16.2,9.8V678.8z"/>
		<path class="st15" d="M459.2,678.8L443,669v-4.9l16.2,9.8V678.8z"/>
		<path class="st16" d="M443,664.1l16.2,9.8l16.2-9.8l-16.2-9.7L443,664.1z"/>
		<path class="st14" d="M482.1,692.6l16.2-9.8v-4.9l-16.2,9.8V692.6z"/>
		<path class="st15" d="M482.1,692.6l-16.2-9.8v-4.9l16.2,9.8V692.6z"/>
		<path class="st16" d="M465.9,677.9l16.2,9.8l16.2-9.8l-16.2-9.8L465.9,677.9z"/>
		<path class="st14" d="M505,706.4l16.2-9.8v-4.9l-16.2,9.7V706.4z"/>
		<path class="st15" d="M505,706.4l-16.2-9.8v-4.9l16.2,9.7V706.4z"/>
		<path class="st16" d="M488.8,691.7l16.2,9.7l16.2-9.7l-16.2-9.8L488.8,691.7z"/>
		<g>
			<path class="st14" d="M527.9,720.1l16.2-9.8v-4.9l-16.2,9.8L527.9,720.1z"/>
			<path class="st15" d="M527.9,720.1l-16.2-9.8v-4.9l16.2,9.8L527.9,720.1z"/>
			<path class="st16" d="M511.7,705.4l16.2,9.8l16.2-9.8l-16.2-9.7L511.7,705.4z"/>
		</g>
		<g>
			<path class="st14" d="M550.8,733.9l16.2-9.8v-4.9l-16.2,9.8V733.9z"/>
			<path class="st15" d="M550.8,733.9l-16.2-9.8v-4.9l16.2,9.8V733.9z"/>
			<path class="st16" d="M534.6,719.2l16.2,9.8l16.2-9.8l-16.2-9.8L534.6,719.2z"/>
		</g>
		<g>
			<path class="st14" d="M573.7,747.6l16.2-9.7V733l-16.2,9.7V747.6z"/>
			<path class="st15" d="M573.7,747.6l-16.2-9.7V733l16.2,9.7V747.6z"/>
			<path class="st16" d="M557.4,733l16.2,9.7l16.2-9.7l-16.2-9.8L557.4,733z"/>
		</g>
		<g>
			<path class="st14" d="M596.6,761.4l16.2-9.8v-4.9l-16.2,9.8V761.4z"/>
			<path class="st15" d="M596.6,761.4l-16.2-9.8v-4.9l16.2,9.8V761.4z"/>
			<path class="st16" d="M580.3,746.7l16.2,9.8l16.2-9.8l-16.2-9.8L580.3,746.7z"/>
		</g>
		<g>
			<path class="st14" d="M619.4,775.2l16.2-9.8v-4.9l-16.2,9.8V775.2z"/>
			<path class="st15" d="M619.4,775.2l-16.2-9.8v-4.9l16.2,9.8V775.2z"/>
			<path class="st16" d="M603.2,760.5l16.2,9.7l16.2-9.7l-16.2-9.8L603.2,760.5z"/>
		</g>
		<g>
			<path class="st14" d="M642.4,788.9l16.2-9.8v-4.9l-16.2,9.8V788.9z"/>
			<path class="st15" d="M642.4,788.9l-16.2-9.8v-4.9l16.2,9.8V788.9z"/>
			<path class="st16" d="M626.1,774.2l16.2,9.8l16.2-9.8l-16.2-9.7L626.1,774.2z"/>
		</g>
		<g>
			<path class="st14" d="M665.2,802.7l16.2-9.8V788l-16.2,9.8V802.7z"/>
			<path class="st15" d="M665.2,802.7l-16.2-9.8V788l16.2,9.8V802.7z"/>
			<path class="st16" d="M649,788l16.2,9.8l16.2-9.8l-16.2-9.8L649,788z"/>
		</g>
		<g>
			<path class="st14" d="M711,830.2l16.2-9.8v-4.9l-16.2,9.8V830.2z"/>
			<path class="st15" d="M711,830.2l-34-20.3V805l34,20.3V830.2z"/>
			<path class="st16" d="M677.1,805l34,20.3l16.2-9.8l-34-20.3L677.1,805z"/>
		</g>
	</g>
	<g>
		<path class="st14" d="M388.8,665.9l16.2-9.8v-4.9l-16.2,9.8V665.9z"/>
		<path class="st15" d="M388.8,665.9l-16.2-9.8v-4.9l16.2,9.8V665.9z"/>
		<path class="st16" d="M372.6,651.2l16.2,9.8l16.2-9.8l-16.2-9.7L372.6,651.2z"/>
		<path class="st14" d="M411.7,679.7l16.2-9.8V665l-16.2,9.8V679.7z"/>
		<path class="st15" d="M411.7,679.7l-16.2-9.8V665l16.2,9.8V679.7z"/>
		<path class="st16" d="M395.4,665l16.2,9.8l16.2-9.8l-16.2-9.8L395.4,665z"/>
		<path class="st14" d="M434.6,693.4l16.2-9.7v-4.9l-16.2,9.7V693.4z"/>
		<path class="st15" d="M434.6,693.4l-16.2-9.7v-4.9l16.2,9.7V693.4z"/>
		<path class="st16" d="M418.3,678.8l16.2,9.7l16.2-9.7l-16.2-9.8L418.3,678.8z"/>
		<path class="st14" d="M457.4,707.2l16.2-9.8v-4.9l-16.2,9.8V707.2z"/>
		<path class="st15" d="M457.4,707.2l-16.2-9.8v-4.9l16.2,9.8V707.2z"/>
		<path class="st16" d="M441.2,692.5l16.2,9.8l16.2-9.8l-16.2-9.7L441.2,692.5z"/>
		<path class="st14" d="M480.4,721l16.2-9.8v-4.9l-16.2,9.8V721z"/>
		<path class="st15" d="M480.4,721l-16.2-9.8v-4.9l16.2,9.8V721z"/>
		<path class="st16" d="M464.1,706.3l16.2,9.8l16.2-9.8l-16.2-9.8L464.1,706.3z"/>
		<g>
			<path class="st14" d="M503.2,734.7l16.2-9.8V720l-16.2,9.8V734.7z"/>
			<path class="st15" d="M503.2,734.7l-16.2-9.8V720l16.2,9.8V734.7z"/>
			<path class="st16" d="M487,720l16.2,9.8l16.2-9.8l-16.2-9.7L487,720z"/>
		</g>
		<g>
			<path class="st14" d="M526.1,748.5l16.2-9.8v-4.9l-16.2,9.8V748.5z"/>
			<path class="st15" d="M526.1,748.5l-16.2-9.8v-4.9l16.2,9.8V748.5z"/>
			<path class="st16" d="M509.8,733.8l16.2,9.8l16.2-9.8l-16.2-9.8L509.8,733.8z"/>
		</g>
		<g>
			<path class="st14" d="M549,762.3l16.2-9.8v-4.9l-16.2,9.8V762.3z"/>
			<path class="st15" d="M549,762.3l-16.2-9.8v-4.9l16.2,9.8V762.3z"/>
			<path class="st16" d="M532.8,747.6l16.2,9.7l16.2-9.7l-16.2-9.8L532.8,747.6z"/>
		</g>
		<g>
			<path class="st14" d="M571.9,776.1l16.2-9.8v-4.9l-16.2,9.8L571.9,776.1z"/>
			<path class="st15" d="M571.9,776.1l-16.2-9.8v-4.9l16.2,9.8V776.1z"/>
			<path class="st16" d="M555.6,761.3l16.2,9.8l16.2-9.8l-16.2-9.7L555.6,761.3z"/>
		</g>
		<g>
			<path class="st14" d="M594.8,789.8L611,780v-4.9l-16.2,9.8V789.8z"/>
			<path class="st15" d="M594.8,789.8l-16.2-9.8v-4.9l16.2,9.8V789.8z"/>
			<path class="st16" d="M578.6,775.1l16.2,9.8l16.2-9.8l-16.2-9.8L578.6,775.1z"/>
		</g>
		<g>
			<path class="st14" d="M617.7,803.6l16.2-9.8v-4.9l-16.2,9.7V803.6z"/>
			<path class="st15" d="M617.7,803.6l-16.2-9.8v-4.9l16.2,9.7V803.6z"/>
			<path class="st16" d="M601.4,788.9l16.2,9.7l16.2-9.7l-16.2-9.8L601.4,788.9z"/>
		</g>
		<g>
			<path class="st14" d="M640.5,817.4l16.2-9.8v-4.9l-16.2,9.8V817.4z"/>
			<path class="st15" d="M640.5,817.4l-16.2-9.8v-4.9l16.2,9.8V817.4z"/>
			<path class="st16" d="M624.3,802.6l16.2,9.8l16.2-9.8l-16.2-9.7L624.3,802.6z"/>
		</g>
		<g>
			<path class="st14" d="M663.4,831.1l16.2-9.8v-4.9l-16.2,9.8V831.1z"/>
			<path class="st15" d="M663.4,831.1l-16.2-9.8v-4.9l16.2,9.8V831.1z"/>
			<path class="st16" d="M647.2,816.4l16.2,9.8l16.2-9.8l-16.2-9.8L647.2,816.4z"/>
		</g>
		<g>
			<path class="st14" d="M686.7,844.9l16.2-9.7v-4.9l-16.2,9.7V844.9z"/>
			<path class="st15" d="M686.7,844.9l-34-20.3v-4.9l34,20.3V844.9z"/>
			<path class="st16" d="M652.7,819.6l34,20.3l16.2-9.7l-34-20.3L652.7,819.6z"/>
		</g>
	</g>
	<g>
		<path class="st14" d="M393.2,692.2l7.4-4.4v-3.5l-7.4,4.4V692.2z"/>
		<path class="st15" d="M393.2,692.2l-11.5-6.9v-3.5l11.5,6.9V692.2z"/>
		<path class="st16" d="M381.7,681.8l11.5,6.9l7.4-4.4l-11.5-6.9L381.7,681.8z"/>
		<path class="st14" d="M386.4,680.1l7.4-4.4v-3.5l-7.4,4.4V680.1z"/>
		<path class="st15" d="M386.4,680.1l-11.5-7v-3.5l11.5,7V680.1z"/>
		<path class="st16" d="M374.9,669.6l11.5,7l7.4-4.4l-11.5-7L374.9,669.6z"/>
		<path class="st14" d="M367,677.6l7.4-4.4v-3.5l-7.4,4.4V677.6z"/>
		<path class="st15" d="M367,677.6l-11.5-6.9v-3.5l11.5,6.9V677.6z"/>
		<path class="st16" d="M355.5,667.1l11.5,6.9l7.4-4.4l-11.5-6.9L355.5,667.1z"/>
		<path class="st14" d="M372.7,689.2l7.3-4.4v-3.4l-7.3,4.4L372.7,689.2z"/>
		<path class="st15" d="M372.7,689.2l-11.5-6.9v-3.5l11.5,7L372.7,689.2z"/>
		<path class="st16" d="M361.2,678.7l11.5,7l7.3-4.4l-11.5-7L361.2,678.7z"/>
		<path class="st14" d="M409.9,709l16.2-9.8v-4.9l-16.2,9.8V709z"/>
		<path class="st15" d="M409.9,709l-16.2-9.8v-4.9l16.2,9.8V709z"/>
		<path class="st16" d="M393.6,694.3l16.2,9.8l16.2-9.8l-16.2-9.7L393.6,694.3z"/>
		<g>
			<path class="st14" d="M432.8,722.8L449,713v-4.9l-16.2,9.8L432.8,722.8z"/>
			<path class="st15" d="M432.8,722.8l-16.2-9.8v-4.9l16.2,9.8V722.8z"/>
			<path class="st16" d="M416.6,708.1l16.2,9.8l16.2-9.8l-16.2-9.8L416.6,708.1z"/>
		</g>
		<g>
			<path class="st14" d="M455.7,736.6l16.2-9.8v-4.9l-16.2,9.8V736.6z"/>
			<path class="st15" d="M455.7,736.6l-16.2-9.8v-4.9l16.2,9.8L455.7,736.6z"/>
			<path class="st16" d="M439.4,721.9l16.2,9.7l16.2-9.7l-16.2-9.8L439.4,721.9z"/>
		</g>
		<g>
			<path class="st14" d="M570.1,805.4l16.2-9.8v-4.9l-16.2,9.8V805.4z"/>
			<path class="st15" d="M570.1,805.4l-16.2-9.8v-4.9l16.2,9.8V805.4z"/>
			<path class="st16" d="M553.9,790.7l16.2,9.7l16.2-9.7l-16.2-9.8L553.9,790.7z"/>
		</g>
		<g>
			<path class="st14" d="M593,819.1l16.2-9.8v-4.9l-16.2,9.8V819.1z"/>
			<path class="st15" d="M593,819.1l-16.2-9.8v-4.9l16.2,9.8V819.1z"/>
			<path class="st16" d="M576.8,804.4l16.2,9.8l16.2-9.8l-16.2-9.7L576.8,804.4z"/>
		</g>
		<g>
			<path class="st14" d="M615.9,832.9l16.2-9.8v-4.9l-16.2,9.8V832.9z"/>
			<path class="st15" d="M615.9,832.9l-16.2-9.8v-4.9l16.2,9.8V832.9z"/>
			<path class="st16" d="M599.6,818.2l16.2,9.8l16.2-9.8l-16.2-9.8L599.6,818.2z"/>
		</g>
		<g>
			<path class="st14" d="M638.7,846.7l16.2-9.8V832l-16.2,9.8V846.7z"/>
			<path class="st15" d="M638.7,846.7l-16.2-9.8V832l16.2,9.8V846.7z"/>
			<path class="st16" d="M622.5,832l16.2,9.7L655,832l-16.2-9.8L622.5,832z"/>
		</g>
		<g>
			<path class="st14" d="M661.7,860.4l16.2-9.8v-4.9l-16.2,9.8V860.4z"/>
			<path class="st15" d="M661.7,860.4l-16.2-9.8v-4.9l16.2,9.8V860.4z"/>
			<path class="st16" d="M645.4,845.7l16.2,9.8l16.2-9.8l-16.2-9.7L645.4,845.7z"/>
		</g>
		<path class="st16" d="M462.3,735.6l107.8,64.8l16.2-9.7l-107.8-64.8L462.3,735.6z"/>
		<path class="st15" d="M570.2,805.4l-107.9-64.9v-4.9l107.9,64.9V805.4z"/>
	</g>
	<g>
		
			<linearGradient id="SVGID_15_" gradientUnits="userSpaceOnUse" x1="348.816" y1="601.033" x2="348.9685" y2="599.8626" gradientTransform="matrix(60.402 0 0 -175.534 -20526.3496 105892.2031)">
			<stop  offset="0" style="stop-color:#FFEF91"/>
			<stop  offset="1" style="stop-color:#FCC71D"/>
		</linearGradient>
		<path class="st17" d="M584.2,596.1l-74-44.9V381.1l74,44.9V596.1z"/>
		
			<linearGradient id="SVGID_16_" gradientUnits="userSpaceOnUse" x1="344.7738" y1="602.005" x2="344.7867" y2="601.1967" gradientTransform="matrix(15.564 0 0 -148.163 -4772.6489 89496.9766)">
			<stop  offset="0" style="stop-color:#FFEF91"/>
			<stop  offset="1" style="stop-color:#FCC71D"/>
		</linearGradient>
		<path class="st18" d="M584.2,596.1l19.1-11.5v-170L584.2,426V596.1z"/>
		
			<linearGradient id="SVGID_17_" gradientUnits="userSpaceOnUse" x1="349.7468" y1="603.7169" x2="348.8885" y2="603.4845" gradientTransform="matrix(75.966 0 0 -45.985 -25973.752 28153.502)">
			<stop  offset="0" style="stop-color:#FFF3AA"/>
			<stop  offset="1" style="stop-color:#FFE964"/>
		</linearGradient>
		<path class="st19" d="M603.3,414.6L584.2,426l-74-44.9l19.1-11.4L603.3,414.6z"/>
		<g>
			
				<linearGradient id="SVGID_18_" gradientUnits="userSpaceOnUse" x1="349.4603" y1="600.8997" x2="349.6128" y2="599.7293" gradientTransform="matrix(60.402 0 0 -175.534 -20353.2012 105996.2812)">
				<stop  offset="0" style="stop-color:#FFEF91"/>
				<stop  offset="1" style="stop-color:#FCC71D"/>
			</linearGradient>
			<path class="st20" d="M796.3,723.6l-74-44.9V508.6l74,44.9V723.6z"/>
			
				<linearGradient id="SVGID_19_" gradientUnits="userSpaceOnUse" x1="347.2742" y1="601.8472" x2="347.2871" y2="601.0388" gradientTransform="matrix(15.564 0 0 -148.163 -4599.5 89601.0547)">
				<stop  offset="0" style="stop-color:#FFEF91"/>
				<stop  offset="1" style="stop-color:#FCC71D"/>
			</linearGradient>
			<path class="st21" d="M796.3,723.6l19.1-11.5v-170l-19.1,11.4V723.6z"/>
			
				<linearGradient id="SVGID_20_" gradientUnits="userSpaceOnUse" x1="350.2591" y1="603.2081" x2="349.4008" y2="602.9758" gradientTransform="matrix(75.966 0 0 -45.985 -25800.6016 28257.5801)">
				<stop  offset="0" style="stop-color:#FFF3AA"/>
				<stop  offset="1" style="stop-color:#FFE964"/>
			</linearGradient>
			<path class="st22" d="M815.3,542.1l-19.1,11.4l-74-44.9l19.1-11.4L815.3,542.1z"/>
		</g>
		<g>
			
				<linearGradient id="SVGID_21_" gradientUnits="userSpaceOnUse" x1="349.1685" y1="600.7781" x2="349.2576" y2="599.6077" gradientTransform="matrix(60.402 0 0 -229.576 -20439.7754 138315.9062)">
				<stop  offset="0" style="stop-color:#FFEF91"/>
				<stop  offset="1" style="stop-color:#FCC71D"/>
			</linearGradient>
			<path class="st23" d="M690.3,660.4l-74-44.9V379.3l74,44.9V660.4z"/>
			
				<linearGradient id="SVGID_22_" gradientUnits="userSpaceOnUse" x1="346.0342" y1="601.674" x2="346.0411" y2="600.8657" gradientTransform="matrix(15.564 0 0 -202.205 -4686.0742 121920.6719)">
				<stop  offset="0" style="stop-color:#FFEF91"/>
				<stop  offset="1" style="stop-color:#FCC71D"/>
			</linearGradient>
			<path class="st24" d="M690.3,660.4l19.1-11.5V412.8l-19.1,11.4V660.4z"/>
			
				<linearGradient id="SVGID_23_" gradientUnits="userSpaceOnUse" x1="350.0029" y1="603.7242" x2="349.1447" y2="603.4918" gradientTransform="matrix(75.966 0 0 -45.985 -25887.1758 28152)">
				<stop  offset="0" style="stop-color:#FFF3AA"/>
				<stop  offset="1" style="stop-color:#FFE964"/>
			</linearGradient>
			<path class="st25" d="M709.3,412.8l-19.1,11.4l-74-44.9l19.1-11.4L709.3,412.8z"/>
		</g>
	</g>
	<g>
		
			<linearGradient id="SVGID_24_" gradientUnits="userSpaceOnUse" x1="349.7848" y1="600.772" x2="350.1263" y2="599.6017" gradientTransform="matrix(66.506 0 0 -129.122 -22395.8789 78421.2109)">
			<stop  offset="0" style="stop-color:#FFEF91"/>
			<stop  offset="1" style="stop-color:#FCC71D"/>
		</linearGradient>
		<path class="st26" d="M918.5,1000l-81.5-49.1V841.9l81.5,49.1V1000z"/>
		
			<linearGradient id="SVGID_25_" gradientUnits="userSpaceOnUse" x1="350.2073" y1="600.2657" x2="350.0449" y2="599.9955" gradientTransform="matrix(66.506 0 0 -129.122 -22329.373 78421.2109)">
			<stop  offset="0" style="stop-color:#FFDB02"/>
			<stop  offset="1" style="stop-color:#FCC71D"/>
		</linearGradient>
		<path class="st27" d="M918.5,1000l81.5-49.1V841.9l-81.5,49.1V1000z"/>
		
			<linearGradient id="SVGID_26_" gradientUnits="userSpaceOnUse" x1="349.1153" y1="600.8614" x2="349.0153" y2="600.5911" gradientTransform="matrix(28.341 0 0 -70.139 -9033.7168 43064.7383)">
			<stop  offset="0" style="stop-color:#FFDB02"/>
			<stop  offset="1" style="stop-color:#FCC71D"/>
		</linearGradient>
		<path class="st28" d="M842.5,968.6l34.7-20.8v-65.1l-34.7,20.8L842.5,968.6z"/>
		<path class="st29" d="M854.2,950l23-14.3v-39.3l-23,14.4V950z"/>
		
			<linearGradient id="SVGID_27_" gradientUnits="userSpaceOnUse" x1="350.7854" y1="600.9615" x2="349.9271" y2="600.7321" gradientTransform="matrix(133.011 0 0 -80.017 -45672.6328 48918.1992)">
			<stop  offset="0" style="stop-color:#FFF3AA"/>
			<stop  offset="1" style="stop-color:#FFE964"/>
		</linearGradient>
		<path class="st30" d="M1000,841.9l-81.5,49l-81.5-49l81.5-49L1000,841.9z"/>
		
			<linearGradient id="SVGID_28_" gradientUnits="userSpaceOnUse" x1="350.015" y1="603.576" x2="349.1568" y2="603.3563" gradientTransform="matrix(42.011 0 0 -24.73 -13832.2441 15811.6592)">
			<stop  offset="0" style="stop-color:#FFF3AA"/>
			<stop  offset="1" style="stop-color:#FFE964"/>
		</linearGradient>
		<path class="st31" d="M876.8,882.8l-34.5,20.8l-16.9-9.5l34.5-20.8L876.8,882.8z"/>
		
			<linearGradient id="SVGID_29_" gradientUnits="userSpaceOnUse" x1="348.8093" y1="604.5613" x2="348.0089" y2="603.9273" gradientTransform="matrix(18.94 0 0 -19.611 -5733.8242 12783.4746)">
			<stop  offset="0" style="stop-color:#FFF3AA"/>
			<stop  offset="1" style="stop-color:#FFE964"/>
		</linearGradient>
		<path class="st32" d="M877.4,935.7l-23.2,14.5v-19.8l6.3-4.2L877.4,935.7z"/>
		<path class="st16" d="M973.4,841.9l-55.5,33.4l-55.5-33.4l55.5-33.3L973.4,841.9z"/>
		
			<linearGradient id="SVGID_30_" gradientUnits="userSpaceOnUse" x1="349.2717" y1="602.9094" x2="350.559" y2="602.2296" gradientTransform="matrix(45.501 0 0 -34.679 -14978.3379 21728.1914)">
			<stop  offset="0" style="stop-color:#FFEF91"/>
			<stop  offset="1" style="stop-color:#FCC71D"/>
		</linearGradient>
		<path class="st33" d="M973.4,841.9l-14.6,9.1l-41.2-25.1l0.3-17.4L973.4,841.9z"/>
		
			<linearGradient id="SVGID_31_" gradientUnits="userSpaceOnUse" x1="349.7646" y1="602.5918" x2="349.1522" y2="602.4349" gradientTransform="matrix(45.501 0 0 -34.678 -15023.5537 21727.3086)">
			<stop  offset="0" style="stop-color:#FFDB02"/>
			<stop  offset="1" style="stop-color:#FCC71D"/>
		</linearGradient>
		<path class="st34" d="M862.3,841.6l14.6,9.1l41.2-25l-0.3-17.5L862.3,841.6z"/>
		
			<linearGradient id="SVGID_32_" gradientUnits="userSpaceOnUse" x1="347.2498" y1="601.5349" x2="347.3171" y2="600.3646" gradientTransform="matrix(13.886 0 0 -60.759 -3988.3518 37446.1133)">
			<stop  offset="0" style="stop-color:#FFEF91"/>
			<stop  offset="1" style="stop-color:#FCC71D"/>
		</linearGradient>
		<path class="st35" d="M842.5,968.6l-17-11.1v-63.4l17,9.9V968.6z"/>
	</g>
</g>
</svg>
