<?xml version="1.0" encoding="utf-8"?>
<!-- Generator: Adobe Illustrator 22.1.0, SVG Export Plug-In . SVG Version: 6.00 Build 0)  -->
<svg version="1.0" id="Layer_1" xmlns="http://www.w3.org/2000/svg" xmlns:xlink="http://www.w3.org/1999/xlink" x="0px" y="0px"
	 viewBox="0 0 1000 1000" style="enable-background:new 0 0 1000 1000;" xml:space="preserve">
<style type="text/css">
	.st0{fill:url(#SVGID_1_);}
	.st1{fill:url(#SVGID_2_);}
	.st2{fill:url(#SVGID_3_);}
	.st3{fill:url(#SVGID_4_);}
	.st4{fill:url(#SVGID_5_);}
	.st5{fill:url(#SVGID_6_);}
	.st6{fill:url(#SVGID_7_);}
	.st7{fill:url(#SVGID_8_);}
	.st8{fill:url(#j_2_);}
	.st9{fill:url(#j_3_);}
	.st10{fill:url(#SVGID_9_);}
	.st11{fill:url(#SVGID_10_);}
	.st12{fill:url(#SVGID_11_);}
	.st13{fill:url(#SVGID_12_);}
	.st14{fill:url(#SVGID_13_);}
	.st15{fill:url(#SVGID_14_);}
	.st16{fill:url(#SVGID_15_);}
	.st17{fill:url(#SVGID_16_);}
	.st18{fill:url(#SVGID_17_);}
	.st19{fill:url(#SVGID_18_);}
	.st20{fill:url(#SVGID_19_);}
	.st21{fill:url(#v_2_);}
	.st22{fill:url(#v_3_);}
	.st23{fill:url(#SVGID_20_);}
	.st24{fill:url(#SVGID_21_);}
	.st25{fill:url(#SVGID_22_);}
	.st26{fill:url(#SVGID_23_);}
	.st27{fill:url(#SVGID_24_);}
	.st28{fill:url(#SVGID_25_);}
	.st29{fill:#DD462A;}
	.st30{fill:#B63723;}
	.st31{fill:#E8F7F8;}
	.st32{fill:#C5C5D8;}
	.st33{fill:url(#SVGID_26_);}
	.st34{opacity:0.331;fill:url(#SVGID_27_);enable-background:new    ;}
	.st35{fill:url(#SVGID_28_);}
	.st36{fill:url(#SVGID_29_);}
	.st37{fill:url(#SVGID_30_);}
	.st38{fill:url(#SVGID_31_);}
	.st39{fill:url(#SVGID_32_);}
	.st40{fill:url(#SVGID_33_);}
	.st41{fill:url(#SVGID_34_);}
	.st42{fill:url(#SVGID_35_);}
	.st43{fill:url(#SVGID_36_);}
	.st44{fill:url(#SVGID_37_);}
	.st45{fill:url(#SVGID_38_);}
	.st46{fill:url(#SVGID_39_);}
	.st47{fill:url(#SVGID_40_);}
</style>
<g>
	
		<linearGradient id="SVGID_1_" gradientUnits="userSpaceOnUse" x1="381.4196" y1="700.7442" x2="381.4196" y2="699.5292" gradientTransform="matrix(230.769 0 0 -667.492 -87389.1016 467894.1562)">
		<stop  offset="0" style="stop-color:#FCFCFC"/>
		<stop  offset="1" style="stop-color:#E4E9F5"/>
	</linearGradient>
	<path class="st0" d="M513.9,824.2v-28l-23.4-14V167l23.4,14v-28l233.7,139.8v28l23.4,14V950l-23.4-14v28L513.9,824.2z"/>
	
		<linearGradient id="SVGID_2_" gradientUnits="userSpaceOnUse" x1="384.1626" y1="706.3994" x2="384.1626" y2="705.1844" gradientTransform="matrix(38.462 0 0 -23.017 -14004.7549 16566.0098)">
		<stop  offset="0" style="stop-color:#A0AEDD"/>
		<stop  offset="1" style="stop-color:#CCD7F5"/>
	</linearGradient>
	<path class="st1" d="M747.5,320.8l23.4-14l23.4,14l-23.4,14L747.5,320.8z"/>
	
		<linearGradient id="SVGID_3_" gradientUnits="userSpaceOnUse" x1="387.4521" y1="703.5757" x2="387.1071" y2="704.1546" gradientTransform="matrix(19.231 0 0 -34.525 -6687.3584 24604.3477)">
		<stop  offset="0" style="stop-color:#D5DDF4"/>
		<stop  offset="1" style="stop-color:#A2B0D9"/>
	</linearGradient>
	<path class="st2" d="M747.5,292.8l23.4-14v28l-23.4,14L747.5,292.8z"/>
	
		<linearGradient id="SVGID_4_" gradientUnits="userSpaceOnUse" x1="384.8532" y1="707.5818" x2="384.8532" y2="706.3668" gradientTransform="matrix(19.23 0 0 -23.017 -6898.5146 16439.418)">
		<stop  offset="0" style="stop-color:#A0AEDD"/>
		<stop  offset="1" style="stop-color:#CCD7F5"/>
	</linearGradient>
	<path class="st3" d="M490.5,167l23.4-14v28L490.5,167z"/>
	
		<linearGradient id="SVGID_5_" gradientUnits="userSpaceOnUse" x1="381.4675" y1="701.8071" x2="381.4675" y2="700.5922" gradientTransform="matrix(211.54 0 0 -126.593 -80053.2422 88982.8984)">
		<stop  offset="0" style="stop-color:#A0AEDD"/>
		<stop  offset="1" style="stop-color:#CCD7F5"/>
	</linearGradient>
	<path class="st4" d="M513.9,153l23.4-14l233.7,139.8l-23.4,14L513.9,153z"/>
	
		<linearGradient id="SVGID_6_" gradientUnits="userSpaceOnUse" x1="387.4342" y1="699.7364" x2="387.4327" y2="700.3154" gradientTransform="matrix(19.23 0 0 -517.882 -6667.7432 363230.4062)">
		<stop  offset="0" style="stop-color:#D5DDF4"/>
		<stop  offset="1" style="stop-color:#A2B0D9"/>
	</linearGradient>
	<path class="st5" d="M770.9,334.8l23.4-14V936l-23.4,14V334.8z"/>
	
		<linearGradient id="SVGID_7_" gradientUnits="userSpaceOnUse" x1="387.5597" y1="700.3959" x2="386.7834" y2="700.9749" gradientTransform="matrix(19.231 0 0 -23.017 -6687.3584 17083.9121)">
		<stop  offset="0" style="stop-color:#D5DDF4"/>
		<stop  offset="1" style="stop-color:#A2B0D9"/>
	</linearGradient>
	<path class="st6" d="M747.5,964v-28l23.4,14L747.5,964z"/>
	
		<linearGradient id="SVGID_8_" gradientUnits="userSpaceOnUse" x1="381.6219" y1="699.7731" x2="381.4866" y2="700.352" gradientTransform="matrix(183.077 0 0 -524.786 -69220.7578 367978.875)">
		<stop  offset="0" style="stop-color:#D5DDF4"/>
		<stop  offset="1" style="stop-color:#A2B0D9"/>
	</linearGradient>
	<path class="st7" d="M516.7,214.1l222.4,132.7v504.9L516.7,718.9V214.1z"/>
	<g transform="translate(120.308 535.308)">
		<g>
			
				<linearGradient id="j_2_" gradientUnits="userSpaceOnUse" x1="263.2295" y1="166.0512" x2="263.2295" y2="164.8362" gradientTransform="matrix(36.923 0 0 -58.694 -9226.5693 10000.1162)">
				<stop  offset="0" style="stop-color:#FCFCFC"/>
				<stop  offset="1" style="stop-color:#E4E9F5"/>
			</linearGradient>
			<path id="j" class="st8" d="M470.2,294v-35.7l7.5,4.5v-8.9l29.9,17.8v8.9l7.5,4.5v35.7l-7.5-4.5v8.9l-29.9-17.8v-8.9L470.2,294z"
				/>
		</g>
		<g>
			
				<linearGradient id="j_3_" gradientUnits="userSpaceOnUse" x1="263.4797" y1="165.5697" x2="262.9989" y2="165.3275" gradientTransform="matrix(36.923 0 0 -58.694 -9226.5693 10000.1162)">
				<stop  offset="0" style="stop-color:#FFFFFF;stop-opacity:0.5"/>
				<stop  offset="1" style="stop-color:#C8D1ED"/>
			</linearGradient>
			<path id="j_1_" class="st9" d="M470.2,294v-35.7l7.5,4.5v-8.9l29.9,17.8v8.9l7.5,4.5v35.7l-7.5-4.5v8.9l-29.9-17.8v-8.9
				L470.2,294z"/>
		</g>
	</g>
	
		<linearGradient id="SVGID_9_" gradientUnits="userSpaceOnUse" x1="395.6873" y1="707.4183" x2="395.6873" y2="706.2032" gradientTransform="matrix(6.154 0 0 -7.289 -1840.7889 5945.5884)">
		<stop  offset="0" style="stop-color:#A0AEDD"/>
		<stop  offset="1" style="stop-color:#CCD7F5"/>
	</linearGradient>
	<path class="st10" d="M590.5,793.6l7.5-4.4v8.9L590.5,793.6z"/>
	
		<linearGradient id="SVGID_10_" gradientUnits="userSpaceOnUse" x1="384.0666" y1="703.2833" x2="384.0666" y2="702.0683" gradientTransform="matrix(30.769 0 0 -18.414 -11200.6426 13734.8145)">
		<stop  offset="0" style="stop-color:#A0AEDD"/>
		<stop  offset="1" style="stop-color:#CCD7F5"/>
	</linearGradient>
	<path class="st11" d="M598,789l7.5-4.5l29.9,17.9l-7.5,4.5L598,789z"/>
	
		<linearGradient id="SVGID_11_" gradientUnits="userSpaceOnUse" x1="396.9961" y1="703.8242" x2="396.6559" y2="704.4031" gradientTransform="matrix(6.153 0 0 -11.125 -1809.6384 8643.4473)">
		<stop  offset="0" style="stop-color:#D5DDF4"/>
		<stop  offset="1" style="stop-color:#A2B0D9"/>
	</linearGradient>
	<path class="st12" d="M627.9,806.8v9l7.5-4.5v-9L627.9,806.8z"/>
	
		<linearGradient id="SVGID_12_" gradientUnits="userSpaceOnUse" x1="388.9355" y1="706.876" x2="388.9355" y2="705.661" gradientTransform="matrix(12.307 0 0 -7.288 -4151.2354 5963.3032)">
		<stop  offset="0" style="stop-color:#A0AEDD"/>
		<stop  offset="1" style="stop-color:#CCD7F5"/>
	</linearGradient>
	<path class="st13" d="M627.9,816l7.5,4.4l7.5-4.4l-7.5-4.4L627.9,816z"/>
	
		<linearGradient id="SVGID_13_" gradientUnits="userSpaceOnUse" x1="397.0049" y1="700.8654" x2="396.9662" y2="701.4443" gradientTransform="matrix(6.154 0 0 -32.991 -1803.8657 23971.707)">
		<stop  offset="0" style="stop-color:#D5DDF4"/>
		<stop  offset="1" style="stop-color:#A2B0D9"/>
	</linearGradient>
	<path class="st14" d="M635.4,820.2l7.5-4.5v35.6l-7.5,4.5V820.2z"/>
	
		<linearGradient id="SVGID_14_" gradientUnits="userSpaceOnUse" x1="397.1169" y1="704.733" x2="396.3242" y2="705.3119" gradientTransform="matrix(6.153 0 0 -7.29 -1809.6384 5997.6938)">
		<stop  offset="0" style="stop-color:#D5DDF4"/>
		<stop  offset="1" style="stop-color:#A2B0D9"/>
	</linearGradient>
	<path class="st15" d="M627.9,860.5v-8.9l7.5,4.4L627.9,860.5z"/>
	<g>
		
			<linearGradient id="SVGID_15_" gradientUnits="userSpaceOnUse" x1="384.6461" y1="702.5976" x2="383.8698" y2="703.1765" gradientTransform="matrix(38.462 0 0 -46.034 -14005.7549 32664.4004)">
			<stop  offset="0" style="stop-color:#D5DDF4"/>
			<stop  offset="1" style="stop-color:#A2B0D9"/>
		</linearGradient>
		<path class="st16" d="M746.3,290.4l23.4,41.9l23.4-14c0-9.3-2.1-17.3-6.4-23.9c-4.3-6.6-9.9-12.6-16.9-18L746.3,290.4L746.3,290.4
			z"/>
		
			<linearGradient id="SVGID_16_" gradientUnits="userSpaceOnUse" x1="381.4285" y1="701.7912" x2="381.4285" y2="700.5762" gradientTransform="matrix(226.893 0 0 -128.7173 -85910.5078 90467.6172)">
			<stop  offset="0" style="stop-color:#A0AEDD"/>
			<stop  offset="1" style="stop-color:#CCD7F5"/>
		</linearGradient>
		<path class="st17" d="M495.1,151.7l28.8-15.3c3.8-2,8.3-1.9,11.9,0.3l234.9,140.7l-23.4,14L495.1,151.7L495.1,151.7z"/>
		
			<linearGradient id="SVGID_17_" gradientUnits="userSpaceOnUse" x1="385.4092" y1="699.7313" x2="385.4061" y2="700.3102" gradientTransform="matrix(27.813 0 0 -530.062 -9943.1611 371760.5625)">
			<stop  offset="0" style="stop-color:#D5DDF4"/>
			<stop  offset="1" style="stop-color:#A2B0D9"/>
		</linearGradient>
		<path class="st18" d="M769.7,332.4l23.4-14v620.1c0,4.7-2.7,8.9-6.9,10.9l-26.9,13L769.7,332.4L769.7,332.4z"/>
		
			<linearGradient id="SVGID_18_" gradientUnits="userSpaceOnUse" x1="381.4187" y1="700.7441" x2="381.4187" y2="699.5292" gradientTransform="matrix(230.769 0 0 -670.9661 -87390.1016 470323.9375)">
			<stop  offset="0" style="stop-color:#FCFCFC"/>
			<stop  offset="1" style="stop-color:#E4E9F5"/>
		</linearGradient>
		<path class="st19" d="M512.7,821.7l-2.9-1.9c-12.8-8.3-20.5-22.5-20.5-37.7V163.8c0-8.5,6.9-15.4,15.4-15.4c2.8,0,5.5,0.8,7.9,2.2
			l233.7,139.8l2.2,1.4c13.2,8.2,21.2,22.6,21.2,38.1v618c0,8.6-7,15.7-15.7,15.7c-2.7,0-5.4-0.7-7.7-2L512.7,821.7L512.7,821.7z"/>
		
			<linearGradient id="SVGID_19_" gradientUnits="userSpaceOnUse" x1="381.6208" y1="699.7739" x2="381.4854" y2="700.3528" gradientTransform="matrix(183.077 0 0 -524.7869 -69221.7578 367977.5)">
			<stop  offset="0" style="stop-color:#D5DDF4"/>
			<stop  offset="1" style="stop-color:#A2B0D9"/>
		</linearGradient>
		<path class="st20" d="M515.5,211.6l222.4,132.7v504.9L515.5,716.5V211.6z"/>
		<g transform="translate(37)">
			<g>
				
					<linearGradient id="v_2_" gradientUnits="userSpaceOnUse" x1="346.5317" y1="701.3665" x2="346.5317" y2="700.1515" gradientTransform="matrix(36.923 0 0 -58.6929 -12220.2412 41952.043)">
					<stop  offset="0" style="stop-color:#FCFCFC"/>
					<stop  offset="1" style="stop-color:#E4E9F5"/>
				</linearGradient>
				<path id="v" class="st21" d="M552.3,826.9v-35.7l7.5,4.5v-8.9l29.9,17.8v8.9l7.5,4.5v35.7l-7.5-4.5v8.9l-29.9-17.8v-8.9
					L552.3,826.9z"/>
			</g>
			<g>
				
					<linearGradient id="v_3_" gradientUnits="userSpaceOnUse" x1="346.7819" y1="700.885" x2="346.3011" y2="700.6428" gradientTransform="matrix(36.923 0 0 -58.6929 -12220.2412 41952.043)">
					<stop  offset="0" style="stop-color:#FFFFFF;stop-opacity:0.5"/>
					<stop  offset="1" style="stop-color:#C8D1ED"/>
				</linearGradient>
				<path id="v_1_" class="st22" d="M552.3,826.9v-35.7l7.5,4.5v-8.9l29.9,17.8v8.9l7.5,4.5v35.7l-7.5-4.5v8.9l-29.9-17.8v-8.9
					L552.3,826.9z"/>
			</g>
		</g>
		
			<linearGradient id="SVGID_20_" gradientUnits="userSpaceOnUse" x1="395.6524" y1="707.4772" x2="395.6524" y2="706.2623" gradientTransform="matrix(6.154 0 0 -7.289 -1841.7887 5943.5894)">
			<stop  offset="0" style="stop-color:#A0AEDD"/>
			<stop  offset="1" style="stop-color:#CCD7F5"/>
		</linearGradient>
		<path class="st23" d="M589.3,791.2l7.5-4.4v8.9L589.3,791.2z"/>
		
			<linearGradient id="SVGID_21_" gradientUnits="userSpaceOnUse" x1="384.0596" y1="703.3068" x2="384.0596" y2="702.0919" gradientTransform="matrix(30.769 0 0 -18.413 -11201.6416 13732.0889)">
			<stop  offset="0" style="stop-color:#A0AEDD"/>
			<stop  offset="1" style="stop-color:#CCD7F5"/>
		</linearGradient>
		<path class="st24" d="M596.8,786.6l7.5-4.5l29.9,17.9l-7.5,4.5L596.8,786.6z"/>
		
			<linearGradient id="SVGID_22_" gradientUnits="userSpaceOnUse" x1="396.9586" y1="703.8629" x2="396.6183" y2="704.4418" gradientTransform="matrix(6.154 0 0 -11.125 -1811.0198 8641.4473)">
			<stop  offset="0" style="stop-color:#D5DDF4"/>
			<stop  offset="1" style="stop-color:#A2B0D9"/>
		</linearGradient>
		<path class="st25" d="M626.7,804.3v9l7.5-4.5v-9L626.7,804.3z"/>
		
			<linearGradient id="SVGID_23_" gradientUnits="userSpaceOnUse" x1="388.9174" y1="706.9351" x2="388.9174" y2="705.72" gradientTransform="matrix(12.308 0 0 -7.288 -4152.6167 5961.2769)">
			<stop  offset="0" style="stop-color:#A0AEDD"/>
			<stop  offset="1" style="stop-color:#CCD7F5"/>
		</linearGradient>
		<path class="st26" d="M626.7,813.6l7.5,4.4l7.5-4.4l-7.5-4.4L626.7,813.6z"/>
		
			<linearGradient id="SVGID_24_" gradientUnits="userSpaceOnUse" x1="396.9674" y1="700.8784" x2="396.9287" y2="701.4573" gradientTransform="matrix(6.155 0 0 -32.991 -1805.2471 23969.7246)">
			<stop  offset="0" style="stop-color:#D5DDF4"/>
			<stop  offset="1" style="stop-color:#A2B0D9"/>
		</linearGradient>
		<path class="st27" d="M634.2,817.8l7.5-4.5V849l-7.5,4.5L634.2,817.8z"/>
		
			<linearGradient id="SVGID_25_" gradientUnits="userSpaceOnUse" x1="397.0794" y1="704.7934" x2="396.2867" y2="705.3724" gradientTransform="matrix(6.154 0 0 -7.288 -1811.0198 5994.3105)">
			<stop  offset="0" style="stop-color:#D5DDF4"/>
			<stop  offset="1" style="stop-color:#A2B0D9"/>
		</linearGradient>
		<path class="st28" d="M626.7,858.1v-8.9l7.5,4.4L626.7,858.1z"/>
	</g>
	<g>
		<path class="st29" d="M516.4,208.3l45.3,28.3l-72,72l-45.3-28.3L516.4,208.3z"/>
		<path class="st30" d="M444.4,278.8l44.9,28.2v16.1c0,4.2-3.4,7.7-7.7,7.7c-1.4,0-2.9-0.4-4.1-1.2l-24-15.1
			c-5.7-3.6-9.1-9.8-9.1-16.6V278.8z"/>
		<path class="st29" d="M696.8,319.9l45.3,28.3l-72,72l-45.3-28.3L696.8,319.9z"/>
		<path class="st30" d="M624.7,390.4l44.9,28.2v16.1c0,4.2-3.4,7.7-7.7,7.7c-1.4,0-2.9-0.4-4.1-1.2l-24-15.1
			c-5.7-3.6-9.1-9.8-9.1-16.6V390.4L624.7,390.4z"/>
		<path class="st29" d="M606.1,264.8l45.3,28.3l-72,72l-45.3-28.3L606.1,264.8z"/>
		<path class="st30" d="M534.5,335.3l44.9,28.2v16.1c0,4.2-3.4,7.7-7.7,7.7c-1.4,0-2.9-0.4-4.1-1.2l-24-15.1
			c-5.7-3.6-9.1-9.8-9.1-16.6L534.5,335.3L534.5,335.3z"/>
		<path class="st31" d="M561.7,236.3l45.3,28.3l-72,72l-45.3-28.3L561.7,236.3z"/>
		<path class="st32" d="M489.7,306.8l44.9,28.2v16.1c0,4.2-3.4,7.7-7.7,7.7c-1.4,0-2.9-0.4-4.1-1.2l-24-15.1
			c-5.7-3.6-9.1-9.8-9.1-16.6L489.7,306.8L489.7,306.8z"/>
		<path class="st31" d="M651.9,292.3l45.3,28.3l-72,72l-45.3-28.3L651.9,292.3z"/>
		<path class="st32" d="M579.9,362.8l44.9,28.2v16.1c0,4.2-3.4,7.7-7.7,7.7c-1.4,0-2.9-0.4-4.1-1.2l-24-15.1
			c-5.7-3.6-9.1-9.8-9.1-16.6V362.8L579.9,362.8z"/>
	</g>
	<path class="st30" d="M670.3,420.9l69.3-50.4v-23.8L670.3,420.9z"/>
	<g>
		
			<linearGradient id="SVGID_26_" gradientUnits="userSpaceOnUse" x1="381.0565" y1="700.5888" x2="381.806" y2="700.466" gradientTransform="matrix(216.646 0 0 -127.09 -81922.9453 89735.0391)">
			<stop  offset="0" style="stop-color:#FFF3AA"/>
			<stop  offset="1" style="stop-color:#FFE964"/>
		</linearGradient>
		<path class="st33" d="M715.3,629.9L866,714.7l-113,69.6l-150.2-84.5L715.3,629.9z"/>
		
			<linearGradient id="SVGID_27_" gradientUnits="userSpaceOnUse" x1="381.6681" y1="700.3621" x2="381.4054" y2="700.6462" gradientTransform="matrix(216.646 0 0 -127.09 -81922.9453 89735.0391)">
			<stop  offset="0" style="stop-color:#FFF3AA"/>
			<stop  offset="1" style="stop-color:#FDD110"/>
		</linearGradient>
		<path class="st34" d="M715.3,629.9L866,714.7l-113,69.6l-150.2-84.5L715.3,629.9z"/>
		
			<linearGradient id="SVGID_28_" gradientUnits="userSpaceOnUse" x1="379.1202" y1="701.4274" x2="379.8939" y2="700.6255" gradientTransform="matrix(-123.646 0 0 -151.545 47774.4492 106783.7734)">
			<stop  offset="0" style="stop-color:#FFEF91"/>
			<stop  offset="1" style="stop-color:#FCC71D"/>
		</linearGradient>
		<path class="st35" d="M865.5,614.7l-150.2-84.5v99.6l150.2,84.5V614.7z"/>
		
			<linearGradient id="SVGID_29_" gradientUnits="userSpaceOnUse" x1="382.3813" y1="700.4763" x2="382.9888" y2="700.4763" gradientTransform="matrix(93 0 0 -139.09 -34752 98129.0391)">
			<stop  offset="0" style="stop-color:#FFDB02"/>
			<stop  offset="1" style="stop-color:#FCC71D"/>
		</linearGradient>
		<path class="st36" d="M753,684.7l113-69.4v99.6l-113,69.4V684.7z"/>
		
			<linearGradient id="SVGID_30_" gradientUnits="userSpaceOnUse" x1="382.0947" y1="701.1804" x2="382.0947" y2="699.977" gradientTransform="matrix(93 0 0 -139.09 -34876 98059.0391)">
			<stop  offset="0" style="stop-color:#FFDB02"/>
			<stop  offset="1" style="stop-color:#FCC71D"/>
		</linearGradient>
		<path class="st37" d="M602.3,599.6l113-69.4v99.6l-113,69.4V599.6z"/>
		
			<linearGradient id="SVGID_31_" gradientUnits="userSpaceOnUse" x1="379.2812" y1="701.3457" x2="380.055" y2="700.5438" gradientTransform="matrix(-123.646 0 0 -151.545 47681.8047 106841.3125)">
			<stop  offset="0" style="stop-color:#FFEF91"/>
			<stop  offset="1" style="stop-color:#FCC71D"/>
		</linearGradient>
		<path class="st38" d="M753,684.7l-150.2-84.5v99.6L753,784.3V684.7z"/>
		
			<linearGradient id="SVGID_32_" gradientUnits="userSpaceOnUse" x1="381.0555" y1="700.7274" x2="381.805" y2="700.605" gradientTransform="matrix(217 0 0 -127.09 -82058 89653.0391)">
			<stop  offset="0" style="stop-color:#FFF3AA"/>
			<stop  offset="1" style="stop-color:#FFE964"/>
		</linearGradient>
		<path class="st39" d="M715.3,530.2L866,615.1l-113,69.6l-150.7-85L715.3,530.2z M715.3,537.3l-101,62.2l138,77.7l101-62.4
			L715.3,537.3z"/>
		
			<linearGradient id="SVGID_33_" gradientUnits="userSpaceOnUse" x1="393.8106" y1="701.0675" x2="393.8333" y2="701.8566" gradientTransform="matrix(8 0 0 -58.534 -2487.5 41671.2539)">
			<stop  offset="0" style="stop-color:#B4B4B4"/>
			<stop  offset="1" style="stop-color:#7D7D7D"/>
		</linearGradient>
		<path class="st40" d="M658.2,580.9l9.7,4.3V652l-9.7-4.3V580.9z"/>
		
			<linearGradient id="SVGID_34_" gradientUnits="userSpaceOnUse" x1="395.9227" y1="703.3401" x2="396.039" y2="704.1292" gradientTransform="matrix(8 0 0 -25.866 -2407.5 18740.3027)">
			<stop  offset="0" style="stop-color:#B4B4B4"/>
			<stop  offset="1" style="stop-color:#7D7D7D"/>
		</linearGradient>
		<path class="st41" d="M755.4,523.8l9.7,6.5v24.9l-9.7-5.1V523.8z"/>
		
			<linearGradient id="SVGID_35_" gradientUnits="userSpaceOnUse" x1="382.6291" y1="701.7895" x2="381.7769" y2="701.3456" gradientTransform="matrix(95.787 0 0 -59.851 -35890.4531 42538.125)">
			<stop  offset="0" style="stop-color:#6D6D6D"/>
			<stop  offset="0" style="stop-color:#6C6C6C"/>
			<stop  offset="1" style="stop-color:#3B3B3B"/>
		</linearGradient>
		<path class="st42" d="M658.2,580.9l107.1-67.7l9.3,4.5L667.9,586L658.2,580.9z"/>
		
			<linearGradient id="SVGID_36_" gradientUnits="userSpaceOnUse" x1="381.8969" y1="700.4793" x2="382.6554" y2="701.2684" gradientTransform="matrix(87.47 0 0 -110.7 -32717.8359 78161.375)">
			<stop  offset="0" style="stop-color:#282727"/>
			<stop  offset="1" style="stop-color:#3B3B3B"/>
		</linearGradient>
		<path class="st43" d="M765.1,533.7l-88.2,57.6v55.3l-9,5.4v-66.1l9-5.8v0l97.3-62.6l-0.1,10.3v32.5l-9-5.1V533.7z"/>
		<g>
			
				<linearGradient id="SVGID_37_" gradientUnits="userSpaceOnUse" x1="394.6436" y1="700.9903" x2="394.6664" y2="701.7794" gradientTransform="matrix(8 0 0 -58.534 -2456.5 41692.2812)">
				<stop  offset="0" style="stop-color:#B4B4B4"/>
				<stop  offset="1" style="stop-color:#7D7D7D"/>
			</linearGradient>
			<path class="st44" d="M695.9,606.4l9.7,4.3v66.8l-9.7-4.3V606.4z"/>
			
				<linearGradient id="SVGID_38_" gradientUnits="userSpaceOnUse" x1="396.7558" y1="703.1653" x2="396.872" y2="703.9544" gradientTransform="matrix(8 0 0 -25.866 -2376.5 18761.332)">
				<stop  offset="0" style="stop-color:#B4B4B4"/>
				<stop  offset="1" style="stop-color:#7D7D7D"/>
			</linearGradient>
			<path class="st45" d="M793.1,549.3l9.7,6.5v24.9l-9.7-5.1V549.3z"/>
			
				<linearGradient id="SVGID_39_" gradientUnits="userSpaceOnUse" x1="382.6987" y1="701.714" x2="381.8464" y2="701.2701" gradientTransform="matrix(95.787 0 0 -59.851 -35859.4531 42559.1562)">
				<stop  offset="0" style="stop-color:#6D6D6D"/>
				<stop  offset="0" style="stop-color:#6C6C6C"/>
				<stop  offset="1" style="stop-color:#3B3B3B"/>
			</linearGradient>
			<path class="st46" d="M695.9,606.4l107.1-67.7l9.3,4.5l-106.7,68.3L695.9,606.4z"/>
			
				<linearGradient id="SVGID_40_" gradientUnits="userSpaceOnUse" x1="381.973" y1="700.4385" x2="382.7316" y2="701.2275" gradientTransform="matrix(87.47 0 0 -110.7 -32686.8359 78182.3984)">
				<stop  offset="0" style="stop-color:#282727"/>
				<stop  offset="1" style="stop-color:#3B3B3B"/>
			</linearGradient>
			<path class="st47" d="M802.8,559.3l-88.2,57.6v55.3l-9,5.4v-66.1l9-5.8v0l97.3-62.6l-0.1,10.3v32.5l-9-5.1V559.3z"/>
		</g>
	</g>
</g>
</svg>
