<?xml version="1.0" encoding="utf-8"?>
<!-- Generator: Adobe Illustrator 22.1.0, SVG Export Plug-In . SVG Version: 6.00 Build 0)  -->
<svg version="1.0" id="Layer_1" xmlns="http://www.w3.org/2000/svg" xmlns:xlink="http://www.w3.org/1999/xlink" x="0px" y="0px"
	 viewBox="0 0 160 160" style="enable-background:new 0 0 160 160;" xml:space="preserve">
<style type="text/css">
	.st0{fill:#7C7C7B;}
	.st1{fill:#212121;}
	.st2{fill:#3A3A3A;}
</style>
<g>
	<path class="st0" d="M24,30.7l17.6,10.4v87.5L24,118.3V30.7z"/>
	<path class="st0" d="M24,118.3l17.6,10.4V41.2L24,30.7V118.3z"/>
	<path class="st0" d="M24,118.3l17.6,10.4V70.4L24,68.3V118.3z"/>
	<path class="st0" d="M76.9,20.4L41.6,41.2v47.3l35.3-20.7V20.4z"/>
	<path class="st0" d="M41.6,41.2v47.3l35.3-20.7V20.4L41.6,41.2z"/>
	<path class="st1" d="M41.6,41.2v47.3l35.3-20.7V20.4L41.6,41.2z"/>
	<path class="st2" d="M24.1,30.7l17.6,10.4l35.2-20.7L59.2,10L24.1,30.7z"/>
	<path class="st2" d="M24.1,30.7l17.6,10.4l35.2-20.7L59.2,10L24.1,30.7z"/>
	<path class="st2" d="M24.1,30.7l17.6,10.4l35.2-20.7L59.2,10L24.1,30.7z"/>
	<path class="st0" d="M41.6,64.8l17.6,10.4v64.2l-17.6-10.4V64.8z"/>
	<path class="st0" d="M41.6,128.9l17.6,10.4V75.2L41.6,64.8V128.9z"/>
	<path class="st0" d="M41.6,128.9l17.6,10.4V81l-17.6-2.1V128.9z"/>
	<path class="st0" d="M94.5,54.5L59.2,75.2v23.9l35.3-20.7L94.5,54.5z"/>
	<path class="st0" d="M59.2,75.2v23.9l35.3-20.7V54.5L59.2,75.2z"/>
	<path class="st1" d="M59.2,75.2v23.9l35.3-20.7V54.5L59.2,75.2z"/>
	<path class="st2" d="M41.6,64.8l17.6,10.4l35.2-20.7L76.8,44L41.6,64.8z"/>
	<path class="st2" d="M41.6,64.8l17.6,10.4l35.2-20.7L76.8,44L41.6,64.8z"/>
	<path class="st2" d="M41.6,64.8l17.6,10.4l35.2-20.7L76.8,44L41.6,64.8z"/>
	<path class="st0" d="M59.2,96.5l17.6,10.4v42.9l-17.6-10.4V96.5z"/>
	<path class="st0" d="M59.2,139.4l17.6,10.4v-42.9L59.2,96.5V139.4z"/>
	<path class="st0" d="M59.2,139.4l17.6,10.4v-42.9L59.2,96.5V139.4z"/>
	<path class="st0" d="M112,86.1l-35.2,20.7l0,24.3l35.2-20.7L112,86.1z"/>
	<path class="st0" d="M76.8,106.9l0,24.3l35.2-20.7l0-24.3L76.8,106.9z"/>
	<path class="st1" d="M76.8,106.9l0,24.3l35.2-20.7l0-24.3L76.8,106.9z"/>
	<path class="st2" d="M59.2,96.5l17.6,10.4L112,86.1L94.4,75.7L59.2,96.5z"/>
	<path class="st2" d="M59.2,96.5l17.6,10.4L112,86.1L94.4,75.7L59.2,96.5z"/>
	<path class="st2" d="M59.2,96.5l17.6,10.4L112,86.1L94.4,75.7L59.2,96.5z"/>
	<path class="st0" d="M76.8,127.9l17.6,10.4V160l-17.6-10.4L76.8,127.9z"/>
	<path class="st0" d="M76.8,149.6L94.4,160v-21.7l-17.6-10.4L76.8,149.6z"/>
	<path class="st0" d="M76.8,149.6L94.4,160v-21.7l-17.6-10.4L76.8,149.6z M129.7,117.6l-35.2,20.7V160l35.2-20.7L129.7,117.6z"/>
	<path class="st0" d="M94.4,138.3V160l35.2-20.7v-21.7L94.4,138.3z"/>
	<path class="st1" d="M94.4,138.3V160l35.2-20.7v-21.7L94.4,138.3z"/>
	<path class="st2" d="M76.8,127.9l17.6,10.4l35.2-20.7l-17.6-10.4L76.8,127.9z"/>
	<path class="st2" d="M76.8,127.9l17.6,10.4l35.2-20.7l-17.6-10.4L76.8,127.9z"/>
	<path class="st2" d="M76.8,127.9l17.6,10.4l35.2-20.7l-17.6-10.4L76.8,127.9z"/>
	<path class="st0" d="M0,103.7l24,14.2v28.8L0,132.5V103.7z"/>
	<path class="st0" d="M0,132.5l24,14.2v-28.8L0,103.7V132.5z"/>
	<path class="st0" d="M0,132.5l24,14.2v-28.8L0,103.7V132.5z"/>
	<path class="st0" d="M47.9,103.7l-24,14.2v28.8l24-14.2V103.7z"/>
	<path class="st0" d="M24,117.9v28.8l24-14.2v-28.8L24,117.9z"/>
	<path class="st1" d="M24,117.9v28.8l24-14.2v-28.8L24,117.9z"/>
	<path class="st2" d="M0,103.7l24,14.2l24-14.2L24,89.5L0,103.7z"/>
	<path class="st2" d="M0,103.7l24,14.2l24-14.2L24,89.5L0,103.7z"/>
	<path class="st2" d="M0,103.7l24,14.2l24-14.2L24,89.5L0,103.7z"/>
</g>
</svg>
