<?xml version="1.0" encoding="utf-8"?>
<!-- Generator: Adobe Illustrator 22.1.0, SVG Export Plug-In . SVG Version: 6.00 Build 0)  -->
<svg version="1.0" id="Layer_1" xmlns="http://www.w3.org/2000/svg" xmlns:xlink="http://www.w3.org/1999/xlink" x="0px" y="0px"
	 viewBox="0 0 160 160" style="enable-background:new 0 0 160 160;" xml:space="preserve">
<style type="text/css">
	.st0{fill:#4B4A4B;}
	.st1{fill:#212121;}
	.st2{fill:#3A3A3A;}
	.st3{fill:#7C7C7B;}
</style>
<g>
	<path class="st0" d="M37.8,126l18.9,11.3v-22.7l-18.9-11.3V126z"/>
	<path class="st1" d="M56.7,114.6v22.7L75.6,126v-22.7L56.7,114.6z"/>
	<path class="st2" d="M37.8,103.3l18.9,11.3l18.9-11.3L56.7,92L37.8,103.3z"/>
	<path class="st0" d="M56.7,137.3l18.9,11.3V126l-18.9-11.3L56.7,137.3z"/>
	<path class="st1" d="M75.6,126v22.7l18.9-11.3v-22.7L75.6,126z"/>
	<path class="st2" d="M56.7,114.6L75.6,126l18.9-11.3l-18.9-11.3L56.7,114.6z"/>
	<path class="st0" d="M75.6,126l18.9,11.3v-22.7l-18.9-11.3L75.6,126z M37.8,103.3l18.9,11.3V92L37.8,80.6V103.3z"/>
	<path class="st1" d="M56.7,92v22.7l18.9-11.3V80.6L56.7,92z"/>
	<path class="st2" d="M37.8,80.6L56.7,92l18.9-11.3L56.7,69.3L37.8,80.6z"/>
	<path class="st0" d="M56.7,114.6L75.6,126v-22.7L56.7,92L56.7,114.6z"/>
	<path class="st2" d="M56.7,92l24.1,14.5h16.8V93.9l-22-13.2L56.7,92z"/>
	<path class="st0" d="M18.9,137.3l18.9,11.3V126l-18.9-11.3L18.9,137.3z"/>
	<path class="st1" d="M37.8,126v22.7l18.9-11.3v-22.7L37.8,126z"/>
	<path class="st2" d="M18.9,114.6L37.8,126l18.9-11.3l-18.9-11.3L18.9,114.6z"/>
	<path class="st0" d="M37.8,148.7L56.7,160v-22.7L37.8,126V148.7z"/>
	<path class="st1" d="M56.7,137.3V160l18.9-11.3V126L56.7,137.3z"/>
	<path class="st2" d="M37.8,126l18.9,11.3L75.6,126l-18.9-11.3L37.8,126z"/>
	<path class="st0" d="M18.9,114.6L37.8,126v-22.7L18.9,92L18.9,114.6z"/>
	<path class="st1" d="M37.8,103.3V126l18.9-11.3V92L37.8,103.3z"/>
	<path class="st2" d="M18.9,92l18.9,11.3L56.7,92L37.8,80.6L18.9,92z"/>
	<path class="st0" d="M37.8,126l18.9,11.3v-22.7l-18.9-11.3V126z"/>
	<path class="st1" d="M56.7,114.6v22.7L75.6,126v-22.7L56.7,114.6z M37.8,103.3l18.9,11.3l18.9-11.3L56.7,92L37.8,103.3z"/>
	<path class="st1" d="M37.8,103.3l18.9,11.3l18.9-11.3L56.7,92L37.8,103.3z"/>
	<path class="st1" d="M37.8,103.3l18.9,11.3l18.9-11.3L56.7,92L37.8,103.3z"/>
	<path class="st3" d="M56.7,137.3l18.9,11.3V126l-18.9-11.3L56.7,137.3z"/>
	<path class="st1" d="M75.6,126v22.7l22-13.2v-22.7L75.6,126z"/>
	<path class="st2" d="M80.8,100.2l-24.1,14.5L75.6,126l22-13.2v-12.6H80.8z"/>
	<path class="st3" d="M37.8,103.3l18.9,11.3v-8.9L37.8,94.4V103.3z"/>
	<path class="st2" d="M37.8,94.4l18.9,11.3l18.9-11.3L56.7,83.1L37.8,94.4z"/>
	<path class="st3" d="M0,126l18.9,11.3v-22.7L0,103.3V126z"/>
	<path class="st1" d="M18.9,114.6v22.7L37.8,126v-22.7L18.9,114.6z"/>
	<path class="st2" d="M0,103.3l18.9,11.3l18.9-11.3L18.9,92L0,103.3z"/>
	<path class="st3" d="M18.9,137.3l18.9,11.3V126l-18.9-11.3L18.9,137.3z"/>
	<path class="st1" d="M37.8,126v22.7l18.9-11.3v-22.7L37.8,126z"/>
	<path class="st2" d="M18.9,114.6L37.8,126l18.9-11.3l-18.9-11.3L18.9,114.6z"/>
	<path class="st3" d="M37.8,148.7L56.7,160v-13.6l-18.9-11.3V148.7z"/>
	<path class="st1" d="M56.7,146.4V160l18.9-11.3v-13.6L56.7,146.4z"/>
	<path class="st2" d="M37.8,135.1l18.9,11.3l18.9-11.3l-18.9-11.3L37.8,135.1z"/>
	<path class="st3" d="M0,103.3l18.9,11.3v-8.8L0,94.5V103.3z"/>
	<path class="st1" d="M18.9,105.8v8.8l18.9-11.3v-8.8L18.9,105.8z"/>
	<path class="st2" d="M0,94.5l18.9,11.3l18.9-11.3L18.9,83.2L0,94.5z"/>
	<path class="st3" d="M22,30.9l35.7,20.9v40.7L22,71.6V30.9z"/>
	<path class="st3" d="M22,71.6l35.7,20.9V51.9L22,30.9L22,71.6z"/>
	<path class="st3" d="M22,71.6l35.7,20.9V51.9L22,30.9V71.6z M93.5,30.9L57.7,51.9v40.7l35.7-20.9V30.9z"/>
	<path class="st3" d="M57.7,51.9v40.7l35.7-20.9V30.9L57.7,51.9z"/>
	<path class="st1" d="M57.7,51.9v40.7l35.7-20.9V30.9L57.7,51.9z"/>
	<path class="st2" d="M22,30.9l35.7,20.9l35.7-20.9L57.7,10L22,30.9z"/>
	<path class="st2" d="M22,30.9l35.7,20.9l35.7-20.9L57.7,10L22,30.9z"/>
	<path class="st2" d="M22,30.9l35.7,20.9l35.7-20.9L57.7,10L22,30.9z"/>
	<path class="st1" d="M94.5,113.1v24.2l18.9-11.3v-22.7L94.5,113.1z"/>
	<path class="st2" d="M75.6,103.3l18.9,11.3l18.9-11.3L94.5,92L75.6,103.3z"/>
	<path class="st1" d="M56.7,105.8v8.9l18.9-11.3v-8.9L56.7,105.8z"/>
</g>
</svg>
