<?xml version="1.0" encoding="utf-8"?>
<!-- Generator: Adobe Illustrator 22.1.0, SVG Export Plug-In . SVG Version: 6.00 Build 0)  -->
<svg version="1.0" id="Layer_1" xmlns="http://www.w3.org/2000/svg" xmlns:xlink="http://www.w3.org/1999/xlink" x="0px" y="0px"
	 viewBox="0 0 160 160" style="enable-background:new 0 0 160 160;" xml:space="preserve">
<style type="text/css">
	.st0{fill:#4B4A4B;}
	.st1{fill:#212121;}
	.st2{fill:#3A3A3A;}
	.st3{fill:#7C7C7B;}
</style>
<g>
	<path class="st0" d="M43.5,107.7l21.8,13V94.7L43.5,81.5C43.5,81.5,43.5,107.7,43.5,107.7z"/>
	<path class="st1" d="M65.2,94.7v26.2l21.8-13V81.5L65.2,94.7z"/>
	<path class="st2" d="M43.5,81.5l21.8,13l21.7-13l-21.8-13L43.5,81.5z"/>
	<path class="st3" d="M65.2,110.3L87,123.4V97.3L65.3,84.2C65.3,84.2,65.3,110.3,65.2,110.3z"/>
	<path class="st1" d="M87,97.3v26.2l21.8-13.1V84.2L87,97.3z"/>
	<path class="st2" d="M65.2,84.2l21.8,13l21.8-13L87,71.1L65.2,84.2z"/>
	<path class="st0" d="M87,133.8l21.8,13v-26.2l-21.8-13V133.8z"/>
	<path class="st1" d="M108.8,120.8V147l21.8-13v-26.2L108.8,120.8z"/>
	<path class="st2" d="M87,107.7l21.8,13l21.8-13l-21.8-13L87,107.7z"/>
	<path class="st3" d="M87,109.5l21.8,13V96.3L87,83.3V109.5z"/>
	<path class="st1" d="M108.8,96.3v26.2l21.8-13V83.3L108.8,96.3z"/>
	<path class="st2" d="M87,83.3l21.8,13l21.8-13l-21.8-13.1L87,83.3z"/>
	<path class="st0" d="M21.8,120.8l21.8,13v-26.2l-21.8-13V120.8z"/>
	<path class="st1" d="M43.5,107.7v26.2l21.8-13V94.7L43.5,107.7z"/>
	<path class="st2" d="M21.8,94.7l21.8,13l21.8-13L43.5,81.5L21.8,94.7z"/>
	<path class="st0" d="M43.5,133.8l21.8,13v-26.2l-21.8-13C43.5,107.7,43.5,133.8,43.5,133.8z"/>
	<path class="st1" d="M65.2,120.8V147l21.8-13v-26.2L65.2,120.8z"/>
	<path class="st2" d="M43.5,107.7l21.8,13l21.7-13l-21.8-13L43.5,107.7z"/>
	<path class="st3" d="M65.2,147L87,160v-26.2l-21.7-13C65.2,120.8,65.2,147,65.2,147z"/>
	<path class="st1" d="M87,133.8V160l21.8-13v-26.2L87,133.8z"/>
	<path class="st2" d="M65.2,120.8l21.8,13l21.8-13l-21.8-13L65.2,120.8z"/>
	<path class="st3" d="M0,133.8l21.8,13v-26.2L0,107.7V133.8z"/>
	<path class="st1" d="M21.8,120.8V147l21.8-13v-26.2L21.8,120.8z"/>
	<path class="st2" d="M0,107.7l21.8,13l21.8-13l-21.8-13L0,107.7z"/>
	<path class="st3" d="M21.8,147l21.8,13v-26.2l-21.8-13V147z"/>
	<path class="st1" d="M43.5,133.8V160l21.8-13v-26.2L43.5,133.8z"/>
	<path class="st2" d="M21.8,120.8l21.8,13l21.8-13l-21.8-13L21.8,120.8z"/>
	<path class="st3" d="M43.5,160L0,133.8v-26.2l43.5,26.2V160z"/>
	<path class="st2" d="M130.5,83.3l-21.8-13L87,83.3l21.8,13L130.5,83.3z"/>
	<path class="st1" d="M130.5,83.3v50.5L87,160v-26.2l21.8-13V96.4L130.5,83.3z"/>
	<path class="st3" d="M108.8,120.8L65.2,94.7V84.2l21.8,13V83.3l21.8,13V120.8z"/>
	<path class="st2" d="M65.2,94.7V68.5L0,107.7l43.5,26.2H87l21.8-13L65.2,94.7z"/>
	<path class="st3" d="M43.5,115.9l21.8,12.8v25L43.5,141C43.5,141,43.5,115.9,43.5,115.9z"/>
	<path class="st3" d="M43.5,141l21.8,12.8v-25l-21.8-12.8V141z M87,115.9l-21.7,12.8v25L87,141V115.9z"/>
	<path class="st3" d="M65.2,128.8v25L87,141v-25L65.2,128.8z"/>
	<path class="st1" d="M65.2,128.8v25L87,141v-25L65.2,128.8z"/>
	<path class="st2" d="M43.5,115.9l21.8,12.8L87,115.9l-21.8-12.8L43.5,115.9z"/>
	<path class="st2" d="M43.5,115.9l21.8,12.8L87,115.9l-21.8-12.8L43.5,115.9z"/>
	<path class="st2" d="M43.5,115.9l21.8,12.8L87,115.9l-21.8-12.8L43.5,115.9z"/>
	<path class="st3" d="M0,69.1l21.8,12.8v25L0,94.1V69.1z"/>
	<path class="st3" d="M0,94.1l21.8,12.8v-25L0,69.1V94.1z M43.5,69.1L21.8,81.9v25l21.8-12.8V69.1z"/>
	<path class="st3" d="M21.8,81.9v25l21.8-12.8v-25L21.8,81.9z"/>
	<path class="st1" d="M21.8,81.9v25l21.8-12.8v-25L21.8,81.9z"/>
	<path class="st2" d="M0,69.1l21.8,12.8l21.8-12.8L21.8,56.2L0,69.1z"/>
	<path class="st2" d="M0,69.1l21.8,12.8l21.8-12.8L21.8,56.2L0,69.1z"/>
	<path class="st2" d="M0,69.1l21.8,12.8l21.8-12.8L21.8,56.2L0,69.1z"/>
	<path class="st3" d="M21.8,22.8l21.8,12.8v25L21.8,47.9V22.8z"/>
	<path class="st3" d="M21.8,47.9l21.8,12.8V35.8L21.8,22.8V47.9z M65.2,22.8L43.5,35.8v25L65.3,48C65.2,48,65.2,22.8,65.2,22.8z"/>
	<path class="st3" d="M43.5,35.8v25L65.3,48V22.8L43.5,35.8z"/>
	<path class="st1" d="M43.5,35.8v25L65.3,48V22.8L43.5,35.8z"/>
	<path class="st2" d="M21.8,22.8l21.8,12.8l21.8-12.8L43.5,10L21.8,22.8z"/>
	<path class="st2" d="M21.8,22.8l21.8,12.8l21.8-12.8L43.5,10L21.8,22.8z"/>
	<path class="st2" d="M21.8,22.8l21.8,12.8l21.8-12.8L43.5,10L21.8,22.8z"/>
	<path class="st3" d="M65.2,36L87,48.8v25L65.2,60.9V36z"/>
	<path class="st3" d="M65.2,60.9L87,73.8V48.8L65.2,36V60.9z M108.8,36L87,48.8v25l21.8-12.9V36z"/>
	<path class="st3" d="M87,48.8v25l21.8-12.9V36L87,48.8z"/>
	<path class="st1" d="M87,48.8v25l21.8-12.9V36L87,48.8z"/>
	<path class="st2" d="M65.2,36L87,48.8L108.8,36L87,23L65.2,36z"/>
	<path class="st2" d="M65.2,36L87,48.8L108.8,36L87,23L65.2,36z"/>
	<path class="st2" d="M65.2,36L87,48.8L108.8,36L87,23L65.2,36z"/>
</g>
</svg>
