<?xml version="1.0" encoding="utf-8"?>
<!-- Generator: Adobe Illustrator 22.1.0, SVG Export Plug-In . SVG Version: 6.00 Build 0)  -->
<svg version="1.0" id="Layer_1" xmlns="http://www.w3.org/2000/svg" xmlns:xlink="http://www.w3.org/1999/xlink" x="0px" y="0px"
	 viewBox="0 0 300 150" style="enable-background:new 0 0 300 150;" xml:space="preserve">
<g>
	<path d="M43.9,45.4c4.4,0,8.6,1.9,11.7,5v0c0-1.5,1-2.6,2.4-2.6l0.3,0c2.2,0,2.6,2,2.6,2.7l0,22.7c-0.2,1.5,1.6,2.3,2.5,1.3
		c3.7-3.7,8.1-19.3-2.3-28.3c-9.7-8.4-22.7-7-29.6-2.3c-7.3,5-12,16.1-7.5,26.5c5,11.4,19.2,14.8,27.7,11.4c4.3-1.7,6.3,4,1.8,5.9
		c-6.7,2.8-25.4,2.6-34.2-12.4c-5.9-10.1-5.6-27.9,10.1-37.2c12-7.1,27.8-5.1,37.3,4.7c10,10.3,9.4,29.6-0.3,37.1
		c-4.4,3.4-10.9,0.1-10.9-4.9l0-1.6c-3.1,3-7.1,4.8-11.6,4.8c-8.8,0-16.5-7.6-16.5-16.3C27.4,53.2,35.1,45.4,43.9,45.4L43.9,45.4z
		 M54.9,61.3c-0.3-6.4-5.1-10.2-10.9-10.2h-0.2c-6.6,0-10.3,5.2-10.3,11.1c0,6.6,4.5,10.7,10.3,10.7c6.5,0,10.8-4.7,11.1-10.3
		L54.9,61.3z M215.5,78.5c0,1.4-1.5,2.8-3.7,2.8c-2.2,0-3.5-1.6-3.5-3V76c0-1.4,1.4-3,3.6-3c2.4,0,3.6,1.6,3.6,3.1L215.5,78.5z
		 M239,44.5c-10,0-18.6,8.8-18.5,18.4v15c0,2,1.6,3.4,3.3,3.4c2,0,3.6-1.5,3.6-3.3V62.9c0-5.5,4.8-11.5,11.6-11.5
		c2.2,0,3.6-1.6,3.6-3.5C242.6,46.5,241.5,44.5,239,44.5L239,44.5L239,44.5z M280.7,44.5c-2.1,0-3.5,1.7-3.5,3.3V63
		c0,5.8-5,11.5-11.9,11.5c-5.6,0-11.6-4.8-11.6-11.4V48c0-1.6-1.2-3.4-3.6-3.4c-1.7,0-3.4,1.4-3.4,3.3V63c0,9.8,8.8,18.4,18.6,18.4
		c10.7,0,18.9-9.1,18.9-18.3V47.9C284.1,46.2,282.7,44.5,280.7,44.5L280.7,44.5z M232.7,94.2c-4.3,0-7.9,3.7-7.9,7.8v6.4
		c0,0.8,0.7,1.4,1.4,1.4c0.9,0,1.5-0.6,1.5-1.4V102c0-2.3,2-4.9,4.9-4.9c0.9,0,1.5-0.7,1.5-1.5C234.2,94.9,233.6,94.2,232.7,94.2
		C232.8,94.2,232.8,94.2,232.7,94.2z M265.6,94.2c-0.8,0-1.5,0.6-1.5,1.4v6.4c0,2.5-2.1,4.9-5,4.9c-2.4,0-4.9-2.1-4.9-4.9v-6.4
		c0-0.7-0.5-1.4-1.5-1.4c-0.7,0-1.4,0.6-1.4,1.4v6.4c0,4.1,3.8,7.8,7.9,7.8c4.5,0,8-3.9,8-7.8v-6.4
		C267.1,94.9,266.4,94.2,265.6,94.2L265.6,94.2z"/>
	<g>
		<path d="M276.3,94.2c-1.8,0-3.6,0.7-5,1.9v-0.5c0-0.7-0.6-1.3-1.5-1.3c-0.9,0-1.6,0.8-1.6,1.4l0,18.9c0,0.8,0.7,1.5,1.5,1.5
			c0.9,0,1.6-0.7,1.6-1.5l0-6.4c1.3,1.1,3.2,1.8,5,1.8c4.3,0,7.9-3.8,7.9-7.8C284.1,97.7,280.4,94.2,276.3,94.2L276.3,94.2z
			 M276.2,107c-2.5,0-4.6-1.8-4.9-4.3v-1.4c0.4-2.4,2.5-4.3,4.9-4.2c2.8,0,5,2.2,5,4.9C281.2,104.8,279,107,276.2,107z M222.1,94.2
			c-0.9,0-1.5,0.7-1.5,1.3v0.5c-1.4-1.2-3.2-1.8-5-1.9c-4.2,0-7.9,3.5-7.9,7.8c0,4,3.5,7.8,7.9,7.8c1.8,0,3.6-0.7,5-1.8
			c0,0,0,0.6,0.1,0.7c-0.2,1.8-1.6,3.5-3.8,4.2c-1.5,0.5-5.9-0.5-6.3-0.6c-1-0.2-1.6,0.7-1.5,1.5c0,0.6,0.5,1.1,1.5,1.4
			c1.3,0.4,3.6,0.7,5.6,0.7c1.5,0,7.3-1.1,7.5-7.5V95.7C223.7,95.1,223,94.2,222.1,94.2L222.1,94.2z M215.7,107c-2.8,0-5-2.2-5-4.9
			c0-2.7,2.2-4.9,5-4.9c2.7,0,5,2.2,5,4.9C220.7,104.8,218.4,107,215.7,107L215.7,107z M179.2,39.1c0,1.5-1.5,2.7-3.7,2.7
			c-2.2,0-3.5-1.5-3.5-2.9V37c0-1.4,1.3-3.1,3.5-3.1c2.4,0,3.7,1.5,3.7,3.1L179.2,39.1L179.2,39.1z M114.2,44.6
			c-4.4-0.1-7.8,2.5-9.9,4.2c-2.3-2.5-5.3-4-8.3-4.1c-3.2-0.2-6.2,0.9-8.1,2.4c-0.7-1.5-1.6-2.4-3.1-2.4c-1.7,0-3.4,1.4-3.4,3.7
			l0,29.7c0,1.7,1.5,3.4,3.6,3.4c2.3,0,3.6-1.7,3.6-3.4v-22c0-2.1,3.7-4.7,6.8-4.6c2,0,4.4,2,4.4,5.1l0,21.7c0,1.9,1.9,3.4,3.7,3.4
			c2.1,0,3.7-1.6,3.7-3.4V56.1c0-2.7,4.1-4.9,6.9-4.8c2.2,0.1,4.2,2.5,4.2,4.8V78c0,1.9,1.8,3.4,3.7,3.4c1.7,0,3.7-1.1,3.7-3.4V56.2
			C125.7,48.2,117.8,44.5,114.2,44.6L114.2,44.6z M175.5,44.5c-2.2,0-3.5,1.8-3.5,3.5l0,29.8c0,2,1.6,3.5,3.5,3.5
			c2.2,0,3.7-1.7,3.7-3.6l0-29.6C179.2,46.4,177.4,44.5,175.5,44.5L175.5,44.5z M163,44.6c-2,0-3.5,1.6-3.5,3.2v1.2
			c-3.2-2.7-7.3-4.4-11.8-4.4c-9.8,0-18.5,8.2-18.5,18.4c0,9.4,8.3,18.4,18.5,18.4c4.1,0,8.6-1.6,11.8-4.2l0,0.9
			c0,1.7,1.3,3.4,3.5,3.4c2.5,0,3.6-2,3.6-3.5V47.9C166.7,46.5,165.2,44.6,163,44.6L163,44.6z M147.9,74.6
			c-6.5,0-11.7-5.2-11.7-11.6c0-6.4,5.2-11.6,11.7-11.6c6.5,0,11.7,5.2,11.7,11.6C159.6,69.4,154.4,74.6,147.9,74.6z M200.2,74.2
			c-4.6,0-8.6-3.5-8.6-8.6l0-28.3c0-2-1.6-3.3-3.6-3.3c-2.3,0-3.6,1.7-3.6,3.3v28.4c0,8.8,7.3,15.7,15.7,15.7c2.5,0,3.7-2,3.7-3.7
			C203.8,76.1,202.5,74.2,200.2,74.2L200.2,74.2z M250.1,102c0-4-3.5-7.8-7.9-7.8c-0.1,0-0.1,0-0.1,0c-4.1,0-7.8,3.5-7.8,7.8
			c0,4,3.5,7.8,7.9,7.8c0,0,0.1,0,0.1,0C246.4,109.8,250.1,106.4,250.1,102L250.1,102z M242.2,107c-2.7,0-4.9-2.2-5-4.9V102
			c0-2.7,2.3-4.9,5-4.9c2.7,0,4.9,2.2,5,4.9v0.1C247.1,104.8,244.9,107,242.2,107L242.2,107z"/>
	</g>
</g>
</svg>
