<?xml version="1.0" encoding="utf-8"?>
<!-- Generator: Adobe Illustrator 22.1.0, SVG Export Plug-In . SVG Version: 6.00 Build 0)  -->
<svg version="1.0" id="Layer_1" xmlns="http://www.w3.org/2000/svg" xmlns:xlink="http://www.w3.org/1999/xlink" x="0px" y="0px"
	 viewBox="0 0 24 40" style="enable-background:new 0 0 24 40;" xml:space="preserve">
<path d="M0.8,16.6c0.9-1.5,2.4-2.5,4.1-2.5H5c0.7,0,1.4,0.3,2,0.5C7.4,14.8,7.8,15,8.1,15c0.3,0,0.6-0.2,1.1-0.3
	c0.6-0.3,1.4-0.6,2.3-0.6c0.1,0,0.2,0,0.3,0c0.7,0,2.5,0.3,3.6,2c0,0.1,0,0.2,0,0.2l0,0l0,0c-0.3,0.2-2,1.4-2,3.5
	c0,2.7,2.2,3.6,2.5,3.7l0,0c0.1,0,0.1,0.1,0.1,0.2l0,0c-0.1,0.4-0.5,1.6-1.3,2.8c-0.8,1.1-1.6,2.4-3.1,2.4c-0.7,0-1.1-0.2-1.6-0.4
	c-0.4-0.2-0.9-0.4-1.6-0.4c-0.8,0-1.2,0.2-1.7,0.4C6.3,28.8,5.8,29,5.2,29c0,0,0,0-0.1,0c-1.3,0-2.2-1.2-3.1-2.5
	C0.2,23.9-0.8,19.5,0.8,16.6z M11.4,9c0.1,0,0.2,0.1,0.2,0.1c0.1,1.1-0.3,2.3-1,3.2s-1.8,1.4-2.8,1.4c-0.1,0-0.1,0-0.2,0
	c-0.1,0-0.1-0.1-0.1-0.1c-0.2-1.2,0.4-2.4,1.1-3.1C9.1,9.7,10.3,9,11.4,9L11.4,9z"/>
</svg>
