<?xml version="1.0" encoding="utf-8"?>
<!-- Generator: Adobe Illustrator 22.1.0, SVG Export Plug-In . SVG Version: 6.00 Build 0)  -->
<svg version="1.1" id="Layer_1" xmlns="http://www.w3.org/2000/svg" xmlns:xlink="http://www.w3.org/1999/xlink" x="0px" y="0px"
	 viewBox="0 0 1000 1000" style="enable-background:new 0 0 1000 1000;" xml:space="preserve">
<style type="text/css">
	.st0{fill:url(#SVGID_1_);}
	.st1{fill:url(#SVGID_2_);}
	.st2{fill:url(#SVGID_3_);}
	.st3{fill:url(#SVGID_4_);}
	.st4{fill:url(#SVGID_5_);}
	.st5{fill:url(#SVGID_6_);}
	.st6{fill:url(#SVGID_7_);}
	.st7{fill:url(#SVGID_8_);}
	.st8{fill:url(#j_2_);}
	.st9{fill:url(#j_3_);}
	.st10{fill:url(#SVGID_9_);}
	.st11{fill:url(#SVGID_10_);}
	.st12{fill:url(#SVGID_11_);}
	.st13{fill:url(#SVGID_12_);}
	.st14{fill:url(#SVGID_13_);}
	.st15{fill:url(#SVGID_14_);}
	.st16{fill:url(#SVGID_15_);}
	.st17{fill:url(#SVGID_16_);}
	.st18{fill:url(#SVGID_17_);}
	.st19{fill:url(#SVGID_18_);}
	.st20{fill:url(#SVGID_19_);}
	.st21{fill:url(#v_2_);}
	.st22{fill:url(#v_3_);}
	.st23{fill:url(#SVGID_20_);}
	.st24{fill:url(#SVGID_21_);}
	.st25{fill:url(#SVGID_22_);}
	.st26{fill:url(#SVGID_23_);}
	.st27{fill:url(#SVGID_24_);}
	.st28{fill:url(#SVGID_25_);}
	.st29{fill:url(#SVGID_26_);}
	.st30{fill:url(#SVGID_27_);}
	.st31{fill:url(#SVGID_28_);}
	.st32{fill:url(#SVGID_29_);}
	.st33{fill:url(#SVGID_30_);}
	.st34{fill:url(#SVGID_31_);}
	.st35{fill:url(#SVGID_32_);}
	.st36{fill:url(#SVGID_33_);}
	.st37{fill:url(#SVGID_34_);}
	.st38{fill:url(#SVGID_35_);}
	.st39{fill:url(#SVGID_36_);}
	.st40{fill:#323232;}
	.st41{fill:url(#SVGID_37_);}
	.st42{fill:url(#SVGID_38_);}
	.st43{fill:#444547;}
	.st44{fill:#181C1B;}
	.st45{fill:#313334;}
	.st46{fill:#BAB9BB;}
	.st47{fill:url(#SVGID_39_);}
	.st48{fill:url(#SVGID_40_);}
	.st49{fill:url(#SVGID_41_);}
	.st50{fill:#6D6E70;}
	.st51{fill:url(#SVGID_42_);}
	.st52{fill:url(#SVGID_43_);}
	.st53{fill:url(#SVGID_44_);}
	.st54{fill:url(#SVGID_45_);}
	.st55{fill:url(#SVGID_46_);}
	.st56{fill:#FFFFFF;}
	.st57{fill:url(#SVGID_47_);}
	.st58{fill:url(#SVGID_48_);}
</style>
<g>
	
		<linearGradient id="SVGID_1_" gradientUnits="userSpaceOnUse" x1="350.5285" y1="600.4164" x2="350.5285" y2="599.2909" gradientTransform="matrix(250.761 0 0 -723.1439 -87178.6641 434303.1562)">
		<stop  offset="0" style="stop-color:#FCFCFC"/>
		<stop  offset="1" style="stop-color:#E4E9F5"/>
	</linearGradient>
	<path class="st0" d="M602.6,789.3v-28.1l-23.5-14V129.7l23.5,14v-28.1L837.8,256v28.1l23.5,14v617.4l-23.5-14v28.1L602.6,789.3z"/>
	
		<linearGradient id="SVGID_2_" gradientUnits="userSpaceOnUse" x1="351.0471" y1="611.3843" x2="351.0471" y2="610.2589" gradientTransform="matrix(41.794 0 0 -24.936 -13810.3457 15515.5518)">
		<stop  offset="0" style="stop-color:#A0AEDD"/>
		<stop  offset="1" style="stop-color:#CCD7F5"/>
	</linearGradient>
	<path class="st1" d="M837.8,284.1l23.5-14l23.5,14l-23.5,14L837.8,284.1z"/>
	
		<linearGradient id="SVGID_3_" gradientUnits="userSpaceOnUse" x1="351.7498" y1="606.7465" x2="351.4283" y2="607.2827" gradientTransform="matrix(20.897 0 0 -37.404 -6496.3999 22971.418)">
		<stop  offset="0" style="stop-color:#D5DDF4"/>
		<stop  offset="1" style="stop-color:#A2B0D9"/>
	</linearGradient>
	<path class="st2" d="M837.8,256l23.5-14v28.1l-23.5,14V256z"/>
	
		<linearGradient id="SVGID_4_" gradientUnits="userSpaceOnUse" x1="350.1516" y1="612.0743" x2="350.1516" y2="610.9489" gradientTransform="matrix(20.897 0 0 -24.936 -6726.2627 15378.4004)">
		<stop  offset="0" style="stop-color:#A0AEDD"/>
		<stop  offset="1" style="stop-color:#CCD7F5"/>
	</linearGradient>
	<path class="st3" d="M579.1,129.7l23.5-14v28.1L579.1,129.7z"/>
	
		<linearGradient id="SVGID_5_" gradientUnits="userSpaceOnUse" x1="350.5367" y1="602.2067" x2="350.5367" y2="601.0813" gradientTransform="matrix(229.863 0 0 -137.148 -79843.4609 82693.1328)">
		<stop  offset="0" style="stop-color:#A0AEDD"/>
		<stop  offset="1" style="stop-color:#CCD7F5"/>
	</linearGradient>
	<path class="st4" d="M602.6,115.7l23.5-14L861.3,242l-23.5,14L602.6,115.7z"/>
	
		<linearGradient id="SVGID_6_" gradientUnits="userSpaceOnUse" x1="351.658" y1="599.5574" x2="351.6566" y2="600.0937" gradientTransform="matrix(20.897 0 0 -561.06 -6475.5029 337202.4062)">
		<stop  offset="0" style="stop-color:#D5DDF4"/>
		<stop  offset="1" style="stop-color:#A2B0D9"/>
	</linearGradient>
	<path class="st5" d="M861.3,298.1l23.5-14v617.4l-23.5,14L861.3,298.1z"/>
	
		<linearGradient id="SVGID_7_" gradientUnits="userSpaceOnUse" x1="351.8509" y1="607.4808" x2="351.1275" y2="608.017" gradientTransform="matrix(20.897 0 0 -24.936 -6496.3999 16076.5938)">
		<stop  offset="0" style="stop-color:#D5DDF4"/>
		<stop  offset="1" style="stop-color:#A2B0D9"/>
	</linearGradient>
	<path class="st6" d="M837.8,929.6v-28.1l23.5,14L837.8,929.6z"/>
	
		<linearGradient id="SVGID_8_" gradientUnits="userSpaceOnUse" x1="350.6235" y1="599.5756" x2="350.4974" y2="600.1118" gradientTransform="matrix(198.937 0 0 -568.54 -69016.8594 341595.2188)">
		<stop  offset="0" style="stop-color:#D5DDF4"/>
		<stop  offset="1" style="stop-color:#A2B0D9"/>
	</linearGradient>
	<path class="st7" d="M605.4,177l223.9,133.2v506.7L605.4,683.6V177z"/>
	<g transform="translate(327.125 579.94)">
		<g>
			
				<linearGradient id="j_2_" gradientUnits="userSpaceOnUse" x1="23.5032" y1="23.6757" x2="23.5032" y2="22.5503" gradientTransform="matrix(40.122 0 0 -63.588 -567.7907 1679.7312)">
				<stop  offset="0" style="stop-color:#FCFCFC"/>
				<stop  offset="1" style="stop-color:#E4E9F5"/>
			</linearGradient>
			<path id="j" class="st8" d="M352.6,214.5v-35.8l7.5,4.5v-8.9l30.1,17.9v8.9l7.5,4.5v35.8l-7.5-4.5v8.9l-30.1-17.9V219
				L352.6,214.5z"/>
		</g>
		<g>
			
				<linearGradient id="j_3_" gradientUnits="userSpaceOnUse" x1="23.7363" y1="23.2297" x2="23.2882" y2="23.0053" gradientTransform="matrix(40.122 0 0 -63.588 -567.7907 1679.7312)">
				<stop  offset="0" style="stop-color:#FFFFFF;stop-opacity:0.5"/>
				<stop  offset="1" style="stop-color:#C8D1ED"/>
			</linearGradient>
			<path id="j_1_" class="st9" d="M352.6,214.5v-35.8l7.5,4.5v-8.9l30.1,17.9v8.9l7.5,4.5v35.8l-7.5-4.5v8.9l-30.1-17.9V219
				L352.6,214.5z"/>
		</g>
	</g>
	
		<linearGradient id="SVGID_9_" gradientUnits="userSpaceOnUse" x1="350.9558" y1="629.118" x2="350.9558" y2="627.9926" gradientTransform="matrix(6.687 0 0 -7.896 -1663.325 5721.6958)">
		<stop  offset="0" style="stop-color:#A0AEDD"/>
		<stop  offset="1" style="stop-color:#CCD7F5"/>
	</linearGradient>
	<path class="st10" d="M679.8,758.6l7.5-4.4v8.9L679.8,758.6z"/>
	
		<linearGradient id="SVGID_10_" gradientUnits="userSpaceOnUse" x1="350.6664" y1="611.5513" x2="350.6664" y2="610.4259" gradientTransform="matrix(33.435 0 0 -19.949 -11018.4375 12949.3398)">
		<stop  offset="0" style="stop-color:#A0AEDD"/>
		<stop  offset="1" style="stop-color:#CCD7F5"/>
	</linearGradient>
	<path class="st11" d="M687.3,754l7.5-4.5l30.1,18l-7.5,4.5L687.3,754z"/>
	
		<linearGradient id="SVGID_11_" gradientUnits="userSpaceOnUse" x1="351.7985" y1="618.0288" x2="351.4814" y2="618.5651" gradientTransform="matrix(6.687 0 0 -12.052 -1629.8901 8226.9326)">
		<stop  offset="0" style="stop-color:#D5DDF4"/>
		<stop  offset="1" style="stop-color:#A2B0D9"/>
	</linearGradient>
	<path class="st12" d="M717.4,771.8v9l7.5-4.5v-9L717.4,771.8z"/>
	
		<linearGradient id="SVGID_12_" gradientUnits="userSpaceOnUse" x1="351.0729" y1="628.8011" x2="351.0729" y2="627.6757" gradientTransform="matrix(13.374 0 0 -7.896 -3970.3401 5741.645)">
		<stop  offset="0" style="stop-color:#A0AEDD"/>
		<stop  offset="1" style="stop-color:#CCD7F5"/>
	</linearGradient>
	<path class="st13" d="M717.4,781.1l7.5,4.4l7.5-4.4l-7.5-4.4L717.4,781.1z"/>
	
		<linearGradient id="SVGID_13_" gradientUnits="userSpaceOnUse" x1="351.7343" y1="605.4044" x2="351.6982" y2="605.9407" gradientTransform="matrix(6.687 0 0 -35.74 -1623.2031 22451.7871)">
		<stop  offset="0" style="stop-color:#D5DDF4"/>
		<stop  offset="1" style="stop-color:#A2B0D9"/>
	</linearGradient>
	<path class="st14" d="M724.9,785.3l7.5-4.5v35.8l-7.5,4.5V785.3z"/>
	
		<linearGradient id="SVGID_14_" gradientUnits="userSpaceOnUse" x1="351.9119" y1="627.1468" x2="351.1732" y2="627.6831" gradientTransform="matrix(6.687 0 0 -7.897 -1629.8901 5777.9858)">
		<stop  offset="0" style="stop-color:#D5DDF4"/>
		<stop  offset="1" style="stop-color:#A2B0D9"/>
	</linearGradient>
	<path class="st15" d="M717.4,825.7v-8.9l7.5,4.4L717.4,825.7z"/>
	
		<linearGradient id="SVGID_15_" gradientUnits="userSpaceOnUse" x1="351.4992" y1="604.8629" x2="350.7758" y2="605.3991" gradientTransform="matrix(41.794 0 0 -49.872 -13811.4385 30450.043)">
		<stop  offset="0" style="stop-color:#D5DDF4"/>
		<stop  offset="1" style="stop-color:#A2B0D9"/>
	</linearGradient>
	<path class="st16" d="M836.6,253.6l23.5,42.1l23.5-14c0-9.4-2.2-17.4-6.5-24c-4.3-6.6-10-12.7-17.1-18.1L836.6,253.6L836.6,253.6z"
		/>
	
		<linearGradient id="SVGID_16_" gradientUnits="userSpaceOnUse" x1="350.53" y1="602.176" x2="350.53" y2="601.0505" gradientTransform="matrix(246.549 0 0 -139.2859 -85700.3594 83972.4062)">
		<stop  offset="0" style="stop-color:#A0AEDD"/>
		<stop  offset="1" style="stop-color:#CCD7F5"/>
	</linearGradient>
	<path class="st17" d="M583.7,114.4l28.3-15c4.2-2.2,9.2-2.1,13.3,0.3l235.9,140.8l-23.5,14L583.7,114.4z"/>
	
		<linearGradient id="SVGID_17_" gradientUnits="userSpaceOnUse" x1="351.2782" y1="599.5463" x2="351.2753" y2="600.0826" gradientTransform="matrix(30.222 0 0 -574.254 -9749.6641 345116.6562)">
		<stop  offset="0" style="stop-color:#D5DDF4"/>
		<stop  offset="1" style="stop-color:#A2B0D9"/>
	</linearGradient>
	<path class="st18" d="M860.1,295.7l23.5-14v621.5c0,5.2-3,9.9-7.7,12.2L849.6,928L860.1,295.7L860.1,295.7z"/>
	
		<linearGradient id="SVGID_18_" gradientUnits="userSpaceOnUse" x1="350.5279" y1="600.4149" x2="350.5279" y2="599.2895" gradientTransform="matrix(250.761 0 0 -726.9041 -87179.75 436555.125)">
		<stop  offset="0" style="stop-color:#FCFCFC"/>
		<stop  offset="1" style="stop-color:#E4E9F5"/>
	</linearGradient>
	<path class="st19" d="M601.4,786.8l-0.9-0.6c-14.1-9.1-22.6-24.7-22.6-41.5V126.6c0-8.6,7-15.6,15.6-15.6c2.8,0,5.6,0.8,8,2.2
		l235.2,140.3l0.2,0.1c14.5,9,23.3,24.9,23.3,42v617.7c0,8.7-7.1,15.8-15.8,15.8c-2.7,0-5.4-0.7-7.7-2L601.4,786.8z"/>
	
		<linearGradient id="SVGID_19_" gradientUnits="userSpaceOnUse" x1="350.6228" y1="599.576" x2="350.4967" y2="600.1123" gradientTransform="matrix(198.938 0 0 -568.542 -69018.3047 341594.2812)">
		<stop  offset="0" style="stop-color:#D5DDF4"/>
		<stop  offset="1" style="stop-color:#A2B0D9"/>
	</linearGradient>
	<path class="st20" d="M604.2,174.6l223.9,133.2v506.7L604.2,681.2V174.6z"/>
	<g transform="translate(326.039 577.772)">
		<g>
			
				<linearGradient id="v_2_" gradientUnits="userSpaceOnUse" x1="24.5858" y1="25.848" x2="24.5858" y2="24.7226" gradientTransform="matrix(40.122 0 0 -63.588 -611.3632 1817.5919)">
				<stop  offset="0" style="stop-color:#FCFCFC"/>
				<stop  offset="1" style="stop-color:#E4E9F5"/>
			</linearGradient>
			<path id="v" class="st21" d="M352.5,214.2v-35.8l7.5,4.5V174l30.1,17.9v8.9l7.5,4.5v35.8l-7.5-4.5v8.9L360,227.6v-8.9
				L352.5,214.2z"/>
		</g>
		<g>
			
				<linearGradient id="v_3_" gradientUnits="userSpaceOnUse" x1="24.8189" y1="25.402" x2="24.3708" y2="25.1776" gradientTransform="matrix(40.122 0 0 -63.588 -611.3632 1817.5919)">
				<stop  offset="0" style="stop-color:#FFFFFF;stop-opacity:0.5"/>
				<stop  offset="1" style="stop-color:#C8D1ED"/>
			</linearGradient>
			<path id="v_1_" class="st22" d="M352.5,214.2v-35.8l7.5,4.5V174l30.1,17.9v8.9l7.5,4.5v35.8l-7.5-4.5v8.9L360,227.6v-8.9
				L352.5,214.2z"/>
		</g>
	</g>
	
		<linearGradient id="SVGID_20_" gradientUnits="userSpaceOnUse" x1="350.9354" y1="629.1525" x2="350.9354" y2="628.027" gradientTransform="matrix(6.687 0 0 -7.896 -1664.4109 5719.5278)">
		<stop  offset="0" style="stop-color:#A0AEDD"/>
		<stop  offset="1" style="stop-color:#CCD7F5"/>
	</linearGradient>
	<path class="st23" d="M678.5,756.2l7.5-4.4v8.9L678.5,756.2z"/>
	
		<linearGradient id="SVGID_21_" gradientUnits="userSpaceOnUse" x1="350.6624" y1="611.5649" x2="350.6624" y2="610.4395" gradientTransform="matrix(33.435 0 0 -19.949 -11019.5234 12947.1719)">
		<stop  offset="0" style="stop-color:#A0AEDD"/>
		<stop  offset="1" style="stop-color:#CCD7F5"/>
	</linearGradient>
	<path class="st24" d="M686.1,751.6l7.5-4.5l30.1,18l-7.5,4.5L686.1,751.6z"/>
	
		<linearGradient id="SVGID_22_" gradientUnits="userSpaceOnUse" x1="351.7781" y1="618.0513" x2="351.4611" y2="618.5876" gradientTransform="matrix(6.687 0 0 -12.052 -1630.9761 8224.7646)">
		<stop  offset="0" style="stop-color:#D5DDF4"/>
		<stop  offset="1" style="stop-color:#A2B0D9"/>
	</linearGradient>
	<path class="st25" d="M716.2,769.4v9l7.5-4.5v-9L716.2,769.4z"/>
	
		<linearGradient id="SVGID_23_" gradientUnits="userSpaceOnUse" x1="351.0627" y1="628.8356" x2="351.0627" y2="627.7101" gradientTransform="matrix(13.374 0 0 -7.896 -3971.4263 5739.4771)">
		<stop  offset="0" style="stop-color:#A0AEDD"/>
		<stop  offset="1" style="stop-color:#CCD7F5"/>
	</linearGradient>
	<path class="st26" d="M716.2,778.6l7.5,4.4l7.5-4.4l-7.5-4.4L716.2,778.6z"/>
	
		<linearGradient id="SVGID_24_" gradientUnits="userSpaceOnUse" x1="351.7139" y1="605.412" x2="351.6778" y2="605.9483" gradientTransform="matrix(6.687 0 0 -35.74 -1624.2891 22449.6191)">
		<stop  offset="0" style="stop-color:#D5DDF4"/>
		<stop  offset="1" style="stop-color:#A2B0D9"/>
	</linearGradient>
	<path class="st27" d="M723.7,782.9l7.5-4.5v35.8l-7.5,4.5V782.9z"/>
	
		<linearGradient id="SVGID_25_" gradientUnits="userSpaceOnUse" x1="351.8915" y1="627.1813" x2="351.1529" y2="627.7175" gradientTransform="matrix(6.687 0 0 -7.897 -1630.9761 5775.8174)">
		<stop  offset="0" style="stop-color:#D5DDF4"/>
		<stop  offset="1" style="stop-color:#A2B0D9"/>
	</linearGradient>
	<path class="st28" d="M716.2,823.3v-8.9l7.5,4.4L716.2,823.3z"/>
	
		<linearGradient id="SVGID_26_" gradientUnits="userSpaceOnUse" x1="350.5388" y1="600.6044" x2="350.5388" y2="599.479" gradientTransform="matrix(166.893 0 0 -476.422 -57788.1992 286374.4688)">
		<stop  offset="0" style="stop-color:#FCFCFC"/>
		<stop  offset="1" style="stop-color:#E4E9F5"/>
	</linearGradient>
	<path class="st29" d="M620.4,233.3L808.2,348v421.5L620.4,654.8V233.3z"/>
	
		<linearGradient id="SVGID_27_" gradientUnits="userSpaceOnUse" x1="352.4604" y1="603.0293" x2="352.4675" y2="602.6438" gradientTransform="matrix(6.687 0 0 -84.098 -1582.7238 51141.043)">
		<stop  offset="0" style="stop-color:#FFDB02"/>
		<stop  offset="1" style="stop-color:#FCC71D"/>
	</linearGradient>
	<path class="st30" d="M770.5,418.9l7.5-4.5v90.2l-7.5,4.5V418.9z"/>
	
		<linearGradient id="SVGID_28_" gradientUnits="userSpaceOnUse" x1="352.2604" y1="612.3068" x2="352.328" y2="611.7813" gradientTransform="matrix(6.687 0 0 -20.418 -1592.3308 13007.5547)">
		<stop  offset="0" style="stop-color:#FFDB02"/>
		<stop  offset="1" style="stop-color:#FCC71D"/>
	</linearGradient>
	<path class="st31" d="M759.7,502.5l7.5-4.2v18.8l-7.5,4.2V502.5z"/>
	
		<linearGradient id="SVGID_29_" gradientUnits="userSpaceOnUse" x1="352.0897" y1="617.3649" x2="352.3033" y2="616.9794" gradientTransform="matrix(6.687 0 0 -15.35 -1592.3308 9876.9482)">
		<stop  offset="0" style="stop-color:#FFDB02"/>
		<stop  offset="1" style="stop-color:#FCC71D"/>
	</linearGradient>
	<path class="st32" d="M759.7,401.7l7.5-4.5V410l-7.5,4.5V401.7z"/>
	
		<linearGradient id="SVGID_30_" gradientUnits="userSpaceOnUse" x1="352.1031" y1="611.2814" x2="352.0635" y2="610.8349" gradientTransform="matrix(6.688 0 0 -21.684 -1602.2913 13771.9053)">
		<stop  offset="0" style="stop-color:#FFDB02"/>
		<stop  offset="1" style="stop-color:#FCC71D"/>
	</linearGradient>
	<path class="st33" d="M748.8,508.1l7.5-4.5v19.9l-7.5,4.5L748.8,508.1z"/>
	<g transform="translate(302.867 212.572)">
		
			<linearGradient id="SVGID_31_" gradientUnits="userSpaceOnUse" x1="47.4803" y1="389.0081" x2="47.9242" y2="387.9326" gradientTransform="matrix(104.476 0 0 -170.538 -4573.8853 66471.1953)">
			<stop  offset="0" style="stop-color:#FFEF91"/>
			<stop  offset="1" style="stop-color:#FCC71D"/>
		</linearGradient>
		<path class="st34" d="M359.5,145.1v-16.2l10.8,6.6v-12l75.7,46.3v11.6l10.8,6.6v12.3l10.8,6.1v90.1l-10.8-6.1v18.3l-10.8-6.6v13.3
			l-75.7-46.3v-12.9l-10.8-6.6v-14.4l-9.5-5.4v-90.1L359.5,145.1L359.5,145.1z"/>
	</g>
	
		<linearGradient id="SVGID_32_" gradientUnits="userSpaceOnUse" x1="351.0523" y1="605.6472" x2="350.2637" y2="605.4279" gradientTransform="matrix(74.265 0 0 -45.557 -25321.4902 27942.7852)">
		<stop  offset="0" style="stop-color:#FFF3AA"/>
		<stop  offset="1" style="stop-color:#FFE964"/>
	</linearGradient>
	<path class="st35" d="M673.2,336l7.5-4.5l76.1,46.8l-7.5,4.5L673.2,336z"/>
	
		<linearGradient id="SVGID_33_" gradientUnits="userSpaceOnUse" x1="351.1655" y1="625.6122" x2="350.5236" y2="625.0295" gradientTransform="matrix(9.607 0 0 -10.65 -2700.7959 7002.5684)">
		<stop  offset="0" style="stop-color:#FFF3AA"/>
		<stop  offset="1" style="stop-color:#FFE964"/>
	</linearGradient>
	<path class="st36" d="M662.3,341.8l10.8-5.8v12L662.3,341.8z"/>
	
		<linearGradient id="SVGID_34_" gradientUnits="userSpaceOnUse" x1="351.0952" y1="631.1398" x2="350.3647" y2="630.5572" gradientTransform="matrix(8.406 0 0 -8.734 -2288.8503 5863.6172)">
		<stop  offset="0" style="stop-color:#FFF3AA"/>
		<stop  offset="1" style="stop-color:#FFE964"/>
	</linearGradient>
	<path class="st37" d="M652.9,352.7l9.5-4.6v9.8L652.9,352.7z"/>
	
		<linearGradient id="SVGID_35_" gradientUnits="userSpaceOnUse" x1="351.4251" y1="610.0102" x2="350.6365" y2="609.805" gradientTransform="matrix(25.902 0 0 -25.872 -8327.1875 16184.4287)">
		<stop  offset="0" style="stop-color:#FFF3AA"/>
		<stop  offset="1" style="stop-color:#FFE964"/>
	</linearGradient>
	<path class="st38" d="M748.8,395.2l10.8,6.4l7.5-4.4l-10.8-6.4L748.8,395.2z M759.7,413.5l10.8,6.4l7.5-5.5l-10.8-5.4L759.7,413.5z
		"/>
	
		<linearGradient id="SVGID_36_" gradientUnits="userSpaceOnUse" x1="351.9157" y1="617.1401" x2="352.1205" y2="616.7546" gradientTransform="matrix(6.688 0 0 -15.676 -1602.2913 10055.3779)">
		<stop  offset="0" style="stop-color:#FFDB02"/>
		<stop  offset="1" style="stop-color:#FCC71D"/>
	</linearGradient>
	<path class="st39" d="M748.8,382.4l7.5-4.5v12.9l-7.5,4.8L748.8,382.4z"/>
	<path class="st40" d="M679.9,409l15.3,47.5l16.4,10.6l32.7-44.1l-12.8-8.2l-26,34.3l-7.1-28.6L679.9,409z"/>
	
		<linearGradient id="SVGID_37_" gradientUnits="userSpaceOnUse" x1="351.1588" y1="601.8042" x2="350.1288" y2="602.1479" gradientTransform="matrix(123.95 0 0 -99.237 -42741.2578 60325.3086)">
		<stop  offset="0" style="stop-color:#D5DDF4"/>
		<stop  offset="1" style="stop-color:#A2B0D9"/>
	</linearGradient>
	<path class="st41" d="M639.4,528l139.5,88.9v22.8l-139.5-88.8V528z"/>
	
		<linearGradient id="SVGID_38_" gradientUnits="userSpaceOnUse" x1="351.1871" y1="602.6515" x2="350.157" y2="603.0863" gradientTransform="matrix(79.56 0 0 -71.641 -27185.9668 43816.832)">
		<stop  offset="0" style="stop-color:#D5DDF4"/>
		<stop  offset="1" style="stop-color:#A2B0D9"/>
	</linearGradient>
	<path class="st42" d="M660.5,583.3l89.5,57.8v22.8l-89.5-57.8V583.3z"/>
	<g>
		<g>
			<path class="st43" d="M428,923.6l-76.7-46.3v-44.5l76.7,46.3V923.6z"/>
			<path class="st44" d="M428,923.6l76.7-46.3v-44.5L428,879.2V923.6z"/>
			<path class="st45" d="M504.8,832.9L428,879.1l-76.7-46.2l76.7-46.3L504.8,832.9z"/>
		</g>
		<g>
			<path class="st43" d="M428.7,903.3l-89.8-54.2V797l89.8,54.2V903.3z"/>
			<path class="st44" d="M428.7,903.3l89.8-54.2V797l-89.8,54.2V903.3z"/>
			<path class="st45" d="M518.6,797l-89.8,54.2L338.9,797l89.8-54.2L518.6,797z"/>
		</g>
		<g>
			<path class="st43" d="M428.7,873.6l-101.4-60.9v-58.5l101.4,60.9V873.6z"/>
			<path class="st44" d="M428.7,873.6l101.4-60.9v-58.5l-101.4,60.9V873.6z"/>
			<path class="st46" d="M530.1,754.2L428.7,815l-101.4-60.8l101.4-11.7L530.1,754.2z"/>
		</g>
		<g>
			<path class="st43" d="M428.7,814.9L327.3,754v-77.2l101.4,60.9V814.9z"/>
			<path class="st44" d="M428.7,814.9L530.1,754v-77.2l-101.4,60.9V814.9z"/>
			<path class="st46" d="M530.1,676.9l-101.4,60.8l-101.4-60.8L428.7,616L530.1,676.9z"/>
		</g>
		
			<linearGradient id="SVGID_39_" gradientUnits="userSpaceOnUse" x1="350.1881" y1="602.8332" x2="350.1881" y2="601.7078" gradientTransform="matrix(102.469 0 0 -84.657 -35513.9805 51699.0938)">
			<stop  offset="0" style="stop-color:#A0AEDD"/>
			<stop  offset="1" style="stop-color:#CCD7F5"/>
		</linearGradient>
		<path class="st47" d="M427.1,760.3l-115.3-69.2V665l115.3,69.2V760.3z"/>
		
			<linearGradient id="SVGID_40_" gradientUnits="userSpaceOnUse" x1="350.9329" y1="601.9747" x2="349.9028" y2="602.3431" gradientTransform="matrix(105.106 0 0 -87.12 -36334.4609 53174.4375)">
			<stop  offset="0" style="stop-color:#D5DDF4"/>
			<stop  offset="1" style="stop-color:#A2B0D9"/>
		</linearGradient>
		<path class="st48" d="M427.1,760.3l118.3-72v-26.1l-118.3,72V760.3z"/>
		
			<linearGradient id="SVGID_41_" gradientUnits="userSpaceOnUse" x1="350.3778" y1="601.9777" x2="350.3778" y2="600.8522" gradientTransform="matrix(207.575 0 0 -125.332 -72301.0781 76040.2031)">
			<stop  offset="0" style="stop-color:#FCFCFC"/>
			<stop  offset="1" style="stop-color:#E4E9F5"/>
		</linearGradient>
		<path class="st49" d="M545.4,662.3l-118.3,71.9L311.8,665l118.3-71.9L545.4,662.3z"/>
		<path class="st50" d="M478.2,675l-21.6,13.1l3,2.2l18.6-11.2V675z"/>
		
			<linearGradient id="SVGID_42_" gradientUnits="userSpaceOnUse" x1="350.0969" y1="603.8915" x2="350.0969" y2="602.7661" gradientTransform="matrix(75.335 0 0 -62.15 -25990.8066 38178.8867)">
			<stop  offset="0" style="stop-color:#A0AEDD"/>
			<stop  offset="1" style="stop-color:#CCD7F5"/>
		</linearGradient>
		<path class="st51" d="M426.1,717l-84.8-50.8V647l84.8,50.8V717z"/>
		
			<linearGradient id="SVGID_43_" gradientUnits="userSpaceOnUse" x1="350.8439" y1="603.0056" x2="349.8139" y2="603.3725" gradientTransform="matrix(77.294 0 0 -63.931 -26601.1211 39245.707)">
			<stop  offset="0" style="stop-color:#D5DDF4"/>
			<stop  offset="1" style="stop-color:#A2B0D9"/>
		</linearGradient>
		<path class="st52" d="M426.1,717l87-52.8V645l-87,52.8V717z"/>
		
			<linearGradient id="SVGID_44_" gradientUnits="userSpaceOnUse" x1="350.3328" y1="602.6924" x2="350.3328" y2="601.567" gradientTransform="matrix(152.629 0 0 -92.015 -53043.707 56050.9688)">
			<stop  offset="0" style="stop-color:#FCFCFC"/>
			<stop  offset="1" style="stop-color:#E4E9F5"/>
		</linearGradient>
		<path class="st53" d="M513.1,645l-87,52.8L341.4,647l87-52.8L513.1,645z"/>
		<g>
			
				<linearGradient id="SVGID_45_" gradientUnits="userSpaceOnUse" x1="348.0675" y1="635.7392" x2="348.0675" y2="634.6138" gradientTransform="matrix(8.543 0 0 -6.752 -2503.7935 4944.4658)">
				<stop  offset="0" style="stop-color:#A0AEDD"/>
				<stop  offset="1" style="stop-color:#CCD7F5"/>
			</linearGradient>
			<path class="st54" d="M464.9,652l9.6,5.6l-3.3,2l-6.4-3.7L464.9,652z"/>
			
				<linearGradient id="SVGID_46_" gradientUnits="userSpaceOnUse" x1="349.8925" y1="617.9206" x2="348.8625" y2="618.1854" gradientTransform="matrix(18.445 0 0 -12.96 -5987.938 8669.2656)">
				<stop  offset="0" style="stop-color:#D5DDF4"/>
				<stop  offset="1" style="stop-color:#A2B0D9"/>
			</linearGradient>
			<path class="st55" d="M464.9,652l-20.8,12.5l3,2.1l17.8-10.7V652z"/>
			<path class="st56" d="M447.1,666.5l17.8-10.7l6.4,3.7l-17.8,10.7L447.1,666.5z"/>
		</g>
		
			<linearGradient id="SVGID_47_" gradientUnits="userSpaceOnUse" x1="349.5649" y1="602.5367" x2="350.7479" y2="601.4829" gradientTransform="matrix(91.2 0 0 -90.277 -31556.3984 55134.2266)">
			<stop  offset="0" style="stop-color:#FFEF91"/>
			<stop  offset="1" style="stop-color:#FCC71D"/>
		</linearGradient>
		<path class="st57" d="M429.5,837.7l-102.6-61.6v-40l102.6,61.6V837.7z"/>
		
			<linearGradient id="SVGID_48_" gradientUnits="userSpaceOnUse" x1="349.6586" y1="602.2224" x2="350.7672" y2="601.8369" gradientTransform="matrix(89.6 0 0 -90.276 -30906.002 55133.6289)">
			<stop  offset="0" style="stop-color:#FFDB02"/>
			<stop  offset="1" style="stop-color:#FCC71D"/>
		</linearGradient>
		<path class="st58" d="M428.6,837.7l100.8-60.8v-40.8l-100.8,60.8V837.7z"/>
	</g>
</g>
</svg>
