<?xml version="1.0" encoding="utf-8"?>
<!-- Generator: Adobe Illustrator 22.1.0, SVG Export Plug-In . SVG Version: 6.00 Build 0)  -->
<svg version="1.0" id="Layer_1" xmlns="http://www.w3.org/2000/svg" xmlns:xlink="http://www.w3.org/1999/xlink" x="0px" y="0px"
	 viewBox="0 0 24 40" style="enable-background:new 0 0 24 40;" xml:space="preserve">
<g transform="translate(3 4)">
	<path d="M-1,8h14c1.1,0,2,0.9,2,2v8c0,1.1-0.9,2-2,2H-1c-1.1,0-2-0.9-2-2v-8C-3,8.9-2.1,8-1,8z"/>
	<path d="M2,22h8c0.6,0,1,0.4,1,1l0,0c0,0.6-0.4,1-1,1H2c-0.6,0-1-0.4-1-1l0,0C1,22.4,1.4,22,2,22z"/>
</g>
</svg>
