<?xml version="1.0" encoding="utf-8"?>
<!-- Generator: Adobe Illustrator 22.1.0, SVG Export Plug-In . SVG Version: 6.00 Build 0)  -->
<svg version="1.0" id="Layer_1" xmlns="http://www.w3.org/2000/svg" xmlns:xlink="http://www.w3.org/1999/xlink" x="0px" y="0px"
	 viewBox="0 0 140 70" style="enable-background:new 0 0 140 70;" xml:space="preserve">
<style type="text/css">
	.st0{fill:#FFFFFF;}
</style>
<title>лого_айгудс</title>
<desc>Created with Sketch.</desc>
<g id="лого_айгудс">
	<g id="preloud-2_3" transform="translate(8.000000, 22.000000)">
		<path id="Fill-7" class="st0" d="M19.8,15.1c-1.5,0-2.6-1.2-2.6-2.6c0-1.5,1.2-2.6,2.6-2.6c1.5,0,2.6,1.2,2.6,2.6
			C22.5,13.8,21.3,15.1,19.8,15.1 M25.7,9.1l1.4-1.4l-2.8-2.8l-1.5,1.5C21.9,6,21,5.8,19.9,5.8c-3.6,0-6.6,2.9-6.6,6.6
			c0,3.6,3,6.6,6.6,6.6c0.9,0,1.8-0.2,2.6-0.5v1.7c0,1.5-1.2,2.7-2.7,2.7c-1.3,0-2.3-0.9-2.6-2.1l-3,3c1.2,1.9,3.3,3.1,5.6,3.1
			c3.7,0,6.7-3,6.7-6.8c0,0,0-4.2,0-7.7C26.5,11.2,26.2,10.1,25.7,9.1"/>
		<path id="Fill-9" class="st0" d="M101.1,10.1c-1.5,0-2.6,1.2-2.6,2.6c0,1.5,1.2,2.6,2.6,2.6c1.5,0,2.6-1.2,2.6-2.6
			C103.8,11.3,102.6,10.1,101.1,10.1 M103.7,6.7v-5h4.1c0,3.6,0,7.5,0,11c0,3.6-3,6.6-6.6,6.6s-6.6-2.9-6.6-6.6c0-3.6,3-6.6,6.6-6.6
			C102,6.2,102.9,6.3,103.7,6.7"/>
		<path id="Fill-11" class="st0" d="M114.6,7.9C114.7,7.9,114.7,7.9,114.6,7.9L114.6,7.9L114.6,7.9c1.4,0.2,2.6,0.8,3.5,1.6
			c1,1,1.7,2.5,1.7,4.1s-0.6,3-1.7,4.1c-1,1-2.5,1.7-4.1,1.7s-3-0.6-4.1-1.7c-0.3-0.3-0.6-0.6-0.8-1l3.1-3.1l0,0l0,0l0,0
			c0,0.5,0.2,0.9,0.5,1.3c0.3,0.3,0.8,0.5,1.3,0.5s0.9-0.2,1.3-0.5c0.3-0.3,0.5-0.8,0.5-1.3s-0.2-0.9-0.5-1.3
			c-0.3-0.3-0.6-0.4-1-0.5c-0.1,0-0.1,0-0.2,0H114l0,0l0,0l0,0l0,0c-1.2-0.2-2.2-0.7-3-1.5c-0.9-0.9-1.5-2.3-1.5-3.7
			s0.6-2.8,1.5-3.7c1-0.9,2.3-1.5,3.7-1.5c1.5,0,2.8,0.6,3.7,1.5c0.2,0.2,0.4,0.5,0.6,0.7l-3,3h-0.1c0-0.4-0.1-0.7-0.4-0.9
			c-0.2-0.2-0.5-0.4-0.9-0.4s-0.7,0.1-0.9,0.4c-0.2,0.2-0.4,0.5-0.4,0.9c0,0.3,0.1,0.7,0.4,0.9C114.1,7.7,114.3,7.8,114.6,7.9"/>
		<path id="Fill-13" class="st0" d="M6.9,2.4c0-0.7,0.2-1.2,0.7-1.7S8.7,0,9.3,0C10,0,10.6,0.2,11,0.7c0.5,0.5,0.7,1,0.7,1.7
			S11.5,3.6,11,4.1s-1,0.7-1.7,0.7S8.1,4.6,7.6,4.1C7.2,3.6,6.9,3,6.9,2.4"/>
		<polygon id="Fill-15" class="st0" points="11.4,6.4 11.4,18.9 7.4,18.9 7.4,10.3 5,10.3 5,6.4 10.7,6.4 		"/>
		<path class="st0" d="M60.5,1c-6.4,0-11.6,5.2-11.6,11.6c0,6.4,5.2,11.6,11.6,11.6S72.1,19,72.1,12.6C72.1,6.2,66.9,1,60.5,1z
			 M60.5,17.2c-2.6,0-4.7-2.1-4.7-4.6c0-2.6,2.1-4.6,4.7-4.6s4.7,2.1,4.7,4.6C65.2,15.2,63.1,17.2,60.5,17.2z"/>
		<path class="st0" d="M37.8,3c-5.3,0-9.6,4.3-9.6,9.6c0,5.3,4.3,9.6,9.6,9.6s9.6-4.3,9.6-9.6C47.4,7.3,43.1,3,37.8,3z M37.8,16.4
			c-2.1,0-3.9-1.7-3.9-3.8c0-2.1,1.8-3.8,3.9-3.8c2.1,0,3.8,1.7,3.8,3.8C41.6,14.7,39.9,16.4,37.8,16.4z"/>
		<path class="st0" d="M83.3,3c-5.3,0-9.6,4.3-9.6,9.6c0,5.3,4.3,9.6,9.6,9.6s9.6-4.3,9.6-9.6C92.9,7.3,88.6,3,83.3,3z M83.3,16.4
			c-2.1,0-3.9-1.7-3.9-3.8c0.1-2.1,1.8-3.8,3.9-3.8c2.1,0,3.9,1.7,3.9,3.8C87.2,14.7,85.5,16.4,83.3,16.4z"/>
	</g>
</g>
</svg>
