<?xml version="1.0" encoding="utf-8"?>
<!-- Generator: Adobe Illustrator 22.1.0, SVG Export Plug-In . SVG Version: 6.00 Build 0)  -->
<svg version="1.0" id="Layer_1" xmlns="http://www.w3.org/2000/svg" xmlns:xlink="http://www.w3.org/1999/xlink" x="0px" y="0px"
	 viewBox="0 0 140 70" style="enable-background:new 0 0 140 70;" xml:space="preserve">
<style type="text/css">
	.st0{fill:#FFFFFF;}
</style>
<title>лого_петрович</title>
<desc>Created with Sketch.</desc>
<g id="лого_петрович">
	<path id="petrovich" class="st0" d="M75.4,21.9c0.5,0,1-0.1,1-0.6c0-0.6-1.1-0.9-1.8-0.8c-0.9,0-1.7,0.5-1.7,1.1
		c0,0.5,0.6,0.5,1.3,0.5c0.2,0.5,0.4,0.8,0.6,0.8C75.2,22.8,75.3,22.4,75.4,21.9 M82.2,34.4c-0.1-1.3-0.8-2.3-1.1-2.3
		c-0.3,0,0,1.1,0.1,2.4c0.1,1.3,0,2.3,0.2,2.2C81.8,36.7,82.3,35.7,82.2,34.4 M81.7,23c0.8,0,1.7,0,1.7-0.5c0-0.6-1.4-0.9-2.4-0.9
		c-1.2,0-2.3,0.4-2.3,0.9c0,0.4,0.7,0.5,1.5,0.5c0.1,0.5,0.3,0.9,0.6,0.9C81.2,24,81.5,23.6,81.7,23 M85.1,28.1
		c0.3,0.3,0.4,0.6,0.5,0.5s0.1-0.5-0.2-0.8c-0.3-0.3-0.8-0.3-0.9-0.3C84.5,27.6,84.8,27.8,85.1,28.1 M84.4,30.1
		c-0.2-1-0.8-1.6-1-1.5s0.2,0.8,0.4,1.8c0.2,1,0.3,1.8,0.4,1.7C84.4,32,84.7,31.1,84.4,30.1 M77.8,36.8c-0.1,1.3-0.4,2.3-0.1,2.3
		s1-1,1.1-2.3s-0.5-2.4-0.7-2.4C77.7,34.4,77.9,35.5,77.8,36.8 M73.5,37.4c-0.5,1.6-0.8,2.8-0.4,2.8s1.3-1.2,1.8-2.8s0.4-3,0-3
		S74,35.8,73.5,37.4 M69.5,29.4c0.2,0.8,1.7,2,4.4,2.4c0.4,1.8,2.5,1.8,4.4,0.8c0.7-0.4,1.2-0.8,1.6-1.1c1.2-0.4,1.9-1,2.2-1.7
		c0.3-0.7,0.2-2-0.6-2.4c-0.3-0.2-0.6-0.2-1.1-0.3c-0.3,0-0.6,0.2-0.6,0.4c0,0.3,0.2,0.5,0.5,0.6c0.4,0,0.5,0.1,0.6,0.2
		c0.2,0.1,0.4,0.8,0.2,1.2c-0.1,0.3-0.4,0.5-0.8,0.8c0-0.1,0-0.2-0.1-0.3c-0.2-0.5-0.9-0.8-1-0.7c-0.2,0.1,0.1,0.5,0.3,1
		c0,0.1,0.1,0.2,0.1,0.3c-0.5,0.2-1.1,0.3-1.9,0.4c0-0.1,0-0.2,0-0.2c0-0.6-0.5-1.2-0.7-1.2s-0.1,0.6-0.1,1.2c0,0.1,0,0.2,0,0.3
		c-0.7,0-1.5,0-2.3-0.1c0-0.1,0-0.1,0.1-0.2c0.1-0.6,0-1.3-0.2-1.3s-0.4,0.5-0.6,1.2c0,0.1,0,0.2,0,0.2c-0.8-0.1-1.4-0.3-1.9-0.5
		c0.1-0.1,0.2-0.3,0.3-0.4c0.3-0.6,0.6-0.9,0.4-1s-0.8,0.1-1.1,0.7c-0.1,0.2-0.2,0.3-0.2,0.5c-0.6-0.3-0.9-0.7-0.9-0.8
		c-0.1-0.4,0.3-1.1,0.7-1.5c0.3-0.2,1.7-0.3,2.8,0.1c0.3,0.2,0.6,0.4,1.1,0.4c0.8,0.1,1.8,0,2.6-0.3c0.6-0.2,1.2-0.7,1.6-1.1
		c0.5-0.5-0.3-1-0.7-0.6c-1,0.9-2.1,1.1-2.9,1c-2-0.1-2.4-2.3-0.3-2.2c0.4,0,0.7,0.3,1.1,0.2c0.5-0.1,0.9-0.5,1-0.6
		c0.3-0.3,0-0.7-0.3-0.6c-0.3,0-0.5,0.2-0.9,0.1c-0.3-0.1-1-0.2-1.6-0.1c-0.9,0.1-1.7,0.6-1.8,1.5c0,0.3,0,0.5,0.2,1l0,0
		c-1-0.1-2.1-0.1-2.6,0.4C69.8,27.5,69.3,28.5,69.5,29.4 M70.3,35.8c-0.9,2.2-1.1,4.4-0.7,4.5c0.3,0.1,1.1-1.8,2-4.1
		c0.9-2.2,1.6-3.9,1.3-4.1C72.5,32,71.2,33.5,70.3,35.8 M68.1,33.3c-0.9,1.6-1.1,3.3-0.9,3.5c0.2,0.1,0.8-1.4,1.8-3
		c0.9-1.6,1.8-2.7,1.6-2.8C70.3,30.8,69,31.7,68.1,33.3 M68.3,28.1c0.6-0.2,1.2-0.3,1.1-0.5s-0.8-0.4-1.5-0.1
		c-0.6,0.2-0.9,0.9-0.8,1C67.2,28.7,67.7,28.4,68.3,28.1 M69.4,28.7c-0.2-0.2-1.3,0.1-2.3,1c-0.9,0.9-1.3,2.2-1.2,2.4
		c0.2,0.2,0.8-0.8,1.8-1.7C68.7,29.4,69.6,28.8,69.4,28.7 M89.6,23c0.3-0.9,0.7-2.2,0.3-3.9c-0.4-1.6-1.3-3.1-4.2-3.4
		c-0.8-1.1-3.5-2.9-7.5-2.5c-4.3-2.2-8.9-3.3-13.3-3.1c3.9,0.1,8.1,1.3,11.9,3.3c-0.5,0.1-0.9,0.2-1.4,0.4c-2.2,0.8-4.7,2.9-5.4,5.9
		c1.9-2.8,3.5-4.5,6.9-5.3c3.1-0.7,6.2,0.2,8,1.7c-0.7,0.9-1.5,1.6-3.8,2.2s-5,0.3-8.4-0.6c2.4,1.7,5,2.1,8.2,1.7
		c0.9-0.1,1.6-0.3,2.2-0.5c0.3,0.9,0.7,1.5,1.3,2.1c1.2,1.3,3.1,2.1,4,1.7c-0.6-0.1-1.4-0.3-2.2-1.1c-0.8-0.7-1.6-1.9-2-3.2
		c0.8-0.5,1.3-1,1.9-1.6c1.9,0.3,2.8,1.1,3.2,2.2c0.4,1.2,0.4,2.6,0.1,3.6c-0.1,0.5-0.3,0.7-0.4,1c-0.2-0.1-0.3-0.2-0.5-0.3
		c-1.1-0.3-1.8,0.7-1.4,1.2c0.3,0.4,1-0.3,1.3-0.1c0.4,0.3,0.5,1-0.3,1.6c-0.5,0.5-1.6,0.4-1.8,0.4c0,3.3-1.4,6.6-3.6,9.4
		c-0.4,0.5-0.9,1.1-1.5,1.6l0,0c-2.5,2.3-6.1,4.2-9.5,4c-3.1-0.2-4.6-2-5.3-4c-0.8-2.3-0.5-4.7-0.4-5.2c0.3-2.3,1.1-5.4,4.1-8.5
		c-1.8-0.2-1.4-2.4-0.3-2.3c0.5,0,0.6,0.8,1,0.5c0.6-0.4-0.4-1.3-1-1.4c-0.7-0.1-1.5,0.5-1.7,1.2c-0.3,0.8-0.2,1.8,0.3,2.4
		c-3.1,3.3-4.1,9.4-3.1,13.4c0,0.2,0.1,0.4,0.1,0.6c-2.3-0.2-4.3-0.7-5.7-3.1c-1.5-2.6-1.1-6.7-0.7-8.8c0.1-0.4,0-0.6-0.3-0.9
		c1.1-1.3,2.5-2.6,4-3.3c0.9-0.4,1.8-1.1,1.4-2.1c-0.6-1.5-2.3-1.7-3.5-1.3c0.6-1,3.1-4.8,1.7-5.7c-0.7-0.4-1.3-0.4-1.8,0.1
		c0-0.2,0-0.3,0-0.4c0-1.2-1.4-1.6-2.3-1c-0.1-0.5-0.4-0.7-0.8-1c-1.1-0.6-2.1,0.6-2.7,1.4v0.1c0-0.1-0.2-0.4-0.5-0.5
		c-0.4-0.1-0.7-0.1-1.2,0.2c-0.9,0.7-2.1,2.3-3.1,4.4c-1.6,3.3-1.9,5.7-2.3,9h-0.1c-0.6,0.1-0.9,0.6-1,1.3c-0.2,3,0.4,7.5,2.3,12.4
		c1.9,4.5,4,7.4,6.9,10.3c3.3,3.2,7.4,5.4,10.3,6.4c1-4.3,2.4-9.7,3.4-13.4c0.6,0.2,1.3,0.4,2,0.5c0.6,0.1,1.5,0.1,1.8,0.1
		c2-0.2,4.3-1.1,6.5-2.7c-0.3,1-2.9,11-4.1,16.9c4.5-0.3,8.6-2.1,11.7-5.3c2.5-2.6,4.1-5.9,4.6-9.5c-0.2-0.2-0.4-0.4-0.6-0.6
		c-2.7-2.6-8.5-3.3-9.4-3.4c0.2-0.2,0.5-0.5,0.7-0.7l0,0c2.4-2.5,4.3-5.9,4.9-9.9c1.2-0.4,1.9-1.2,2-2.1c5.5,9.4,5.3,20.4-1.3,27.2
		c-8.3,8.5-23.5,7.1-33.9-3.1c-5.6-5.5-8.7-12.4-9.1-19c0,7.2,3.1,14.8,9.1,20.8C65,61.8,80.7,63,89.5,54
		C96.9,46.1,96.8,33.1,89.6,23 M57.1,25c-2.1-0.2-6.4-0.1-8.6,0.1c0.2-3.2,1.1-6.5,2.2-8.8c0.8-1.6,1.3-2.6,2.2-3.6
		c0.3-0.4,0.8-0.3,0.5,0.4c-0.1,0.3-0.8,1.7-1,2.3c0,0.1-0.3,0.8-0.3,1.2s0.3,0.6,0.6,0.1c0.2-0.2,0.4-1,0.8-1.7
		c0.4-0.8,2.1-4.6,3.1-3.6c0.3,0.3-0.3,1.4-0.4,1.6c-0.4,0.9-1.7,4.1-1.8,4.6C54.3,18,54.6,18,54.8,18s0.4-0.4,0.5-0.5
		c0.7-1.3,2.1-6.1,3.5-5.6c0.4,0.1,0.4,0.7,0,1.6c-0.4,0.9-2.3,4.5-2.1,5.2c0,0.1,0.1,0.2,0.3,0.1c0.3-0.1,0.6-1,0.7-1.1
		c0.1-0.3,0.2-0.5,0.9-1.9c0.8-1.4,1.6-2.6,2.2-2.4c0.2,0.1,0.3,0.2,0.3,0.4c0,0.7-1,2.2-1.3,2.9c-0.5,1.2-1.4,2.7-1.6,3.4
		c-1.8,0.9-2.7,1.8-3,2.1c1.3-0.7,1.9-1,3.2-1.2c0,0,1-1.7,2.4-1.8c0.5,0,1.7,0.4,1.5,1.2c-0.1,0.3-0.6,0.5-0.9,0.6
		C60.3,21.4,58.4,23.2,57.1,25"/>
</g>
</svg>
