<?xml version="1.0" encoding="utf-8"?>
<!-- Generator: Adobe Illustrator 22.1.0, SVG Export Plug-In . SVG Version: 6.00 Build 0)  -->
<svg version="1.0" id="Layer_1" xmlns="http://www.w3.org/2000/svg" xmlns:xlink="http://www.w3.org/1999/xlink" x="0px" y="0px"
	 viewBox="0 0 24 40" style="enable-background:new 0 0 24 40;" xml:space="preserve">
<path d="M3.2,25c0,0.5,0.3,0.8,0.8,0.8h0.8v2.9C4.8,29.4,5.4,30,6,30s1.2-0.6,1.2-1.3v-2.9h1.6v2.9c0,0.7,0.6,1.3,1.2,1.3
	c0.6,0,1.2-0.6,1.2-1.3v-2.9H12c0.5,0,0.8-0.3,0.8-0.8v-8.3H3.2C3.2,16.7,3.2,25,3.2,25z M1.2,16.7c-0.6,0-1.2,0.6-1.2,1.3v5.8
	C0,24.4,0.6,25,1.2,25s1.2-0.6,1.2-1.2v-5.8C2.4,17.2,1.8,16.7,1.2,16.7z M14.8,16.7c-0.6,0-1.2,0.6-1.2,1.3v5.8
	c0,0.7,0.6,1.2,1.2,1.2c0.6,0,1.2-0.6,1.2-1.2v-5.8C16,17.2,15.4,16.7,14.8,16.7z M10.8,11.8l1-1.1c0.2-0.2,0.2-0.4,0-0.6
	c-0.1-0.2-0.4-0.2-0.5,0c0,0,0,0,0,0l-1.2,1.3C9.5,11,8.8,10.8,8,10.8S6.5,11,5.8,11.3l-1.1-1.2c-0.2-0.1-0.5-0.1-0.6,0
	c-0.1,0.2-0.1,0.5,0,0.7l1,1.1c-1.1,0.9-1.9,2.3-1.9,4h9.6C12.8,14.2,12,12.6,10.8,11.8L10.8,11.8z M6.4,14.1H5.6v-0.8h0.8V14.1z
	 M10.4,14.1H9.6v-0.8h0.8V14.1z"/>
</svg>
