<?xml version="1.0" encoding="utf-8"?>
<!-- Generator: Adobe Illustrator 22.1.0, SVG Export Plug-In . SVG Version: 6.00 Build 0)  -->
<svg version="1.1" id="Layer_1" xmlns="http://www.w3.org/2000/svg" xmlns:xlink="http://www.w3.org/1999/xlink" x="0px" y="0px"
	 viewBox="0 0 24 40" style="enable-background:new 0 0 24 40;" xml:space="preserve">
<path d="M12.3,20.1L10.9,26l-0.5-0.4c-0.2-0.2-0.2-0.4-0.2-0.6l3.1-9.1l-1.9,4c-0.1,0-0.2,0-0.3-0.1V14c2.5,0.1,5,1.2,6.8,2.9
	l-4.1,4C13.3,20.6,12.9,20.3,12.3,20.1z M21.1,24.6h-5.3c-0.1-1.3-0.7-2.4-1.6-3.3l4.1-3.9C20.1,19.3,21.1,21.9,21.1,24.6z M0,24.6
	c0-2.8,1.1-5.3,2.8-7.2l4.1,3.9c-0.9,0.9-1.5,2.1-1.6,3.3H0z M3.2,17c1.9-1.9,4.6-3,7.3-3v5.8c-1.2,0-2.3,0.4-3.2,1.1L3.2,17L3.2,17
	z"/>
</svg>
