<?xml version="1.0" encoding="utf-8"?>
<!-- Generator: Adobe Illustrator 22.1.0, SVG Export Plug-In . SVG Version: 6.00 Build 0)  -->
<svg version="1.0" id="Layer_1" xmlns="http://www.w3.org/2000/svg" xmlns:xlink="http://www.w3.org/1999/xlink" x="0px" y="0px"
	 viewBox="0 0 50 50" style="enable-background:new 0 0 50 50;" xml:space="preserve">
<path d="M15.1,35.5C7.7,41.7,1.7,45.2,0.3,44c-1.4-1.3,2.7-7.2,9.4-14.5c-0.7-1.5-1.1-3.1-1.1-4.7c0-6,4.9-10.8,10.9-10.8
	c1.8,0,3.5,0.4,5,1.2c7.7-6.5,13.6-10,15.2-9.1c1.6,0.9-2.4,7.3-9.3,15v0c-3,3.1-5.3,5.5-7.1,7.2C21.4,29.8,18.7,32.3,15.1,35.5
	C15,35.5,15.1,35.5,15.1,35.5z M30.3,23.6c0,0.4,0.1,0.7,0.1,1.1c0,6-4.9,10.8-10.9,10.8c-0.5,0-0.9,0-1.4-0.1c2.2-2,4.3-4,6.4-6.1
	C25.9,28,27.8,26.1,30.3,23.6L30.3,23.6z M12.9,33.3c-0.9-0.7-1.7-1.5-2.3-2.4c-2.9,3.4-4.5,5.9-4.1,6.4
	C6.8,37.7,9.4,36.1,12.9,33.3z M25.9,16c1,0.7,1.8,1.6,2.5,2.5c3.2-3.6,4.9-6.1,4.3-6.5C32.1,11.7,29.5,13.2,25.9,16L25.9,16z"/>
</svg>
