<?xml version="1.0" encoding="utf-8"?>
<!-- Generator: Adobe Illustrator 22.1.0, SVG Export Plug-In . SVG Version: 6.00 Build 0)  -->
<svg version="1.1" id="Layer_1" xmlns="http://www.w3.org/2000/svg" xmlns:xlink="http://www.w3.org/1999/xlink" x="0px" y="0px"
	 viewBox="0 0 24 40" style="enable-background:new 0 0 24 40;" xml:space="preserve">
<path d="M10,14.5c-0.8,0-1.5-0.7-1.5-1.5s0.7-1.5,1.5-1.5s1.5,0.7,1.5,1.5S10.8,14.5,10,14.5z M6,21.6c-0.8,0-1.5-0.7-1.5-1.5
	s0.7-1.5,1.5-1.5s1.4,0.7,1.4,1.5S6.9,21.6,6,21.6z M14,21.6c-0.8,0-1.5-0.7-1.5-1.5s0.7-1.5,1.5-1.5c0.8,0,1.5,0.7,1.5,1.5
	S14.8,21.6,14,21.6z M18.5,28.5c-0.8,0-1.5-0.7-1.5-1.5c0-0.8,0.7-1.5,1.5-1.5S20,26.1,20,27C20,27.8,19.3,28.5,18.5,28.5z M10,28.5
	c-0.8,0-1.5-0.7-1.5-1.5c0-0.8,0.7-1.5,1.5-1.5s1.5,0.7,1.5,1.5C11.5,27.8,10.8,28.5,10,28.5z M1.5,28.5C0.7,28.5,0,27.8,0,27
	c0-0.8,0.7-1.5,1.5-1.5s1.5,0.7,1.5,1.5C3.1,27.8,2.4,28.5,1.5,28.5z"/>
</svg>
