<?xml version="1.0" encoding="utf-8"?>
<!-- Generator: Adobe Illustrator 22.1.0, SVG Export Plug-In . SVG Version: 6.00 Build 0)  -->
<svg version="1.1" id="Layer_1" xmlns="http://www.w3.org/2000/svg" xmlns:xlink="http://www.w3.org/1999/xlink" x="0px" y="0px"
	 viewBox="0 0 24 40" style="enable-background:new 0 0 24 40;" xml:space="preserve">
<path d="M6.3,24.3c-3.1,2.6-5.6,4.1-6.2,3.6c-0.6-0.5,1.1-3,3.9-6.1c-0.3-0.6-0.5-1.3-0.5-2c0-2.5,2-4.5,4.6-4.5
	c0.8,0,1.5,0.2,2.1,0.5c3.2-2.7,5.7-4.2,6.4-3.8c0.7,0.4-1,3.1-3.9,6.3l0,0c-1.3,1.3-2.2,2.3-3,3C8.9,22,7.8,23,6.3,24.3
	C6.3,24.3,6.3,24.3,6.3,24.3z M12.7,19.4c0,0.2,0,0.3,0,0.5c0,2.5-2,4.5-4.6,4.5c-0.2,0-0.4,0-0.6,0c0.9-0.8,1.8-1.7,2.7-2.5
	C10.8,21.2,11.6,20.4,12.7,19.4L12.7,19.4z M5.4,23.4c-0.4-0.3-0.7-0.6-1-1c-1.2,1.4-1.9,2.5-1.7,2.7C2.8,25.3,3.9,24.6,5.4,23.4z
	 M10.8,16.2c0.4,0.3,0.8,0.7,1,1c1.3-1.5,2-2.5,1.8-2.7C13.4,14.4,12.3,15,10.8,16.2L10.8,16.2z"/>
</svg>
