<?xml version="1.0" encoding="utf-8"?>
<!-- Generator: Adobe Illustrator 22.1.0, SVG Export Plug-In . SVG Version: 6.00 Build 0)  -->
<svg version="1.0" id="Layer_1" xmlns="http://www.w3.org/2000/svg" xmlns:xlink="http://www.w3.org/1999/xlink" x="0px" y="0px"
	 viewBox="0 0 160 160" style="enable-background:new 0 0 160 160;" xml:space="preserve">
<style type="text/css">
	.st0{fill:#7C7C7B;}
	.st1{fill:#212121;}
	.st2{fill:#3A3A3A;}
</style>
<g>
	<path class="st0" d="M0.2,106.9l53.2,31.9v21.1L0.2,128C0.2,128,0.2,106.9,0.2,106.9z"/>
	<path class="st0" d="M0.2,128l53.2,31.9v-21.1L0.2,106.9L0.2,128z"/>
	<path class="st0" d="M0.2,128l53.2,31.9v-21.1L0.2,106.9L0.2,128z"/>
	<path class="st0" d="M106.6,106.9l-53.2,31.9v21.1l53.2-31.9V106.9z"/>
	<path class="st0" d="M53.4,138.7v21.1l53.2-31.9v-21.1L53.4,138.7z"/>
	<path class="st1" d="M53.4,138.7v21.1l53.2-31.9v-21.1L53.4,138.7z"/>
	<path class="st2" d="M0.2,106.9l53.2,31.9l53.2-31.9L53.4,75L0.2,106.9z"/>
	<path class="st2" d="M0.2,106.9l53.2,31.9l53.2-31.9L53.4,75L0.2,106.9z"/>
	<path class="st2" d="M29.4,89.4L0.2,106.9l53.2,31.9l53.2-31.9L77.3,89.4H29.4z"/>
	<path class="st0" d="M35.5,20.5L53.3,31v65.4L35.5,85.9V20.5z"/>
	<path class="st0" d="M35.5,86l17.8,10.5V31L35.5,20.5V86z"/>
	<path class="st0" d="M35.5,86l17.8,10.5V31L35.5,20.5V86z M71,20.5L53.2,31v65.4L71,85.9V20.5z"/>
	<path class="st0" d="M53.3,31v65.4l17.8-10.5V20.5L53.3,31z"/>
	<path class="st1" d="M53.3,31v65.4l17.8-10.5V20.5L53.3,31z"/>
	<path class="st2" d="M35.5,20.5L53.3,31l17.8-10.5L53.3,10L35.5,20.5z"/>
	<path class="st2" d="M35.5,20.5L53.3,31l17.8-10.5L53.3,10L35.5,20.5z"/>
	<path class="st2" d="M35.5,20.5L53.3,31l17.8-10.5L53.3,10L35.5,20.5z"/>
	<path class="st0" d="M53.3,52.2l17.8,10.5V107L53.3,96.5V52.2z"/>
	<path class="st0" d="M53.3,96.4l17.8,10.5V62.7L53.3,52.2V96.4z"/>
	<path class="st0" d="M53.3,96.4l17.8,10.5V62.7L53.3,52.2V96.4z M88.8,52.2L71,62.7V107l17.8-10.5V52.2z"/>
	<path class="st0" d="M71,62.7V107l17.8-10.5V52.2L71,62.7z"/>
	<path class="st1" d="M71,62.7V107l17.8-10.5V52.2L71,62.7z"/>
	<path class="st2" d="M53.3,52.2l17.8,10.5l17.8-10.5L71.1,41.7L53.3,52.2z"/>
	<path class="st2" d="M53.3,52.2l17.8,10.5l17.8-10.5L71.1,41.7L53.3,52.2z"/>
	<path class="st2" d="M53.3,52.2l17.8,10.5l17.8-10.5L71.1,41.7L53.3,52.2z"/>
	<path class="st0" d="M71,83.1l17.8,10.5v23.8L71,106.9V83.1z"/>
	<path class="st0" d="M71,107l17.8,10.5V93.7L71,83.1V107z"/>
	<path class="st0" d="M71,107l17.8,10.5V93.7L71,83.1V107z M106.6,83.1L88.8,93.6v23.8l17.8-10.5V83.1z"/>
	<path class="st0" d="M88.8,93.7v23.8l17.8-10.5V83.1L88.8,93.7z"/>
	<path class="st1" d="M88.8,93.7v23.8l17.8-10.5V83.1L88.8,93.7z"/>
	<path class="st2" d="M71,83.1l17.8,10.5l17.8-10.5L88.8,72.6L71,83.1z"/>
	<path class="st2" d="M71,83.1l17.8,10.5l17.8-10.5L88.8,72.6L71,83.1z"/>
	<path class="st2" d="M71,83.1l17.8,10.5l17.8-10.5L88.8,72.6L71,83.1z"/>
	<path class="st0" d="M88.8,117.5L35.5,86V20.5L53.3,31v21.2l17.8,10.5v20.4l17.8,10.5L88.8,117.5L88.8,117.5z"/>
	<path class="st1" d="M106.6,83.1L88.8,93.6v23.8l-17.7,10.8V93.5L53.3,104v55.8l17.8-10.5L94,135.5l12.6-7.4L106.6,83.1L106.6,83.1
		z M35.5,41.6l-17.8,9.1l-0.1,66.9l17.8-10.5L35.5,41.6z"/>
	<path class="st0" d="M53.2,104.1L35.4,93.6v34.8l-17.8-10.8l0.2-30.7V52.1L0,41.6v86.5l16.1,9.7l15,9l4.4,2.6L53.3,160L53.2,104.1z
		"/>
	<path class="st2" d="M71.1,93.5L53.3,104L35.6,93.5L53.4,83L71.1,93.5z M106.6,83.1L88.8,93.6L71,83.1l17.8-10.5L106.6,83.1z
		 M88.8,52.2L71,62.7L53.3,52.2l17.8-10.5L88.8,52.2z M71,20.5L53.2,31L35.4,20.5L53.3,10L71,20.5z M35.5,41.6L17.8,52.1L0,41.6
		l17.8-10.5L35.5,41.6z"/>
</g>
</svg>
