<?xml version="1.0" encoding="utf-8"?>
<!-- Generator: Adobe Illustrator 22.1.0, SVG Export Plug-In . SVG Version: 6.00 Build 0)  -->
<svg version="1.0" id="Layer_1" xmlns="http://www.w3.org/2000/svg" xmlns:xlink="http://www.w3.org/1999/xlink" x="0px" y="0px"
	 viewBox="0 0 160 160" style="enable-background:new 0 0 160 160;" xml:space="preserve">
<style type="text/css">
	.st0{fill:#7C7C7B;}
	.st1{fill:#212121;}
	.st2{fill:#4D4C4D;}
</style>
<g>
	<path class="st0" d="M0,123l20.9,12.6V60.2L0,47.7V123z"/>
	<path class="st1" d="M20.9,135.6l62.8-37.7V22.6L36,27.5L20.9,60.2V135.6z"/>
	<path class="st2" d="M62.8,10L0,47.7l20.9,12.6l62.8-37.7L62.8,10z"/>
	<path class="st0" d="M36.8,146l-10.1-6.1V64.6l10.1,6.1V146z"/>
	<path class="st1" d="M36.8,146l62.8-37.7V33L61.5,46.1L36.8,70.7L36.8,146z"/>
	<path class="st2" d="M89.5,26.9L99.6,33L36.8,70.7l-10.1-6.1L89.5,26.9z"/>
	<path class="st0" d="M56,104.4l-8.7-5.3V78.5l8.7,5.3V104.4z"/>
	<path class="st1" d="M56,104.4l62.8-37.7V46.1L82.2,60.2L56,83.8V104.4z"/>
	<path class="st2" d="M110,40.8l8.7,5.3L56,83.8l-8.7-5.3L110,40.8z"/>
	<path class="st0" d="M85.9,143.5l-8.7-5.3V97.5l8.7,5.3V143.5z"/>
	<path class="st1" d="M85.9,143.5l32.9-20.1V82.7l-22.9,5.4l-10,14.6V143.5z"/>
	<path class="st2" d="M110,77.4l8.7,5.3l-32.9,20.1l-8.7-5.3L110,77.4z"/>
	<path class="st0" d="M47.3,154.7L56,160v-40.8l-8.7-5.3V154.7z"/>
	<path class="st1" d="M61.8,107.8L56,119.2V160l23.4-13.8v-40.8L61.8,107.8z"/>
	<path class="st2" d="M70.7,100.1l8.7,5.3L56,119.2l-8.7-5.3L70.7,100.1z"/>
	<path class="st0" d="M108.1,78.9l-3.9-2.4V63.9l3.9,2.4V78.9z"/>
	<path class="st1" d="M115.8,58l-7.7,8.3v12.6l20.4-12.2V54.1L115.8,58z"/>
	<path class="st2" d="M104.2,63.9l3.9,2.4l20.4-12.2v0l-3.9-2.4L104.2,63.9z"/>
</g>
</svg>
